<svg version="1.1" viewBox="0.0 0.0 600.0 371.0" fill="none" stroke="none" stroke-linecap="square" stroke-miterlimit="10" xmlns:xlink="http://www.w3.org/1999/xlink" xmlns="http://www.w3.org/2000/svg"><path fill="#ffffff" d="M0 0L600.0 0L600.0 371.0L0 371.0L0 0Z" fill-rule="nonzero"/><path fill="#004561" d="M153.23431 206.2199C153.09167 167.20224 168.49141 129.73372 196.03076 102.093506C223.57011 74.453285 260.9821 58.916668 300.0 58.916668L300.0 205.68333Z" fill-rule="nonzero"/><path fill="#5891ad" d="M300.0 58.916668C380.98715 58.916668 446.66788 124.51739 446.76657 205.50449C446.86526 286.49158 381.3446 352.25217 300.3577 352.44955C219.37079 352.64694 153.5304 287.2065 153.23431 206.2199L300.0 205.68333Z" fill-rule="nonzero"/><path fill="#ffffff" d="M362.44943 285.38498L363.96506 285.24435Q364.16818 286.32248 364.69943 286.80685Q365.2463 287.29123 366.10568 287.29123Q366.84006 287.29123 367.38693 286.9631Q367.9338 286.61935 368.27756 286.07248Q368.63693 285.50998 368.8713 284.55685Q369.10568 283.60373 369.10568 282.61935Q369.10568 282.50998 369.10568 282.30685Q368.6213 283.05685 367.79318 283.5256Q366.98068 283.99435 366.02756 283.99435Q364.4338 283.99435 363.32443 282.8381Q362.21506 281.68185 362.21506 279.7756Q362.21506 277.82248 363.3713 276.63498Q364.52756 275.43185 366.26193 275.43185Q367.52756 275.43185 368.5588 276.11935Q369.60568 276.79123 370.13693 278.04123Q370.6838 279.29123 370.6838 281.66623Q370.6838 284.13498 370.13693 285.60373Q369.60568 287.05685 368.54318 287.82248Q367.4963 288.5881 366.07443 288.5881Q364.5588 288.5881 363.59006 287.75998Q362.63693 286.91623 362.44943 285.38498ZM368.9338 279.69748Q368.9338 278.3381 368.19943 277.54123Q367.48068 276.74435 366.46506 276.74435Q365.40256 276.74435 364.6213 277.60373Q363.84006 278.4631 363.84006 279.8381Q363.84006 281.07248 364.57443 281.8381Q365.32443 282.60373 366.41818 282.60373Q367.51193 282.60373 368.21506 281.8381Q368.9338 281.07248 368.9338 279.69748ZM380.41818 278.63498L378.85568 278.75998Q378.63693 277.8381 378.2463 277.41623Q377.60568 276.72873 376.66818 276.72873Q375.91818 276.72873 375.34006 277.1506Q374.59006 277.69748 374.15256 278.74435Q373.73068 279.79123 373.71506 281.72873Q374.29318 280.85373 375.10568 280.43185Q375.9338 280.00998 376.84006 280.00998Q378.4338 280.00998 379.54318 281.18185Q380.65256 282.3381 380.65256 284.18185Q380.65256 285.4006 380.1213 286.44748Q379.60568 287.47873 378.6838 288.04123Q377.77756 288.5881 376.6213 288.5881Q374.63693 288.5881 373.38693 287.13498Q372.13693 285.68185 372.13693 282.3381Q372.13693 278.60373 373.52756 276.9006Q374.73068 275.43185 376.76193 275.43185Q378.29318 275.43185 379.26193 276.29123Q380.23068 277.13498 380.41818 278.63498ZM373.96506 284.19748Q373.96506 285.00998 374.3088 285.75998Q374.65256 286.50998 375.27756 286.9006Q375.90256 287.29123 376.59006 287.29123Q377.59006 287.29123 378.3088 286.47873Q379.02756 285.66623 379.02756 284.2756Q379.02756 282.94748 378.3088 282.18185Q377.60568 281.4006 376.52756 281.4006Q375.44943 281.4006 374.69943 282.18185Q373.96506 282.94748 373.96506 284.19748ZM390.41818 278.63498L388.85568 278.75998Q388.63693 277.8381 388.2463 277.41623Q387.60568 276.72873 386.66818 276.72873Q385.91818 276.72873 385.34006 277.1506Q384.59006 277.69748 384.15256 278.74435Q383.73068 279.79123 383.71506 281.72873Q384.29318 280.85373 385.10568 280.43185Q385.9338 280.00998 386.84006 280.00998Q388.4338 280.00998 389.54318 281.18185Q390.65256 282.3381 390.65256 284.18185Q390.65256 285.4006 390.1213 286.44748Q389.60568 287.47873 388.6838 288.04123Q387.77756 288.5881 386.6213 288.5881Q384.63693 288.5881 383.38693 287.13498Q382.13693 285.68185 382.13693 282.3381Q382.13693 278.60373 383.52756 276.9006Q384.73068 275.43185 386.76193 275.43185Q388.29318 275.43185 389.26193 276.29123Q390.23068 277.13498 390.41818 278.63498ZM383.96506 284.19748Q383.96506 285.00998 384.3088 285.75998Q384.65256 286.50998 385.27756 286.9006Q385.90256 287.29123 386.59006 287.29123Q387.59006 287.29123 388.3088 286.47873Q389.02756 285.66623 389.02756 284.2756Q389.02756 282.94748 388.3088 282.18185Q387.60568 281.4006 386.52756 281.4006Q385.44943 281.4006 384.69943 282.18185Q383.96506 282.94748 383.96506 284.19748Z" fill-rule="nonzero"/><path fill="#ffffff" d="M209.28496 132.59108L210.87871 132.38795Q211.14433 133.7317 211.80058 134.32545Q212.45683 134.9192 213.39433 134.9192Q214.51933 134.9192 215.28496 134.15358Q216.05058 133.37233 216.05058 132.2317Q216.05058 131.13795 215.33183 130.43483Q214.62871 129.71608 213.53496 129.71608Q213.08183 129.71608 212.40996 129.90358L212.58183 128.51295Q212.73808 128.52858 212.84746 128.52858Q213.84746 128.52858 214.65996 127.99733Q215.47246 127.46608 215.47246 126.37233Q215.47246 125.49733 214.87871 124.93483Q214.28496 124.356705 213.36308 124.356705Q212.44121 124.356705 211.81621 124.93483Q211.20683 125.512955 211.03496 126.68483L209.45683 126.40358Q209.73808 124.80983 210.76933 123.93483Q211.80058 123.05983 213.33183 123.05983Q214.37871 123.05983 215.26933 123.512955Q216.15996 123.96608 216.62871 124.74733Q217.09746 125.52858 217.09746 126.40358Q217.09746 127.24733 216.64433 127.93483Q216.20683 128.6067 215.31621 129.01295Q216.45683 129.27858 217.08183 130.12233Q217.72246 130.95045 217.72246 132.18483Q217.72246 133.87233 216.48808 135.05983Q215.26933 136.2317 213.39433 136.2317Q211.69121 136.2317 210.56621 135.21608Q209.45683 134.20045 209.28496 132.59108ZM227.59746 134.4817L227.59746 135.99733L219.08183 135.99733Q219.06621 135.4192 219.26933 134.90358Q219.59746 134.02858 220.30058 133.18483Q221.01933 132.34108 222.37871 131.2317Q224.47246 129.51295 225.20683 128.51295Q225.95683 127.49733 225.95683 126.606705Q225.95683 125.65358 225.28496 125.012955Q224.61308 124.37233 223.53496 124.37233Q222.37871 124.37233 221.69121 125.05983Q221.01933 125.74733 221.00371 126.950455L219.37871 126.77858Q219.55058 124.96608 220.62871 124.012955Q221.72246 123.05983 223.56621 123.05983Q225.40996 123.05983 226.48808 124.09108Q227.58183 125.12233 227.58183 126.637955Q227.58183 127.40358 227.25371 128.15358Q226.94121 128.90358 226.20683 129.7317Q225.47246 130.55983 223.76933 131.99733Q222.34746 133.20045 221.94121 133.62233Q221.53496 134.0442 221.28496 134.4817L227.59746 134.4817ZM229.28496 132.59108L230.87871 132.38795Q231.14433 133.7317 231.80058 134.32545Q232.45683 134.9192 233.39433 134.9192Q234.51933 134.9192 235.28496 134.15358Q236.05058 133.37233 236.05058 132.2317Q236.05058 131.13795 235.33183 130.43483Q234.62871 129.71608 233.53496 129.71608Q233.08183 129.71608 232.40996 129.90358L232.58183 128.51295Q232.73808 128.52858 232.84746 128.52858Q233.84746 128.52858 234.65996 127.99733Q235.47246 127.46608 235.47246 126.37233Q235.47246 125.49733 234.87871 124.93483Q234.28496 124.356705 233.36308 124.356705Q232.44121 124.356705 231.81621 124.93483Q231.20683 125.512955 231.03496 126.68483L229.45683 126.40358Q229.73808 124.80983 230.76933 123.93483Q231.80058 123.05983 233.33183 123.05983Q234.37871 123.05983 235.26933 123.512955Q236.15996 123.96608 236.62871 124.74733Q237.09746 125.52858 237.09746 126.40358Q237.09746 127.24733 236.64433 127.93483Q236.20683 128.6067 235.31621 129.01295Q236.45683 129.27858 237.08183 130.12233Q237.72246 130.95045 237.72246 132.18483Q237.72246 133.87233 236.48808 135.05983Q235.26933 136.2317 233.39433 136.2317Q231.69121 136.2317 230.56621 135.21608Q229.45683 134.20045 229.28496 132.59108Z" fill-rule="nonzero"/><path fill="#1a1a1a" d="M20.33125 99.772995L20.33125 82.585495L23.753124 82.585495L27.815624 94.75737Q28.378124 96.460495 28.64375 97.304245Q28.940624 96.366745 29.55 94.53862L33.675 82.585495L36.721874 82.585495L36.721874 99.772995L34.534374 99.772995L34.534374 85.397995L29.55 99.772995L27.4875 99.772995L22.51875 85.147995L22.51875 99.772995L20.33125 99.772995ZM38.346874 93.554245Q38.346874 90.085495 40.26875 88.429245Q41.878124 87.03862 44.190624 87.03862Q46.753124 87.03862 48.378124 88.72612Q50.003124 90.41362 50.003124 93.366745Q50.003124 95.772995 49.284374 97.147995Q48.565624 98.522995 47.190624 99.28862Q45.815624 100.054245 44.190624 100.054245Q41.565624 100.054245 39.95625 98.38237Q38.346874 96.69487 38.346874 93.554245ZM40.51875 93.554245Q40.51875 95.94487 41.55 97.13237Q42.596874 98.31987 44.190624 98.31987Q45.753124 98.31987 46.8 97.13237Q47.846874 95.929245 47.846874 93.47612Q47.846874 91.16362 46.784374 89.97612Q45.7375 88.78862 44.190624 88.78862Q42.596874 88.78862 41.55 89.97612Q40.51875 91.16362 40.51875 93.554245ZM60.20625 99.772995L60.20625 98.19487Q59.01875 100.054245 56.721874 100.054245Q55.2375 100.054245 53.9875 99.241745Q52.7375 98.41362 52.05 96.94487Q51.378124 95.47612 51.378124 93.554245Q51.378124 91.69487 51.9875 90.179245Q52.6125 88.66362 53.846874 87.85112Q55.096874 87.03862 56.628124 87.03862Q57.753124 87.03862 58.628124 87.522995Q59.51875 87.991745 60.065624 88.75737L60.065624 82.585495L62.159374 82.585495L62.159374 99.772995L60.20625 99.772995ZM53.534374 93.554245Q53.534374 95.94487 54.534374 97.13237Q55.55 98.31987 56.925 98.31987Q58.315624 98.31987 59.26875 97.19487Q60.2375 96.054245 60.2375 93.741745Q60.2375 91.179245 59.253124 89.991745Q58.26875 88.78862 56.83125 88.78862Q55.425 88.78862 54.471874 89.94487Q53.534374 91.085495 53.534374 93.554245ZM74.28438 99.772995L74.28438 97.94487Q72.83125 100.054245 70.34688 100.054245Q69.2375 100.054245 68.28438 99.63237Q67.33125 99.210495 66.8625 98.56987Q66.40938 97.929245 66.22188 97.00737Q66.08125 96.38237 66.08125 95.03862L66.08125 87.31987L68.19063 87.31987L68.19063 94.22612Q68.19063 95.88237 68.33125 96.460495Q68.51875 97.28862 69.15938 97.772995Q69.81563 98.241745 70.76875 98.241745Q71.70625 98.241745 72.53438 97.75737Q73.37813 97.25737 73.72188 96.429245Q74.06563 95.585495 74.06563 93.991745L74.06563 87.31987L76.175 87.31987L76.175 99.772995L74.28438 99.772995ZM80.08125 99.772995L80.08125 82.585495L82.19063 82.585495L82.19063 99.772995L80.08125 99.772995ZM94.28438 99.772995L94.28438 97.94487Q92.83125 100.054245 90.34688 100.054245Q89.2375 100.054245 88.28438 99.63237Q87.33125 99.210495 86.8625 98.56987Q86.40938 97.929245 86.22188 97.00737Q86.08125 96.38237 86.08125 95.03862L86.08125 87.31987L88.19063 87.31987L88.19063 94.22612Q88.19063 95.88237 88.33125 96.460495Q88.51875 97.28862 89.15938 97.772995Q89.81563 98.241745 90.76875 98.241745Q91.70625 98.241745 92.53438 97.75737Q93.37813 97.25737 93.72188 96.429245Q94.06563 95.585495 94.06563 93.991745L94.06563 87.31987L96.175 87.31987L96.175 99.772995L94.28438 99.772995ZM99.28438 96.054245L101.37813 95.72612Q101.55 96.97612 102.34688 97.647995Q103.15938 98.31987 104.59688 98.31987Q106.05 98.31987 106.75313 97.72612Q107.45625 97.13237 107.45625 96.335495Q107.45625 95.616745 106.83125 95.210495Q106.40938 94.929245 104.675 94.491745Q102.3625 93.91362 101.45625 93.491745Q100.56563 93.054245 100.09688 92.304245Q99.64375 91.53862 99.64375 90.63237Q99.64375 89.804245 100.01875 89.10112Q100.40938 88.38237 101.06563 87.91362Q101.55 87.554245 102.39375 87.304245Q103.25313 87.03862 104.22188 87.03862Q105.69063 87.03862 106.8 87.460495Q107.90938 87.88237 108.425 88.616745Q108.95625 89.335495 109.15938 90.53862L107.09688 90.81987Q106.95625 89.85112 106.28438 89.31987Q105.6125 88.772995 104.37813 88.772995Q102.925 88.772995 102.3 89.25737Q101.675 89.741745 101.675 90.38237Q101.675 90.78862 101.94063 91.116745Q102.19063 91.460495 102.75313 91.679245Q103.06563 91.804245 104.6125 92.22612Q106.84688 92.81987 107.72188 93.210495Q108.6125 93.585495 109.1125 94.31987Q109.62813 95.03862 109.62813 96.116745Q109.62813 97.16362 109.00313 98.10112Q108.39375 99.03862 107.2375 99.554245Q106.08125 100.054245 104.6125 100.054245Q102.19063 100.054245 100.90938 99.054245Q99.64375 98.03862 99.28438 96.054245Z" fill-rule="nonzero"/><path fill="#9e9e9e" d="M30.628124 128.74174L30.628124 130.773L19.284374 130.773Q19.253124 130.00737 19.51875 129.30424Q19.95625 128.148 20.909374 127.022995Q21.8625 125.897995 23.675 124.41362Q26.471874 122.116745 27.45625 120.78862Q28.440624 119.44487 28.440624 118.241745Q28.440624 116.991745 27.534374 116.13237Q26.64375 115.272995 25.20625 115.272995Q23.690624 115.272995 22.76875 116.19487Q21.8625 117.10112 21.846874 118.710495L19.675 118.491745Q19.89375 116.06987 21.346874 114.804245Q22.8 113.522995 25.253124 113.522995Q27.721874 113.522995 29.159374 114.897995Q30.6125 116.25737 30.6125 118.28862Q30.6125 119.31987 30.190624 120.31987Q29.76875 121.31987 28.784374 122.429245Q27.815624 123.522995 25.534374 125.44487Q23.64375 127.03862 23.096874 127.60112Q22.565624 128.16362 22.20625 128.74174L30.628124 128.74174ZM32.55 126.272995L34.76875 126.085495Q35.003124 127.69487 35.89375 128.523Q36.8 129.3355 38.065624 129.3355Q39.596874 129.3355 40.64375 128.19487Q41.70625 127.03862 41.70625 125.13237Q41.70625 123.335495 40.690624 122.28862Q39.675 121.241745 38.034374 121.241745Q37.01875 121.241745 36.190624 121.710495Q35.378124 122.16362 34.909374 122.91362L32.925 122.647995L34.58125 113.81987L43.128124 113.81987L43.128124 115.835495L36.26875 115.835495L35.346874 120.460495Q36.89375 119.38237 38.596874 119.38237Q40.846874 119.38237 42.39375 120.94487Q43.940624 122.491745 43.940624 124.94487Q43.940624 127.272995 42.58125 128.97612Q40.925 131.06987 38.065624 131.06987Q35.721874 131.06987 34.2375 129.75737Q32.753124 128.44487 32.55 126.272995ZM46.7375 130.773L46.7375 128.36674L49.128124 128.36674L49.128124 130.773L46.7375 130.773ZM60.4875 130.773L58.378124 130.773L58.378124 117.335495Q57.628124 118.054245 56.378124 118.78862Q55.14375 119.50737 54.159374 119.866745L54.159374 117.835495Q55.940624 117.00737 57.253124 115.81987Q58.58125 114.63237 59.128124 113.522995L60.4875 113.522995L60.4875 130.773ZM65.94063 117.710495Q65.94063 115.88237 66.8625 114.60112Q67.8 113.304245 69.55 113.304245Q71.175 113.304245 72.2375 114.460495Q73.3 115.60112 73.3 117.85112Q73.3 120.022995 72.22188 121.210495Q71.14375 122.38237 69.58125 122.38237Q68.01875 122.38237 66.97188 121.22612Q65.94063 120.054245 65.94063 117.710495ZM69.6125 114.75737Q68.83125 114.75737 68.3 115.44487Q67.78438 116.116745 67.78438 117.929245Q67.78438 119.585495 68.31563 120.25737Q68.84688 120.929245 69.6125 120.929245Q70.40938 120.929245 70.925 120.25737Q71.45625 119.56987 71.45625 117.75737Q71.45625 116.10112 70.925 115.429245Q70.39375 114.75737 69.6125 114.75737ZM69.62813 131.41362L79.01875 113.304245L80.7375 113.304245L71.37813 131.41362L69.62813 131.41362ZM77.05 126.741745Q77.05 124.88237 77.97188 123.60112Q78.90938 122.31987 80.675 122.31987Q82.3 122.31987 83.34688 123.47612Q84.40938 124.63237 84.40938 126.866745Q84.40938 129.05424 83.33125 130.24174Q82.26875 131.41362 80.69063 131.41362Q79.12813 131.41362 78.08125 130.24174Q77.05 129.06987 77.05 126.741745ZM80.7375 123.772995Q79.94063 123.772995 79.40938 124.460495Q78.89375 125.13237 78.89375 126.94487Q78.89375 128.5855 79.425 129.273Q79.95625 129.94487 80.72188 129.94487Q81.53438 129.94487 82.05 129.273Q82.58125 128.5855 82.58125 126.78862Q82.58125 125.116745 82.05 124.44487Q81.51875 123.772995 80.7375 123.772995Z" fill-rule="nonzero"/><path stroke="#757575" stroke-width="1.0" stroke-linecap="butt" d="M18.55 107.272995L147.23334 107.272995L201.22923 107.272995" fill-rule="nonzero"/><path fill="#9e9e9e" d="M203.22923 107.272995C203.22923 106.16843 202.3338 105.272995 201.22923 105.272995C200.12466 105.272995 199.22923 106.16843 199.22923 107.272995C199.22923 108.37756 200.12466 109.272995 201.22923 109.272995C202.3338 109.272995 203.22923 108.37756 203.22923 107.272995" fill-rule="nonzero"/><path fill="#1a1a1a" d="M512.34064 296.59366L512.34064 279.40616L519.95 279.40616Q522.2469 279.40616 523.4344 279.8749Q524.6375 280.34366 525.35626 281.51553Q526.075 282.6874 526.075 284.09366Q526.075 285.92178 524.8875 287.1874Q523.7 288.4374 521.23126 288.78116Q522.1375 289.20303 522.60626 289.6249Q523.60626 290.54678 524.4969 291.92178L527.48126 296.59366L524.6219 296.59366L522.34064 293.01553Q521.35626 291.46866 520.7 290.65616Q520.0594 289.82803 519.54376 289.4999Q519.04376 289.17178 518.5125 289.04678Q518.1219 288.96866 517.2469 288.96866L514.60626 288.96866L514.60626 296.59366L512.34064 296.59366ZM514.60626 286.9999L519.4969 286.9999Q521.0594 286.9999 521.9344 286.67178Q522.8094 286.34366 523.2625 285.64053Q523.73126 284.9374 523.73126 284.09366Q523.73126 282.8749 522.84064 282.09366Q521.96564 281.3124 520.04376 281.3124L514.60626 281.3124L514.60626 286.9999ZM537.15314 295.0624Q535.98126 296.04678 534.8875 296.46866Q533.8094 296.8749 532.575 296.8749Q530.52814 296.8749 529.41876 295.8749Q528.325 294.8749 528.325 293.3124Q528.325 292.39053 528.73126 291.64053Q529.15314 290.89053 529.825 290.4374Q530.4969 289.96866 531.34064 289.73428Q531.96564 289.57803 533.21564 289.42178Q535.77814 289.10928 536.98126 288.6874Q536.9969 288.26553 536.9969 288.14053Q536.9969 286.85928 536.3875 286.32803Q535.59064 285.60928 533.9969 285.60928Q532.4969 285.60928 531.79376 286.14053Q531.09064 286.65616 530.7469 287.98428L528.6844 287.70303Q528.96564 286.3749 529.60626 285.5624Q530.2469 284.7499 531.46564 284.3124Q532.6844 283.85928 534.29376 283.85928Q535.8875 283.85928 536.8875 284.23428Q537.8875 284.60928 538.35626 285.1874Q538.825 285.7499 539.0125 286.6249Q539.10626 287.15616 539.10626 288.5624L539.10626 291.3749Q539.10626 294.3124 539.2469 295.09366Q539.3875 295.8749 539.77814 296.59366L537.575 296.59366Q537.2469 295.9374 537.15314 295.0624ZM536.98126 290.34366Q535.825 290.8124 533.52814 291.14053Q532.23126 291.32803 531.6844 291.5624Q531.15314 291.79678 530.85626 292.2499Q530.575 292.70303 530.575 293.2499Q530.575 294.09366 531.2 294.65616Q531.84064 295.21866 533.075 295.21866Q534.29376 295.21866 535.2469 294.6874Q536.2 294.15616 536.6375 293.23428Q536.98126 292.51553 536.98126 291.1249L536.98126 290.34366ZM542.02814 296.59366L542.02814 284.14053L543.9344 284.14053L543.9344 285.92178Q545.3094 283.85928 547.8875 283.85928Q549.0125 283.85928 549.95 284.26553Q550.90314 284.67178 551.3719 285.32803Q551.84064 285.98428 552.02814 286.89053Q552.15314 287.46866 552.15314 288.9374L552.15314 296.59366L550.04376 296.59366L550.04376 289.01553Q550.04376 287.73428 549.79376 287.09366Q549.54376 286.45303 548.91876 286.07803Q548.29376 285.6874 547.45 285.6874Q546.10626 285.6874 545.1219 286.54678Q544.1375 287.40616 544.1375 289.79678L544.1375 296.59366L542.02814 296.59366ZM555.65314 297.6249L557.7 297.9374Q557.825 298.8749 558.41876 299.3124Q559.2 299.90616 560.5594 299.90616Q562.02814 299.90616 562.825 299.3124Q563.6219 298.73428 563.90314 297.67178Q564.0594 297.03116 564.04376 294.96866Q562.66876 296.59366 560.60626 296.59366Q558.04376 296.59366 556.6375 294.7499Q555.23126 292.89053 555.23126 290.29678Q555.23126 288.51553 555.8719 287.01553Q556.5125 285.4999 557.73126 284.6874Q558.96564 283.85928 560.6219 283.85928Q562.825 283.85928 564.2469 285.64053L564.2469 284.14053L566.2 284.14053L566.2 294.90616Q566.2 297.8124 565.60626 299.01553Q565.0125 300.23428 563.73126 300.9374Q562.45 301.64053 560.575 301.64053Q558.34064 301.64053 556.96564 300.64053Q555.60626 299.64053 555.65314 297.6249ZM557.3875 290.14053Q557.3875 292.59366 558.35626 293.71866Q559.34064 294.84366 560.8094 294.84366Q562.2625 294.84366 563.2469 293.73428Q564.23126 292.60928 564.23126 290.21866Q564.23126 287.9374 563.21564 286.78116Q562.2 285.60928 560.7625 285.60928Q559.35626 285.60928 558.3719 286.7499Q557.3875 287.89053 557.3875 290.14053ZM578.5594 292.57803L580.73126 292.85928Q580.21564 294.76553 578.825 295.82803Q577.4344 296.8749 575.2625 296.8749Q572.52814 296.8749 570.91876 295.20303Q569.325 293.51553 569.325 290.46866Q569.325 287.32803 570.9344 285.59366Q572.5594 283.85928 575.1375 283.85928Q577.6375 283.85928 579.21564 285.5624Q580.8094 287.26553 580.8094 290.34366Q580.8094 290.53116 580.79376 290.90616L571.5125 290.90616Q571.6219 292.95303 572.66876 294.04678Q573.71564 295.14053 575.27814 295.14053Q576.4344 295.14053 577.2469 294.53116Q578.075 293.92178 578.5594 292.57803ZM571.6219 289.17178L578.575 289.17178Q578.4344 287.60928 577.77814 286.8124Q576.77814 285.59366 575.16876 285.59366Q573.71564 285.59366 572.71564 286.57803Q571.73126 287.54678 571.6219 289.17178Z" fill-rule="nonzero"/><path fill="#9e9e9e" d="M515.59064 312.65616L515.59064 310.64053L526.71564 310.64053L526.71564 312.28116Q525.075 314.01553 523.45 316.92178Q521.84064 319.8124 520.96564 322.8749Q520.34064 325.03116 520.15314 327.59366L517.9969 327.59366Q518.02814 325.5624 518.77814 322.70303Q519.54376 319.82803 520.96564 317.15616Q522.40314 314.48428 523.9969 312.65616L515.59064 312.65616ZM535.21564 327.59366L535.21564 323.48428L527.7625 323.48428L527.7625 321.54678L535.59064 310.40616L537.325 310.40616L537.325 321.54678L539.6375 321.54678L539.6375 323.48428L537.325 323.48428L537.325 327.59366L535.21564 327.59366ZM535.21564 321.54678L535.21564 313.79678L529.825 321.54678L535.21564 321.54678ZM542.6375 327.59366L542.6375 325.1874L545.02814 325.1874L545.02814 327.59366L542.6375 327.59366ZM548.7625 323.6249L550.79376 323.4374Q551.04376 324.85928 551.7625 325.51553Q552.4969 326.15616 553.6375 326.15616Q554.60626 326.15616 555.34064 325.71866Q556.075 325.26553 556.54376 324.51553Q557.0125 323.76553 557.325 322.4999Q557.65314 321.23428 557.65314 319.92178Q557.65314 319.78116 557.6375 319.4999Q556.9969 320.51553 555.90314 321.14053Q554.8094 321.76553 553.52814 321.76553Q551.40314 321.76553 549.91876 320.21866Q548.45 318.67178 548.45 316.14053Q548.45 313.53116 549.98126 311.9374Q551.52814 310.34366 553.85626 310.34366Q555.52814 310.34366 556.91876 311.2499Q558.3094 312.14053 559.02814 313.8124Q559.7469 315.48428 559.7469 318.65616Q559.7469 321.9374 559.02814 323.89053Q558.3094 325.84366 556.90314 326.8749Q555.4969 327.89053 553.59064 327.89053Q551.575 327.89053 550.29376 326.76553Q549.02814 325.64053 548.7625 323.6249ZM557.40314 316.03116Q557.40314 314.21866 556.4344 313.15616Q555.46564 312.09366 554.10626 312.09366Q552.7 312.09366 551.65314 313.2499Q550.6219 314.39053 550.6219 316.21866Q550.6219 317.85928 551.60626 318.89053Q552.59064 319.90616 554.04376 319.90616Q555.5125 319.90616 556.45 318.89053Q557.40314 317.85928 557.40314 316.03116ZM561.84064 314.53116Q561.84064 312.70303 562.7625 311.42178Q563.7 310.1249 565.45 310.1249Q567.075 310.1249 568.1375 311.28116Q569.2 312.42178 569.2 314.67178Q569.2 316.84366 568.1219 318.03116Q567.04376 319.20303 565.48126 319.20303Q563.91876 319.20303 562.8719 318.04678Q561.84064 316.8749 561.84064 314.53116ZM565.5125 311.57803Q564.73126 311.57803 564.2 312.26553Q563.6844 312.9374 563.6844 314.7499Q563.6844 316.40616 564.21564 317.07803Q564.7469 317.7499 565.5125 317.7499Q566.3094 317.7499 566.825 317.07803Q567.35626 316.39053 567.35626 314.57803Q567.35626 312.92178 566.825 312.2499Q566.29376 311.57803 565.5125 311.57803ZM565.52814 328.23428L574.91876 310.1249L576.6375 310.1249L567.27814 328.23428L565.52814 328.23428ZM572.95 323.5624Q572.95 321.70303 573.8719 320.42178Q574.8094 319.14053 576.575 319.14053Q578.2 319.14053 579.2469 320.29678Q580.3094 321.45303 580.3094 323.6874Q580.3094 325.8749 579.23126 327.0624Q578.16876 328.23428 576.59064 328.23428Q575.02814 328.23428 573.98126 327.0624Q572.95 325.89053 572.95 323.5624ZM576.6375 320.59366Q575.84064 320.59366 575.3094 321.28116Q574.79376 321.95303 574.79376 323.76553Q574.79376 325.40616 575.325 326.09366Q575.85626 326.76553 576.6219 326.76553Q577.4344 326.76553 577.95 326.09366Q578.48126 325.40616 578.48126 323.60928Q578.48126 321.9374 577.95 321.26553Q577.41876 320.59366 576.6375 320.59366Z" fill-rule="nonzero"/><path stroke="#757575" stroke-width="1.0" stroke-linecap="butt" d="M581.45 304.09366L452.76666 304.09366L398.77078 304.09366" fill-rule="nonzero"/><path fill="#9e9e9e" d="M400.77078 304.09366C400.77078 302.9891 399.87534 302.09366 398.77078 302.09366C397.6662 302.09366 396.77078 302.9891 396.77078 304.09366C396.77078 305.19824 397.6662 306.09366 398.77078 306.09366C399.87534 306.09366 400.77078 305.19824 400.77078 304.09366" fill-rule="nonzero"/><path fill="#757575" d="M20.784374 40.55L20.784374 23.3625L23.065624 23.3625L23.065624 40.55L20.784374 40.55ZM26.128124 40.55L26.128124 28.096874L28.034374 28.096874L28.034374 29.878124Q29.409374 27.815624 31.9875 27.815624Q33.1125 27.815624 34.05 28.221874Q35.003124 28.628124 35.471874 29.284374Q35.940624 29.940624 36.128124 30.846874Q36.253124 31.425 36.253124 32.89375L36.253124 40.55L34.14375 40.55L34.14375 32.971874Q34.14375 31.690624 33.89375 31.05Q33.64375 30.409374 33.01875 30.034374Q32.39375 29.64375 31.55 29.64375Q30.20625 29.64375 29.221874 30.503124Q28.2375 31.3625 28.2375 33.753124L28.2375 40.55L26.128124 40.55ZM44.7375 38.659374L45.05 40.51875Q44.159374 40.721874 43.45625 40.721874Q42.3 40.721874 41.659374 40.3625Q41.034374 39.9875 40.76875 39.39375Q40.51875 38.8 40.51875 36.909374L40.51875 29.7375L38.971874 29.7375L38.971874 28.096874L40.51875 28.096874L40.51875 25.01875L42.6125 23.753124L42.6125 28.096874L44.7375 28.096874L44.7375 29.7375L42.6125 29.7375L42.6125 37.01875Q42.6125 37.925 42.721874 38.190624Q42.846874 38.440624 43.096874 38.596874Q43.346874 38.7375 43.815624 38.7375Q44.159374 38.7375 44.7375 38.659374ZM55.659374 36.534374L57.83125 36.815624Q57.315624 38.721874 55.925 39.784374Q54.534374 40.83125 52.3625 40.83125Q49.628124 40.83125 48.01875 39.159374Q46.425 37.471874 46.425 34.425Q46.425 31.284374 48.034374 29.55Q49.659374 27.815624 52.2375 27.815624Q54.7375 27.815624 56.315624 29.51875Q57.909374 31.221874 57.909374 34.3Q57.909374 34.4875 57.89375 34.8625L48.6125 34.8625Q48.721874 36.909374 49.76875 38.003124Q50.815624 39.096874 52.378124 39.096874Q53.534374 39.096874 54.346874 38.4875Q55.175 37.878124 55.659374 36.534374ZM48.721874 33.128124L55.675 33.128124Q55.534374 31.565624 54.878124 30.76875Q53.878124 29.55 52.26875 29.55Q50.815624 29.55 49.815624 30.534374Q48.83125 31.503124 48.721874 33.128124ZM59.753124 41.58125L61.8 41.89375Q61.925 42.83125 62.51875 43.26875Q63.3 43.8625 64.65938 43.8625Q66.12813 43.8625 66.925 43.26875Q67.72188 42.690624 68.00313 41.628124Q68.15938 40.9875 68.14375 38.925Q66.76875 40.55 64.70625 40.55Q62.14375 40.55 60.7375 38.70625Q59.33125 36.846874 59.33125 34.253124Q59.33125 32.471874 59.971874 30.971874Q60.6125 29.45625 61.83125 28.64375Q63.065624 27.815624 64.72188 27.815624Q66.925 27.815624 68.34688 29.596874L68.34688 28.096874L70.3 28.096874L70.3 38.8625Q70.3 41.76875 69.70625 42.971874Q69.1125 44.190624 67.83125 44.89375Q66.55 45.596874 64.675 45.596874Q62.440624 45.596874 61.065624 44.596874Q59.70625 43.596874 59.753124 41.58125ZM61.4875 34.096874Q61.4875 36.55 62.45625 37.675Q63.440624 38.8 64.90938 38.8Q66.3625 38.8 67.34688 37.690624Q68.33125 36.565624 68.33125 34.175Q68.33125 31.89375 67.31563 30.7375Q66.3 29.565624 64.8625 29.565624Q63.45625 29.565624 62.471874 30.70625Q61.4875 31.846874 61.4875 34.096874ZM82.65938 36.534374L84.83125 36.815624Q84.31563 38.721874 82.925 39.784374Q81.53438 40.83125 79.3625 40.83125Q76.62813 40.83125 75.01875 39.159374Q73.425 37.471874 73.425 34.425Q73.425 31.284374 75.03438 29.55Q76.65938 27.815624 79.2375 27.815624Q81.7375 27.815624 83.31563 29.51875Q84.90938 31.221874 84.90938 34.3Q84.90938 34.4875 84.89375 34.8625L75.6125 34.8625Q75.72188 36.909374 76.76875 38.003124Q77.81563 39.096874 79.37813 39.096874Q80.53438 39.096874 81.34688 38.4875Q82.175 37.878124 82.65938 36.534374ZM75.72188 33.128124L82.675 33.128124Q82.53438 31.565624 81.87813 30.76875Q80.87813 29.55 79.26875 29.55Q77.81563 29.55 76.81563 30.534374Q75.83125 31.503124 75.72188 33.128124ZM87.1125 40.55L87.1125 28.096874L89.00313 28.096874L89.00313 29.9875Q89.7375 28.659374 90.34688 28.2375Q90.97188 27.815624 91.70625 27.815624Q92.76875 27.815624 93.87813 28.503124L93.14375 30.45625Q92.37813 30.003124 91.59688 30.003124Q90.90938 30.003124 90.34688 30.425Q89.8 30.83125 89.56563 31.565624Q89.22188 32.690624 89.22188 34.034374L89.22188 40.55L87.1125 40.55ZM102.44063 40.55L102.44063 23.3625L110.05 23.3625Q112.34688 23.3625 113.53438 23.83125Q114.7375 24.3 115.45625 25.471874Q116.175 26.64375 116.175 28.05Q116.175 29.878124 114.9875 31.14375Q113.8 32.39375 111.33125 32.7375Q112.2375 33.159374 112.70625 33.58125Q113.70625 34.503124 114.59688 35.878124L117.58125 40.55L114.72188 40.55L112.44063 36.971874Q111.45625 35.425 110.8 34.6125Q110.15938 33.784374 109.64375 33.45625Q109.14375 33.128124 108.6125 33.003124Q108.22188 32.925 107.34688 32.925L104.70625 32.925L104.70625 40.55L102.44063 40.55ZM104.70625 30.95625L109.59688 30.95625Q111.15938 30.95625 112.03438 30.628124Q112.90938 30.3 113.3625 29.596874Q113.83125 28.89375 113.83125 28.05Q113.83125 26.83125 112.94063 26.05Q112.06563 25.26875 110.14375 25.26875L104.70625 25.26875L104.70625 30.95625ZM127.65938 36.534374L129.83125 36.815624Q129.31563 38.721874 127.925 39.784374Q126.53438 40.83125 124.3625 40.83125Q121.62813 40.83125 120.01875 39.159374Q118.425 37.471874 118.425 34.425Q118.425 31.284374 120.03438 29.55Q121.65938 27.815624 124.2375 27.815624Q126.7375 27.815624 128.31563 29.51875Q129.90938 31.221874 129.90938 34.3Q129.90938 34.4875 129.89375 34.8625L120.6125 34.8625Q120.72188 36.909374 121.76875 38.003124Q122.81563 39.096874 124.37813 39.096874Q125.53438 39.096874 126.34688 38.4875Q127.175 37.878124 127.65938 36.534374ZM120.72188 33.128124L127.675 33.128124Q127.53438 31.565624 126.87813 30.76875Q125.87813 29.55 124.26875 29.55Q122.81563 29.55 121.81563 30.534374Q120.83125 31.503124 120.72188 33.128124ZM132.64375 40.55L132.64375 29.7375L130.76875 29.7375L130.76875 28.096874L132.64375 28.096874L132.64375 26.784374Q132.64375 25.51875 132.8625 24.909374Q133.15938 24.096874 133.925 23.596874Q134.70625 23.08125 136.08125 23.08125Q136.97188 23.08125 138.05 23.284374L137.7375 25.128124Q137.08125 25.003124 136.4875 25.003124Q135.53438 25.003124 135.12813 25.425Q134.7375 25.83125 134.7375 26.95625L134.7375 28.096874L137.15938 28.096874L137.15938 29.7375L134.7375 29.7375L134.7375 40.55L132.64375 40.55ZM139.14375 25.8L139.14375 23.3625L141.25313 23.3625L141.25313 25.8L139.14375 25.8ZM139.14375 40.55L139.14375 28.096874L141.25313 28.096874L141.25313 40.55L139.14375 40.55ZM144.12813 40.55L144.12813 28.096874L146.03438 28.096874L146.03438 29.878124Q147.40938 27.815624 149.9875 27.815624Q151.1125 27.815624 152.05 28.221874Q153.00313 28.628124 153.47188 29.284374Q153.94063 29.940624 154.12813 30.846874Q154.25313 31.425 154.25313 32.89375L154.25313 40.55L152.14375 40.55L152.14375 32.971874Q152.14375 31.690624 151.89375 31.05Q151.64375 30.409374 151.01875 30.034374Q150.39375 29.64375 149.55 29.64375Q148.20625 29.64375 147.22188 30.503124Q146.2375 31.3625 146.2375 33.753124L146.2375 40.55L144.12813 40.55ZM166.65938 36.534374L168.83125 36.815624Q168.31563 38.721874 166.925 39.784374Q165.53438 40.83125 163.3625 40.83125Q160.62813 40.83125 159.01875 39.159374Q157.425 37.471874 157.425 34.425Q157.425 31.284374 159.03438 29.55Q160.65938 27.815624 163.2375 27.815624Q165.7375 27.815624 167.31563 29.51875Q168.90938 31.221874 168.90938 34.3Q168.90938 34.4875 168.89375 34.8625L159.6125 34.8625Q159.72188 36.909374 160.76875 38.003124Q161.81563 39.096874 163.37813 39.096874Q164.53438 39.096874 165.34688 38.4875Q166.175 37.878124 166.65938 36.534374ZM159.72188 33.128124L166.675 33.128124Q166.53438 31.565624 165.87813 30.76875Q164.87813 29.55 163.26875 29.55Q161.81563 29.55 160.81563 30.534374Q159.83125 31.503124 159.72188 33.128124ZM171.12813 40.55L171.12813 28.096874L173.01875 28.096874L173.01875 29.846874Q173.6125 28.940624 174.58125 28.378124Q175.55 27.815624 176.8 27.815624Q178.175 27.815624 179.05 28.39375Q179.94063 28.971874 180.31563 30.003124Q181.78438 27.815624 184.15938 27.815624Q186.00313 27.815624 187.00313 28.846874Q188.00313 29.878124 188.00313 32.003124L188.00313 40.55L185.89375 40.55L185.89375 32.70625Q185.89375 31.440624 185.69063 30.89375Q185.4875 30.33125 184.94063 29.9875Q184.40938 29.64375 183.69063 29.64375Q182.37813 29.64375 181.50313 30.51875Q180.64375 31.39375 180.64375 33.315624L180.64375 40.55L178.53438 40.55L178.53438 32.45625Q178.53438 31.05 178.01875 30.346874Q177.50313 29.64375 176.33125 29.64375Q175.44063 29.64375 174.675 30.1125Q173.925 30.58125 173.58125 31.4875Q173.2375 32.39375 173.2375 34.096874L173.2375 40.55L171.12813 40.55ZM199.65938 36.534374L201.83125 36.815624Q201.31563 38.721874 199.925 39.784374Q198.53438 40.83125 196.3625 40.83125Q193.62813 40.83125 192.01875 39.159374Q190.425 37.471874 190.425 34.425Q190.425 31.284374 192.03438 29.55Q193.65938 27.815624 196.2375 27.815624Q198.7375 27.815624 200.31563 29.51875Q201.90938 31.221874 201.90938 34.3Q201.90938 34.4875 201.89375 34.8625L192.6125 34.8625Q192.72188 36.909374 193.76875 38.003124Q194.81563 39.096874 196.37813 39.096874Q197.53438 39.096874 198.34688 38.4875Q199.175 37.878124 199.65938 36.534374ZM192.72188 33.128124L199.675 33.128124Q199.53438 31.565624 198.87813 30.76875Q197.87813 29.55 196.26875 29.55Q194.81563 29.55 193.81563 30.534374Q192.83125 31.503124 192.72188 33.128124ZM204.12813 40.55L204.12813 28.096874L206.03438 28.096874L206.03438 29.878124Q207.40938 27.815624 209.9875 27.815624Q211.1125 27.815624 212.05 28.221874Q213.00313 28.628124 213.47188 29.284374Q213.94063 29.940624 214.12813 30.846874Q214.25313 31.425 214.25313 32.89375L214.25313 40.55L212.14375 40.55L212.14375 32.971874Q212.14375 31.690624 211.89375 31.05Q211.64375 30.409374 211.01875 30.034374Q210.39375 29.64375 209.55 29.64375Q208.20625 29.64375 207.22188 30.503124Q206.2375 31.3625 206.2375 33.753124L206.2375 40.55L204.12813 40.55ZM222.7375 38.659374L223.05 40.51875Q222.15938 40.721874 221.45625 40.721874Q220.3 40.721874 219.65938 40.3625Q219.03438 39.9875 218.76875 39.39375Q218.51875 38.8 218.51875 36.909374L218.51875 29.7375L216.97188 29.7375L216.97188 28.096874L218.51875 28.096874L218.51875 25.01875L220.6125 23.753124L220.6125 28.096874L222.7375 28.096874L222.7375 29.7375L220.6125 29.7375L220.6125 37.01875Q220.6125 37.925 220.72188 38.190624Q220.84688 38.440624 221.09688 38.596874Q221.34688 38.7375 221.81563 38.7375Q222.15938 38.7375 222.7375 38.659374ZM224.28438 36.83125L226.37813 36.503124Q226.55 37.753124 227.34688 38.425Q228.15938 39.096874 229.59688 39.096874Q231.05 39.096874 231.75313 38.503124Q232.45625 37.909374 232.45625 37.1125Q232.45625 36.39375 231.83125 35.9875Q231.40938 35.70625 229.675 35.26875Q227.3625 34.690624 226.45625 34.26875Q225.56563 33.83125 225.09688 33.08125Q224.64375 32.315624 224.64375 31.409374Q224.64375 30.58125 225.01875 29.878124Q225.40938 29.159374 226.06563 28.690624Q226.55 28.33125 227.39375 28.08125Q228.25313 27.815624 229.22188 27.815624Q230.69063 27.815624 231.8 28.2375Q232.90938 28.659374 233.425 29.39375Q233.95625 30.1125 234.15938 31.315624L232.09688 31.596874Q231.95625 30.628124 231.28438 30.096874Q230.6125 29.55 229.37813 29.55Q227.925 29.55 227.3 30.034374Q226.675 30.51875 226.675 31.159374Q226.675 31.565624 226.94063 31.89375Q227.19063 32.2375 227.75313 32.45625Q228.06563 32.58125 229.6125 33.003124Q231.84688 33.596874 232.72188 33.9875Q233.6125 34.3625 234.1125 35.096874Q234.62813 35.815624 234.62813 36.89375Q234.62813 37.940624 234.00313 38.878124Q233.39375 39.815624 232.2375 40.33125Q231.08125 40.83125 229.6125 40.83125Q227.19063 40.83125 225.90938 39.83125Q224.64375 38.815624 224.28438 36.83125Z" fill-rule="nonzero"/></svg>