<svg version="1.1" viewBox="0.0 0.0 686.0 516.0" fill="none" stroke="none" stroke-linecap="square" stroke-miterlimit="10" xmlns:xlink="http://www.w3.org/1999/xlink" xmlns="http://www.w3.org/2000/svg"><path fill="#ffffff" d="M0 0L686.0 0L686.0 516.0L0 516.0L0 0Z" fill-rule="nonzero"/><path fill="#004561" d="M174.5449 417.36844C119.292885 354.3119 106.038536 264.76297 140.65544 188.40471C175.27235 112.04644 251.35872 63.0 335.19736 63.0L335.19736 276.6Z" fill-rule="nonzero"/><path fill="#5891ad" d="M335.19736 63.0C433.6207 63.0 519.3028 130.25346 542.68317 225.8595C566.06354 321.46555 521.08887 420.671 433.7735 466.09326C346.45813 511.51553 239.40868 491.39444 174.5449 417.36844L335.19736 276.6Z" fill-rule="nonzero"/><path fill="#ffffff" d="M478.8814 352.00034L477.30328 352.00034L477.30328 341.9222Q476.72516 342.4691 475.80328 343.01596Q474.8814 343.5472 474.1314 343.82846L474.1314 342.2972Q475.45953 341.6722 476.45953 340.7816Q477.45953 339.89096 477.86578 339.06284L478.8814 339.06284L478.8814 352.00034ZM483.16266 349.01596L484.67828 348.87534Q484.8814 349.95346 485.41266 350.43784Q485.95953 350.9222 486.8189 350.9222Q487.55328 350.9222 488.10016 350.5941Q488.64703 350.25034 488.99078 349.70346Q489.35016 349.14096 489.58453 348.18784Q489.8189 347.2347 489.8189 346.25034Q489.8189 346.14096 489.8189 345.93784Q489.33453 346.68784 488.5064 347.1566Q487.6939 347.62534 486.74078 347.62534Q485.14703 347.62534 484.03766 346.4691Q482.92828 345.31284 482.92828 343.4066Q482.92828 341.45346 484.08453 340.26596Q485.24078 339.06284 486.97516 339.06284Q488.24078 339.06284 489.27203 339.75034Q490.3189 340.4222 490.85016 341.6722Q491.39703 342.9222 491.39703 345.2972Q491.39703 347.76596 490.85016 349.2347Q490.3189 350.68784 489.2564 351.45346Q488.20953 352.2191 486.78766 352.2191Q485.27203 352.2191 484.30328 351.39096Q483.35016 350.5472 483.16266 349.01596ZM489.64703 343.32846Q489.64703 341.9691 488.91266 341.1722Q488.1939 340.37534 487.17828 340.37534Q486.11578 340.37534 485.33453 341.2347Q484.55328 342.0941 484.55328 343.4691Q484.55328 344.70346 485.28766 345.4691Q486.03766 346.2347 487.1314 346.2347Q488.22516 346.2347 488.92828 345.4691Q489.64703 344.70346 489.64703 343.32846ZM493.03766 340.7972L493.03766 339.2816L501.36578 339.2816L501.36578 340.51596Q500.14703 341.82846 498.92828 344.00034Q497.72516 346.1566 497.0689 348.45346Q496.58453 350.07846 496.45953 352.00034L494.83453 352.00034Q494.86578 350.4847 495.42828 348.32846Q496.0064 346.1722 497.0689 344.1722Q498.1314 342.1722 499.33453 340.7972L493.03766 340.7972Z" fill-rule="nonzero"/><path fill="#ffffff" d="M174.91953 214.19965L173.3414 214.19965L173.3414 204.12152Q172.76328 204.6684 171.8414 205.21527Q170.91953 205.74652 170.16953 206.02777L170.16953 204.49652Q171.49765 203.87152 172.49765 202.9809Q173.49765 202.09027 173.9039 201.26215L174.91953 201.26215L174.91953 214.19965ZM184.91953 214.19965L183.3414 214.19965L183.3414 204.12152Q182.76328 204.6684 181.8414 205.21527Q180.91953 205.74652 180.16953 206.02777L180.16953 204.49652Q181.49765 203.87152 182.49765 202.9809Q183.49765 202.09027 183.9039 201.26215L184.91953 201.26215L184.91953 214.19965ZM188.9664 210.7934L190.56015 210.59027Q190.82578 211.93402 191.48203 212.52777Q192.13828 213.12152 193.07578 213.12152Q194.20078 213.12152 194.9664 212.3559Q195.73203 211.57465 195.73203 210.43402Q195.73203 209.34027 195.01328 208.63715Q194.31015 207.9184 193.2164 207.9184Q192.76328 207.9184 192.0914 208.1059L192.26328 206.71527Q192.41953 206.7309 192.5289 206.7309Q193.5289 206.7309 194.3414 206.19965Q195.1539 205.6684 195.1539 204.57465Q195.1539 203.69965 194.56015 203.13715Q193.9664 202.55902 193.04453 202.55902Q192.12265 202.55902 191.49765 203.13715Q190.88828 203.71527 190.7164 204.88715L189.13828 204.6059Q189.41953 203.01215 190.45078 202.13715Q191.48203 201.26215 193.01328 201.26215Q194.06015 201.26215 194.95078 201.71527Q195.8414 202.1684 196.31015 202.94965Q196.7789 203.7309 196.7789 204.6059Q196.7789 205.44965 196.32578 206.13715Q195.88828 206.80902 194.99765 207.21527Q196.13828 207.4809 196.76328 208.32465Q197.4039 209.15277 197.4039 210.38715Q197.4039 212.07465 196.16953 213.26215Q194.95078 214.43402 193.07578 214.43402Q191.37265 214.43402 190.24765 213.4184Q189.13828 212.40277 188.9664 210.7934Z" fill-rule="nonzero"/><path fill="#1a1a1a" d="M21.593664 176.93947Q21.593664 172.67384 23.89054 170.25197Q26.187414 167.8301 29.82804 167.8301Q32.20304 167.8301 34.10929 168.97072Q36.031166 170.09572 37.031166 172.1426Q38.031166 174.17384 38.031166 176.75197Q38.031166 179.36134 36.968666 181.42384Q35.92179 183.48634 33.98429 184.54884Q32.04679 185.61134 29.812414 185.61134Q27.39054 185.61134 25.468664 184.43947Q23.562414 183.2676 22.57804 181.23634Q21.593664 179.2051 21.593664 176.93947ZM23.937414 176.98634Q23.937414 180.0801 25.60929 181.87697Q27.281164 183.65822 29.79679 183.65822Q32.374916 183.65822 34.031166 181.86134Q35.687416 180.04884 35.687416 176.73634Q35.687416 174.6426 34.968666 173.0801Q34.26554 171.50197 32.89054 170.6426Q31.531164 169.78322 29.843664 169.78322Q27.42179 169.78322 25.67179 171.43947Q23.937414 173.09572 23.937414 176.98634ZM45.624916 183.42384L45.937416 185.28322Q45.04679 185.48634 44.343666 185.48634Q43.187416 185.48634 42.54679 185.12697Q41.92179 184.75197 41.656166 184.15822Q41.406166 183.56447 41.406166 181.67384L41.406166 174.50197L39.85929 174.50197L39.85929 172.86134L41.406166 172.86134L41.406166 169.78322L43.499916 168.5176L43.499916 172.86134L45.624916 172.86134L45.624916 174.50197L43.499916 174.50197L43.499916 181.78322Q43.499916 182.68947 43.60929 182.9551Q43.73429 183.2051 43.98429 183.36134Q44.23429 183.50197 44.70304 183.50197Q45.04679 183.50197 45.624916 183.42384ZM48.01554 185.31447L48.01554 168.12697L50.124916 168.12697L50.124916 174.29884Q51.60929 172.5801 53.85929 172.5801Q55.23429 172.5801 56.249916 173.12697Q57.281166 173.67384 57.718666 174.6426Q58.156166 175.59572 58.156166 177.42384L58.156166 185.31447L56.04679 185.31447L56.04679 177.42384Q56.04679 175.84572 55.35929 175.12697Q54.67179 174.40822 53.42179 174.40822Q52.48429 174.40822 51.656166 174.8926Q50.82804 175.37697 50.468666 176.2051Q50.124916 177.03322 50.124916 178.50197L50.124916 185.31447L48.01554 185.31447ZM70.54679 181.29884L72.718666 181.5801Q72.20304 183.48634 70.812416 184.54884Q69.42179 185.59572 67.249916 185.59572Q64.51554 185.59572 62.906166 183.92384Q61.312416 182.23634 61.312416 179.18947Q61.312416 176.04884 62.92179 174.31447Q64.54679 172.5801 67.124916 172.5801Q69.624916 172.5801 71.20304 174.28322Q72.79679 175.98634 72.79679 179.06447Q72.79679 179.25197 72.781166 179.62697L63.499916 179.62697Q63.60929 181.67384 64.656166 182.7676Q65.70304 183.86134 67.26554 183.86134Q68.42179 183.86134 69.23429 183.25197Q70.062416 182.6426 70.54679 181.29884ZM63.60929 177.8926L70.562416 177.8926Q70.42179 176.3301 69.76554 175.53322Q68.76554 174.31447 67.156166 174.31447Q65.70304 174.31447 64.70304 175.29884Q63.718666 176.2676 63.60929 177.8926ZM74.999916 185.31447L74.999916 172.86134L76.89054 172.86134L76.89054 174.75197Q77.624916 173.42384 78.23429 173.00197Q78.85929 172.5801 79.593666 172.5801Q80.656166 172.5801 81.76554 173.2676L81.031166 175.22072Q80.26554 174.7676 79.48429 174.7676Q78.79679 174.7676 78.23429 175.18947Q77.687416 175.59572 77.45304 176.3301Q77.10929 177.4551 77.10929 178.79884L77.10929 185.31447L74.999916 185.31447ZM82.17179 181.59572L84.26554 181.2676Q84.437416 182.5176 85.23429 183.18947Q86.04679 183.86134 87.48429 183.86134Q88.937416 183.86134 89.64054 183.2676Q90.343666 182.67384 90.343666 181.87697Q90.343666 181.15822 89.718666 180.75197Q89.29679 180.47072 87.562416 180.03322Q85.249916 179.4551 84.343666 179.03322Q83.45304 178.59572 82.98429 177.84572Q82.531166 177.0801 82.531166 176.17384Q82.531166 175.34572 82.906166 174.6426Q83.29679 173.92384 83.95304 173.4551Q84.437416 173.09572 85.281166 172.84572Q86.14054 172.5801 87.10929 172.5801Q88.57804 172.5801 89.687416 173.00197Q90.79679 173.42384 91.312416 174.15822Q91.843666 174.87697 92.04679 176.0801L89.98429 176.36134Q89.843666 175.3926 89.17179 174.86134Q88.499916 174.31447 87.26554 174.31447Q85.812416 174.31447 85.187416 174.79884Q84.562416 175.28322 84.562416 175.92384Q84.562416 176.3301 84.82804 176.65822Q85.07804 177.00197 85.64054 177.22072Q85.95304 177.34572 87.499916 177.7676Q89.73429 178.36134 90.60929 178.75197Q91.499916 179.12697 91.999916 179.86134Q92.51554 180.5801 92.51554 181.65822Q92.51554 182.7051 91.89054 183.6426Q91.281166 184.5801 90.124916 185.09572Q88.968666 185.59572 87.499916 185.59572Q85.07804 185.59572 83.79679 184.59572Q82.531166 183.5801 82.17179 181.59572Z" fill-rule="nonzero"/><path fill="#9e9e9e" d="M21.45304 211.78322L23.562414 211.50197Q23.92179 213.28322 24.79679 214.0801Q25.67179 214.87697 26.92179 214.87697Q28.406164 214.87697 29.42179 213.84572Q30.45304 212.81447 30.45304 211.28322Q30.45304 209.8301 29.499914 208.8926Q28.562414 207.93947 27.093664 207.93947Q26.499914 207.93947 25.60929 208.17384L25.843664 206.3301Q26.04679 206.34572 26.187414 206.34572Q27.531164 206.34572 28.60929 205.6426Q29.687414 204.93947 29.687414 203.48634Q29.687414 202.31447 28.89054 201.56447Q28.10929 200.79884 26.874914 200.79884Q25.64054 200.79884 24.812414 201.5801Q23.999914 202.34572 23.76554 203.8926L21.656164 203.5176Q22.04679 201.3926 23.406164 200.23634Q24.781164 199.06447 26.82804 199.06447Q28.23429 199.06447 29.406164 199.67384Q30.593664 200.2676 31.218664 201.31447Q31.85929 202.36134 31.85929 203.53322Q31.85929 204.6426 31.249914 205.56447Q30.656164 206.47072 29.48429 207.00197Q31.01554 207.36134 31.85929 208.47072Q32.70304 209.5801 32.70304 211.23634Q32.70304 213.48634 31.062414 215.06447Q29.42179 216.62697 26.906164 216.62697Q24.64054 216.62697 23.14054 215.28322Q21.656164 213.92384 21.45304 211.78322ZM45.374916 203.34572L43.281166 203.50197Q42.999916 202.2676 42.48429 201.7051Q41.624916 200.79884 40.374916 200.79884Q39.374916 200.79884 38.60929 201.36134Q37.60929 202.0801 37.031166 203.48634Q36.468666 204.87697 36.437416 207.4551Q37.20304 206.29884 38.29679 205.73634Q39.406166 205.17384 40.60929 205.17384Q42.718666 205.17384 44.20304 206.72072Q45.687416 208.2676 45.687416 210.73634Q45.687416 212.34572 44.98429 213.73634Q44.29679 215.12697 43.07804 215.87697Q41.85929 216.61134 40.312416 216.61134Q37.67179 216.61134 35.999916 214.67384Q34.343666 212.72072 34.343666 208.2676Q34.343666 203.29884 36.187416 201.03322Q37.781166 199.06447 40.499916 199.06447Q42.531166 199.06447 43.82804 200.2051Q45.124916 201.3301 45.374916 203.34572ZM36.76554 210.75197Q36.76554 211.8301 37.218666 212.8301Q37.687416 213.8301 38.51554 214.36134Q39.35929 214.87697 40.26554 214.87697Q41.60929 214.87697 42.562416 213.79884Q43.531166 212.72072 43.531166 210.86134Q43.531166 209.0801 42.57804 208.06447Q41.624916 207.03322 40.187416 207.03322Q38.76554 207.03322 37.76554 208.06447Q36.76554 209.0801 36.76554 210.75197ZM48.624916 216.31447L48.624916 213.90822L51.01554 213.90822L51.01554 216.31447L48.624916 216.31447ZM54.437416 211.81447L56.656166 211.62697Q56.89054 213.23634 57.781166 214.06447Q58.687416 214.87697 59.95304 214.87697Q61.48429 214.87697 62.531166 213.73634Q63.593666 212.5801 63.593666 210.67384Q63.593666 208.87697 62.57804 207.8301Q61.562416 206.78322 59.92179 206.78322Q58.906166 206.78322 58.07804 207.25197Q57.26554 207.7051 56.79679 208.4551L54.812416 208.18947L56.468666 199.36134L65.01554 199.36134L65.01554 201.37697L58.156166 201.37697L57.23429 206.00197Q58.781166 204.92384 60.48429 204.92384Q62.73429 204.92384 64.281166 206.48634Q65.82804 208.03322 65.82804 210.48634Q65.82804 212.81447 64.468666 214.5176Q62.812416 216.61134 59.95304 216.61134Q57.60929 216.61134 56.124916 215.29884Q54.64054 213.98634 54.437416 211.81447ZM67.82804 203.25197Q67.82804 201.42384 68.749916 200.1426Q69.687416 198.84572 71.437416 198.84572Q73.062416 198.84572 74.124916 200.00197Q75.187416 201.1426 75.187416 203.3926Q75.187416 205.56447 74.10929 206.75197Q73.031166 207.92384 71.468666 207.92384Q69.906166 207.92384 68.85929 206.7676Q67.82804 205.59572 67.82804 203.25197ZM71.499916 200.29884Q70.718666 200.29884 70.187416 200.98634Q69.67179 201.65822 69.67179 203.47072Q69.67179 205.12697 70.20304 205.79884Q70.73429 206.47072 71.499916 206.47072Q72.29679 206.47072 72.812416 205.79884Q73.343666 205.11134 73.343666 203.29884Q73.343666 201.6426 72.812416 200.97072Q72.281166 200.29884 71.499916 200.29884ZM71.51554 216.9551L80.906166 198.84572L82.624916 198.84572L73.26554 216.9551L71.51554 216.9551ZM78.937416 212.28322Q78.937416 210.42384 79.85929 209.1426Q80.79679 207.86134 82.562416 207.86134Q84.187416 207.86134 85.23429 209.0176Q86.29679 210.17384 86.29679 212.40822Q86.29679 214.59572 85.218666 215.78322Q84.156166 216.9551 82.57804 216.9551Q81.01554 216.9551 79.968666 215.78322Q78.937416 214.61134 78.937416 212.28322ZM82.624916 209.31447Q81.82804 209.31447 81.29679 210.00197Q80.781166 210.67384 80.781166 212.48634Q80.781166 214.12697 81.312416 214.81447Q81.843666 215.48634 82.60929 215.48634Q83.42179 215.48634 83.937416 214.81447Q84.468666 214.12697 84.468666 212.3301Q84.468666 210.65822 83.937416 209.98634Q83.406166 209.31447 82.624916 209.31447Z" fill-rule="nonzero"/><path stroke="#757575" stroke-width="1.0" stroke-linecap="butt" d="M20.437414 192.81447L115.59734 192.81447L150.38254 192.81447" fill-rule="nonzero"/><path fill="#9e9e9e" d="M152.38254 192.81447C152.38254 191.7099 151.4871 190.81447 150.38254 190.81447C149.27797 190.81447 148.38254 191.7099 148.38254 192.81447C148.38254 193.91904 149.27797 194.81447 150.38254 194.81447C151.4871 194.81447 152.38254 193.91904 152.38254 192.81447" fill-rule="nonzero"/><path fill="#1a1a1a" d="M576.7229 352.88553L576.7229 335.69803L578.9885 335.69803L578.9885 350.85428L587.4573 350.85428L587.4573 352.88553L576.7229 352.88553ZM598.06665 348.8699L600.2385 349.15115Q599.7229 351.0574 598.3323 352.1199Q596.94165 353.16678 594.7698 353.16678Q592.0354 353.16678 590.426 351.4949Q588.8323 349.8074 588.8323 346.76053Q588.8323 343.6199 590.44165 341.88553Q592.06665 340.15115 594.6448 340.15115Q597.1448 340.15115 598.7229 341.85428Q600.31665 343.5574 600.31665 346.63553Q600.31665 346.82303 600.301 347.19803L591.0198 347.19803Q591.12915 349.2449 592.176 350.33865Q593.2229 351.4324 594.7854 351.4324Q595.94165 351.4324 596.75415 350.82303Q597.5823 350.21365 598.06665 348.8699ZM591.12915 345.46365L598.0823 345.46365Q597.94165 343.90115 597.2854 343.10428Q596.2854 341.88553 594.676 341.88553Q593.2229 341.88553 592.2229 342.8699Q591.2385 343.83865 591.12915 345.46365ZM602.5354 352.88553L602.5354 340.4324L604.44165 340.4324L604.44165 342.21365Q605.81665 340.15115 608.3948 340.15115Q609.5198 340.15115 610.4573 340.5574Q611.4104 340.96365 611.87915 341.6199Q612.3479 342.27615 612.5354 343.1824Q612.6604 343.76053 612.6604 345.22928L612.6604 352.88553L610.551 352.88553L610.551 345.3074Q610.551 344.02615 610.301 343.38553Q610.051 342.7449 609.426 342.3699Q608.801 341.97928 607.9573 341.97928Q606.6135 341.97928 605.62915 342.83865Q604.6448 343.69803 604.6448 346.08865L604.6448 352.88553L602.5354 352.88553ZM616.1604 353.91678L618.2073 354.22928Q618.3323 355.16678 618.926 355.60428Q619.7073 356.19803 621.06665 356.19803Q622.5354 356.19803 623.3323 355.60428Q624.12915 355.02615 624.4104 353.96365Q624.56665 353.32303 624.551 351.26053Q623.176 352.88553 621.1135 352.88553Q618.551 352.88553 617.1448 351.04178Q615.7385 349.1824 615.7385 346.58865Q615.7385 344.8074 616.37915 343.3074Q617.0198 341.79178 618.2385 340.97928Q619.4729 340.15115 621.12915 340.15115Q623.3323 340.15115 624.75415 341.9324L624.75415 340.4324L626.7073 340.4324L626.7073 351.19803Q626.7073 354.10428 626.1135 355.3074Q625.5198 356.52615 624.2385 357.22928Q622.9573 357.9324 621.0823 357.9324Q618.8479 357.9324 617.4729 356.9324Q616.1135 355.9324 616.1604 353.91678ZM617.8948 346.4324Q617.8948 348.88553 618.8635 350.01053Q619.8479 351.13553 621.31665 351.13553Q622.7698 351.13553 623.75415 350.02615Q624.7385 348.90115 624.7385 346.51053Q624.7385 344.22928 623.7229 343.07303Q622.7073 341.90115 621.2698 341.90115Q619.8635 341.90115 618.87915 343.04178Q617.8948 344.1824 617.8948 346.4324ZM635.1448 350.9949L635.4573 352.85428Q634.56665 353.0574 633.8635 353.0574Q632.7073 353.0574 632.06665 352.69803Q631.44165 352.32303 631.176 351.72928Q630.926 351.13553 630.926 349.2449L630.926 342.07303L629.37915 342.07303L629.37915 340.4324L630.926 340.4324L630.926 337.35428L633.0198 336.08865L633.0198 340.4324L635.1448 340.4324L635.1448 342.07303L633.0198 342.07303L633.0198 349.35428Q633.0198 350.26053 633.12915 350.52615Q633.25415 350.77615 633.50415 350.9324Q633.75415 351.07303 634.2229 351.07303Q634.56665 351.07303 635.1448 350.9949ZM637.5354 352.88553L637.5354 335.69803L639.6448 335.69803L639.6448 341.8699Q641.12915 340.15115 643.37915 340.15115Q644.75415 340.15115 645.7698 340.69803Q646.801 341.2449 647.2385 342.21365Q647.676 343.16678 647.676 344.9949L647.676 352.88553L645.56665 352.88553L645.56665 344.9949Q645.56665 343.41678 644.87915 342.69803Q644.19165 341.97928 642.94165 341.97928Q642.00415 341.97928 641.176 342.46365Q640.3479 342.94803 639.9885 343.77615Q639.6448 344.60428 639.6448 346.07303L639.6448 352.88553L637.5354 352.88553Z" fill-rule="nonzero"/><path fill="#9e9e9e" d="M594.8948 370.91678L592.801 371.07303Q592.5198 369.83865 592.00415 369.27615Q591.1448 368.3699 589.8948 368.3699Q588.8948 368.3699 588.12915 368.9324Q587.12915 369.65115 586.551 371.0574Q585.9885 372.44803 585.9573 375.02615Q586.7229 373.8699 587.81665 373.3074Q588.926 372.7449 590.12915 372.7449Q592.2385 372.7449 593.7229 374.29178Q595.2073 375.83865 595.2073 378.3074Q595.2073 379.91678 594.50415 381.3074Q593.81665 382.69803 592.5979 383.44803Q591.37915 384.1824 589.8323 384.1824Q587.19165 384.1824 585.5198 382.2449Q583.8635 380.29178 583.8635 375.83865Q583.8635 370.8699 585.7073 368.60428Q587.301 366.63553 590.0198 366.63553Q592.051 366.63553 593.3479 367.77615Q594.6448 368.90115 594.8948 370.91678ZM586.2854 378.32303Q586.2854 379.40115 586.7385 380.40115Q587.2073 381.40115 588.0354 381.9324Q588.87915 382.44803 589.7854 382.44803Q591.12915 382.44803 592.0823 381.3699Q593.051 380.29178 593.051 378.4324Q593.051 376.65115 592.0979 375.63553Q591.1448 374.60428 589.7073 374.60428Q588.2854 374.60428 587.2854 375.63553Q586.2854 376.65115 586.2854 378.32303ZM596.9729 379.35428L599.0823 379.07303Q599.44165 380.85428 600.31665 381.65115Q601.19165 382.44803 602.44165 382.44803Q603.926 382.44803 604.94165 381.41678Q605.9729 380.38553 605.9729 378.85428Q605.9729 377.40115 605.0198 376.46365Q604.0823 375.51053 602.6135 375.51053Q602.0198 375.51053 601.12915 375.7449L601.3635 373.90115Q601.56665 373.91678 601.7073 373.91678Q603.051 373.91678 604.12915 373.21365Q605.2073 372.51053 605.2073 371.0574Q605.2073 369.88553 604.4104 369.13553Q603.62915 368.3699 602.3948 368.3699Q601.1604 368.3699 600.3323 369.15115Q599.5198 369.91678 599.2854 371.46365L597.176 371.08865Q597.56665 368.96365 598.926 367.8074Q600.301 366.63553 602.3479 366.63553Q603.75415 366.63553 604.926 367.2449Q606.1135 367.83865 606.7385 368.88553Q607.37915 369.9324 607.37915 371.10428Q607.37915 372.21365 606.7698 373.13553Q606.176 374.04178 605.00415 374.57303Q606.5354 374.9324 607.37915 376.04178Q608.2229 377.15115 608.2229 378.8074Q608.2229 381.0574 606.5823 382.63553Q604.94165 384.19803 602.426 384.19803Q600.1604 384.19803 598.6604 382.85428Q597.176 381.4949 596.9729 379.35428ZM611.1448 383.88553L611.1448 381.47928L613.5354 381.47928L613.5354 383.88553L611.1448 383.88553ZM616.9573 379.38553L619.176 379.19803Q619.4104 380.8074 620.301 381.63553Q621.2073 382.44803 622.4729 382.44803Q624.00415 382.44803 625.051 381.3074Q626.1135 380.15115 626.1135 378.2449Q626.1135 376.44803 625.0979 375.40115Q624.0823 374.35428 622.44165 374.35428Q621.426 374.35428 620.5979 374.82303Q619.7854 375.27615 619.31665 376.02615L617.3323 375.76053L618.9885 366.9324L627.5354 366.9324L627.5354 368.94803L620.676 368.94803L619.75415 373.57303Q621.301 372.4949 623.00415 372.4949Q625.25415 372.4949 626.801 374.0574Q628.3479 375.60428 628.3479 378.0574Q628.3479 380.38553 626.9885 382.08865Q625.3323 384.1824 622.4729 384.1824Q620.12915 384.1824 618.6448 382.8699Q617.1604 381.5574 616.9573 379.38553ZM630.3479 370.82303Q630.3479 368.9949 631.2698 367.71365Q632.2073 366.41678 633.9573 366.41678Q635.5823 366.41678 636.6448 367.57303Q637.7073 368.71365 637.7073 370.96365Q637.7073 373.13553 636.62915 374.32303Q635.551 375.4949 633.9885 375.4949Q632.426 375.4949 631.37915 374.33865Q630.3479 373.16678 630.3479 370.82303ZM634.0198 367.8699Q633.2385 367.8699 632.7073 368.5574Q632.19165 369.22928 632.19165 371.04178Q632.19165 372.69803 632.7229 373.3699Q633.25415 374.04178 634.0198 374.04178Q634.81665 374.04178 635.3323 373.3699Q635.8635 372.6824 635.8635 370.8699Q635.8635 369.21365 635.3323 368.54178Q634.801 367.8699 634.0198 367.8699ZM634.0354 384.52615L643.426 366.41678L645.1448 366.41678L635.7854 384.52615L634.0354 384.52615ZM641.4573 379.85428Q641.4573 377.9949 642.37915 376.71365Q643.31665 375.4324 645.0823 375.4324Q646.7073 375.4324 647.75415 376.58865Q648.81665 377.7449 648.81665 379.97928Q648.81665 382.16678 647.7385 383.35428Q646.676 384.52615 645.0979 384.52615Q643.5354 384.52615 642.4885 383.35428Q641.4573 382.1824 641.4573 379.85428ZM645.1448 376.88553Q644.3479 376.88553 643.81665 377.57303Q643.301 378.2449 643.301 380.0574Q643.301 381.69803 643.8323 382.38553Q644.3635 383.0574 645.12915 383.0574Q645.94165 383.0574 646.4573 382.38553Q646.9885 381.69803 646.9885 379.90115Q646.9885 378.22928 646.4573 377.5574Q645.926 376.88553 645.1448 376.88553Z" fill-rule="nonzero"/><path stroke="#757575" stroke-width="1.0" stroke-linecap="butt" d="M649.9573 360.38553L554.79736 360.38553L520.01215 360.38553" fill-rule="nonzero"/><path fill="#9e9e9e" d="M522.01215 360.38553C522.01215 359.28098 521.1167 358.38553 520.01215 358.38553C518.9076 358.38553 518.01215 359.28098 518.01215 360.38553C518.01215 361.4901 518.9076 362.38553 520.01215 362.38553C521.1167 362.38553 522.01215 361.4901 522.01215 360.38553" fill-rule="nonzero"/><path fill="#757575" d="M21.906164 43.2597L21.906164 28.9472L23.79679 28.9472L23.79679 41.5722L30.843664 41.5722L30.843664 43.2597L21.906164 43.2597ZM32.76554 30.962826L32.76554 28.9472L34.531166 28.9472L34.531166 30.962826L32.76554 30.962826ZM32.76554 43.2597L32.76554 32.8847L34.531166 32.8847L34.531166 43.2597L32.76554 43.2597ZM36.04679 40.16595L37.79679 39.8847Q37.937416 40.931576 38.60929 41.494076Q39.281166 42.04095 40.48429 42.04095Q41.687416 42.04095 42.26554 41.556576Q42.85929 41.056576 42.85929 40.400326Q42.85929 39.806576 42.343666 39.462826Q41.98429 39.22845 40.54679 38.869076Q38.60929 38.369076 37.85929 38.025326Q37.124916 37.66595 36.73429 37.04095Q36.343666 36.400326 36.343666 35.6347Q36.343666 34.9472 36.656166 34.35345Q36.98429 33.7597 37.531166 33.369076Q37.937416 33.0722 38.64054 32.869076Q39.35929 32.650326 40.17179 32.650326Q41.39054 32.650326 42.312416 33.0097Q43.23429 33.35345 43.67179 33.962826Q44.10929 34.556576 44.281166 35.556576L42.562416 35.79095Q42.437416 34.994076 41.874916 34.556576Q41.312416 34.10345 40.29679 34.10345Q39.07804 34.10345 38.562416 34.5097Q38.04679 34.900326 38.04679 35.431576Q38.04679 35.775326 38.26554 36.056576Q38.468666 36.337826 38.937416 36.525326Q39.20304 36.619076 40.48429 36.962826Q42.35929 37.462826 43.093666 37.79095Q43.82804 38.10345 44.249916 38.712826Q44.67179 39.306576 44.67179 40.212826Q44.67179 41.087826 44.156166 41.869076Q43.64054 42.650326 42.67179 43.0722Q41.70304 43.494076 40.48429 43.494076Q38.468666 43.494076 37.406166 42.650326Q36.343666 41.806576 36.04679 40.16595ZM50.593666 41.681576L50.843666 43.244076Q50.10929 43.400326 49.51554 43.400326Q48.562416 43.400326 48.031166 43.10345Q47.51554 42.79095 47.29679 42.306576Q47.07804 41.806576 47.07804 40.22845L47.07804 34.2597L45.79679 34.2597L45.79679 32.8847L47.07804 32.8847L47.07804 30.3222L48.82804 29.2597L48.82804 32.8847L50.593666 32.8847L50.593666 34.2597L48.82804 34.2597L48.82804 40.3222Q48.82804 41.0722 48.92179 41.29095Q49.01554 41.494076 49.218666 41.6347Q49.437416 41.7597 49.82804 41.7597Q50.10929 41.7597 50.593666 41.681576ZM53.218666 43.2597L53.218666 41.2597L55.218666 41.2597L55.218666 43.2597Q55.218666 44.369076 54.82804 45.04095Q54.437416 45.72845 53.593666 46.087826L53.093666 45.337826Q53.656166 45.10345 53.92179 44.619076Q54.187416 44.150326 54.218666 43.2597L53.218666 43.2597ZM69.07804 43.2597L63.531166 28.9472L65.57804 28.9472L69.29679 39.337826Q69.749916 40.587826 70.04679 41.681576Q70.374916 40.5097 70.82804 39.337826L74.687416 28.9472L76.624916 28.9472L71.01554 43.2597L69.07804 43.2597ZM84.85929 39.91595L86.67179 40.150326Q86.249916 41.72845 85.07804 42.619076Q83.92179 43.494076 82.10929 43.494076Q79.843666 43.494076 78.499916 42.10345Q77.17179 40.6972 77.17179 38.16595Q77.17179 35.54095 78.51554 34.10345Q79.85929 32.650326 82.01554 32.650326Q84.093666 32.650326 85.406166 34.0722Q86.73429 35.47845 86.73429 38.056576Q86.73429 38.212826 86.718666 38.525326L78.98429 38.525326Q79.07804 40.22845 79.95304 41.1347Q80.82804 42.04095 82.124916 42.04095Q83.093666 42.04095 83.76554 41.54095Q84.45304 41.025326 84.85929 39.91595ZM79.07804 37.0722L84.874916 37.0722Q84.76554 35.775326 84.218666 35.119076Q83.374916 34.10345 82.031166 34.10345Q80.82804 34.10345 79.999916 34.91595Q79.17179 35.712826 79.07804 37.0722ZM95.531166 39.462826L97.249916 39.681576Q96.968666 41.47845 95.79679 42.494076Q94.64054 43.494076 92.937416 43.494076Q90.812416 43.494076 89.51554 42.10345Q88.218666 40.712826 88.218666 38.119076Q88.218666 36.431576 88.76554 35.181576Q89.32804 33.91595 90.468666 33.29095Q91.60929 32.650326 92.95304 32.650326Q94.64054 32.650326 95.70304 33.5097Q96.781166 34.369076 97.093666 35.931576L95.374916 36.1972Q95.14054 35.150326 94.51554 34.6347Q93.89054 34.10345 93.01554 34.10345Q91.687416 34.10345 90.85929 35.056576Q90.031166 36.0097 90.031166 38.056576Q90.031166 40.150326 90.82804 41.10345Q91.624916 42.04095 92.92179 42.04095Q93.95304 42.04095 94.64054 41.41595Q95.343666 40.775326 95.531166 39.462826ZM105.01554 43.2597L105.01554 28.9472L111.35929 28.9472Q113.26554 28.9472 114.26554 29.337826Q115.26554 29.712826 115.85929 30.6972Q116.45304 31.66595 116.45304 32.85345Q116.45304 34.369076 115.468666 35.41595Q114.48429 36.462826 112.42179 36.744076Q113.17179 37.10345 113.562416 37.462826Q114.39054 38.212826 115.14054 39.369076L117.624916 43.2597L115.249916 43.2597L113.343666 40.275326Q112.51554 38.994076 111.98429 38.306576Q111.45304 37.619076 111.01554 37.35345Q110.593666 37.0722 110.156166 36.962826Q109.82804 36.900326 109.10929 36.900326L106.906166 36.900326L106.906166 43.2597L105.01554 43.2597ZM106.906166 35.2597L110.98429 35.2597Q112.281166 35.2597 112.999916 34.994076Q113.73429 34.72845 114.10929 34.1347Q114.499916 33.54095 114.499916 32.85345Q114.499916 31.837826 113.76554 31.181576Q113.031166 30.525326 111.437416 30.525326L106.906166 30.525326L106.906166 35.2597ZM125.85929 39.91595L127.67179 40.150326Q127.249916 41.72845 126.07804 42.619076Q124.92179 43.494076 123.10929 43.494076Q120.843666 43.494076 119.499916 42.10345Q118.17179 40.6972 118.17179 38.16595Q118.17179 35.54095 119.51554 34.10345Q120.85929 32.650326 123.01554 32.650326Q125.093666 32.650326 126.406166 34.0722Q127.73429 35.47845 127.73429 38.056576Q127.73429 38.212826 127.718666 38.525326L119.98429 38.525326Q120.07804 40.22845 120.95304 41.1347Q121.82804 42.04095 123.124916 42.04095Q124.093666 42.04095 124.76554 41.54095Q125.45304 41.025326 125.85929 39.91595ZM120.07804 37.0722L125.874916 37.0722Q125.76554 35.775326 125.218666 35.119076Q124.374916 34.10345 123.031166 34.10345Q121.82804 34.10345 120.999916 34.91595Q120.17179 35.712826 120.07804 37.0722ZM130.17178 43.2597L130.17178 34.2597L128.62491 34.2597L128.62491 32.8847L130.17178 32.8847L130.17178 31.79095Q130.17178 30.744076 130.35928 30.22845Q130.60928 29.54095 131.24991 29.119076Q131.89053 28.6972 133.04678 28.6972Q133.79678 28.6972 134.68741 28.869076L134.42178 30.400326Q133.87491 30.306576 133.39053 30.306576Q132.59366 30.306576 132.24991 30.650326Q131.92178 30.994076 131.92178 31.931576L131.92178 32.8847L133.95303 32.8847L133.95303 34.2597L131.92178 34.2597L131.92178 43.2597L130.17178 43.2597ZM135.76553 30.962826L135.76553 28.9472L137.53116 28.9472L137.53116 30.962826L135.76553 30.962826ZM135.76553 43.2597L135.76553 32.8847L137.53116 32.8847L137.53116 43.2597L135.76553 43.2597ZM139.74991 43.2597L139.74991 32.8847L141.34366 32.8847L141.34366 34.369076Q142.48428 32.650326 144.64053 32.650326Q145.57803 32.650326 146.35928 32.994076Q147.15616 33.3222 147.54678 33.869076Q147.93741 34.41595 148.09366 35.16595Q148.18741 35.66595 148.18741 36.8847L148.18741 43.2597L146.42178 43.2597L146.42178 36.9472Q146.42178 35.869076 146.21866 35.337826Q146.01553 34.806576 145.48428 34.494076Q144.96866 34.181576 144.26553 34.181576Q143.14053 34.181576 142.32803 34.900326Q141.51553 35.60345 141.51553 37.587826L141.51553 43.2597L139.74991 43.2597ZM156.85928 39.91595L158.67178 40.150326Q158.24991 41.72845 157.07803 42.619076Q155.92178 43.494076 154.10928 43.494076Q151.84366 43.494076 150.49991 42.10345Q149.17178 40.6972 149.17178 38.16595Q149.17178 35.54095 150.51553 34.10345Q151.85928 32.650326 154.01553 32.650326Q156.09366 32.650326 157.40616 34.0722Q158.73428 35.47845 158.73428 38.056576Q158.73428 38.212826 158.71866 38.525326L150.98428 38.525326Q151.07803 40.22845 151.95303 41.1347Q152.82803 42.04095 154.12491 42.04095Q155.09366 42.04095 155.76553 41.54095Q156.45303 41.025326 156.85928 39.91595ZM151.07803 37.0722L156.87491 37.0722Q156.76553 35.775326 156.21866 35.119076Q155.37491 34.10345 154.03116 34.10345Q152.82803 34.10345 151.99991 34.91595Q151.17178 35.712826 151.07803 37.0722ZM160.74991 43.2597L160.74991 32.8847L162.32803 32.8847L162.32803 34.337826Q162.81241 33.587826 163.62491 33.119076Q164.43741 32.650326 165.46866 32.650326Q166.62491 32.650326 167.35928 33.1347Q168.09366 33.60345 168.40616 34.462826Q169.64053 32.650326 171.60928 32.650326Q173.15616 32.650326 173.98428 33.5097Q174.81241 34.369076 174.81241 36.1347L174.81241 43.2597L173.06241 43.2597L173.06241 36.72845Q173.06241 35.66595 172.89053 35.212826Q172.71866 34.744076 172.26553 34.462826Q171.82803 34.181576 171.21866 34.181576Q170.12491 34.181576 169.39053 34.91595Q168.67178 35.6347 168.67178 37.22845L168.67178 43.2597L166.92178 43.2597L166.92178 36.525326Q166.92178 35.35345 166.48428 34.775326Q166.06241 34.181576 165.07803 34.181576Q164.34366 34.181576 163.70303 34.5722Q163.07803 34.962826 162.79678 35.712826Q162.51553 36.462826 162.51553 37.8847L162.51553 43.2597L160.74991 43.2597ZM183.85928 39.91595L185.67178 40.150326Q185.24991 41.72845 184.07803 42.619076Q182.92178 43.494076 181.10928 43.494076Q178.84366 43.494076 177.49991 42.10345Q176.17178 40.6972 176.17178 38.16595Q176.17178 35.54095 177.51553 34.10345Q178.85928 32.650326 181.01553 32.650326Q183.09366 32.650326 184.40616 34.0722Q185.73428 35.47845 185.73428 38.056576Q185.73428 38.212826 185.71866 38.525326L177.98428 38.525326Q178.07803 40.22845 178.95303 41.1347Q179.82803 42.04095 181.12491 42.04095Q182.09366 42.04095 182.76553 41.54095Q183.45303 41.025326 183.85928 39.91595ZM178.07803 37.0722L183.87491 37.0722Q183.76553 35.775326 183.21866 35.119076Q182.37491 34.10345 181.03116 34.10345Q179.82803 34.10345 178.99991 34.91595Q178.17178 35.712826 178.07803 37.0722ZM187.74991 43.2597L187.74991 32.8847L189.34366 32.8847L189.34366 34.369076Q190.48428 32.650326 192.64053 32.650326Q193.57803 32.650326 194.35928 32.994076Q195.15616 33.3222 195.54678 33.869076Q195.93741 34.41595 196.09366 35.16595Q196.18741 35.66595 196.18741 36.8847L196.18741 43.2597L194.42178 43.2597L194.42178 36.9472Q194.42178 35.869076 194.21866 35.337826Q194.01553 34.806576 193.48428 34.494076Q192.96866 34.181576 192.26553 34.181576Q191.14053 34.181576 190.32803 34.900326Q189.51553 35.60345 189.51553 37.587826L189.51553 43.2597L187.74991 43.2597ZM201.59366 41.681576L201.84366 43.244076Q201.10928 43.400326 200.51553 43.400326Q199.56241 43.400326 199.03116 43.10345Q198.51553 42.79095 198.29678 42.306576Q198.07803 41.806576 198.07803 40.22845L198.07803 34.2597L196.79678 34.2597L196.79678 32.8847L198.07803 32.8847L198.07803 30.3222L199.82803 29.2597L199.82803 32.8847L201.59366 32.8847L201.59366 34.2597L199.82803 34.2597L199.82803 40.3222Q199.82803 41.0722 199.92178 41.29095Q200.01553 41.494076 200.21866 41.6347Q200.43741 41.7597 200.82803 41.7597Q201.10928 41.7597 201.59366 41.681576ZM203.04678 40.16595L204.79678 39.8847Q204.93741 40.931576 205.60928 41.494076Q206.28116 42.04095 207.48428 42.04095Q208.68741 42.04095 209.26553 41.556576Q209.85928 41.056576 209.85928 40.400326Q209.85928 39.806576 209.34366 39.462826Q208.98428 39.22845 207.54678 38.869076Q205.60928 38.369076 204.85928 38.025326Q204.12491 37.66595 203.73428 37.04095Q203.34366 36.400326 203.34366 35.6347Q203.34366 34.9472 203.65616 34.35345Q203.98428 33.7597 204.53116 33.369076Q204.93741 33.0722 205.64053 32.869076Q206.35928 32.650326 207.17178 32.650326Q208.39053 32.650326 209.31241 33.0097Q210.23428 33.35345 210.67178 33.962826Q211.10928 34.556576 211.28116 35.556576L209.56241 35.79095Q209.43741 34.994076 208.87491 34.556576Q208.31241 34.10345 207.29678 34.10345Q206.07803 34.10345 205.56241 34.5097Q205.04678 34.900326 205.04678 35.431576Q205.04678 35.775326 205.26553 36.056576Q205.46866 36.337826 205.93741 36.525326Q206.20303 36.619076 207.48428 36.962826Q209.35928 37.462826 210.09366 37.79095Q210.82803 38.10345 211.24991 38.712826Q211.67178 39.306576 211.67178 40.212826Q211.67178 41.087826 211.15616 41.869076Q210.64053 42.650326 209.67178 43.0722Q208.70303 43.494076 207.48428 43.494076Q205.46866 43.494076 204.40616 42.650326Q203.34366 41.806576 203.04678 40.16595Z" fill-rule="nonzero"/></svg>