<svg version="1.1" viewBox="0.0 0.0 677.0 371.0" fill="none" stroke="none" stroke-linecap="square" stroke-miterlimit="10" xmlns:xlink="http://www.w3.org/1999/xlink" xmlns="http://www.w3.org/2000/svg"><path fill="#ffffff" d="M0 0L677.0 0L677.0 371.0L0 371.0L0 0Z" fill-rule="nonzero"/><path fill="#004561" d="M238.5944 313.91217C193.02437 272.6099 177.56747 207.52396 199.70177 150.14294C221.83606 92.76195 276.99792 54.916668 338.5 54.916668L338.5 203.68333Z" fill-rule="nonzero"/><path fill="#5891ad" d="M338.5 54.916668C404.929 54.916668 463.3077 98.958115 481.54834 162.8337C499.789 226.70929 473.47055 294.9373 417.0589 330.0163C360.64725 365.09534 287.81506 358.52316 238.5944 313.91217L338.5 203.68333Z" fill-rule="nonzero"/><path fill="#ffffff" d="M436.3081 248.68681L436.3081 250.20244L427.79248 250.20244Q427.77686 249.62431 427.97998 249.10869Q428.3081 248.23369 429.01123 247.38994Q429.72998 246.54619 431.08936 245.43681Q433.1831 243.71806 433.91748 242.71806Q434.66748 241.70244 434.66748 240.81181Q434.66748 239.85869 433.9956 239.21806Q433.32373 238.57744 432.2456 238.57744Q431.08936 238.57744 430.40186 239.26494Q429.72998 239.95244 429.71436 241.15556L428.08936 240.98369Q428.26123 239.17119 429.33936 238.21806Q430.4331 237.26494 432.27686 237.26494Q434.1206 237.26494 435.19873 238.29619Q436.29248 239.32744 436.29248 240.84306Q436.29248 241.60869 435.96436 242.35869Q435.65186 243.10869 434.91748 243.93681Q434.1831 244.76494 432.47998 246.20244Q431.0581 247.40556 430.65186 247.82744Q430.2456 248.24931 429.9956 248.68681L436.3081 248.68681ZM437.9956 246.79619L439.58936 246.59306Q439.85498 247.93681 440.51123 248.53056Q441.16748 249.12431 442.10498 249.12431Q443.22998 249.12431 443.9956 248.35869Q444.76123 247.57744 444.76123 246.43681Q444.76123 245.34306 444.04248 244.63994Q443.33936 243.92119 442.2456 243.92119Q441.79248 243.92119 441.1206 244.10869L441.29248 242.71806Q441.44873 242.73369 441.5581 242.73369Q442.5581 242.73369 443.3706 242.20244Q444.1831 241.67119 444.1831 240.57744Q444.1831 239.70244 443.58936 239.13994Q442.9956 238.56181 442.07373 238.56181Q441.15186 238.56181 440.52686 239.13994Q439.91748 239.71806 439.7456 240.88994L438.16748 240.60869Q438.44873 239.01494 439.47998 238.13994Q440.51123 237.26494 442.04248 237.26494Q443.08936 237.26494 443.97998 237.71806Q444.8706 238.17119 445.33936 238.95244Q445.8081 239.73369 445.8081 240.60869Q445.8081 241.45244 445.35498 242.13994Q444.91748 242.81181 444.02686 243.21806Q445.16748 243.48369 445.79248 244.32744Q446.4331 245.15556 446.4331 246.38994Q446.4331 248.07744 445.19873 249.26494Q443.97998 250.43681 442.10498 250.43681Q440.40186 250.43681 439.27686 249.42119Q438.16748 248.40556 437.9956 246.79619ZM448.10498 238.99931L448.10498 237.48369L456.4331 237.48369L456.4331 238.71806Q455.21436 240.03056 453.9956 242.20244Q452.79248 244.35869 452.13623 246.65556Q451.65186 248.28056 451.52686 250.20244L449.90186 250.20244Q449.9331 248.68681 450.4956 246.53056Q451.07373 244.37431 452.13623 242.37431Q453.19873 240.37431 454.40186 238.99931L448.10498 238.99931Z" fill-rule="nonzero"/><path fill="#ffffff" d="M226.4575 170.16423L224.87938 170.16423L224.87938 160.0861Q224.30125 160.63298 223.37938 161.17986Q222.4575 161.7111 221.7075 161.99236L221.7075 160.4611Q223.03563 159.8361 224.03563 158.94548Q225.03563 158.05486 225.44188 157.22673L226.4575 157.22673L226.4575 170.16423ZM235.56688 170.16423L235.56688 167.0861L229.98875 167.0861L229.98875 165.63298L235.86375 157.2736L237.16063 157.2736L237.16063 165.63298L238.895 165.63298L238.895 167.0861L237.16063 167.0861L237.16063 170.16423L235.56688 170.16423ZM235.56688 165.63298L235.56688 159.82048L231.53563 165.63298L235.56688 165.63298ZM240.61375 158.9611L240.61375 157.44548L248.94188 157.44548L248.94188 158.67986Q247.72313 159.99236 246.50438 162.16423Q245.30125 164.32048 244.645 166.61736Q244.16063 168.24236 244.03563 170.16423L242.41063 170.16423Q242.44188 168.6486 243.00438 166.49236Q243.5825 164.3361 244.645 162.3361Q245.7075 160.3361 246.91063 158.9611L240.61375 158.9611Z" fill-rule="nonzero"/><path fill="#1a1a1a" d="M19.70625 136.94496Q19.70625 132.67934 22.003124 130.25746Q24.3 127.83559 27.940624 127.83559Q30.315624 127.83559 32.221874 128.97621Q34.14375 130.10121 35.14375 132.14809Q36.14375 134.17934 36.14375 136.75746Q36.14375 139.36684 35.08125 141.42934Q34.034374 143.49184 32.096874 144.55434Q30.159374 145.61684 27.925 145.61684Q25.503124 145.61684 23.58125 144.44496Q21.675 143.27309 20.690624 141.24184Q19.70625 139.21059 19.70625 136.94496ZM22.05 136.99184Q22.05 140.08559 23.721874 141.88246Q25.39375 143.66371 27.909374 143.66371Q30.4875 143.66371 32.14375 141.86684Q33.8 140.05434 33.8 136.74184Q33.8 134.64809 33.08125 133.08559Q32.378124 131.50746 31.003124 130.64809Q29.64375 129.78871 27.95625 129.78871Q25.534374 129.78871 23.784374 131.44496Q22.05 133.10121 22.05 136.99184ZM43.7375 143.42934L44.05 145.28871Q43.159374 145.49184 42.45625 145.49184Q41.3 145.49184 40.659374 145.13246Q40.034374 144.75746 39.76875 144.16371Q39.51875 143.56996 39.51875 141.67934L39.51875 134.50746L37.971874 134.50746L37.971874 132.86684L39.51875 132.86684L39.51875 129.78871L41.6125 128.52309L41.6125 132.86684L43.7375 132.86684L43.7375 134.50746L41.6125 134.50746L41.6125 141.78871Q41.6125 142.69496 41.721874 142.96059Q41.846874 143.21059 42.096874 143.36684Q42.346874 143.50746 42.815624 143.50746Q43.159374 143.50746 43.7375 143.42934ZM46.128124 145.31996L46.128124 128.13246L48.2375 128.13246L48.2375 134.30434Q49.721874 132.58559 51.971874 132.58559Q53.346874 132.58559 54.3625 133.13246Q55.39375 133.67934 55.83125 134.64809Q56.26875 135.60121 56.26875 137.42934L56.26875 145.31996L54.159374 145.31996L54.159374 137.42934Q54.159374 135.85121 53.471874 135.13246Q52.784374 134.41371 51.534374 134.41371Q50.596874 134.41371 49.76875 134.89809Q48.940624 135.38246 48.58125 136.21059Q48.2375 137.03871 48.2375 138.50746L48.2375 145.31996L46.128124 145.31996ZM68.65938 141.30434L70.83125 141.58559Q70.31563 143.49184 68.925 144.55434Q67.53438 145.60121 65.3625 145.60121Q62.628124 145.60121 61.01875 143.92934Q59.425 142.24184 59.425 139.19496Q59.425 136.05434 61.034374 134.31996Q62.659374 132.58559 65.2375 132.58559Q67.7375 132.58559 69.31563 134.28871Q70.90938 135.99184 70.90938 139.06996Q70.90938 139.25746 70.89375 139.63246L61.6125 139.63246Q61.721874 141.67934 62.76875 142.77309Q63.815624 143.86684 65.37813 143.86684Q66.53438 143.86684 67.34688 143.25746Q68.175 142.64809 68.65938 141.30434ZM61.721874 137.89809L68.675 137.89809Q68.53438 136.33559 67.87813 135.53871Q66.87813 134.31996 65.26875 134.31996Q63.815624 134.31996 62.815624 135.30434Q61.83125 136.27309 61.721874 137.89809ZM73.1125 145.31996L73.1125 132.86684L75.00313 132.86684L75.00313 134.75746Q75.7375 133.42934 76.34688 133.00746Q76.97188 132.58559 77.70625 132.58559Q78.76875 132.58559 79.87813 133.27309L79.14375 135.22621Q78.37813 134.77309 77.59688 134.77309Q76.90938 134.77309 76.34688 135.19496Q75.8 135.60121 75.56563 136.33559Q75.22188 137.46059 75.22188 138.80434L75.22188 145.31996L73.1125 145.31996ZM80.28438 141.60121L82.37813 141.27309Q82.55 142.52309 83.34688 143.19496Q84.15938 143.86684 85.59688 143.86684Q87.05 143.86684 87.75313 143.27309Q88.45625 142.67934 88.45625 141.88246Q88.45625 141.16371 87.83125 140.75746Q87.40938 140.47621 85.675 140.03871Q83.3625 139.46059 82.45625 139.03871Q81.56563 138.60121 81.09688 137.85121Q80.64375 137.08559 80.64375 136.17934Q80.64375 135.35121 81.01875 134.64809Q81.40938 133.92934 82.06563 133.46059Q82.55 133.10121 83.39375 132.85121Q84.25313 132.58559 85.22188 132.58559Q86.69063 132.58559 87.8 133.00746Q88.90938 133.42934 89.425 134.16371Q89.95625 134.88246 90.15938 136.08559L88.09688 136.36684Q87.95625 135.39809 87.28438 134.86684Q86.6125 134.31996 85.37813 134.31996Q83.925 134.31996 83.3 134.80434Q82.675 135.28871 82.675 135.92934Q82.675 136.33559 82.94063 136.66371Q83.19063 137.00746 83.75313 137.22621Q84.06563 137.35121 85.6125 137.77309Q87.84688 138.36684 88.72188 138.75746Q89.6125 139.13246 90.1125 139.86684Q90.62813 140.58559 90.62813 141.66371Q90.62813 142.71059 90.00313 143.64809Q89.39375 144.58559 88.2375 145.10121Q87.08125 145.60121 85.6125 145.60121Q83.19063 145.60121 81.90938 144.60121Q80.64375 143.58559 80.28438 141.60121Z" fill-rule="nonzero"/><path fill="#9e9e9e" d="M19.565624 171.78871L21.675 171.50746Q22.034374 173.28871 22.909374 174.08559Q23.784374 174.88246 25.034374 174.88246Q26.51875 174.88246 27.534374 173.85121Q28.565624 172.81996 28.565624 171.28871Q28.565624 169.83559 27.6125 168.89809Q26.675 167.94496 25.20625 167.94496Q24.6125 167.94496 23.721874 168.17934L23.95625 166.33559Q24.159374 166.35121 24.3 166.35121Q25.64375 166.35121 26.721874 165.64809Q27.8 164.94496 27.8 163.49184Q27.8 162.31996 27.003124 161.56996Q26.221874 160.80434 24.9875 160.80434Q23.753124 160.80434 22.925 161.58559Q22.1125 162.35121 21.878124 163.89809L19.76875 163.52309Q20.159374 161.39809 21.51875 160.24184Q22.89375 159.06996 24.940624 159.06996Q26.346874 159.06996 27.51875 159.67934Q28.70625 160.27309 29.33125 161.31996Q29.971874 162.36684 29.971874 163.53871Q29.971874 164.64809 29.3625 165.56996Q28.76875 166.47621 27.596874 167.00746Q29.128124 167.36684 29.971874 168.47621Q30.815624 169.58559 30.815624 171.24184Q30.815624 173.49184 29.175 175.06996Q27.534374 176.63246 25.01875 176.63246Q22.753124 176.63246 21.253124 175.28871Q19.76875 173.92934 19.565624 171.78871ZM35.8 167.00746Q34.4875 166.52309 33.846874 165.63246Q33.221874 164.74184 33.221874 163.49184Q33.221874 161.61684 34.565624 160.35121Q35.909374 159.06996 38.14375 159.06996Q40.39375 159.06996 41.76875 160.38246Q43.14375 161.67934 43.14375 163.55434Q43.14375 164.75746 42.51875 165.64809Q41.89375 166.52309 40.6125 167.00746Q42.190624 167.52309 43.01875 168.67934Q43.846874 169.81996 43.846874 171.41371Q43.846874 173.61684 42.284374 175.11684Q40.721874 176.61684 38.190624 176.61684Q35.64375 176.61684 34.08125 175.11684Q32.51875 173.60121 32.51875 171.35121Q32.51875 169.67934 33.3625 168.55434Q34.221874 167.41371 35.8 167.00746ZM35.378124 163.42934Q35.378124 164.64809 36.159374 165.42934Q36.940624 166.19496 38.190624 166.19496Q39.409374 166.19496 40.190624 165.42934Q40.971874 164.66371 40.971874 163.53871Q40.971874 162.38246 40.159374 161.60121Q39.3625 160.80434 38.175 160.80434Q36.971874 160.80434 36.175 161.58559Q35.378124 162.35121 35.378124 163.42934ZM34.690624 171.36684Q34.690624 172.25746 35.1125 173.10121Q35.55 173.94496 36.39375 174.41371Q37.2375 174.88246 38.20625 174.88246Q39.721874 174.88246 40.70625 173.91371Q41.690624 172.92934 41.690624 171.42934Q41.690624 169.91371 40.675 168.91371Q39.659374 167.91371 38.14375 167.91371Q36.64375 167.91371 35.659374 168.89809Q34.690624 169.88246 34.690624 171.36684ZM46.7375 176.31996L46.7375 173.91371L49.128124 173.91371L49.128124 176.31996L46.7375 176.31996ZM52.565624 171.78871L54.675 171.50746Q55.034374 173.28871 55.909374 174.08559Q56.784374 174.88246 58.034374 174.88246Q59.51875 174.88246 60.534374 173.85121Q61.565624 172.81996 61.565624 171.28871Q61.565624 169.83559 60.6125 168.89809Q59.675 167.94496 58.20625 167.94496Q57.6125 167.94496 56.721874 168.17934L56.95625 166.33559Q57.159374 166.35121 57.3 166.35121Q58.64375 166.35121 59.721874 165.64809Q60.8 164.94496 60.8 163.49184Q60.8 162.31996 60.003124 161.56996Q59.221874 160.80434 57.9875 160.80434Q56.753124 160.80434 55.925 161.58559Q55.1125 162.35121 54.878124 163.89809L52.76875 163.52309Q53.159374 161.39809 54.51875 160.24184Q55.89375 159.06996 57.940624 159.06996Q59.346874 159.06996 60.51875 159.67934Q61.70625 160.27309 62.33125 161.31996Q62.971874 162.36684 62.971874 163.53871Q62.971874 164.64809 62.3625 165.56996Q61.76875 166.47621 60.596874 167.00746Q62.128124 167.36684 62.971874 168.47621Q63.815624 169.58559 63.815624 171.24184Q63.815624 173.49184 62.175 175.06996Q60.534374 176.63246 58.01875 176.63246Q55.753124 176.63246 54.253124 175.28871Q52.76875 173.92934 52.565624 171.78871ZM65.94063 163.25746Q65.94063 161.42934 66.8625 160.14809Q67.8 158.85121 69.55 158.85121Q71.175 158.85121 72.2375 160.00746Q73.3 161.14809 73.3 163.39809Q73.3 165.56996 72.22188 166.75746Q71.14375 167.92934 69.58125 167.92934Q68.01875 167.92934 66.97188 166.77309Q65.94063 165.60121 65.94063 163.25746ZM69.6125 160.30434Q68.83125 160.30434 68.3 160.99184Q67.78438 161.66371 67.78438 163.47621Q67.78438 165.13246 68.31563 165.80434Q68.84688 166.47621 69.6125 166.47621Q70.40938 166.47621 70.925 165.80434Q71.45625 165.11684 71.45625 163.30434Q71.45625 161.64809 70.925 160.97621Q70.39375 160.30434 69.6125 160.30434ZM69.62813 176.96059L79.01875 158.85121L80.7375 158.85121L71.37813 176.96059L69.62813 176.96059ZM77.05 172.28871Q77.05 170.42934 77.97188 169.14809Q78.90938 167.86684 80.675 167.86684Q82.3 167.86684 83.34688 169.02309Q84.40938 170.17934 84.40938 172.41371Q84.40938 174.60121 83.33125 175.78871Q82.26875 176.96059 80.69063 176.96059Q79.12813 176.96059 78.08125 175.78871Q77.05 174.61684 77.05 172.28871ZM80.7375 169.31996Q79.94063 169.31996 79.40938 170.00746Q78.89375 170.67934 78.89375 172.49184Q78.89375 174.13246 79.425 174.81996Q79.95625 175.49184 80.72188 175.49184Q81.53438 175.49184 82.05 174.81996Q82.58125 174.13246 82.58125 172.33559Q82.58125 170.66371 82.05 169.99184Q81.51875 169.31996 80.7375 169.31996Z" fill-rule="nonzero"/><path stroke="#757575" stroke-width="1.0" stroke-linecap="butt" d="M18.55 152.81996L183.73334 152.81996L206.64168 152.81996" fill-rule="nonzero"/><path fill="#9e9e9e" d="M208.64168 152.81996C208.64168 151.7154 207.74625 150.81996 206.64168 150.81996C205.53711 150.81996 204.64168 151.7154 204.64168 152.81996C204.64168 153.92453 205.53711 154.81996 206.64168 154.81996C207.74625 154.81996 208.64168 153.92453 208.64168 152.81996" fill-rule="nonzero"/><path fill="#1a1a1a" d="M543.5594 241.01544L545.84064 241.59357Q545.1219 244.39044 543.2625 245.87482Q541.40314 247.34357 538.71564 247.34357Q535.95 247.34357 534.2 246.21857Q532.46564 245.07794 531.5594 242.93732Q530.65314 240.78107 530.65314 238.32794Q530.65314 235.64044 531.66876 233.64044Q532.7 231.64044 534.59064 230.60919Q536.48126 229.57794 538.7625 229.57794Q541.34064 229.57794 543.09064 230.89044Q544.85626 232.20294 545.54376 234.57794L543.3094 235.10919Q542.7 233.23419 541.5594 232.37482Q540.4344 231.51544 538.71564 231.51544Q536.73126 231.51544 535.40314 232.46857Q534.075 233.42169 533.52814 235.01544Q532.9969 236.60919 532.9969 238.31232Q532.9969 240.49982 533.6219 242.14044Q534.2625 243.78107 535.60626 244.59357Q536.96564 245.39044 538.52814 245.39044Q540.45 245.39044 541.7625 244.29669Q543.09064 243.18732 543.5594 241.01544ZM547.2469 240.82794Q547.2469 237.35919 549.16876 235.70294Q550.77814 234.31232 553.09064 234.31232Q555.65314 234.31232 557.27814 235.99982Q558.90314 237.68732 558.90314 240.64044Q558.90314 243.04669 558.1844 244.42169Q557.46564 245.79669 556.09064 246.56232Q554.71564 247.32794 553.09064 247.32794Q550.46564 247.32794 548.85626 245.65607Q547.2469 243.96857 547.2469 240.82794ZM549.41876 240.82794Q549.41876 243.21857 550.45 244.40607Q551.4969 245.59357 553.09064 245.59357Q554.65314 245.59357 555.7 244.40607Q556.7469 243.20294 556.7469 240.74982Q556.7469 238.43732 555.6844 237.24982Q554.6375 236.06232 553.09064 236.06232Q551.4969 236.06232 550.45 237.24982Q549.41876 238.43732 549.41876 240.82794ZM561.02814 247.04669L561.02814 234.59357L562.91876 234.59357L562.91876 236.34357Q563.5125 235.43732 564.48126 234.87482Q565.45 234.31232 566.7 234.31232Q568.075 234.31232 568.95 234.89044Q569.84064 235.46857 570.21564 236.49982Q571.6844 234.31232 574.0594 234.31232Q575.90314 234.31232 576.90314 235.34357Q577.90314 236.37482 577.90314 238.49982L577.90314 247.04669L575.79376 247.04669L575.79376 239.20294Q575.79376 237.93732 575.59064 237.39044Q575.3875 236.82794 574.84064 236.48419Q574.3094 236.14044 573.59064 236.14044Q572.27814 236.14044 571.40314 237.01544Q570.54376 237.89044 570.54376 239.81232L570.54376 247.04669L568.4344 247.04669L568.4344 238.95294Q568.4344 237.54669 567.91876 236.84357Q567.40314 236.14044 566.23126 236.14044Q565.34064 236.14044 564.575 236.60919Q563.825 237.07794 563.48126 237.98419Q563.1375 238.89044 563.1375 240.59357L563.1375 247.04669L561.02814 247.04669ZM581.02814 251.81232L581.02814 234.59357L582.95 234.59357L582.95 236.21857Q583.6375 235.26544 584.48126 234.79669Q585.34064 234.31232 586.5594 234.31232Q588.15314 234.31232 589.3719 235.14044Q590.59064 235.95294 591.21564 237.45294Q591.84064 238.95294 591.84064 240.73419Q591.84064 242.64044 591.15314 244.17169Q590.46564 245.70294 589.15314 246.51544Q587.85626 247.32794 586.41876 247.32794Q585.35626 247.32794 584.5125 246.89044Q583.6844 246.43732 583.1375 245.74982L583.1375 251.81232L581.02814 251.81232ZM582.95 240.89044Q582.95 243.29669 583.91876 244.45294Q584.8875 245.59357 586.27814 245.59357Q587.6844 245.59357 588.6844 244.40607Q589.6844 243.21857 589.6844 240.71857Q589.6844 238.34357 588.7 237.15607Q587.73126 235.96857 586.3719 235.96857Q585.0125 235.96857 583.98126 237.23419Q582.95 238.48419 582.95 240.89044ZM603.15314 245.51544Q601.98126 246.49982 600.8875 246.92169Q599.8094 247.32794 598.575 247.32794Q596.52814 247.32794 595.41876 246.32794Q594.325 245.32794 594.325 243.76544Q594.325 242.84357 594.73126 242.09357Q595.15314 241.34357 595.825 240.89044Q596.4969 240.42169 597.34064 240.18732Q597.96564 240.03107 599.21564 239.87482Q601.77814 239.56232 602.98126 239.14044Q602.9969 238.71857 602.9969 238.59357Q602.9969 237.31232 602.3875 236.78107Q601.59064 236.06232 599.9969 236.06232Q598.4969 236.06232 597.79376 236.59357Q597.09064 237.10919 596.7469 238.43732L594.6844 238.15607Q594.96564 236.82794 595.60626 236.01544Q596.2469 235.20294 597.46564 234.76544Q598.6844 234.31232 600.29376 234.31232Q601.8875 234.31232 602.8875 234.68732Q603.8875 235.06232 604.35626 235.64044Q604.825 236.20294 605.0125 237.07794Q605.10626 237.60919 605.10626 239.01544L605.10626 241.82794Q605.10626 244.76544 605.2469 245.54669Q605.3875 246.32794 605.77814 247.04669L603.575 247.04669Q603.2469 246.39044 603.15314 245.51544ZM602.98126 240.79669Q601.825 241.26544 599.52814 241.59357Q598.23126 241.78107 597.6844 242.01544Q597.15314 242.24982 596.85626 242.70294Q596.575 243.15607 596.575 243.70294Q596.575 244.54669 597.2 245.10919Q597.84064 245.67169 599.075 245.67169Q600.29376 245.67169 601.2469 245.14044Q602.2 244.60919 602.6375 243.68732Q602.98126 242.96857 602.98126 241.57794L602.98126 240.79669ZM608.0125 247.04669L608.0125 234.59357L609.90314 234.59357L609.90314 236.48419Q610.6375 235.15607 611.2469 234.73419Q611.8719 234.31232 612.60626 234.31232Q613.66876 234.31232 614.77814 234.99982L614.04376 236.95294Q613.27814 236.49982 612.4969 236.49982Q611.8094 236.49982 611.2469 236.92169Q610.7 237.32794 610.46564 238.06232Q610.1219 239.18732 610.1219 240.53107L610.1219 247.04669L608.0125 247.04669ZM616.04376 232.29669L616.04376 229.85919L618.15314 229.85919L618.15314 232.29669L616.04376 232.29669ZM616.04376 247.04669L616.04376 234.59357L618.15314 234.59357L618.15314 247.04669L616.04376 247.04669ZM620.1844 243.32794L622.27814 242.99982Q622.45 244.24982 623.2469 244.92169Q624.0594 245.59357 625.4969 245.59357Q626.95 245.59357 627.65314 244.99982Q628.35626 244.40607 628.35626 243.60919Q628.35626 242.89044 627.73126 242.48419Q627.3094 242.20294 625.575 241.76544Q623.2625 241.18732 622.35626 240.76544Q621.46564 240.32794 620.9969 239.57794Q620.54376 238.81232 620.54376 237.90607Q620.54376 237.07794 620.91876 236.37482Q621.3094 235.65607 621.96564 235.18732Q622.45 234.82794 623.29376 234.57794Q624.15314 234.31232 625.1219 234.31232Q626.59064 234.31232 627.7 234.73419Q628.8094 235.15607 629.325 235.89044Q629.85626 236.60919 630.0594 237.81232L627.9969 238.09357Q627.85626 237.12482 627.1844 236.59357Q626.5125 236.04669 625.27814 236.04669Q623.825 236.04669 623.2 236.53107Q622.575 237.01544 622.575 237.65607Q622.575 238.06232 622.84064 238.39044Q623.09064 238.73419 623.65314 238.95294Q623.96564 239.07794 625.5125 239.49982Q627.7469 240.09357 628.6219 240.48419Q629.5125 240.85919 630.0125 241.59357Q630.52814 242.31232 630.52814 243.39044Q630.52814 244.43732 629.90314 245.37482Q629.29376 246.31232 628.1375 246.82794Q626.98126 247.32794 625.5125 247.32794Q623.09064 247.32794 621.8094 246.32794Q620.54376 245.31232 620.1844 243.32794ZM632.2469 240.82794Q632.2469 237.35919 634.16876 235.70294Q635.77814 234.31232 638.09064 234.31232Q640.65314 234.31232 642.27814 235.99982Q643.90314 237.68732 643.90314 240.64044Q643.90314 243.04669 643.1844 244.42169Q642.46564 245.79669 641.09064 246.56232Q639.71564 247.32794 638.09064 247.32794Q635.46564 247.32794 633.85626 245.65607Q632.2469 243.96857 632.2469 240.82794ZM634.41876 240.82794Q634.41876 243.21857 635.45 244.40607Q636.4969 245.59357 638.09064 245.59357Q639.65314 245.59357 640.7 244.40607Q641.7469 243.20294 641.7469 240.74982Q641.7469 238.43732 640.6844 237.24982Q639.6375 236.06232 638.09064 236.06232Q636.4969 236.06232 635.45 237.24982Q634.41876 238.43732 634.41876 240.82794ZM646.02814 247.04669L646.02814 234.59357L647.9344 234.59357L647.9344 236.37482Q649.3094 234.31232 651.8875 234.31232Q653.0125 234.31232 653.95 234.71857Q654.90314 235.12482 655.3719 235.78107Q655.84064 236.43732 656.02814 237.34357Q656.15314 237.92169 656.15314 239.39044L656.15314 247.04669L654.04376 247.04669L654.04376 239.46857Q654.04376 238.18732 653.79376 237.54669Q653.54376 236.90607 652.91876 236.53107Q652.29376 236.14044 651.45 236.14044Q650.10626 236.14044 649.1219 236.99982Q648.1375 237.85919 648.1375 240.24982L648.1375 247.04669L646.02814 247.04669Z" fill-rule="nonzero"/><path fill="#9e9e9e" d="M603.3875 265.07794L601.29376 265.2342Q601.0125 263.99982 600.4969 263.43732Q599.6375 262.53107 598.3875 262.53107Q597.3875 262.53107 596.6219 263.09357Q595.6219 263.81232 595.04376 265.21857Q594.48126 266.6092 594.45 269.18732Q595.21564 268.03107 596.3094 267.46857Q597.41876 266.90607 598.6219 266.90607Q600.73126 266.90607 602.21564 268.45294Q603.7 269.99982 603.7 272.46857Q603.7 274.07794 602.9969 275.46857Q602.3094 276.8592 601.09064 277.6092Q599.8719 278.34357 598.325 278.34357Q595.6844 278.34357 594.0125 276.40607Q592.35626 274.45294 592.35626 269.99982Q592.35626 265.03107 594.2 262.76544Q595.79376 260.7967 598.5125 260.7967Q600.54376 260.7967 601.84064 261.93732Q603.1375 263.06232 603.3875 265.07794ZM594.77814 272.4842Q594.77814 273.56232 595.23126 274.56232Q595.7 275.56232 596.52814 276.09357Q597.3719 276.6092 598.27814 276.6092Q599.6219 276.6092 600.575 275.53107Q601.54376 274.45294 601.54376 272.59357Q601.54376 270.81232 600.59064 269.7967Q599.6375 268.76544 598.2 268.76544Q596.77814 268.76544 595.77814 269.7967Q594.77814 270.81232 594.77814 272.4842ZM613.3875 278.0467L611.27814 278.0467L611.27814 264.6092Q610.52814 265.32794 609.27814 266.06232Q608.04376 266.78107 607.0594 267.14044L607.0594 265.1092Q608.84064 264.28107 610.15314 263.09357Q611.48126 261.90607 612.02814 260.7967L613.3875 260.7967L613.3875 278.0467ZM619.6375 278.0467L619.6375 275.64044L622.02814 275.64044L622.02814 278.0467L619.6375 278.0467ZM625.59064 263.1092L625.59064 261.09357L636.71564 261.09357L636.71564 262.7342Q635.075 264.46857 633.45 267.37482Q631.84064 270.26544 630.96564 273.32794Q630.34064 275.4842 630.15314 278.0467L627.9969 278.0467Q628.02814 276.01544 628.77814 273.15607Q629.54376 270.28107 630.96564 267.6092Q632.40314 264.93732 633.9969 263.1092L625.59064 263.1092ZM638.84064 264.9842Q638.84064 263.15607 639.7625 261.87482Q640.7 260.57794 642.45 260.57794Q644.075 260.57794 645.1375 261.7342Q646.2 262.87482 646.2 265.12482Q646.2 267.2967 645.1219 268.4842Q644.04376 269.65607 642.48126 269.65607Q640.91876 269.65607 639.8719 268.49982Q638.84064 267.32794 638.84064 264.9842ZM642.5125 262.03107Q641.73126 262.03107 641.2 262.71857Q640.6844 263.39044 640.6844 265.20294Q640.6844 266.8592 641.21564 267.53107Q641.7469 268.20294 642.5125 268.20294Q643.3094 268.20294 643.825 267.53107Q644.35626 266.84357 644.35626 265.03107Q644.35626 263.37482 643.825 262.70294Q643.29376 262.03107 642.5125 262.03107ZM642.52814 278.68732L651.91876 260.57794L653.6375 260.57794L644.27814 278.68732L642.52814 278.68732ZM649.95 274.01544Q649.95 272.15607 650.8719 270.87482Q651.8094 269.59357 653.575 269.59357Q655.2 269.59357 656.2469 270.74982Q657.3094 271.90607 657.3094 274.14044Q657.3094 276.32794 656.23126 277.51544Q655.16876 278.68732 653.59064 278.68732Q652.02814 278.68732 650.98126 277.51544Q649.95 276.34357 649.95 274.01544ZM653.6375 271.0467Q652.84064 271.0467 652.3094 271.7342Q651.79376 272.40607 651.79376 274.21857Q651.79376 275.8592 652.325 276.5467Q652.85626 277.21857 653.6219 277.21857Q654.4344 277.21857 654.95 276.5467Q655.48126 275.8592 655.48126 274.06232Q655.48126 272.39044 654.95 271.71857Q654.41876 271.0467 653.6375 271.0467Z" fill-rule="nonzero"/><path stroke="#757575" stroke-width="1.0" stroke-linecap="butt" d="M658.45 254.54669L493.26666 254.54669L470.3583 254.54669" fill-rule="nonzero"/><path fill="#9e9e9e" d="M472.3583 254.54669C472.3583 253.44212 471.4629 252.54669 470.3583 252.54669C469.25375 252.54669 468.3583 253.44212 468.3583 254.54669C468.3583 255.65128 469.25375 256.5467 470.3583 256.5467C471.4629 256.5467 472.3583 255.65128 472.3583 254.54669" fill-rule="nonzero"/><path fill="#757575" d="M20.08125 37.55L20.08125 23.2375L22.01875 23.2375L29.534374 34.471874L29.534374 23.2375L31.346874 23.2375L31.346874 37.55L29.409374 37.55L21.89375 26.3L21.89375 37.55L20.08125 37.55ZM39.659374 37.55L39.659374 36.01875Q38.45625 37.784374 36.378124 37.784374Q35.45625 37.784374 34.659374 37.440624Q33.8625 37.08125 33.471874 36.55Q33.096874 36.01875 32.940624 35.2375Q32.83125 34.721874 32.83125 33.596874L32.83125 27.175L34.58125 27.175L34.58125 32.925Q34.58125 34.3 34.690624 34.784374Q34.8625 35.471874 35.39375 35.878124Q35.940624 36.26875 36.721874 36.26875Q37.51875 36.26875 38.20625 35.8625Q38.909374 35.45625 39.190624 34.76875Q39.4875 34.065624 39.4875 32.7375L39.4875 27.175L41.2375 27.175L41.2375 37.55L39.659374 37.55ZM42.8625 37.55L42.8625 27.175L44.440624 27.175L44.440624 28.628124Q44.925 27.878124 45.7375 27.409374Q46.55 26.940624 47.58125 26.940624Q48.7375 26.940624 49.471874 27.425Q50.20625 27.89375 50.51875 28.753124Q51.753124 26.940624 53.721874 26.940624Q55.26875 26.940624 56.096874 27.8Q56.925 28.659374 56.925 30.425L56.925 37.55L55.175 37.55L55.175 31.01875Q55.175 29.95625 55.003124 29.503124Q54.83125 29.034374 54.378124 28.753124Q53.940624 28.471874 53.33125 28.471874Q52.2375 28.471874 51.503124 29.20625Q50.784374 29.925 50.784374 31.51875L50.784374 37.55L49.034374 37.55L49.034374 30.815624Q49.034374 29.64375 48.596874 29.065624Q48.175 28.471874 47.190624 28.471874Q46.45625 28.471874 45.815624 28.8625Q45.190624 29.253124 44.909374 30.003124Q44.628124 30.753124 44.628124 32.175L44.628124 37.55L42.8625 37.55ZM60.4875 37.55L58.8625 37.55L58.8625 23.2375L60.6125 23.2375L60.6125 28.346874Q61.7375 26.940624 63.45625 26.940624Q64.40938 26.940624 65.26875 27.33125Q66.12813 27.721874 66.675 28.425Q67.22188 29.1125 67.53438 30.096874Q67.84688 31.08125 67.84688 32.20625Q67.84688 34.878124 66.53438 36.33125Q65.22188 37.784374 63.378124 37.784374Q61.534374 37.784374 60.4875 36.253124L60.4875 37.55ZM60.471874 32.284374Q60.471874 34.14375 60.971874 34.9875Q61.815624 36.33125 63.221874 36.33125Q64.37813 36.33125 65.20625 35.33125Q66.05 34.33125 66.05 32.346874Q66.05 30.315624 65.2375 29.3625Q64.44063 28.39375 63.3 28.39375Q62.14375 28.39375 61.3 29.39375Q60.471874 30.39375 60.471874 32.284374ZM76.97188 34.20625L78.78438 34.440624Q78.3625 36.01875 77.19063 36.909374Q76.03438 37.784374 74.22188 37.784374Q71.95625 37.784374 70.6125 36.39375Q69.28438 34.9875 69.28438 32.45625Q69.28438 29.83125 70.62813 28.39375Q71.97188 26.940624 74.12813 26.940624Q76.20625 26.940624 77.51875 28.3625Q78.84688 29.76875 78.84688 32.346874Q78.84688 32.503124 78.83125 32.815624L71.09688 32.815624Q71.19063 34.51875 72.06563 35.425Q72.94063 36.33125 74.2375 36.33125Q75.20625 36.33125 75.87813 35.83125Q76.56563 35.315624 76.97188 34.20625ZM71.19063 31.3625L76.9875 31.3625Q76.87813 30.065624 76.33125 29.409374Q75.4875 28.39375 74.14375 28.39375Q72.94063 28.39375 72.1125 29.20625Q71.28438 30.003124 71.19063 31.3625ZM80.84688 37.55L80.84688 27.175L82.425 27.175L82.425 28.753124Q83.03438 27.64375 83.55 27.3Q84.06563 26.940624 84.675 26.940624Q85.56563 26.940624 86.4875 27.503124L85.87813 29.14375Q85.2375 28.753124 84.59688 28.753124Q84.01875 28.753124 83.55 29.1125Q83.09688 29.45625 82.89375 30.065624Q82.6125 31.003124 82.6125 32.1125L82.6125 37.55L80.84688 37.55ZM94.12813 37.55L94.12813 23.2375L100.47188 23.2375Q102.37813 23.2375 103.37813 23.628124Q104.37813 24.003124 104.97188 24.9875Q105.56563 25.95625 105.56563 27.14375Q105.56563 28.659374 104.58125 29.70625Q103.59688 30.753124 101.53438 31.034374Q102.28438 31.39375 102.675 31.753124Q103.50313 32.503124 104.25313 33.659374L106.7375 37.55L104.3625 37.55L102.45625 34.565624Q101.62813 33.284374 101.09688 32.596874Q100.56563 31.909374 100.12813 31.64375Q99.70625 31.3625 99.26875 31.253124Q98.94063 31.190624 98.22188 31.190624L96.01875 31.190624L96.01875 37.55L94.12813 37.55ZM96.01875 29.55L100.09688 29.55Q101.39375 29.55 102.1125 29.284374Q102.84688 29.01875 103.22188 28.425Q103.6125 27.83125 103.6125 27.14375Q103.6125 26.128124 102.87813 25.471874Q102.14375 24.815624 100.55 24.815624L96.01875 24.815624L96.01875 29.55ZM114.97188 34.20625L116.78438 34.440624Q116.3625 36.01875 115.19063 36.909374Q114.03438 37.784374 112.22188 37.784374Q109.95625 37.784374 108.6125 36.39375Q107.28438 34.9875 107.28438 32.45625Q107.28438 29.83125 108.62813 28.39375Q109.97188 26.940624 112.12813 26.940624Q114.20625 26.940624 115.51875 28.3625Q116.84688 29.76875 116.84688 32.346874Q116.84688 32.503124 116.83125 32.815624L109.09688 32.815624Q109.19063 34.51875 110.06563 35.425Q110.94063 36.33125 112.2375 36.33125Q113.20625 36.33125 113.87813 35.83125Q114.56563 35.315624 114.97188 34.20625ZM109.19063 31.3625L114.9875 31.3625Q114.87813 30.065624 114.33125 29.409374Q113.4875 28.39375 112.14375 28.39375Q110.94063 28.39375 110.1125 29.20625Q109.28438 30.003124 109.19063 31.3625ZM119.28438 37.55L119.28438 28.55L117.7375 28.55L117.7375 27.175L119.28438 27.175L119.28438 26.08125Q119.28438 25.034374 119.47188 24.51875Q119.72188 23.83125 120.3625 23.409374Q121.00313 22.9875 122.15938 22.9875Q122.90938 22.9875 123.8 23.159374L123.53438 24.690624Q122.9875 24.596874 122.50313 24.596874Q121.70625 24.596874 121.3625 24.940624Q121.03438 25.284374 121.03438 26.221874L121.03438 27.175L123.06563 27.175L123.06563 28.55L121.03438 28.55L121.03438 37.55L119.28438 37.55ZM124.87813 25.253124L124.87813 23.2375L126.64375 23.2375L126.64375 25.253124L124.87813 25.253124ZM124.87813 37.55L124.87813 27.175L126.64375 27.175L126.64375 37.55L124.87813 37.55ZM128.8625 37.55L128.8625 27.175L130.45625 27.175L130.45625 28.659374Q131.59688 26.940624 133.75313 26.940624Q134.69063 26.940624 135.47188 27.284374Q136.26875 27.6125 136.65938 28.159374Q137.05 28.70625 137.20625 29.45625Q137.3 29.95625 137.3 31.175L137.3 37.55L135.53438 37.55L135.53438 31.2375Q135.53438 30.159374 135.33125 29.628124Q135.12813 29.096874 134.59688 28.784374Q134.08125 28.471874 133.37813 28.471874Q132.25313 28.471874 131.44063 29.190624Q130.62813 29.89375 130.62813 31.878124L130.62813 37.55L128.8625 37.55ZM145.97188 34.20625L147.78438 34.440624Q147.3625 36.01875 146.19063 36.909374Q145.03438 37.784374 143.22188 37.784374Q140.95625 37.784374 139.6125 36.39375Q138.28438 34.9875 138.28438 32.45625Q138.28438 29.83125 139.62813 28.39375Q140.97188 26.940624 143.12813 26.940624Q145.20625 26.940624 146.51875 28.3625Q147.84688 29.76875 147.84688 32.346874Q147.84688 32.503124 147.83125 32.815624L140.09688 32.815624Q140.19063 34.51875 141.06563 35.425Q141.94063 36.33125 143.2375 36.33125Q144.20625 36.33125 144.87813 35.83125Q145.56563 35.315624 145.97188 34.20625ZM140.19063 31.3625L145.9875 31.3625Q145.87813 30.065624 145.33125 29.409374Q144.4875 28.39375 143.14375 28.39375Q141.94063 28.39375 141.1125 29.20625Q140.28438 30.003124 140.19063 31.3625ZM149.8625 37.55L149.8625 27.175L151.44063 27.175L151.44063 28.628124Q151.925 27.878124 152.7375 27.409374Q153.55 26.940624 154.58125 26.940624Q155.7375 26.940624 156.47188 27.425Q157.20625 27.89375 157.51875 28.753124Q158.75313 26.940624 160.72188 26.940624Q162.26875 26.940624 163.09688 27.8Q163.925 28.659374 163.925 30.425L163.925 37.55L162.175 37.55L162.175 31.01875Q162.175 29.95625 162.00313 29.503124Q161.83125 29.034374 161.37813 28.753124Q160.94063 28.471874 160.33125 28.471874Q159.2375 28.471874 158.50313 29.20625Q157.78438 29.925 157.78438 31.51875L157.78438 37.55L156.03438 37.55L156.03438 30.815624Q156.03438 29.64375 155.59688 29.065624Q155.175 28.471874 154.19063 28.471874Q153.45625 28.471874 152.81563 28.8625Q152.19063 29.253124 151.90938 30.003124Q151.62813 30.753124 151.62813 32.175L151.62813 37.55L149.8625 37.55ZM172.97188 34.20625L174.78438 34.440624Q174.3625 36.01875 173.19063 36.909374Q172.03438 37.784374 170.22188 37.784374Q167.95625 37.784374 166.6125 36.39375Q165.28438 34.9875 165.28438 32.45625Q165.28438 29.83125 166.62813 28.39375Q167.97188 26.940624 170.12813 26.940624Q172.20625 26.940624 173.51875 28.3625Q174.84688 29.76875 174.84688 32.346874Q174.84688 32.503124 174.83125 32.815624L167.09688 32.815624Q167.19063 34.51875 168.06563 35.425Q168.94063 36.33125 170.2375 36.33125Q171.20625 36.33125 171.87813 35.83125Q172.56563 35.315624 172.97188 34.20625ZM167.19063 31.3625L172.9875 31.3625Q172.87813 30.065624 172.33125 29.409374Q171.4875 28.39375 170.14375 28.39375Q168.94063 28.39375 168.1125 29.20625Q167.28438 30.003124 167.19063 31.3625ZM176.8625 37.55L176.8625 27.175L178.45625 27.175L178.45625 28.659374Q179.59688 26.940624 181.75313 26.940624Q182.69063 26.940624 183.47188 27.284374Q184.26875 27.6125 184.65938 28.159374Q185.05 28.70625 185.20625 29.45625Q185.3 29.95625 185.3 31.175L185.3 37.55L183.53438 37.55L183.53438 31.2375Q183.53438 30.159374 183.33125 29.628124Q183.12813 29.096874 182.59688 28.784374Q182.08125 28.471874 181.37813 28.471874Q180.25313 28.471874 179.44063 29.190624Q178.62813 29.89375 178.62813 31.878124L178.62813 37.55L176.8625 37.55ZM190.70625 35.971874L190.95625 37.534374Q190.22188 37.690624 189.62813 37.690624Q188.675 37.690624 188.14375 37.39375Q187.62813 37.08125 187.40938 36.596874Q187.19063 36.096874 187.19063 34.51875L187.19063 28.55L185.90938 28.55L185.90938 27.175L187.19063 27.175L187.19063 24.6125L188.94063 23.55L188.94063 27.175L190.70625 27.175L190.70625 28.55L188.94063 28.55L188.94063 34.6125Q188.94063 35.3625 189.03438 35.58125Q189.12813 35.784374 189.33125 35.925Q189.55 36.05 189.94063 36.05Q190.22188 36.05 190.70625 35.971874ZM192.15938 34.45625L193.90938 34.175Q194.05 35.221874 194.72188 35.784374Q195.39375 36.33125 196.59688 36.33125Q197.8 36.33125 198.37813 35.846874Q198.97188 35.346874 198.97188 34.690624Q198.97188 34.096874 198.45625 33.753124Q198.09688 33.51875 196.65938 33.159374Q194.72188 32.659374 193.97188 32.315624Q193.2375 31.95625 192.84688 31.33125Q192.45625 30.690624 192.45625 29.925Q192.45625 29.2375 192.76875 28.64375Q193.09688 28.05 193.64375 27.659374Q194.05 27.3625 194.75313 27.159374Q195.47188 26.940624 196.28438 26.940624Q197.50313 26.940624 198.425 27.3Q199.34688 27.64375 199.78438 28.253124Q200.22188 28.846874 200.39375 29.846874L198.675 30.08125Q198.55 29.284374 197.9875 28.846874Q197.425 28.39375 196.40938 28.39375Q195.19063 28.39375 194.675 28.8Q194.15938 29.190624 194.15938 29.721874Q194.15938 30.065624 194.37813 30.346874Q194.58125 30.628124 195.05 30.815624Q195.31563 30.909374 196.59688 31.253124Q198.47188 31.753124 199.20625 32.08125Q199.94063 32.39375 200.3625 33.003124Q200.78438 33.596874 200.78438 34.503124Q200.78438 35.378124 200.26875 36.159374Q199.75313 36.940624 198.78438 37.3625Q197.81563 37.784374 196.59688 37.784374Q194.58125 37.784374 193.51875 36.940624Q192.45625 36.096874 192.15938 34.45625Z" fill-rule="nonzero"/></svg>