<svg version="1.1" viewBox="0.0 0.0 600.0 371.0" fill="none" stroke="none" stroke-linecap="square" stroke-miterlimit="10" xmlns:xlink="http://www.w3.org/1999/xlink" xmlns="http://www.w3.org/2000/svg"><path fill="#ffffff" d="M0 0L600.0 0L600.0 371.0L0 371.0L0 0Z" fill-rule="nonzero"/><path fill="#ff6f31" d="M164.39832 142.49753C188.45314 89.18654 241.51329 54.916668 300.0 54.916668L300.0 203.68333Z" fill-rule="nonzero"/><path fill="#004561" d="M152.1008 187.64122C153.79314 172.03886 157.94363 156.80257 164.39832 142.49753L300.0 203.68333Z" fill-rule="nonzero"/><path fill="#5891ad" d="M300.0 54.916668C361.63623 54.916668 416.88928 92.924866 438.9299 150.48558C460.97052 208.0463 445.23355 273.23734 399.3604 314.4038C353.4873 355.5703 286.9794 364.1857 232.13106 336.0666C177.28271 307.94748 145.45432 248.91803 152.1008 187.64122L300.0 203.68333Z" fill-rule="nonzero"/><path fill="#ffffff" d="M367.41833 290.41046L367.41833 291.9261L358.9027 291.9261Q358.8871 291.34796 359.0902 290.83234Q359.41833 289.95734 360.12146 289.1136Q360.8402 288.26984 362.1996 287.16046Q364.29333 285.4417 365.0277 284.4417Q365.7777 283.4261 365.7777 282.53546Q365.7777 281.58234 365.10583 280.9417Q364.43396 280.3011 363.35583 280.3011Q362.1996 280.3011 361.5121 280.9886Q360.8402 281.6761 360.8246 282.8792L359.1996 282.70734Q359.37146 280.89484 360.4496 279.9417Q361.54333 278.9886 363.3871 278.9886Q365.23083 278.9886 366.30896 280.01984Q367.4027 281.0511 367.4027 282.5667Q367.4027 283.33234 367.0746 284.08234Q366.7621 284.83234 366.0277 285.66046Q365.29333 286.4886 363.5902 287.9261Q362.16833 289.1292 361.7621 289.5511Q361.35583 289.97296 361.10583 290.41046L367.41833 290.41046ZM369.3402 288.9417L370.85583 288.8011Q371.05896 289.8792 371.5902 290.3636Q372.1371 290.84796 372.99646 290.84796Q373.73083 290.84796 374.2777 290.51984Q374.8246 290.1761 375.16833 289.6292Q375.5277 289.0667 375.7621 288.1136Q375.99646 287.16046 375.99646 286.1761Q375.99646 286.0667 375.99646 285.8636Q375.5121 286.6136 374.68396 287.08234Q373.87146 287.5511 372.91833 287.5511Q371.3246 287.5511 370.2152 286.39484Q369.10583 285.2386 369.10583 283.33234Q369.10583 281.3792 370.2621 280.1917Q371.41833 278.9886 373.1527 278.9886Q374.41833 278.9886 375.4496 279.6761Q376.49646 280.34796 377.0277 281.59796Q377.5746 282.84796 377.5746 285.22296Q377.5746 287.6917 377.0277 289.16046Q376.49646 290.6136 375.43396 291.3792Q374.3871 292.14484 372.9652 292.14484Q371.4496 292.14484 370.48083 291.3167Q369.5277 290.47296 369.3402 288.9417ZM375.8246 283.2542Q375.8246 281.89484 375.0902 281.09796Q374.37146 280.3011 373.35583 280.3011Q372.29333 280.3011 371.5121 281.16046Q370.73083 282.01984 370.73083 283.39484Q370.73083 284.6292 371.4652 285.39484Q372.2152 286.16046 373.30896 286.16046Q374.4027 286.16046 375.10583 285.39484Q375.8246 284.6292 375.8246 283.2542ZM379.10583 285.5667Q379.10583 283.28546 379.5746 281.89484Q380.04333 280.5042 380.9652 279.7542Q381.9027 278.9886 383.30896 278.9886Q384.3402 278.9886 385.12146 279.41046Q385.9027 279.8167 386.4027 280.6136Q386.91833 281.39484 387.2152 282.53546Q387.5121 283.66046 387.5121 285.5667Q387.5121 287.83234 387.04333 289.2386Q386.5746 290.6292 385.6371 291.39484Q384.7152 292.14484 383.30896 292.14484Q381.43396 292.14484 380.37146 290.8167Q379.10583 289.20734 379.10583 285.5667ZM380.73083 285.5667Q380.73083 288.7386 381.4652 289.8011Q382.2152 290.84796 383.30896 290.84796Q384.3871 290.84796 385.1371 289.8011Q385.8871 288.7386 385.8871 285.5667Q385.8871 282.39484 385.1371 281.34796Q384.3871 280.3011 383.29333 280.3011Q382.1996 280.3011 381.54333 281.22296Q380.73083 282.39484 380.73083 285.5667Z" fill-rule="nonzero"/><path fill="#ffffff" d="M183.80847 179.42992L182.23035 179.42992L182.23035 169.35179Q181.65222 169.89867 180.73035 170.44554Q179.80847 170.97679 179.05847 171.25804L179.05847 169.72679Q180.3866 169.10179 181.3866 168.21117Q182.3866 167.32054 182.79285 166.49242L183.80847 166.49242L183.80847 179.42992ZM188.08972 176.44554L189.60535 176.30492Q189.80847 177.38304 190.33972 177.86742Q190.8866 178.35179 191.74597 178.35179Q192.48035 178.35179 193.02722 178.02367Q193.5741 177.67992 193.91785 177.13304Q194.27722 176.57054 194.5116 175.61742Q194.74597 174.66429 194.74597 173.67992Q194.74597 173.57054 194.74597 173.36742Q194.2616 174.11742 193.43347 174.58617Q192.62097 175.05492 191.66785 175.05492Q190.0741 175.05492 188.96472 173.89867Q187.85535 172.74242 187.85535 170.83617Q187.85535 168.88304 189.0116 167.69554Q190.16785 166.49242 191.90222 166.49242Q193.16785 166.49242 194.1991 167.17992Q195.24597 167.85179 195.77722 169.10179Q196.3241 170.35179 196.3241 172.72679Q196.3241 175.19554 195.77722 176.66429Q195.24597 178.11742 194.18347 178.88304Q193.1366 179.64867 191.71472 179.64867Q190.1991 179.64867 189.23035 178.82054Q188.27722 177.97679 188.08972 176.44554ZM194.5741 170.75804Q194.5741 169.39867 193.83972 168.60179Q193.12097 167.80492 192.10535 167.80492Q191.04285 167.80492 190.2616 168.66429Q189.48035 169.52367 189.48035 170.89867Q189.48035 172.13304 190.21472 172.89867Q190.96472 173.66429 192.05847 173.66429Q193.15222 173.66429 193.85535 172.89867Q194.5741 172.13304 194.5741 170.75804Z" fill-rule="nonzero"/><path fill="#ffffff" d="M237.22115 104.86917L235.65865 104.99417Q235.4399 104.072296 235.04927 103.65042Q234.40865 102.96292 233.47115 102.96292Q232.72115 102.96292 232.14302 103.384796Q231.39302 103.93167 230.95552 104.978546Q230.53365 106.02542 230.51802 107.96292Q231.09615 107.08792 231.90865 106.666046Q232.73677 106.24417 233.64302 106.24417Q235.23677 106.24417 236.34615 107.416046Q237.45552 108.572296 237.45552 110.416046Q237.45552 111.634796 236.92427 112.68167Q236.40865 113.71292 235.48677 114.27542Q234.58052 114.822296 233.42427 114.822296Q231.4399 114.822296 230.1899 113.36917Q228.9399 111.916046 228.9399 108.572296Q228.9399 104.83792 230.33052 103.134796Q231.53365 101.666046 233.5649 101.666046Q235.09615 101.666046 236.0649 102.52542Q237.03365 103.36917 237.22115 104.86917ZM230.76802 110.43167Q230.76802 111.24417 231.11177 111.99417Q231.45552 112.74417 232.08052 113.134796Q232.70552 113.52542 233.39302 113.52542Q234.39302 113.52542 235.11177 112.71292Q235.83052 111.90042 235.83052 110.509796Q235.83052 109.18167 235.11177 108.416046Q234.40865 107.634796 233.33052 107.634796Q232.2524 107.634796 231.5024 108.416046Q230.76802 109.18167 230.76802 110.43167ZM239.2524 111.61917L240.76802 111.478546Q240.97115 112.55667 241.5024 113.041046Q242.04927 113.52542 242.90865 113.52542Q243.64302 113.52542 244.1899 113.197296Q244.73677 112.853546 245.08052 112.30667Q245.4399 111.74417 245.67427 110.791046Q245.90865 109.83792 245.90865 108.853546Q245.90865 108.74417 245.90865 108.541046Q245.42427 109.291046 244.59615 109.759796Q243.78365 110.228546 242.83052 110.228546Q241.23677 110.228546 240.1274 109.072296Q239.01802 107.916046 239.01802 106.009796Q239.01802 104.05667 240.17427 102.86917Q241.33052 101.666046 243.0649 101.666046Q244.33052 101.666046 245.36177 102.353546Q246.40865 103.02542 246.9399 104.27542Q247.48677 105.52542 247.48677 107.90042Q247.48677 110.36917 246.9399 111.83792Q246.40865 113.291046 245.34615 114.05667Q244.29927 114.822296 242.8774 114.822296Q241.36177 114.822296 240.39302 113.99417Q239.4399 113.15042 239.2524 111.61917ZM245.73677 105.93167Q245.73677 104.572296 245.0024 103.77542Q244.28365 102.978546 243.26802 102.978546Q242.20552 102.978546 241.42427 103.83792Q240.64302 104.697296 240.64302 106.072296Q240.64302 107.30667 241.3774 108.072296Q242.1274 108.83792 243.22115 108.83792Q244.3149 108.83792 245.01802 108.072296Q245.73677 107.30667 245.73677 105.93167Z" fill-rule="nonzero"/><path fill="#1a1a1a" d="M19.425 72.18262Q19.425 68.97949 21.14375 67.16699Q22.8625 65.35449 25.596874 65.35449Q27.378124 65.35449 28.8 66.21387Q30.2375 67.05762 30.9875 68.58887Q31.7375 70.10449 31.7375 72.04199Q31.7375 73.99512 30.940624 75.54199Q30.159374 77.08887 28.70625 77.88574Q27.253124 78.68262 25.58125 78.68262Q23.76875 78.68262 22.33125 77.80762Q20.89375 76.93262 20.159374 75.41699Q19.425 73.88574 19.425 72.18262ZM21.175 72.21387Q21.175 74.54199 22.425 75.88574Q23.690624 77.22949 25.565624 77.22949Q27.503124 77.22949 28.7375 75.87012Q29.9875 74.51074 29.9875 72.02637Q29.9875 70.46387 29.45625 69.29199Q28.925 68.10449 27.89375 67.46387Q26.878124 66.82324 25.596874 66.82324Q23.784374 66.82324 22.471874 68.07324Q21.175 69.30762 21.175 72.21387ZM37.190624 77.04199L37.425 78.44824Q36.753124 78.58887 36.221874 78.58887Q35.3625 78.58887 34.878124 78.32324Q34.409374 78.04199 34.221874 77.60449Q34.034374 77.15137 34.034374 75.72949L34.034374 70.35449L32.8625 70.35449L32.8625 69.13574L34.034374 69.13574L34.034374 66.82324L35.596874 65.87012L35.596874 69.13574L37.190624 69.13574L37.190624 70.35449L35.596874 70.35449L35.596874 75.82324Q35.596874 76.49512 35.675 76.69824Q35.76875 76.88574 35.95625 76.99512Q36.14375 77.10449 36.503124 77.10449Q36.753124 77.10449 37.190624 77.04199ZM38.7375 78.46387L38.7375 65.57324L40.315624 65.57324L40.315624 70.19824Q41.425 68.91699 43.1125 68.91699Q44.14375 68.91699 44.909374 69.32324Q45.675 69.72949 46.003124 70.46387Q46.346874 71.18262 46.346874 72.54199L46.346874 78.46387L44.753124 78.46387L44.753124 72.54199Q44.753124 71.35449 44.2375 70.82324Q43.721874 70.27637 42.784374 70.27637Q42.08125 70.27637 41.45625 70.65137Q40.846874 71.01074 40.58125 71.63574Q40.315624 72.26074 40.315624 73.35449L40.315624 78.46387L38.7375 78.46387ZM55.128124 75.46387L56.76875 75.66699Q56.378124 77.08887 55.33125 77.88574Q54.284374 78.68262 52.659374 78.68262Q50.6125 78.68262 49.409374 77.41699Q48.20625 76.15137 48.20625 73.87012Q48.20625 71.52637 49.409374 70.22949Q50.628124 68.91699 52.565624 68.91699Q54.440624 68.91699 55.628124 70.19824Q56.815624 71.46387 56.815624 73.77637Q56.815624 73.91699 56.8 74.19824L49.846874 74.19824Q49.925 75.74512 50.70625 76.55762Q51.503124 77.37012 52.659374 77.37012Q53.534374 77.37012 54.14375 76.91699Q54.76875 76.46387 55.128124 75.46387ZM49.925 72.90137L55.14375 72.90137Q55.034374 71.72949 54.55 71.13574Q53.784374 70.21387 52.58125 70.21387Q51.503124 70.21387 50.753124 70.94824Q50.01875 71.68262 49.925 72.90137ZM58.721874 78.46387L58.721874 69.13574L60.14375 69.13574L60.14375 70.54199Q60.690624 69.55762 61.14375 69.24512Q61.6125 68.91699 62.159374 68.91699Q62.971874 68.91699 63.784374 69.43262L63.253124 70.90137Q62.659374 70.55762 62.08125 70.55762Q61.565624 70.55762 61.14375 70.87012Q60.7375 71.18262 60.565624 71.72949Q60.3 72.57324 60.3 73.57324L60.3 78.46387L58.721874 78.46387ZM64.09688 75.68262L65.675 75.43262Q65.8 76.37012 66.39375 76.87012Q67.00313 77.37012 68.08125 77.37012Q69.175 77.37012 69.70625 76.93262Q70.2375 76.47949 70.2375 75.88574Q70.2375 75.35449 69.76875 75.04199Q69.44063 74.83887 68.14375 74.51074Q66.40938 74.07324 65.7375 73.76074Q65.06563 73.43262 64.70625 72.87012Q64.3625 72.29199 64.3625 71.60449Q64.3625 70.97949 64.64375 70.44824Q64.94063 69.91699 65.425 69.57324Q65.8 69.29199 66.44063 69.10449Q67.08125 68.91699 67.8 68.91699Q68.90938 68.91699 69.7375 69.24512Q70.56563 69.55762 70.95625 70.10449Q71.3625 70.63574 71.50313 71.54199L69.95625 71.74512Q69.84688 71.02637 69.34688 70.62012Q68.84688 70.21387 67.925 70.21387Q66.83125 70.21387 66.3625 70.57324Q65.89375 70.93262 65.89375 71.41699Q65.89375 71.72949 66.09688 71.97949Q66.28438 72.22949 66.69063 72.40137Q66.94063 72.47949 68.09688 72.80762Q69.76875 73.24512 70.425 73.54199Q71.09688 73.82324 71.47188 74.37012Q71.8625 74.91699 71.8625 75.71387Q71.8625 76.51074 71.39375 77.21387Q70.94063 77.91699 70.06563 78.30762Q69.19063 78.68262 68.09688 78.68262Q66.26875 78.68262 65.31563 77.93262Q64.3625 77.16699 64.09688 75.68262Z" fill-rule="nonzero"/><path fill="#9e9e9e" d="M25.253124 103.46387L23.675 103.46387L23.675 93.38574Q23.096874 93.93262 22.175 94.47949Q21.253124 95.01074 20.503124 95.29199L20.503124 93.76074Q21.83125 93.13574 22.83125 92.24512Q23.83125 91.35449 24.2375 90.52637L25.253124 90.52637L25.253124 103.46387ZM31.7375 96.47949Q30.753124 96.12012 30.26875 95.44824Q29.8 94.77637 29.8 93.85449Q29.8 92.44824 30.8 91.49512Q31.815624 90.52637 33.503124 90.52637Q35.190624 90.52637 36.20625 91.51074Q37.2375 92.47949 37.2375 93.88574Q37.2375 94.79199 36.76875 95.46387Q36.3 96.12012 35.346874 96.47949Q36.534374 96.87012 37.14375 97.72949Q37.76875 98.58887 37.76875 99.77637Q37.76875 101.43262 36.596874 102.55762Q35.425 103.68262 33.51875 103.68262Q31.6125 103.68262 30.440624 102.55762Q29.284374 101.41699 29.284374 99.72949Q29.284374 98.47949 29.909374 97.63574Q30.55 96.77637 31.7375 96.47949ZM31.409374 93.79199Q31.409374 94.71387 32.003124 95.29199Q32.596874 95.87012 33.534374 95.87012Q34.440624 95.87012 35.01875 95.29199Q35.6125 94.71387 35.6125 93.88574Q35.6125 93.01074 35.003124 92.41699Q34.409374 91.82324 33.51875 91.82324Q32.6125 91.82324 32.003124 92.40137Q31.409374 92.97949 31.409374 93.79199ZM30.909374 99.74512Q30.909374 100.41699 31.221874 101.05762Q31.55 101.68262 32.175 102.04199Q32.815624 102.38574 33.55 102.38574Q34.675 102.38574 35.409374 101.65137Q36.159374 100.91699 36.159374 99.79199Q36.159374 98.65137 35.39375 97.91699Q34.628124 97.16699 33.4875 97.16699Q32.378124 97.16699 31.64375 97.90137Q30.909374 98.63574 30.909374 99.74512ZM40.190624 103.46387L40.190624 101.66699L41.9875 101.66699L41.9875 103.46387L40.190624 103.46387ZM44.3 100.05762L45.89375 99.85449Q46.159374 101.19824 46.815624 101.79199Q47.471874 102.38574 48.409374 102.38574Q49.534374 102.38574 50.3 101.62012Q51.065624 100.83887 51.065624 99.69824Q51.065624 98.60449 50.346874 97.90137Q49.64375 97.18262 48.55 97.18262Q48.096874 97.18262 47.425 97.37012L47.596874 95.97949Q47.753124 95.99512 47.8625 95.99512Q48.8625 95.99512 49.675 95.46387Q50.4875 94.93262 50.4875 93.83887Q50.4875 92.96387 49.89375 92.40137Q49.3 91.82324 48.378124 91.82324Q47.45625 91.82324 46.83125 92.40137Q46.221874 92.97949 46.05 94.15137L44.471874 93.87012Q44.753124 92.27637 45.784374 91.40137Q46.815624 90.52637 48.346874 90.52637Q49.39375 90.52637 50.284374 90.97949Q51.175 91.43262 51.64375 92.21387Q52.1125 92.99512 52.1125 93.87012Q52.1125 94.71387 51.659374 95.40137Q51.221874 96.07324 50.33125 96.47949Q51.471874 96.74512 52.096874 97.58887Q52.7375 98.41699 52.7375 99.65137Q52.7375 101.33887 51.503124 102.52637Q50.284374 103.69824 48.409374 103.69824Q46.70625 103.69824 45.58125 102.68262Q44.471874 101.66699 44.3 100.05762ZM54.596874 93.66699Q54.596874 92.29199 55.284374 91.32324Q55.9875 90.35449 57.3 90.35449Q58.51875 90.35449 59.315624 91.22949Q60.1125 92.08887 60.1125 93.77637Q60.1125 95.40137 59.3 96.29199Q58.503124 97.16699 57.315624 97.16699Q56.159374 97.16699 55.378124 96.30762Q54.596874 95.43262 54.596874 93.66699ZM57.346874 91.44824Q56.753124 91.44824 56.3625 91.96387Q55.971874 92.46387 55.971874 93.82324Q55.971874 95.07324 56.3625 95.57324Q56.76875 96.07324 57.346874 96.07324Q57.940624 96.07324 58.33125 95.57324Q58.721874 95.05762 58.721874 93.71387Q58.721874 92.46387 58.33125 91.96387Q57.940624 91.44824 57.346874 91.44824ZM57.3625 103.93262L64.40938 90.35449L65.69063 90.35449L58.659374 103.93262L57.3625 103.93262ZM62.925 100.43262Q62.925 99.05762 63.6125 98.08887Q64.31563 97.12012 65.64375 97.12012Q66.8625 97.12012 67.64375 97.99512Q68.44063 98.85449 68.44063 100.54199Q68.44063 102.16699 67.64375 103.05762Q66.84688 103.93262 65.65938 103.93262Q64.4875 103.93262 63.70625 103.05762Q62.925 102.18262 62.925 100.43262ZM65.69063 98.21387Q65.09688 98.21387 64.70625 98.72949Q64.31563 99.22949 64.31563 100.60449Q64.31563 101.82324 64.70625 102.33887Q65.09688 102.85449 65.675 102.85449Q66.28438 102.85449 66.675 102.33887Q67.06563 101.82324 67.06563 100.47949Q67.06563 99.22949 66.675 98.72949Q66.28438 98.21387 65.69063 98.21387Z" fill-rule="nonzero"/><path stroke="#757575" stroke-width="1.0" stroke-linecap="butt" d="M18.55 84.96387L145.23334 84.96387L223.32285 84.96387" fill-rule="nonzero"/><path fill="#9e9e9e" d="M225.32285 84.96387C225.32285 83.8593 224.42741 82.96387 223.32285 82.96387C222.21828 82.96387 221.32285 83.8593 221.32285 84.96387C221.32285 86.068436 222.21828 86.96387 223.32285 86.96387C224.42741 86.96387 225.32285 86.068436 225.32285 84.96387" fill-rule="nonzero"/><path fill="#1a1a1a" d="M23.221874 160.0379L23.221874 148.67853L18.971874 148.67853L18.971874 147.14728L29.190624 147.14728L29.190624 148.67853L24.925 148.67853L24.925 160.0379L23.221874 160.0379ZM35.628124 160.0379L30.628124 147.14728L32.471874 147.14728L35.83125 156.50665Q36.221874 157.63165 36.503124 158.61603Q36.8 157.56915 37.190624 156.50665L40.675 147.14728L42.409374 147.14728L37.378124 160.0379L35.628124 160.0379Z" fill-rule="nonzero"/><path fill="#9e9e9e" d="M19.3 181.6629L20.95625 181.52228Q21.14375 182.74103 21.815624 183.3504Q22.4875 183.95978 23.440624 183.95978Q24.58125 183.95978 25.3625 183.1004Q26.159374 182.24103 26.159374 180.80353Q26.159374 179.45978 25.39375 178.67853Q24.64375 177.89728 23.409374 177.89728Q22.64375 177.89728 22.01875 178.24103Q21.409374 178.58478 21.065624 179.14728L19.58125 178.94415L20.83125 172.33478L27.2375 172.33478L27.2375 173.83478L22.096874 173.83478L21.39375 177.30353Q22.565624 176.49103 23.83125 176.49103Q25.51875 176.49103 26.675 177.6629Q27.846874 178.83478 27.846874 180.6629Q27.846874 182.4129 26.815624 183.69415Q25.58125 185.25665 23.440624 185.25665Q21.675 185.25665 20.565624 184.27228Q19.45625 183.2879 19.3 181.6629ZM30.190624 185.0379L30.190624 183.24103L31.9875 183.24103L31.9875 185.0379L30.190624 185.0379ZM34.3 178.67853Q34.3 176.39728 34.76875 175.00665Q35.2375 173.61603 36.159374 172.86603Q37.096874 172.1004 38.503124 172.1004Q39.534374 172.1004 40.315624 172.52228Q41.096874 172.92853 41.596874 173.7254Q42.1125 174.50665 42.409374 175.64728Q42.70625 176.77228 42.70625 178.67853Q42.70625 180.94415 42.2375 182.3504Q41.76875 183.74103 40.83125 184.50665Q39.909374 185.25665 38.503124 185.25665Q36.628124 185.25665 35.565624 183.92853Q34.3 182.31915 34.3 178.67853ZM35.925 178.67853Q35.925 181.8504 36.659374 182.9129Q37.409374 183.95978 38.503124 183.95978Q39.58125 183.95978 40.33125 182.9129Q41.08125 181.8504 41.08125 178.67853Q41.08125 175.50665 40.33125 174.45978Q39.58125 173.4129 38.4875 173.4129Q37.39375 173.4129 36.7375 174.33478Q35.925 175.50665 35.925 178.67853ZM44.596874 175.24103Q44.596874 173.86603 45.284374 172.89728Q45.9875 171.92853 47.3 171.92853Q48.51875 171.92853 49.315624 172.80353Q50.1125 173.6629 50.1125 175.3504Q50.1125 176.9754 49.3 177.86603Q48.503124 178.74103 47.315624 178.74103Q46.159374 178.74103 45.378124 177.88165Q44.596874 177.00665 44.596874 175.24103ZM47.346874 173.02228Q46.753124 173.02228 46.3625 173.5379Q45.971874 174.0379 45.971874 175.39728Q45.971874 176.64728 46.3625 177.14728Q46.76875 177.64728 47.346874 177.64728Q47.940624 177.64728 48.33125 177.14728Q48.721874 176.63165 48.721874 175.2879Q48.721874 174.0379 48.33125 173.5379Q47.940624 173.02228 47.346874 173.02228ZM47.3625 185.50665L54.409374 171.92853L55.690624 171.92853L48.659374 185.50665L47.3625 185.50665ZM52.925 182.00665Q52.925 180.63165 53.6125 179.6629Q54.315624 178.69415 55.64375 178.69415Q56.8625 178.69415 57.64375 179.56915Q58.440624 180.42853 58.440624 182.11603Q58.440624 183.74103 57.64375 184.63165Q56.846874 185.50665 55.659374 185.50665Q54.4875 185.50665 53.70625 184.63165Q52.925 183.75665 52.925 182.00665ZM55.690624 179.7879Q55.096874 179.7879 54.70625 180.30353Q54.315624 180.80353 54.315624 182.17853Q54.315624 183.39728 54.70625 183.9129Q55.096874 184.42853 55.675 184.42853Q56.284374 184.42853 56.675 183.9129Q57.065624 183.39728 57.065624 182.05353Q57.065624 180.80353 56.675 180.30353Q56.284374 179.7879 55.690624 179.7879Z" fill-rule="nonzero"/><path stroke="#757575" stroke-width="1.0" stroke-linecap="butt" d="M18.55 166.5379L145.23334 166.5379L163.64049 166.5379" fill-rule="nonzero"/><path fill="#9e9e9e" d="M165.64049 166.5379C165.64049 165.43333 164.74507 164.5379 163.64049 164.5379C162.53592 164.5379 161.64049 165.43333 161.64049 166.5379C161.64049 167.64247 162.53592 168.5379 163.64049 168.5379C164.74507 168.5379 165.64049 167.64247 165.64049 166.5379" fill-rule="nonzero"/><path fill="#1a1a1a" d="M525.1219 302.3678L525.1219 289.47717L526.84064 289.47717L526.84064 302.3678L525.1219 302.3678ZM528.6375 302.3678L528.6375 293.03967L530.0594 293.03967L530.0594 294.3678Q531.09064 292.82092 533.02814 292.82092Q533.8719 292.82092 534.575 293.13342Q535.29376 293.4303 535.6375 293.9303Q535.9969 294.41467 536.1375 295.08655Q536.21564 295.52405 536.21564 296.63342L536.21564 302.3678L534.6375 302.3678L534.6375 296.69592Q534.6375 295.72717 534.45 295.2428Q534.27814 294.75842 533.79376 294.47717Q533.325 294.19592 532.7 294.19592Q531.6844 294.19592 530.95 294.83655Q530.21564 295.47717 530.21564 297.27405L530.21564 302.3678L528.6375 302.3678ZM542.09064 300.94592L542.325 302.35217Q541.65314 302.4928 541.1219 302.4928Q540.2625 302.4928 539.77814 302.22717Q539.3094 301.94592 539.1219 301.50842Q538.9344 301.0553 538.9344 299.63342L538.9344 294.25842L537.7625 294.25842L537.7625 293.03967L538.9344 293.03967L538.9344 290.72717L540.4969 289.77405L540.4969 293.03967L542.09064 293.03967L542.09064 294.25842L540.4969 294.25842L540.4969 299.72717Q540.4969 300.39905 540.575 300.60217Q540.66876 300.78967 540.85626 300.89905Q541.04376 301.00842 541.40314 301.00842Q541.65314 301.00842 542.09064 300.94592ZM550.02814 299.3678L551.66876 299.57092Q551.27814 300.9928 550.23126 301.78967Q549.1844 302.58655 547.5594 302.58655Q545.5125 302.58655 544.3094 301.32092Q543.10626 300.0553 543.10626 297.77405Q543.10626 295.4303 544.3094 294.13342Q545.52814 292.82092 547.46564 292.82092Q549.34064 292.82092 550.52814 294.10217Q551.71564 295.3678 551.71564 297.6803Q551.71564 297.82092 551.7 298.10217L544.7469 298.10217Q544.825 299.64905 545.60626 300.46155Q546.40314 301.27405 547.5594 301.27405Q548.4344 301.27405 549.04376 300.82092Q549.66876 300.3678 550.02814 299.3678ZM544.825 296.8053L550.04376 296.8053Q549.9344 295.63342 549.45 295.03967Q548.6844 294.1178 547.48126 294.1178Q546.40314 294.1178 545.65314 294.85217Q544.91876 295.58655 544.825 296.8053ZM553.6219 302.3678L553.6219 293.03967L555.04376 293.03967L555.04376 294.44592Q555.59064 293.46155 556.04376 293.14905Q556.5125 292.82092 557.0594 292.82092Q557.8719 292.82092 558.6844 293.33655L558.15314 294.8053Q557.5594 294.46155 556.98126 294.46155Q556.46564 294.46155 556.04376 294.77405Q555.6375 295.08655 555.46564 295.63342Q555.2 296.47717 555.2 297.47717L555.2 302.3678L553.6219 302.3678ZM562.23126 302.3678L558.6844 293.03967L560.35626 293.03967L562.35626 298.6178Q562.6844 299.52405 562.95 300.50842Q563.16876 299.75842 563.54376 298.72717L565.60626 293.03967L567.2469 293.03967L563.7 302.3678L562.23126 302.3678ZM574.73126 301.21155Q573.85626 301.96155 573.02814 302.27405Q572.21564 302.58655 571.29376 302.58655Q569.7469 302.58655 568.91876 301.83655Q568.10626 301.07092 568.10626 299.89905Q568.10626 299.22717 568.41876 298.66467Q568.73126 298.08655 569.23126 297.7428Q569.73126 297.39905 570.3719 297.22717Q570.84064 297.10217 571.77814 296.9928Q573.6844 296.75842 574.59064 296.44592Q574.60626 296.1178 574.60626 296.02405Q574.60626 295.07092 574.15314 294.66467Q573.54376 294.13342 572.35626 294.13342Q571.23126 294.13342 570.7 294.52405Q570.16876 294.91467 569.91876 295.91467L568.3719 295.69592Q568.59064 294.69592 569.0594 294.08655Q569.54376 293.47717 570.45 293.14905Q571.3719 292.82092 572.59064 292.82092Q573.77814 292.82092 574.52814 293.10217Q575.27814 293.38342 575.6219 293.82092Q575.98126 294.2428 576.1219 294.88342Q576.2 295.28967 576.2 296.35217L576.2 298.46155Q576.2 300.66467 576.29376 301.25842Q576.40314 301.83655 576.7 302.3678L575.04376 302.3678Q574.79376 301.8678 574.73126 301.21155ZM574.59064 297.6803Q573.73126 298.03967 572.0125 298.27405Q571.04376 298.41467 570.6375 298.60217Q570.23126 298.77405 570.0125 299.1178Q569.79376 299.44592 569.79376 299.8678Q569.79376 300.4928 570.2625 300.91467Q570.7469 301.33655 571.66876 301.33655Q572.59064 301.33655 573.29376 300.94592Q574.0125 300.53967 574.34064 299.85217Q574.59064 299.3053 574.59064 298.25842L574.59064 297.6803ZM578.60626 302.3678L578.60626 289.47717L580.1844 289.47717L580.1844 302.3678L578.60626 302.3678Z" fill-rule="nonzero"/><path fill="#9e9e9e" d="M531.3094 316.16467L531.3094 314.64905L539.6375 314.64905L539.6375 315.88342Q538.41876 317.19592 537.2 319.3678Q535.9969 321.52405 535.34064 323.82092Q534.85626 325.44592 534.73126 327.3678L533.10626 327.3678Q533.1375 325.85217 533.7 323.69592Q534.27814 321.53967 535.34064 319.53967Q536.40314 317.53967 537.60626 316.16467L531.3094 316.16467ZM549.40314 317.63342L547.84064 317.75842Q547.6219 316.83655 547.23126 316.41467Q546.59064 315.72717 545.65314 315.72717Q544.90314 315.72717 544.325 316.14905Q543.575 316.69592 543.1375 317.7428Q542.71564 318.78967 542.7 320.72717Q543.27814 319.85217 544.09064 319.4303Q544.91876 319.00842 545.825 319.00842Q547.41876 319.00842 548.52814 320.1803Q549.6375 321.33655 549.6375 323.1803Q549.6375 324.39905 549.10626 325.44592Q548.59064 326.47717 547.66876 327.03967Q546.7625 327.58655 545.60626 327.58655Q543.6219 327.58655 542.3719 326.13342Q541.1219 324.6803 541.1219 321.33655Q541.1219 317.60217 542.5125 315.89905Q543.71564 314.4303 545.7469 314.4303Q547.27814 314.4303 548.2469 315.28967Q549.21564 316.13342 549.40314 317.63342ZM542.95 323.19592Q542.95 324.00842 543.29376 324.75842Q543.6375 325.50842 544.2625 325.89905Q544.8875 326.28967 545.575 326.28967Q546.575 326.28967 547.29376 325.47717Q548.0125 324.66467 548.0125 323.27405Q548.0125 321.94592 547.29376 321.1803Q546.59064 320.39905 545.5125 320.39905Q544.4344 320.39905 543.6844 321.1803Q542.95 321.94592 542.95 323.19592ZM552.09064 327.3678L552.09064 325.57092L553.8875 325.57092L553.8875 327.3678L552.09064 327.3678ZM556.3094 316.16467L556.3094 314.64905L564.6375 314.64905L564.6375 315.88342Q563.41876 317.19592 562.2 319.3678Q560.9969 321.52405 560.34064 323.82092Q559.85626 325.44592 559.73126 327.3678L558.10626 327.3678Q558.1375 325.85217 558.7 323.69592Q559.27814 321.53967 560.34064 319.53967Q561.40314 317.53967 562.60626 316.16467L556.3094 316.16467ZM566.4969 317.57092Q566.4969 316.19592 567.1844 315.22717Q567.8875 314.25842 569.2 314.25842Q570.41876 314.25842 571.21564 315.13342Q572.0125 315.9928 572.0125 317.6803Q572.0125 319.3053 571.2 320.19592Q570.40314 321.07092 569.21564 321.07092Q568.0594 321.07092 567.27814 320.21155Q566.4969 319.33655 566.4969 317.57092ZM569.2469 315.35217Q568.65314 315.35217 568.2625 315.8678Q567.8719 316.3678 567.8719 317.72717Q567.8719 318.97717 568.2625 319.47717Q568.66876 319.97717 569.2469 319.97717Q569.84064 319.97717 570.23126 319.47717Q570.6219 318.96155 570.6219 317.6178Q570.6219 316.3678 570.23126 315.8678Q569.84064 315.35217 569.2469 315.35217ZM569.2625 327.83655L576.3094 314.25842L577.59064 314.25842L570.5594 327.83655L569.2625 327.83655ZM574.825 324.33655Q574.825 322.96155 575.5125 321.9928Q576.21564 321.02405 577.54376 321.02405Q578.7625 321.02405 579.54376 321.89905Q580.34064 322.75842 580.34064 324.44592Q580.34064 326.07092 579.54376 326.96155Q578.7469 327.83655 577.5594 327.83655Q576.3875 327.83655 575.60626 326.96155Q574.825 326.08655 574.825 324.33655ZM577.59064 322.1178Q576.9969 322.1178 576.60626 322.63342Q576.21564 323.13342 576.21564 324.50842Q576.21564 325.72717 576.60626 326.2428Q576.9969 326.75842 577.575 326.75842Q578.1844 326.75842 578.575 326.2428Q578.96564 325.72717 578.96564 324.38342Q578.96564 323.13342 578.575 322.63342Q578.1844 322.1178 577.59064 322.1178Z" fill-rule="nonzero"/><path stroke="#757575" stroke-width="1.0" stroke-linecap="butt" d="M581.45 308.8678L454.76666 308.8678L394.3924 308.8678" fill-rule="nonzero"/><path fill="#9e9e9e" d="M396.3924 308.8678C396.3924 307.76324 395.49698 306.8678 394.3924 306.8678C393.28784 306.8678 392.3924 307.76324 392.3924 308.8678C392.3924 309.97238 393.28784 310.8678 394.3924 310.8678C395.49698 310.8678 396.3924 309.97238 396.3924 308.8678" fill-rule="nonzero"/><path fill="#757575" d="M20.08125 37.55L20.08125 23.2375L22.01875 23.2375L29.534374 34.471874L29.534374 23.2375L31.346874 23.2375L31.346874 37.55L29.409374 37.55L21.89375 26.3L21.89375 37.55L20.08125 37.55ZM39.659374 37.55L39.659374 36.01875Q38.45625 37.784374 36.378124 37.784374Q35.45625 37.784374 34.659374 37.440624Q33.8625 37.08125 33.471874 36.55Q33.096874 36.01875 32.940624 35.2375Q32.83125 34.721874 32.83125 33.596874L32.83125 27.175L34.58125 27.175L34.58125 32.925Q34.58125 34.3 34.690624 34.784374Q34.8625 35.471874 35.39375 35.878124Q35.940624 36.26875 36.721874 36.26875Q37.51875 36.26875 38.20625 35.8625Q38.909374 35.45625 39.190624 34.76875Q39.4875 34.065624 39.4875 32.7375L39.4875 27.175L41.2375 27.175L41.2375 37.55L39.659374 37.55ZM42.8625 37.55L42.8625 27.175L44.440624 27.175L44.440624 28.628124Q44.925 27.878124 45.7375 27.409374Q46.55 26.940624 47.58125 26.940624Q48.7375 26.940624 49.471874 27.425Q50.20625 27.89375 50.51875 28.753124Q51.753124 26.940624 53.721874 26.940624Q55.26875 26.940624 56.096874 27.8Q56.925 28.659374 56.925 30.425L56.925 37.55L55.175 37.55L55.175 31.01875Q55.175 29.95625 55.003124 29.503124Q54.83125 29.034374 54.378124 28.753124Q53.940624 28.471874 53.33125 28.471874Q52.2375 28.471874 51.503124 29.20625Q50.784374 29.925 50.784374 31.51875L50.784374 37.55L49.034374 37.55L49.034374 30.815624Q49.034374 29.64375 48.596874 29.065624Q48.175 28.471874 47.190624 28.471874Q46.45625 28.471874 45.815624 28.8625Q45.190624 29.253124 44.909374 30.003124Q44.628124 30.753124 44.628124 32.175L44.628124 37.55L42.8625 37.55ZM60.4875 37.55L58.8625 37.55L58.8625 23.2375L60.6125 23.2375L60.6125 28.346874Q61.7375 26.940624 63.45625 26.940624Q64.40938 26.940624 65.26875 27.33125Q66.12813 27.721874 66.675 28.425Q67.22188 29.1125 67.53438 30.096874Q67.84688 31.08125 67.84688 32.20625Q67.84688 34.878124 66.53438 36.33125Q65.22188 37.784374 63.378124 37.784374Q61.534374 37.784374 60.4875 36.253124L60.4875 37.55ZM60.471874 32.284374Q60.471874 34.14375 60.971874 34.9875Q61.815624 36.33125 63.221874 36.33125Q64.37813 36.33125 65.20625 35.33125Q66.05 34.33125 66.05 32.346874Q66.05 30.315624 65.2375 29.3625Q64.44063 28.39375 63.3 28.39375Q62.14375 28.39375 61.3 29.39375Q60.471874 30.39375 60.471874 32.284374ZM76.97188 34.20625L78.78438 34.440624Q78.3625 36.01875 77.19063 36.909374Q76.03438 37.784374 74.22188 37.784374Q71.95625 37.784374 70.6125 36.39375Q69.28438 34.9875 69.28438 32.45625Q69.28438 29.83125 70.62813 28.39375Q71.97188 26.940624 74.12813 26.940624Q76.20625 26.940624 77.51875 28.3625Q78.84688 29.76875 78.84688 32.346874Q78.84688 32.503124 78.83125 32.815624L71.09688 32.815624Q71.19063 34.51875 72.06563 35.425Q72.94063 36.33125 74.2375 36.33125Q75.20625 36.33125 75.87813 35.83125Q76.56563 35.315624 76.97188 34.20625ZM71.19063 31.3625L76.9875 31.3625Q76.87813 30.065624 76.33125 29.409374Q75.4875 28.39375 74.14375 28.39375Q72.94063 28.39375 72.1125 29.20625Q71.28438 30.003124 71.19063 31.3625ZM80.84688 37.55L80.84688 27.175L82.425 27.175L82.425 28.753124Q83.03438 27.64375 83.55 27.3Q84.06563 26.940624 84.675 26.940624Q85.56563 26.940624 86.4875 27.503124L85.87813 29.14375Q85.2375 28.753124 84.59688 28.753124Q84.01875 28.753124 83.55 29.1125Q83.09688 29.45625 82.89375 30.065624Q82.6125 31.003124 82.6125 32.1125L82.6125 37.55L80.84688 37.55ZM94.12813 37.55L94.12813 23.2375L100.47188 23.2375Q102.37813 23.2375 103.37813 23.628124Q104.37813 24.003124 104.97188 24.9875Q105.56563 25.95625 105.56563 27.14375Q105.56563 28.659374 104.58125 29.70625Q103.59688 30.753124 101.53438 31.034374Q102.28438 31.39375 102.675 31.753124Q103.50313 32.503124 104.25313 33.659374L106.7375 37.55L104.3625 37.55L102.45625 34.565624Q101.62813 33.284374 101.09688 32.596874Q100.56563 31.909374 100.12813 31.64375Q99.70625 31.3625 99.26875 31.253124Q98.94063 31.190624 98.22188 31.190624L96.01875 31.190624L96.01875 37.55L94.12813 37.55ZM96.01875 29.55L100.09688 29.55Q101.39375 29.55 102.1125 29.284374Q102.84688 29.01875 103.22188 28.425Q103.6125 27.83125 103.6125 27.14375Q103.6125 26.128124 102.87813 25.471874Q102.14375 24.815624 100.55 24.815624L96.01875 24.815624L96.01875 29.55ZM114.97188 34.20625L116.78438 34.440624Q116.3625 36.01875 115.19063 36.909374Q114.03438 37.784374 112.22188 37.784374Q109.95625 37.784374 108.6125 36.39375Q107.28438 34.9875 107.28438 32.45625Q107.28438 29.83125 108.62813 28.39375Q109.97188 26.940624 112.12813 26.940624Q114.20625 26.940624 115.51875 28.3625Q116.84688 29.76875 116.84688 32.346874Q116.84688 32.503124 116.83125 32.815624L109.09688 32.815624Q109.19063 34.51875 110.06563 35.425Q110.94063 36.33125 112.2375 36.33125Q113.20625 36.33125 113.87813 35.83125Q114.56563 35.315624 114.97188 34.20625ZM109.19063 31.3625L114.9875 31.3625Q114.87813 30.065624 114.33125 29.409374Q113.4875 28.39375 112.14375 28.39375Q110.94063 28.39375 110.1125 29.20625Q109.28438 30.003124 109.19063 31.3625ZM119.28438 37.55L119.28438 28.55L117.7375 28.55L117.7375 27.175L119.28438 27.175L119.28438 26.08125Q119.28438 25.034374 119.47188 24.51875Q119.72188 23.83125 120.3625 23.409374Q121.00313 22.9875 122.15938 22.9875Q122.90938 22.9875 123.8 23.159374L123.53438 24.690624Q122.9875 24.596874 122.50313 24.596874Q121.70625 24.596874 121.3625 24.940624Q121.03438 25.284374 121.03438 26.221874L121.03438 27.175L123.06563 27.175L123.06563 28.55L121.03438 28.55L121.03438 37.55L119.28438 37.55ZM124.87813 25.253124L124.87813 23.2375L126.64375 23.2375L126.64375 25.253124L124.87813 25.253124ZM124.87813 37.55L124.87813 27.175L126.64375 27.175L126.64375 37.55L124.87813 37.55ZM128.8625 37.55L128.8625 27.175L130.45625 27.175L130.45625 28.659374Q131.59688 26.940624 133.75313 26.940624Q134.69063 26.940624 135.47188 27.284374Q136.26875 27.6125 136.65938 28.159374Q137.05 28.70625 137.20625 29.45625Q137.3 29.95625 137.3 31.175L137.3 37.55L135.53438 37.55L135.53438 31.2375Q135.53438 30.159374 135.33125 29.628124Q135.12813 29.096874 134.59688 28.784374Q134.08125 28.471874 133.37813 28.471874Q132.25313 28.471874 131.44063 29.190624Q130.62813 29.89375 130.62813 31.878124L130.62813 37.55L128.8625 37.55ZM145.97188 34.20625L147.78438 34.440624Q147.3625 36.01875 146.19063 36.909374Q145.03438 37.784374 143.22188 37.784374Q140.95625 37.784374 139.6125 36.39375Q138.28438 34.9875 138.28438 32.45625Q138.28438 29.83125 139.62813 28.39375Q140.97188 26.940624 143.12813 26.940624Q145.20625 26.940624 146.51875 28.3625Q147.84688 29.76875 147.84688 32.346874Q147.84688 32.503124 147.83125 32.815624L140.09688 32.815624Q140.19063 34.51875 141.06563 35.425Q141.94063 36.33125 143.2375 36.33125Q144.20625 36.33125 144.87813 35.83125Q145.56563 35.315624 145.97188 34.20625ZM140.19063 31.3625L145.9875 31.3625Q145.87813 30.065624 145.33125 29.409374Q144.4875 28.39375 143.14375 28.39375Q141.94063 28.39375 141.1125 29.20625Q140.28438 30.003124 140.19063 31.3625ZM149.8625 37.55L149.8625 27.175L151.44063 27.175L151.44063 28.628124Q151.925 27.878124 152.7375 27.409374Q153.55 26.940624 154.58125 26.940624Q155.7375 26.940624 156.47188 27.425Q157.20625 27.89375 157.51875 28.753124Q158.75313 26.940624 160.72188 26.940624Q162.26875 26.940624 163.09688 27.8Q163.925 28.659374 163.925 30.425L163.925 37.55L162.175 37.55L162.175 31.01875Q162.175 29.95625 162.00313 29.503124Q161.83125 29.034374 161.37813 28.753124Q160.94063 28.471874 160.33125 28.471874Q159.2375 28.471874 158.50313 29.20625Q157.78438 29.925 157.78438 31.51875L157.78438 37.55L156.03438 37.55L156.03438 30.815624Q156.03438 29.64375 155.59688 29.065624Q155.175 28.471874 154.19063 28.471874Q153.45625 28.471874 152.81563 28.8625Q152.19063 29.253124 151.90938 30.003124Q151.62813 30.753124 151.62813 32.175L151.62813 37.55L149.8625 37.55ZM172.97188 34.20625L174.78438 34.440624Q174.3625 36.01875 173.19063 36.909374Q172.03438 37.784374 170.22188 37.784374Q167.95625 37.784374 166.6125 36.39375Q165.28438 34.9875 165.28438 32.45625Q165.28438 29.83125 166.62813 28.39375Q167.97188 26.940624 170.12813 26.940624Q172.20625 26.940624 173.51875 28.3625Q174.84688 29.76875 174.84688 32.346874Q174.84688 32.503124 174.83125 32.815624L167.09688 32.815624Q167.19063 34.51875 168.06563 35.425Q168.94063 36.33125 170.2375 36.33125Q171.20625 36.33125 171.87813 35.83125Q172.56563 35.315624 172.97188 34.20625ZM167.19063 31.3625L172.9875 31.3625Q172.87813 30.065624 172.33125 29.409374Q171.4875 28.39375 170.14375 28.39375Q168.94063 28.39375 168.1125 29.20625Q167.28438 30.003124 167.19063 31.3625ZM176.8625 37.55L176.8625 27.175L178.45625 27.175L178.45625 28.659374Q179.59688 26.940624 181.75313 26.940624Q182.69063 26.940624 183.47188 27.284374Q184.26875 27.6125 184.65938 28.159374Q185.05 28.70625 185.20625 29.45625Q185.3 29.95625 185.3 31.175L185.3 37.55L183.53438 37.55L183.53438 31.2375Q183.53438 30.159374 183.33125 29.628124Q183.12813 29.096874 182.59688 28.784374Q182.08125 28.471874 181.37813 28.471874Q180.25313 28.471874 179.44063 29.190624Q178.62813 29.89375 178.62813 31.878124L178.62813 37.55L176.8625 37.55ZM190.70625 35.971874L190.95625 37.534374Q190.22188 37.690624 189.62813 37.690624Q188.675 37.690624 188.14375 37.39375Q187.62813 37.08125 187.40938 36.596874Q187.19063 36.096874 187.19063 34.51875L187.19063 28.55L185.90938 28.55L185.90938 27.175L187.19063 27.175L187.19063 24.6125L188.94063 23.55L188.94063 27.175L190.70625 27.175L190.70625 28.55L188.94063 28.55L188.94063 34.6125Q188.94063 35.3625 189.03438 35.58125Q189.12813 35.784374 189.33125 35.925Q189.55 36.05 189.94063 36.05Q190.22188 36.05 190.70625 35.971874ZM192.15938 34.45625L193.90938 34.175Q194.05 35.221874 194.72188 35.784374Q195.39375 36.33125 196.59688 36.33125Q197.8 36.33125 198.37813 35.846874Q198.97188 35.346874 198.97188 34.690624Q198.97188 34.096874 198.45625 33.753124Q198.09688 33.51875 196.65938 33.159374Q194.72188 32.659374 193.97188 32.315624Q193.2375 31.95625 192.84688 31.33125Q192.45625 30.690624 192.45625 29.925Q192.45625 29.2375 192.76875 28.64375Q193.09688 28.05 193.64375 27.659374Q194.05 27.3625 194.75313 27.159374Q195.47188 26.940624 196.28438 26.940624Q197.50313 26.940624 198.425 27.3Q199.34688 27.64375 199.78438 28.253124Q200.22188 28.846874 200.39375 29.846874L198.675 30.08125Q198.55 29.284374 197.9875 28.846874Q197.425 28.39375 196.40938 28.39375Q195.19063 28.39375 194.675 28.8Q194.15938 29.190624 194.15938 29.721874Q194.15938 30.065624 194.37813 30.346874Q194.58125 30.628124 195.05 30.815624Q195.31563 30.909374 196.59688 31.253124Q198.47188 31.753124 199.20625 32.08125Q199.94063 32.39375 200.3625 33.003124Q200.78438 33.596874 200.78438 34.503124Q200.78438 35.378124 200.26875 36.159374Q199.75313 36.940624 198.78438 37.3625Q197.81563 37.784374 196.59688 37.784374Q194.58125 37.784374 193.51875 36.940624Q192.45625 36.096874 192.15938 34.45625Z" fill-rule="nonzero"/></svg>