<svg version="1.1" viewBox="0.0 0.0 603.0 371.0" fill="none" stroke="none" stroke-linecap="square" stroke-miterlimit="10" xmlns:xlink="http://www.w3.org/1999/xlink" xmlns="http://www.w3.org/2000/svg"><path fill="#ffffff" d="M0 0L603.0 0L603.0 371.0L0 371.0L0 0Z" fill-rule="nonzero"/><path fill="#5891ad" d="M301.5 54.916668C352.73456 54.916668 400.36386 81.280556 427.5663 124.69721C454.76877 168.11388 457.71603 222.47302 435.3672 268.57626L301.5 203.68333Z" fill-rule="nonzero"/><path fill="#004561" d="M435.3672 268.57626C414.67725 311.25745 374.8749 341.51437 328.21432 350.03177L301.5 203.68333Z" fill-rule="nonzero"/><path fill="#4cdc8b" d="M183.06789 293.71307C148.86197 248.71597 143.11049 188.22144 168.22408 137.58456C193.33765 86.947685 244.97757 54.916668 301.5 54.916668L301.5 203.68333Z" fill-rule="nonzero"/><path fill="#0f45a8" d="M205.1905 317.06763C196.9938 310.10532 189.57625 302.2747 183.06789 293.71307L301.5 203.68333Z" fill-rule="nonzero"/><path fill="#1c7685" d="M241.4823 339.80606C228.35165 334.01663 216.12776 326.35782 205.1905 317.06763L301.5 203.68333Z" fill-rule="nonzero"/><path fill="#ff6f31" d="M328.21432 350.03177C298.9317 355.377 268.71887 351.8149 241.4823 339.80606L301.5 203.68333Z" fill-rule="nonzero"/><path fill="#ffffff" d="M386.30667 151.84984L384.72855 151.84984L384.72855 141.77171Q384.15042 142.31859 383.22855 142.86546Q382.30667 143.39671 381.55667 143.67796L381.55667 142.14671Q382.8848 141.52171 383.8848 140.63109Q384.8848 139.74046 385.29105 138.91234L386.30667 138.91234L386.30667 151.84984ZM396.30667 151.84984L394.72855 151.84984L394.72855 141.77171Q394.15042 142.31859 393.22855 142.86546Q392.30667 143.39671 391.55667 143.67796L391.55667 142.14671Q392.8848 141.52171 393.8848 140.63109Q394.8848 139.74046 395.29105 138.91234L396.30667 138.91234L396.30667 151.84984ZM408.66605 150.33421L408.66605 151.84984L400.15042 151.84984Q400.1348 151.27171 400.33792 150.75609Q400.66605 149.88109 401.36917 149.03734Q402.08792 148.19359 403.4473 147.08421Q405.54105 145.36546 406.27542 144.36546Q407.02542 143.34984 407.02542 142.45921Q407.02542 141.50609 406.35355 140.86546Q405.68167 140.22484 404.60355 140.22484Q403.4473 140.22484 402.7598 140.91234Q402.08792 141.59984 402.0723 142.80296L400.4473 142.63109Q400.61917 140.81859 401.6973 139.86546Q402.79105 138.91234 404.6348 138.91234Q406.47855 138.91234 407.55667 139.94359Q408.65042 140.97484 408.65042 142.49046Q408.65042 143.25609 408.3223 144.00609Q408.0098 144.75609 407.27542 145.58421Q406.54105 146.41234 404.83792 147.84984Q403.41605 149.05296 403.0098 149.47484Q402.60355 149.89671 402.35355 150.33421L408.66605 150.33421Z" fill-rule="nonzero"/><path fill="#ffffff" d="M360.90295 297.11975L362.5592 296.97913Q362.7467 298.19788 363.41858 298.80725Q364.09045 299.41663 365.04358 299.41663Q366.1842 299.41663 366.96545 298.55725Q367.76233 297.69788 367.76233 296.26038Q367.76233 294.91663 366.9967 294.13538Q366.2467 293.35413 365.01233 293.35413Q364.2467 293.35413 363.6217 293.69788Q363.01233 294.04163 362.66858 294.60413L361.1842 294.401L362.4342 287.79163L368.84045 287.79163L368.84045 289.29163L363.69983 289.29163L362.9967 292.76038Q364.16858 291.94788 365.4342 291.94788Q367.1217 291.94788 368.27795 293.11975Q369.44983 294.29163 369.44983 296.11975Q369.44983 297.86975 368.41858 299.151Q367.1842 300.7135 365.04358 300.7135Q363.27795 300.7135 362.16858 299.72913Q361.0592 298.74475 360.90295 297.11975ZM379.21545 298.97913L379.21545 300.49475L370.69983 300.49475Q370.6842 299.91663 370.88733 299.401Q371.21545 298.526 371.91858 297.68225Q372.63733 296.8385 373.9967 295.72913Q376.09045 294.01038 376.82483 293.01038Q377.57483 291.99475 377.57483 291.10413Q377.57483 290.151 376.90295 289.51038Q376.23108 288.86975 375.15295 288.86975Q373.9967 288.86975 373.3092 289.55725Q372.63733 290.24475 372.6217 291.44788L370.9967 291.276Q371.16858 289.4635 372.2467 288.51038Q373.34045 287.55725 375.1842 287.55725Q377.02795 287.55725 378.10608 288.5885Q379.19983 289.61975 379.19983 291.13538Q379.19983 291.901 378.8717 292.651Q378.5592 293.401 377.82483 294.22913Q377.09045 295.05725 375.38733 296.49475Q373.96545 297.69788 373.5592 298.11975Q373.15295 298.54163 372.90295 298.97913L379.21545 298.97913Z" fill-rule="nonzero"/><path fill="#ffffff" d="M278.30988 325.0137L279.90363 324.81058Q280.16925 326.15433 280.8255 326.74808Q281.48175 327.34183 282.41925 327.34183Q283.54425 327.34183 284.30988 326.5762Q285.0755 325.79495 285.0755 324.65433Q285.0755 323.56058 284.35675 322.85745Q283.65363 322.1387 282.55988 322.1387Q282.10675 322.1387 281.43488 322.3262L281.60675 320.93558Q281.763 320.9512 281.87238 320.9512Q282.87238 320.9512 283.68488 320.41995Q284.49738 319.8887 284.49738 318.79495Q284.49738 317.91995 283.90363 317.35745Q283.30988 316.77933 282.388 316.77933Q281.46613 316.77933 280.84113 317.35745Q280.23175 317.93558 280.05988 319.10745L278.48175 318.8262Q278.763 317.23245 279.79425 316.35745Q280.8255 315.48245 282.35675 315.48245Q283.40363 315.48245 284.29425 315.93558Q285.18488 316.3887 285.65363 317.16995Q286.12238 317.9512 286.12238 318.8262Q286.12238 319.66995 285.66925 320.35745Q285.23175 321.02933 284.34113 321.43558Q285.48175 321.7012 286.10675 322.54495Q286.74738 323.37308 286.74738 324.60745Q286.74738 326.29495 285.513 327.48245Q284.29425 328.65433 282.41925 328.65433Q280.71613 328.65433 279.59113 327.6387Q278.48175 326.62308 278.30988 325.0137ZM288.30988 325.0137L289.90363 324.81058Q290.16925 326.15433 290.8255 326.74808Q291.48175 327.34183 292.41925 327.34183Q293.54425 327.34183 294.30988 326.5762Q295.0755 325.79495 295.0755 324.65433Q295.0755 323.56058 294.35675 322.85745Q293.65363 322.1387 292.55988 322.1387Q292.10675 322.1387 291.43488 322.3262L291.60675 320.93558Q291.763 320.9512 291.87238 320.9512Q292.87238 320.9512 293.68488 320.41995Q294.49738 319.8887 294.49738 318.79495Q294.49738 317.91995 293.90363 317.35745Q293.30988 316.77933 292.388 316.77933Q291.46613 316.77933 290.84113 317.35745Q290.23175 317.93558 290.05988 319.10745L288.48175 318.8262Q288.763 317.23245 289.79425 316.35745Q290.8255 315.48245 292.35675 315.48245Q293.40363 315.48245 294.29425 315.93558Q295.18488 316.3887 295.65363 317.16995Q296.12238 317.9512 296.12238 318.8262Q296.12238 319.66995 295.66925 320.35745Q295.23175 321.02933 294.34113 321.43558Q295.48175 321.7012 296.10675 322.54495Q296.74738 323.37308 296.74738 324.60745Q296.74738 326.29495 295.513 327.48245Q294.29425 328.65433 292.41925 328.65433Q290.71613 328.65433 289.59113 327.6387Q288.48175 326.62308 288.30988 325.0137Z" fill-rule="nonzero"/><path fill="#ffffff" d="M237.75055 306.66907L236.17242 306.66907L236.17242 296.59094Q235.5943 297.13782 234.67242 297.6847Q233.75055 298.21594 233.00055 298.4972L233.00055 296.96594Q234.32867 296.34094 235.32867 295.45032Q236.32867 294.5597 236.73492 293.73157L237.75055 293.73157L237.75055 306.66907ZM250.00055 296.9347L248.43805 297.0597Q248.2193 296.13782 247.82867 295.71594Q247.18805 295.02844 246.25055 295.02844Q245.50055 295.02844 244.92242 295.45032Q244.17242 295.9972 243.73492 297.04407Q243.31305 298.09094 243.29742 300.02844Q243.87555 299.15344 244.68805 298.73157Q245.51617 298.3097 246.42242 298.3097Q248.01617 298.3097 249.12555 299.48157Q250.23492 300.63782 250.23492 302.48157Q250.23492 303.70032 249.70367 304.7472Q249.18805 305.77844 248.26617 306.34094Q247.35992 306.88782 246.20367 306.88782Q244.2193 306.88782 242.9693 305.4347Q241.7193 303.98157 241.7193 300.63782Q241.7193 296.90344 243.10992 295.20032Q244.31305 293.73157 246.3443 293.73157Q247.87555 293.73157 248.8443 294.59094Q249.81305 295.4347 250.00055 296.9347ZM243.54742 302.4972Q243.54742 303.3097 243.89117 304.0597Q244.23492 304.8097 244.85992 305.20032Q245.48492 305.59094 246.17242 305.59094Q247.17242 305.59094 247.89117 304.77844Q248.60992 303.96594 248.60992 302.57532Q248.60992 301.2472 247.89117 300.48157Q247.18805 299.70032 246.10992 299.70032Q245.0318 299.70032 244.2818 300.48157Q243.54742 301.2472 243.54742 302.4972Z" fill-rule="nonzero"/><path fill="#ffffff" d="M194.27663 161.12032L192.6985 161.12032L192.6985 151.04219Q192.12038 151.58907 191.1985 152.13594Q190.27663 152.66719 189.52663 152.94844L189.52663 151.41719Q190.85475 150.79219 191.85475 149.90157Q192.85475 149.01094 193.261 148.18282L194.27663 148.18282L194.27663 161.12032ZM206.636 159.60469L206.636 161.12032L198.12038 161.12032Q198.10475 160.54219 198.30788 160.02657Q198.636 159.15157 199.33913 158.30782Q200.05788 157.46407 201.41725 156.35469Q203.511 154.63594 204.24538 153.63594Q204.99538 152.62032 204.99538 151.72969Q204.99538 150.77657 204.3235 150.13594Q203.65163 149.49532 202.5735 149.49532Q201.41725 149.49532 200.72975 150.18282Q200.05788 150.87032 200.04225 152.07344L198.41725 151.90157Q198.58913 150.08907 199.66725 149.13594Q200.761 148.18282 202.60475 148.18282Q204.4485 148.18282 205.52663 149.21407Q206.62038 150.24532 206.62038 151.76094Q206.62038 152.52657 206.29225 153.27657Q205.97975 154.02657 205.24538 154.85469Q204.511 155.68282 202.80788 157.12032Q201.386 158.32344 200.97975 158.74532Q200.5735 159.16719 200.3235 159.60469L206.636 159.60469ZM208.3235 157.71407L209.91725 157.51094Q210.18288 158.85469 210.83913 159.44844Q211.49538 160.04219 212.43288 160.04219Q213.55788 160.04219 214.3235 159.27657Q215.08913 158.49532 215.08913 157.35469Q215.08913 156.26094 214.37038 155.55782Q213.66725 154.83907 212.5735 154.83907Q212.12038 154.83907 211.4485 155.02657L211.62038 153.63594Q211.77663 153.65157 211.886 153.65157Q212.886 153.65157 213.6985 153.12032Q214.511 152.58907 214.511 151.49532Q214.511 150.62032 213.91725 150.05782Q213.3235 149.47969 212.40163 149.47969Q211.47975 149.47969 210.85475 150.05782Q210.24538 150.63594 210.0735 151.80782L208.49538 151.52657Q208.77663 149.93282 209.80788 149.05782Q210.83913 148.18282 212.37038 148.18282Q213.41725 148.18282 214.30788 148.63594Q215.1985 149.08907 215.66725 149.87032Q216.136 150.65157 216.136 151.52657Q216.136 152.37032 215.68288 153.05782Q215.24538 153.72969 214.35475 154.13594Q215.49538 154.40157 216.12038 155.24532Q216.761 156.07344 216.761 157.30782Q216.761 158.99532 215.52663 160.18282Q214.30788 161.35469 212.43288 161.35469Q210.72975 161.35469 209.60475 160.33907Q208.49538 159.32344 208.3235 157.71407Z" fill-rule="nonzero"/><path fill="#1a1a1a" d="M19.425 128.10825Q19.425 124.90512 21.14375 123.09262Q22.8625 121.28012 25.596874 121.28012Q27.378124 121.28012 28.8 122.139496Q30.2375 122.983246 30.9875 124.514496Q31.7375 126.03012 31.7375 127.96762Q31.7375 129.92075 30.940624 131.46762Q30.159374 133.0145 28.70625 133.81137Q27.253124 134.60825 25.58125 134.60825Q23.76875 134.60825 22.33125 133.73325Q20.89375 132.85825 20.159374 131.34262Q19.425 129.81137 19.425 128.10825ZM21.175 128.1395Q21.175 130.46762 22.425 131.81137Q23.690624 133.15512 25.565624 133.15512Q27.503124 133.15512 28.7375 131.79575Q29.9875 130.43637 29.9875 127.951996Q29.9875 126.389496 29.45625 125.21762Q28.925 124.03012 27.89375 123.389496Q26.878124 122.74887 25.596874 122.74887Q23.784374 122.74887 22.471874 123.99887Q21.175 125.233246 21.175 128.1395ZM37.190624 132.96762L37.425 134.37387Q36.753124 134.5145 36.221874 134.5145Q35.3625 134.5145 34.878124 134.24887Q34.409374 133.96762 34.221874 133.53012Q34.034374 133.077 34.034374 131.65512L34.034374 126.28012L32.8625 126.28012L32.8625 125.06137L34.034374 125.06137L34.034374 122.74887L35.596874 121.795746L35.596874 125.06137L37.190624 125.06137L37.190624 126.28012L35.596874 126.28012L35.596874 131.74887Q35.596874 132.42075 35.675 132.62387Q35.76875 132.81137 35.95625 132.92075Q36.14375 133.03012 36.503124 133.03012Q36.753124 133.03012 37.190624 132.96762ZM38.7375 134.3895L38.7375 121.49887L40.315624 121.49887L40.315624 126.12387Q41.425 124.84262 43.1125 124.84262Q44.14375 124.84262 44.909374 125.24887Q45.675 125.65512 46.003124 126.389496Q46.346874 127.108246 46.346874 128.46762L46.346874 134.3895L44.753124 134.3895L44.753124 128.46762Q44.753124 127.28012 44.2375 126.74887Q43.721874 126.201996 42.784374 126.201996Q42.08125 126.201996 41.45625 126.576996Q40.846874 126.93637 40.58125 127.56137Q40.315624 128.18637 40.315624 129.28012L40.315624 134.3895L38.7375 134.3895ZM55.128124 131.3895L56.76875 131.59262Q56.378124 133.0145 55.33125 133.81137Q54.284374 134.60825 52.659374 134.60825Q50.6125 134.60825 49.409374 133.34262Q48.20625 132.077 48.20625 129.79575Q48.20625 127.451996 49.409374 126.15512Q50.628124 124.84262 52.565624 124.84262Q54.440624 124.84262 55.628124 126.12387Q56.815624 127.389496 56.815624 129.702Q56.815624 129.84262 56.8 130.12387L49.846874 130.12387Q49.925 131.67075 50.70625 132.48325Q51.503124 133.29575 52.659374 133.29575Q53.534374 133.29575 54.14375 132.84262Q54.76875 132.3895 55.128124 131.3895ZM49.925 128.827L55.14375 128.827Q55.034374 127.65512 54.55 127.06137Q53.784374 126.139496 52.58125 126.139496Q51.503124 126.139496 50.753124 126.87387Q50.01875 127.608246 49.925 128.827ZM58.721874 134.3895L58.721874 125.06137L60.14375 125.06137L60.14375 126.46762Q60.690624 125.483246 61.14375 125.170746Q61.6125 124.84262 62.159374 124.84262Q62.971874 124.84262 63.784374 125.358246L63.253124 126.826996Q62.659374 126.483246 62.08125 126.483246Q61.565624 126.483246 61.14375 126.795746Q60.7375 127.108246 60.565624 127.65512Q60.3 128.49887 60.3 129.49887L60.3 134.3895L58.721874 134.3895ZM64.09688 131.60825L65.675 131.35825Q65.8 132.29575 66.39375 132.79575Q67.00313 133.29575 68.08125 133.29575Q69.175 133.29575 69.70625 132.85825Q70.2375 132.40512 70.2375 131.81137Q70.2375 131.28012 69.76875 130.96762Q69.44063 130.7645 68.14375 130.43637Q66.40938 129.99887 65.7375 129.68637Q65.06563 129.35825 64.70625 128.79575Q64.3625 128.21762 64.3625 127.53012Q64.3625 126.90512 64.64375 126.37387Q64.94063 125.84262 65.425 125.49887Q65.8 125.21762 66.44063 125.03012Q67.08125 124.84262 67.8 124.84262Q68.90938 124.84262 69.7375 125.170746Q70.56563 125.483246 70.95625 126.03012Q71.3625 126.56137 71.50313 127.46762L69.95625 127.670746Q69.84688 126.951996 69.34688 126.545746Q68.84688 126.139496 67.925 126.139496Q66.83125 126.139496 66.3625 126.49887Q65.89375 126.858246 65.89375 127.34262Q65.89375 127.65512 66.09688 127.90512Q66.28438 128.15512 66.69063 128.327Q66.94063 128.40512 68.09688 128.73325Q69.76875 129.17075 70.425 129.46762Q71.09688 129.74887 71.47188 130.29575Q71.8625 130.84262 71.8625 131.6395Q71.8625 132.43637 71.39375 133.1395Q70.94063 133.84262 70.06563 134.23325Q69.19063 134.60825 68.09688 134.60825Q66.26875 134.60825 65.31563 133.85825Q64.3625 133.09262 64.09688 131.60825Z" fill-rule="nonzero"/><path fill="#9e9e9e" d="M19.3 155.98325L20.89375 155.78012Q21.159374 157.12387 21.815624 157.71762Q22.471874 158.31137 23.409374 158.31137Q24.534374 158.31137 25.3 157.54575Q26.065624 156.7645 26.065624 155.62387Q26.065624 154.53012 25.346874 153.827Q24.64375 153.10825 23.55 153.10825Q23.096874 153.10825 22.425 153.29575L22.596874 151.90512Q22.753124 151.92075 22.8625 151.92075Q23.8625 151.92075 24.675 151.3895Q25.4875 150.85825 25.4875 149.7645Q25.4875 148.8895 24.89375 148.327Q24.3 147.74887 23.378124 147.74887Q22.45625 147.74887 21.83125 148.327Q21.221874 148.90512 21.05 150.077L19.471874 149.79575Q19.753124 148.202 20.784374 147.327Q21.815624 146.452 23.346874 146.452Q24.39375 146.452 25.284374 146.90512Q26.175 147.35825 26.64375 148.1395Q27.1125 148.92075 27.1125 149.79575Q27.1125 150.6395 26.659374 151.327Q26.221874 151.99887 25.33125 152.40512Q26.471874 152.67075 27.096874 153.5145Q27.7375 154.34262 27.7375 155.577Q27.7375 157.2645 26.503124 158.452Q25.284374 159.62387 23.409374 159.62387Q21.70625 159.62387 20.58125 158.60825Q19.471874 157.59262 19.3 155.98325ZM29.3 156.0145L30.95625 155.87387Q31.14375 157.09262 31.815624 157.702Q32.4875 158.31137 33.440624 158.31137Q34.58125 158.31137 35.3625 157.452Q36.159374 156.59262 36.159374 155.15512Q36.159374 153.81137 35.39375 153.03012Q34.64375 152.24887 33.409374 152.24887Q32.64375 152.24887 32.01875 152.59262Q31.409374 152.93637 31.065624 153.49887L29.58125 153.29575L30.83125 146.68637L37.2375 146.68637L37.2375 148.18637L32.096874 148.18637L31.39375 151.65512Q32.565624 150.84262 33.83125 150.84262Q35.51875 150.84262 36.675 152.0145Q37.846874 153.18637 37.846874 155.0145Q37.846874 156.7645 36.815624 158.04575Q35.58125 159.60825 33.440624 159.60825Q31.675 159.60825 30.565624 158.62387Q29.45625 157.6395 29.3 156.0145ZM40.190624 159.3895L40.190624 157.59262L41.9875 157.59262L41.9875 159.3895L40.190624 159.3895ZM44.3 155.98325L45.89375 155.78012Q46.159374 157.12387 46.815624 157.71762Q47.471874 158.31137 48.409374 158.31137Q49.534374 158.31137 50.3 157.54575Q51.065624 156.7645 51.065624 155.62387Q51.065624 154.53012 50.346874 153.827Q49.64375 153.10825 48.55 153.10825Q48.096874 153.10825 47.425 153.29575L47.596874 151.90512Q47.753124 151.92075 47.8625 151.92075Q48.8625 151.92075 49.675 151.3895Q50.4875 150.85825 50.4875 149.7645Q50.4875 148.8895 49.89375 148.327Q49.3 147.74887 48.378124 147.74887Q47.45625 147.74887 46.83125 148.327Q46.221874 148.90512 46.05 150.077L44.471874 149.79575Q44.753124 148.202 45.784374 147.327Q46.815624 146.452 48.346874 146.452Q49.39375 146.452 50.284374 146.90512Q51.175 147.35825 51.64375 148.1395Q52.1125 148.92075 52.1125 149.79575Q52.1125 150.6395 51.659374 151.327Q51.221874 151.99887 50.33125 152.40512Q51.471874 152.67075 52.096874 153.5145Q52.7375 154.34262 52.7375 155.577Q52.7375 157.2645 51.503124 158.452Q50.284374 159.62387 48.409374 159.62387Q46.70625 159.62387 45.58125 158.60825Q44.471874 157.59262 44.3 155.98325ZM54.596874 149.59262Q54.596874 148.21762 55.284374 147.24887Q55.9875 146.28012 57.3 146.28012Q58.51875 146.28012 59.315624 147.15512Q60.1125 148.0145 60.1125 149.702Q60.1125 151.327 59.3 152.21762Q58.503124 153.09262 57.315624 153.09262Q56.159374 153.09262 55.378124 152.23325Q54.596874 151.35825 54.596874 149.59262ZM57.346874 147.37387Q56.753124 147.37387 56.3625 147.8895Q55.971874 148.3895 55.971874 149.74887Q55.971874 150.99887 56.3625 151.49887Q56.76875 151.99887 57.346874 151.99887Q57.940624 151.99887 58.33125 151.49887Q58.721874 150.98325 58.721874 149.6395Q58.721874 148.3895 58.33125 147.8895Q57.940624 147.37387 57.346874 147.37387ZM57.3625 159.85825L64.40938 146.28012L65.69063 146.28012L58.659374 159.85825L57.3625 159.85825ZM62.925 156.35825Q62.925 154.98325 63.6125 154.0145Q64.31563 153.04575 65.64375 153.04575Q66.8625 153.04575 67.64375 153.92075Q68.44063 154.78012 68.44063 156.46762Q68.44063 158.09262 67.64375 158.98325Q66.84688 159.85825 65.65938 159.85825Q64.4875 159.85825 63.70625 158.98325Q62.925 158.10825 62.925 156.35825ZM65.69063 154.1395Q65.09688 154.1395 64.70625 154.65512Q64.31563 155.15512 64.31563 156.53012Q64.31563 157.74887 64.70625 158.2645Q65.09688 158.78012 65.675 158.78012Q66.28438 158.78012 66.675 158.2645Q67.06563 157.74887 67.06563 156.40512Q67.06563 155.15512 66.675 154.65512Q66.28438 154.1395 65.69063 154.1395Z" fill-rule="nonzero"/><path stroke="#757575" stroke-width="1.0" stroke-linecap="butt" d="M18.55 140.8895L146.73334 140.8895L174.88786 140.8895" fill-rule="nonzero"/><path fill="#9e9e9e" d="M176.88786 140.8895C176.88786 139.78493 175.99243 138.8895 174.88786 138.8895C173.7833 138.8895 172.88786 139.78493 172.88786 140.8895C172.88786 141.99406 173.7833 142.8895 174.88786 142.8895C175.99243 142.8895 176.88786 141.99406 176.88786 140.8895" fill-rule="nonzero"/><path fill="#1a1a1a" d="M23.221874 228.45L23.221874 217.09062L18.971874 217.09062L18.971874 215.55937L29.190624 215.55937L29.190624 217.09062L24.925 217.09062L24.925 228.45L23.221874 228.45ZM35.628124 228.45L30.628124 215.55937L32.471874 215.55937L35.83125 224.91875Q36.221874 226.04375 36.503124 227.02812Q36.8 225.98125 37.190624 224.91875L40.675 215.55937L42.409374 215.55937L37.378124 228.45L35.628124 228.45Z" fill-rule="nonzero"/><path fill="#9e9e9e" d="M19.3 250.04375L20.89375 249.84062Q21.159374 251.18437 21.815624 251.77812Q22.471874 252.37187 23.409374 252.37187Q24.534374 252.37187 25.3 251.60625Q26.065624 250.825 26.065624 249.68437Q26.065624 248.59062 25.346874 247.8875Q24.64375 247.16875 23.55 247.16875Q23.096874 247.16875 22.425 247.35625L22.596874 245.96562Q22.753124 245.98125 22.8625 245.98125Q23.8625 245.98125 24.675 245.45Q25.4875 244.91875 25.4875 243.825Q25.4875 242.95 24.89375 242.3875Q24.3 241.80937 23.378124 241.80937Q22.45625 241.80937 21.83125 242.3875Q21.221874 242.96562 21.05 244.1375L19.471874 243.85625Q19.753124 242.2625 20.784374 241.3875Q21.815624 240.5125 23.346874 240.5125Q24.39375 240.5125 25.284374 240.96562Q26.175 241.41875 26.64375 242.2Q27.1125 242.98125 27.1125 243.85625Q27.1125 244.7 26.659374 245.3875Q26.221874 246.05937 25.33125 246.46562Q26.471874 246.73125 27.096874 247.575Q27.7375 248.40312 27.7375 249.6375Q27.7375 251.325 26.503124 252.5125Q25.284374 253.68437 23.409374 253.68437Q21.70625 253.68437 20.58125 252.66875Q19.471874 251.65312 19.3 250.04375ZM30.190624 253.45L30.190624 251.65312L31.9875 251.65312L31.9875 253.45L30.190624 253.45ZM39.3625 253.45L39.3625 250.37187L33.784374 250.37187L33.784374 248.91875L39.659374 240.55937L40.95625 240.55937L40.95625 248.91875L42.690624 248.91875L42.690624 250.37187L40.95625 250.37187L40.95625 253.45L39.3625 253.45ZM39.3625 248.91875L39.3625 243.10625L35.33125 248.91875L39.3625 248.91875ZM44.596874 243.65312Q44.596874 242.27812 45.284374 241.30937Q45.9875 240.34062 47.3 240.34062Q48.51875 240.34062 49.315624 241.21562Q50.1125 242.075 50.1125 243.7625Q50.1125 245.3875 49.3 246.27812Q48.503124 247.15312 47.315624 247.15312Q46.159374 247.15312 45.378124 246.29375Q44.596874 245.41875 44.596874 243.65312ZM47.346874 241.43437Q46.753124 241.43437 46.3625 241.95Q45.971874 242.45 45.971874 243.80937Q45.971874 245.05937 46.3625 245.55937Q46.76875 246.05937 47.346874 246.05937Q47.940624 246.05937 48.33125 245.55937Q48.721874 245.04375 48.721874 243.7Q48.721874 242.45 48.33125 241.95Q47.940624 241.43437 47.346874 241.43437ZM47.3625 253.91875L54.409374 240.34062L55.690624 240.34062L48.659374 253.91875L47.3625 253.91875ZM52.925 250.41875Q52.925 249.04375 53.6125 248.075Q54.315624 247.10625 55.64375 247.10625Q56.8625 247.10625 57.64375 247.98125Q58.440624 248.84062 58.440624 250.52812Q58.440624 252.15312 57.64375 253.04375Q56.846874 253.91875 55.659374 253.91875Q54.4875 253.91875 53.70625 253.04375Q52.925 252.16875 52.925 250.41875ZM55.690624 248.2Q55.096874 248.2 54.70625 248.71562Q54.315624 249.21562 54.315624 250.59062Q54.315624 251.80937 54.70625 252.325Q55.096874 252.84062 55.675 252.84062Q56.284374 252.84062 56.675 252.325Q57.065624 251.80937 57.065624 250.46562Q57.065624 249.21562 56.675 248.71562Q56.284374 248.2 55.690624 248.2Z" fill-rule="nonzero"/><path stroke="#757575" stroke-width="1.0" stroke-linecap="butt" d="M18.55 234.95L146.73334 234.95L198.89627 300.87476" fill-rule="nonzero"/><path fill="#9e9e9e" d="M200.89627 300.87476C200.89627 299.77017 200.00084 298.87476 198.89627 298.87476C197.7917 298.87476 196.89627 299.77017 196.89627 300.87476C196.89627 301.9793 197.7917 302.87476 198.89627 302.87476C200.00084 302.87476 200.89627 301.9793 200.89627 300.87476" fill-rule="nonzero"/><path fill="#1a1a1a" d="M23.628124 275.45L18.628124 262.5594L20.471874 262.5594L23.83125 271.91876Q24.221874 273.04376 24.503124 274.02814Q24.8 272.98126 25.190624 271.91876L28.675 262.5594L30.409374 262.5594L25.378124 275.45L23.628124 275.45ZM36.83125 274.29376Q35.95625 275.04376 35.128124 275.35626Q34.315624 275.66876 33.39375 275.66876Q31.846874 275.66876 31.01875 274.91876Q30.20625 274.15314 30.20625 272.98126Q30.20625 272.3094 30.51875 271.7469Q30.83125 271.16876 31.33125 270.825Q31.83125 270.48126 32.471874 270.3094Q32.940624 270.1844 33.878124 270.075Q35.784374 269.84064 36.690624 269.52814Q36.70625 269.2 36.70625 269.10626Q36.70625 268.15314 36.253124 267.7469Q35.64375 267.21564 34.45625 267.21564Q33.33125 267.21564 32.8 267.60626Q32.26875 267.9969 32.01875 268.9969L30.471874 268.77814Q30.690624 267.77814 31.159374 267.16876Q31.64375 266.5594 32.55 266.23126Q33.471874 265.90314 34.690624 265.90314Q35.878124 265.90314 36.628124 266.1844Q37.378124 266.46564 37.721874 266.90314Q38.08125 267.325 38.221874 267.96564Q38.3 268.3719 38.3 269.4344L38.3 271.54376Q38.3 273.7469 38.39375 274.34064Q38.503124 274.91876 38.8 275.45L37.14375 275.45Q36.89375 274.95 36.83125 274.29376ZM36.690624 270.7625Q35.83125 271.1219 34.1125 271.35626Q33.14375 271.4969 32.7375 271.6844Q32.33125 271.85626 32.1125 272.2Q31.89375 272.52814 31.89375 272.95Q31.89375 273.575 32.3625 273.9969Q32.846874 274.41876 33.76875 274.41876Q34.690624 274.41876 35.39375 274.02814Q36.1125 273.6219 36.440624 272.9344Q36.690624 272.3875 36.690624 271.34064L36.690624 270.7625ZM40.70625 275.45L40.70625 262.5594L42.284374 262.5594L42.284374 275.45L40.70625 275.45ZM44.753124 264.3875L44.753124 262.5594L46.33125 262.5594L46.33125 264.3875L44.753124 264.3875ZM44.753124 275.45L44.753124 266.1219L46.33125 266.1219L46.33125 275.45L44.753124 275.45ZM54.8 275.45L54.8 274.27814Q53.909374 275.66876 52.175 275.66876Q51.065624 275.66876 50.128124 275.0594Q49.190624 274.4344 48.675 273.34064Q48.159374 272.23126 48.159374 270.79376Q48.159374 269.3875 48.628124 268.2625Q49.096874 267.1219 50.01875 266.5125Q50.95625 265.90314 52.1125 265.90314Q52.95625 265.90314 53.6125 266.2625Q54.26875 266.6219 54.690624 267.1844L54.690624 262.5594L56.253124 262.5594L56.253124 275.45L54.8 275.45ZM49.784374 270.79376Q49.784374 272.59064 50.534374 273.48126Q51.3 274.35626 52.33125 274.35626Q53.3625 274.35626 54.08125 273.5125Q54.815624 272.66876 54.815624 270.91876Q54.815624 269.0125 54.08125 268.1219Q53.346874 267.21564 52.26875 267.21564Q51.20625 267.21564 50.4875 268.075Q49.784374 268.9344 49.784374 270.79376ZM68.12813 270.9344L69.83125 271.35626Q69.3 273.46564 67.90938 274.575Q66.51875 275.66876 64.50313 275.66876Q62.425 275.66876 61.1125 274.825Q59.815624 273.96564 59.128124 272.3719Q58.440624 270.7625 58.440624 268.90314Q58.440624 266.90314 59.20625 265.40314Q59.9875 263.90314 61.409374 263.1219Q62.83125 262.34064 64.53438 262.34064Q66.45625 262.34064 67.76875 263.325Q69.09688 264.3094 69.6125 266.09064L67.94063 266.4969Q67.4875 265.09064 66.62813 264.45Q65.78438 263.8094 64.4875 263.8094Q63.003124 263.8094 62.003124 264.52814Q61.01875 265.23126 60.6125 266.4344Q60.20625 267.6219 60.20625 268.90314Q60.20625 270.54376 60.675 271.77814Q61.159374 272.9969 62.175 273.60626Q63.190624 274.21564 64.3625 274.21564Q65.8 274.21564 66.78438 273.3875Q67.78438 272.5594 68.12813 270.9344ZM71.7375 275.45L71.7375 262.5594L73.31563 262.5594L73.31563 267.1844Q74.425 265.90314 76.1125 265.90314Q77.14375 265.90314 77.90938 266.3094Q78.675 266.71564 79.00313 267.45Q79.34688 268.16876 79.34688 269.52814L79.34688 275.45L77.75313 275.45L77.75313 269.52814Q77.75313 268.34064 77.2375 267.8094Q76.72188 267.2625 75.78438 267.2625Q75.08125 267.2625 74.45625 267.6375Q73.84688 267.9969 73.58125 268.6219Q73.31563 269.2469 73.31563 270.34064L73.31563 275.45L71.7375 275.45ZM88.12813 272.45L89.76875 272.65314Q89.37813 274.075 88.33125 274.8719Q87.28438 275.66876 85.65938 275.66876Q83.6125 275.66876 82.40938 274.40314Q81.20625 273.1375 81.20625 270.85626Q81.20625 268.5125 82.40938 267.21564Q83.62813 265.90314 85.56563 265.90314Q87.44063 265.90314 88.62813 267.1844Q89.81563 268.45 89.81563 270.7625Q89.81563 270.90314 89.8 271.1844L82.84688 271.1844Q82.925 272.73126 83.70625 273.54376Q84.50313 274.35626 85.65938 274.35626Q86.53438 274.35626 87.14375 273.90314Q87.76875 273.45 88.12813 272.45ZM82.925 269.8875L88.14375 269.8875Q88.03438 268.71564 87.55 268.1219Q86.78438 267.2 85.58125 267.2Q84.50313 267.2 83.75313 267.9344Q83.01875 268.66876 82.925 269.8875ZM97.83125 272.02814L99.37813 272.23126Q99.12813 273.84064 98.08125 274.7625Q97.03438 275.66876 95.50313 275.66876Q93.58125 275.66876 92.40938 274.41876Q91.25313 273.15314 91.25313 270.825Q91.25313 269.3094 91.75313 268.1844Q92.25313 267.04376 93.26875 266.48126Q94.3 265.90314 95.50313 265.90314Q97.03438 265.90314 97.9875 266.6844Q98.95625 267.45 99.2375 268.85626L97.69063 269.09064Q97.47188 268.15314 96.90938 267.6844Q96.3625 267.2 95.56563 267.2Q94.37813 267.2 93.62813 268.0594Q92.87813 268.91876 92.87813 270.77814Q92.87813 272.65314 93.59688 273.5125Q94.31563 274.35626 95.4875 274.35626Q96.40938 274.35626 97.03438 273.79376Q97.65938 273.21564 97.83125 272.02814ZM100.75313 275.45L100.75313 262.5594L102.33125 262.5594L102.33125 269.91876L106.06563 266.1219L108.1125 266.1219L104.55 269.575L108.4875 275.45L106.53438 275.45L103.44063 270.6844L102.33125 271.7469L102.33125 275.45L100.75313 275.45ZM109.09688 272.66876L110.675 272.41876Q110.8 273.35626 111.39375 273.85626Q112.00313 274.35626 113.08125 274.35626Q114.175 274.35626 114.70625 273.91876Q115.2375 273.46564 115.2375 272.8719Q115.2375 272.34064 114.76875 272.02814Q114.44063 271.825 113.14375 271.4969Q111.40938 271.0594 110.7375 270.7469Q110.06563 270.41876 109.70625 269.85626Q109.3625 269.27814 109.3625 268.59064Q109.3625 267.96564 109.64375 267.4344Q109.94063 266.90314 110.425 266.5594Q110.8 266.27814 111.44063 266.09064Q112.08125 265.90314 112.8 265.90314Q113.90938 265.90314 114.7375 266.23126Q115.56563 266.54376 115.95625 267.09064Q116.3625 267.6219 116.50313 268.52814L114.95625 268.73126Q114.84688 268.0125 114.34688 267.60626Q113.84688 267.2 112.925 267.2Q111.83125 267.2 111.3625 267.5594Q110.89375 267.91876 110.89375 268.40314Q110.89375 268.71564 111.09688 268.96564Q111.28438 269.21564 111.69063 269.3875Q111.94063 269.46564 113.09688 269.79376Q114.76875 270.23126 115.425 270.52814Q116.09688 270.8094 116.47188 271.35626Q116.8625 271.90314 116.8625 272.7Q116.8625 273.4969 116.39375 274.2Q115.94063 274.90314 115.06563 275.29376Q114.19063 275.66876 113.09688 275.66876Q111.26875 275.66876 110.31563 274.91876Q109.3625 274.15314 109.09688 272.66876ZM124.84688 275.45L124.84688 274.075Q123.76875 275.66876 121.89375 275.66876Q121.06563 275.66876 120.34688 275.35626Q119.62813 275.02814 119.28438 274.5594Q118.94063 274.075 118.8 273.3719Q118.70625 272.90314 118.70625 271.90314L118.70625 266.1219L120.28438 266.1219L120.28438 271.29376Q120.28438 272.52814 120.37813 272.96564Q120.53438 273.59064 121.01875 273.95Q121.50313 274.29376 122.20625 274.29376Q122.925 274.29376 123.55 273.9344Q124.175 273.575 124.425 272.95Q124.69063 272.3094 124.69063 271.1219L124.69063 266.1219L126.26875 266.1219L126.26875 275.45L124.84688 275.45ZM128.7375 275.45L128.7375 266.1219L130.15938 266.1219L130.15938 267.41876Q130.59688 266.7469 131.31563 266.325Q132.05 265.90314 132.9875 265.90314Q134.01875 265.90314 134.675 266.34064Q135.34688 266.7625 135.6125 267.54376Q136.72188 265.90314 138.50313 265.90314Q139.89375 265.90314 140.62813 266.6844Q141.37813 267.45 141.37813 269.04376L141.37813 275.45L139.81563 275.45L139.81563 269.575Q139.81563 268.6219 139.65938 268.2Q139.50313 267.77814 139.09688 267.52814Q138.69063 267.27814 138.14375 267.27814Q137.15938 267.27814 136.50313 267.9344Q135.8625 268.59064 135.8625 270.02814L135.8625 275.45L134.28438 275.45L134.28438 269.3875Q134.28438 268.325 133.89375 267.8094Q133.50313 267.27814 132.62813 267.27814Q131.95625 267.27814 131.39375 267.6375Q130.83125 267.98126 130.56563 268.65314Q130.31563 269.325 130.31563 270.60626L130.31563 275.45L128.7375 275.45Z" fill-rule="nonzero"/><path fill="#9e9e9e" d="M24.3625 300.45L24.3625 297.3719L18.784374 297.3719L18.784374 295.91876L24.659374 287.5594L25.95625 287.5594L25.95625 295.91876L27.690624 295.91876L27.690624 297.3719L25.95625 297.3719L25.95625 300.45L24.3625 300.45ZM24.3625 295.91876L24.3625 290.10626L20.33125 295.91876L24.3625 295.91876ZM30.190624 300.45L30.190624 298.65314L31.9875 298.65314L31.9875 300.45L30.190624 300.45ZM42.503124 290.71564L40.940624 290.84064Q40.721874 289.91876 40.33125 289.4969Q39.690624 288.8094 38.753124 288.8094Q38.003124 288.8094 37.425 289.23126Q36.675 289.77814 36.2375 290.825Q35.815624 291.8719 35.8 293.8094Q36.378124 292.9344 37.190624 292.5125Q38.01875 292.09064 38.925 292.09064Q40.51875 292.09064 41.628124 293.2625Q42.7375 294.41876 42.7375 296.2625Q42.7375 297.48126 42.20625 298.52814Q41.690624 299.5594 40.76875 300.1219Q39.8625 300.66876 38.70625 300.66876Q36.721874 300.66876 35.471874 299.21564Q34.221874 297.7625 34.221874 294.41876Q34.221874 290.6844 35.6125 288.98126Q36.815624 287.5125 38.846874 287.5125Q40.378124 287.5125 41.346874 288.3719Q42.315624 289.21564 42.503124 290.71564ZM36.05 296.27814Q36.05 297.09064 36.39375 297.84064Q36.7375 298.59064 37.3625 298.98126Q37.9875 299.3719 38.675 299.3719Q39.675 299.3719 40.39375 298.5594Q41.1125 297.7469 41.1125 296.35626Q41.1125 295.02814 40.39375 294.2625Q39.690624 293.48126 38.6125 293.48126Q37.534374 293.48126 36.784374 294.2625Q36.05 295.02814 36.05 296.27814ZM44.596874 290.65314Q44.596874 289.27814 45.284374 288.3094Q45.9875 287.34064 47.3 287.34064Q48.51875 287.34064 49.315624 288.21564Q50.1125 289.075 50.1125 290.7625Q50.1125 292.3875 49.3 293.27814Q48.503124 294.15314 47.315624 294.15314Q46.159374 294.15314 45.378124 293.29376Q44.596874 292.41876 44.596874 290.65314ZM47.346874 288.4344Q46.753124 288.4344 46.3625 288.95Q45.971874 289.45 45.971874 290.8094Q45.971874 292.0594 46.3625 292.5594Q46.76875 293.0594 47.346874 293.0594Q47.940624 293.0594 48.33125 292.5594Q48.721874 292.04376 48.721874 290.7Q48.721874 289.45 48.33125 288.95Q47.940624 288.4344 47.346874 288.4344ZM47.3625 300.91876L54.409374 287.34064L55.690624 287.34064L48.659374 300.91876L47.3625 300.91876ZM52.925 297.41876Q52.925 296.04376 53.6125 295.075Q54.315624 294.10626 55.64375 294.10626Q56.8625 294.10626 57.64375 294.98126Q58.440624 295.84064 58.440624 297.52814Q58.440624 299.15314 57.64375 300.04376Q56.846874 300.91876 55.659374 300.91876Q54.4875 300.91876 53.70625 300.04376Q52.925 299.16876 52.925 297.41876ZM55.690624 295.2Q55.096874 295.2 54.70625 295.71564Q54.315624 296.21564 54.315624 297.59064Q54.315624 298.8094 54.70625 299.325Q55.096874 299.84064 55.675 299.84064Q56.284374 299.84064 56.675 299.325Q57.065624 298.8094 57.065624 297.46564Q57.065624 296.21564 56.675 295.71564Q56.284374 295.2 55.690624 295.2Z" fill-rule="nonzero"/><path stroke="#757575" stroke-width="1.0" stroke-linecap="butt" d="M18.55 281.95L146.73334 281.95L226.46318 323.44632" fill-rule="nonzero"/><path fill="#9e9e9e" d="M228.46318 323.44632C228.46318 322.34177 227.56775 321.44632 226.46318 321.44632C225.35861 321.44632 224.46318 322.34177 224.46318 323.44632C224.46318 324.5509 225.35861 325.44632 226.46318 325.44632C227.56775 325.44632 228.46318 324.5509 228.46318 323.44632" fill-rule="nonzero"/><path fill="#1a1a1a" d="M19.971874 322.45L19.971874 309.5594L25.675 309.5594Q27.39375 309.5594 28.284374 309.91876Q29.190624 310.2625 29.721874 311.1375Q30.26875 312.0125 30.26875 313.075Q30.26875 314.45 29.378124 315.3875Q28.4875 316.325 26.64375 316.59064Q27.315624 316.91876 27.659374 317.23126Q28.409374 317.91876 29.08125 318.95L31.315624 322.45L29.175 322.45L27.471874 319.7625Q26.721874 318.60626 26.2375 317.9969Q25.753124 317.3719 25.3625 317.1375Q24.9875 316.8875 24.596874 316.79376Q24.3 316.73126 23.64375 316.73126L21.675 316.73126L21.675 322.45L19.971874 322.45ZM21.675 315.2469L25.33125 315.2469Q26.503124 315.2469 27.159374 315.0125Q27.815624 314.7625 28.159374 314.23126Q28.503124 313.7 28.503124 313.075Q28.503124 312.16876 27.83125 311.575Q27.175 310.98126 25.753124 310.98126L21.675 310.98126L21.675 315.2469ZM39.128124 319.45L40.76875 319.65314Q40.378124 321.075 39.33125 321.8719Q38.284374 322.66876 36.659374 322.66876Q34.6125 322.66876 33.409374 321.40314Q32.20625 320.1375 32.20625 317.85626Q32.20625 315.5125 33.409374 314.21564Q34.628124 312.90314 36.565624 312.90314Q38.440624 312.90314 39.628124 314.1844Q40.815624 315.45 40.815624 317.7625Q40.815624 317.90314 40.8 318.1844L33.846874 318.1844Q33.925 319.73126 34.70625 320.54376Q35.503124 321.35626 36.659374 321.35626Q37.534374 321.35626 38.14375 320.90314Q38.76875 320.45 39.128124 319.45ZM33.925 316.8875L39.14375 316.8875Q39.034374 315.71564 38.55 315.1219Q37.784374 314.2 36.58125 314.2Q35.503124 314.2 34.753124 314.9344Q34.01875 315.66876 33.925 316.8875ZM42.440624 323.23126L43.9875 323.45Q44.08125 324.16876 44.51875 324.4969Q45.1125 324.9344 46.128124 324.9344Q47.221874 324.9344 47.815624 324.48126Q48.425 324.04376 48.628124 323.2625Q48.753124 322.77814 48.753124 321.23126Q47.70625 322.45 46.159374 322.45Q44.2375 322.45 43.175 321.0594Q42.128124 319.66876 42.128124 317.73126Q42.128124 316.3875 42.6125 315.2625Q43.096874 314.1375 44.01875 313.52814Q44.940624 312.90314 46.175 312.90314Q47.83125 312.90314 48.89375 314.2469L48.89375 313.1219L50.3625 313.1219L50.3625 321.1844Q50.3625 323.3719 49.909374 324.27814Q49.471874 325.1844 48.503124 325.7Q47.55 326.23126 46.14375 326.23126Q44.471874 326.23126 43.440624 325.48126Q42.409374 324.73126 42.440624 323.23126ZM43.753124 317.6219Q43.753124 319.45 44.4875 320.29376Q45.221874 321.1375 46.315624 321.1375Q47.409374 321.1375 48.14375 320.3094Q48.878124 319.46564 48.878124 317.66876Q48.878124 315.95 48.1125 315.09064Q47.3625 314.21564 46.284374 314.21564Q45.2375 314.21564 44.4875 315.075Q43.753124 315.9344 43.753124 317.6219ZM59.128124 319.45L60.76875 319.65314Q60.378124 321.075 59.33125 321.8719Q58.284374 322.66876 56.659374 322.66876Q54.6125 322.66876 53.409374 321.40314Q52.20625 320.1375 52.20625 317.85626Q52.20625 315.5125 53.409374 314.21564Q54.628124 312.90314 56.565624 312.90314Q58.440624 312.90314 59.628124 314.1844Q60.815624 315.45 60.815624 317.7625Q60.815624 317.90314 60.8 318.1844L53.846874 318.1844Q53.925 319.73126 54.70625 320.54376Q55.503124 321.35626 56.659374 321.35626Q57.534374 321.35626 58.14375 320.90314Q58.76875 320.45 59.128124 319.45ZM53.925 316.8875L59.14375 316.8875Q59.034374 315.71564 58.55 315.1219Q57.784374 314.2 56.58125 314.2Q55.503124 314.2 54.753124 314.9344Q54.01875 315.66876 53.925 316.8875ZM61.675 322.45L65.09688 317.59064L61.940624 313.1219L63.909374 313.1219L65.34688 315.3094Q65.75313 315.9344 66.00313 316.35626Q66.37813 315.7625 66.70625 315.325L68.28438 313.1219L70.175 313.1219L66.94063 317.5125L70.425 322.45L68.47188 322.45L66.56563 319.54376L66.05 318.7625L63.596874 322.45L61.675 322.45Z" fill-rule="nonzero"/><path fill="#9e9e9e" d="M19.534374 344.46564L21.05 344.325Q21.253124 345.40314 21.784374 345.8875Q22.33125 346.3719 23.190624 346.3719Q23.925 346.3719 24.471874 346.04376Q25.01875 345.7 25.3625 345.15314Q25.721874 344.59064 25.95625 343.6375Q26.190624 342.6844 26.190624 341.7Q26.190624 341.59064 26.190624 341.3875Q25.70625 342.1375 24.878124 342.60626Q24.065624 343.075 23.1125 343.075Q21.51875 343.075 20.409374 341.91876Q19.3 340.7625 19.3 338.85626Q19.3 336.90314 20.45625 335.71564Q21.6125 334.5125 23.346874 334.5125Q24.6125 334.5125 25.64375 335.2Q26.690624 335.8719 27.221874 337.1219Q27.76875 338.3719 27.76875 340.7469Q27.76875 343.21564 27.221874 344.6844Q26.690624 346.1375 25.628124 346.90314Q24.58125 347.66876 23.159374 347.66876Q21.64375 347.66876 20.675 346.84064Q19.721874 345.9969 19.534374 344.46564ZM26.01875 338.77814Q26.01875 337.41876 25.284374 336.6219Q24.565624 335.825 23.55 335.825Q22.4875 335.825 21.70625 336.6844Q20.925 337.54376 20.925 338.91876Q20.925 340.15314 21.659374 340.91876Q22.409374 341.6844 23.503124 341.6844Q24.596874 341.6844 25.3 340.91876Q26.01875 340.15314 26.01875 338.77814ZM30.190624 347.45L30.190624 345.65314L31.9875 345.65314L31.9875 347.45L30.190624 347.45ZM34.3 344.075L35.95625 343.9344Q36.14375 345.15314 36.815624 345.7625Q37.4875 346.3719 38.440624 346.3719Q39.58125 346.3719 40.3625 345.5125Q41.159374 344.65314 41.159374 343.21564Q41.159374 341.8719 40.39375 341.09064Q39.64375 340.3094 38.409374 340.3094Q37.64375 340.3094 37.01875 340.65314Q36.409374 340.9969 36.065624 341.5594L34.58125 341.35626L35.83125 334.7469L42.2375 334.7469L42.2375 336.2469L37.096874 336.2469L36.39375 339.71564Q37.565624 338.90314 38.83125 338.90314Q40.51875 338.90314 41.675 340.075Q42.846874 341.2469 42.846874 343.075Q42.846874 344.825 41.815624 346.10626Q40.58125 347.66876 38.440624 347.66876Q36.675 347.66876 35.565624 346.6844Q34.45625 345.7 34.3 344.075ZM44.596874 337.65314Q44.596874 336.27814 45.284374 335.3094Q45.9875 334.34064 47.3 334.34064Q48.51875 334.34064 49.315624 335.21564Q50.1125 336.075 50.1125 337.7625Q50.1125 339.3875 49.3 340.27814Q48.503124 341.15314 47.315624 341.15314Q46.159374 341.15314 45.378124 340.29376Q44.596874 339.41876 44.596874 337.65314ZM47.346874 335.4344Q46.753124 335.4344 46.3625 335.95Q45.971874 336.45 45.971874 337.8094Q45.971874 339.0594 46.3625 339.5594Q46.76875 340.0594 47.346874 340.0594Q47.940624 340.0594 48.33125 339.5594Q48.721874 339.04376 48.721874 337.7Q48.721874 336.45 48.33125 335.95Q47.940624 335.4344 47.346874 335.4344ZM47.3625 347.91876L54.409374 334.34064L55.690624 334.34064L48.659374 347.91876L47.3625 347.91876ZM52.925 344.41876Q52.925 343.04376 53.6125 342.075Q54.315624 341.10626 55.64375 341.10626Q56.8625 341.10626 57.64375 341.98126Q58.440624 342.84064 58.440624 344.52814Q58.440624 346.15314 57.64375 347.04376Q56.846874 347.91876 55.659374 347.91876Q54.4875 347.91876 53.70625 347.04376Q52.925 346.16876 52.925 344.41876ZM55.690624 342.2Q55.096874 342.2 54.70625 342.71564Q54.315624 343.21564 54.315624 344.59064Q54.315624 345.8094 54.70625 346.325Q55.096874 346.84064 55.675 346.84064Q56.284374 346.84064 56.675 346.325Q57.065624 345.8094 57.065624 344.46564Q57.065624 343.21564 56.675 342.71564Q56.284374 342.2 55.690624 342.2Z" fill-rule="nonzero"/><path stroke="#757575" stroke-width="1.0" stroke-linecap="butt" d="M18.55 328.95L146.73334 328.95L284.952 344.03952" fill-rule="nonzero"/><path fill="#9e9e9e" d="M286.952 344.03952C286.952 342.93497 286.05655 342.03952 284.952 342.03952C283.8474 342.03952 282.952 342.93497 282.952 344.03952C282.952 345.1441 283.8474 346.03952 284.952 346.03952C286.05655 346.03952 286.952 345.1441 286.952 344.03952" fill-rule="nonzero"/><path fill="#1a1a1a" d="M502.825 122.146515L502.825 109.25589L504.575 109.25589L511.34064 119.38089L511.34064 109.25589L512.96564 109.25589L512.96564 122.146515L511.23126 122.146515L504.45 112.021515L504.45 122.146515L502.825 122.146515ZM515.04376 117.47464Q515.04376 114.88089 516.4969 113.63089Q517.7 112.59964 519.41876 112.59964Q521.35626 112.59964 522.575 113.865265Q523.79376 115.13089 523.79376 117.34964Q523.79376 119.146515 523.2469 120.177765Q522.71564 121.209015 521.6844 121.78714Q520.65314 122.365265 519.41876 122.365265Q517.46564 122.365265 516.2469 121.115265Q515.04376 119.84964 515.04376 117.47464ZM516.66876 117.47464Q516.66876 119.271515 517.45 120.16214Q518.23126 121.052765 519.41876 121.052765Q520.60626 121.052765 521.3875 120.16214Q522.16876 119.25589 522.16876 117.427765Q522.16876 115.69339 521.3719 114.802765Q520.59064 113.91214 519.41876 113.91214Q518.23126 113.91214 517.45 114.802765Q516.66876 115.69339 516.66876 117.47464ZM525.6375 122.146515L525.6375 112.81839L527.0594 112.81839L527.0594 114.146515Q528.09064 112.59964 530.02814 112.59964Q530.8719 112.59964 531.575 112.91214Q532.29376 113.209015 532.6375 113.709015Q532.9969 114.19339 533.1375 114.865265Q533.21564 115.302765 533.21564 116.41214L533.21564 122.146515L531.6375 122.146515L531.6375 116.47464Q531.6375 115.50589 531.45 115.021515Q531.27814 114.53714 530.79376 114.25589Q530.325 113.97464 529.7 113.97464Q528.6844 113.97464 527.95 114.615265Q527.21564 115.25589 527.21564 117.052765L527.21564 122.146515L525.6375 122.146515ZM535.8719 122.146515L535.8719 109.25589L545.1844 109.25589L545.1844 110.78714L537.575 110.78714L537.575 114.72464L544.7 114.72464L544.7 116.240265L537.575 116.240265L537.575 120.63089L545.4969 120.63089L545.4969 122.146515L535.8719 122.146515ZM547.6375 122.146515L547.6375 112.81839L549.0594 112.81839L549.0594 114.115265Q549.4969 113.44339 550.21564 113.021515Q550.95 112.59964 551.8875 112.59964Q552.91876 112.59964 553.575 113.03714Q554.2469 113.459015 554.5125 114.240265Q555.6219 112.59964 557.40314 112.59964Q558.79376 112.59964 559.52814 113.38089Q560.27814 114.146515 560.27814 115.740265L560.27814 122.146515L558.71564 122.146515L558.71564 116.271515Q558.71564 115.31839 558.5594 114.896515Q558.40314 114.47464 557.9969 114.22464Q557.59064 113.97464 557.04376 113.97464Q556.0594 113.97464 555.40314 114.63089Q554.7625 115.28714 554.7625 116.72464L554.7625 122.146515L553.1844 122.146515L553.1844 116.084015Q553.1844 115.021515 552.79376 114.50589Q552.40314 113.97464 551.52814 113.97464Q550.85626 113.97464 550.29376 114.334015Q549.73126 114.677765 549.46564 115.34964Q549.21564 116.021515 549.21564 117.302765L549.21564 122.146515L547.6375 122.146515ZM561.6375 125.72464L561.6375 112.81839L563.075 112.81839L563.075 114.021515Q563.59064 113.31839 564.23126 112.959015Q564.8719 112.59964 565.77814 112.59964Q566.98126 112.59964 567.8875 113.22464Q568.8094 113.834015 569.27814 114.959015Q569.7469 116.06839 569.7469 117.41214Q569.7469 118.834015 569.23126 119.990265Q568.71564 121.13089 567.73126 121.75589Q566.7469 122.365265 565.66876 122.365265Q564.8875 122.365265 564.2469 122.03714Q563.6219 121.69339 563.21564 121.177765L563.21564 125.72464L561.6375 125.72464ZM563.075 117.53714Q563.075 119.334015 563.79376 120.19339Q564.52814 121.052765 565.5594 121.052765Q566.6219 121.052765 567.3719 120.16214Q568.1219 119.271515 568.1219 117.396515Q568.1219 115.615265 567.3875 114.72464Q566.65314 113.834015 565.6375 113.834015Q564.6219 113.834015 563.84064 114.78714Q563.075 115.72464 563.075 117.53714ZM575.09064 120.72464L575.325 122.13089Q574.65314 122.271515 574.1219 122.271515Q573.2625 122.271515 572.77814 122.00589Q572.3094 121.72464 572.1219 121.28714Q571.9344 120.834015 571.9344 119.41214L571.9344 114.03714L570.7625 114.03714L570.7625 112.81839L571.9344 112.81839L571.9344 110.50589L573.4969 109.552765L573.4969 112.81839L575.09064 112.81839L575.09064 114.03714L573.4969 114.03714L573.4969 119.50589Q573.4969 120.177765 573.575 120.38089Q573.66876 120.56839 573.85626 120.677765Q574.04376 120.78714 574.40314 120.78714Q574.65314 120.78714 575.09064 120.72464ZM576.5594 125.740265L576.3875 124.25589Q576.90314 124.396515 577.29376 124.396515Q577.825 124.396515 578.1375 124.22464Q578.45 124.052765 578.65314 123.72464Q578.8094 123.490265 579.1375 122.552765Q579.1844 122.41214 579.27814 122.16214L575.7469 112.81839L577.45 112.81839L579.3875 118.22464Q579.7625 119.240265 580.0594 120.38089Q580.34064 119.28714 580.71564 118.25589L582.71564 112.81839L584.29376 112.81839L580.7469 122.302765Q580.16876 123.84964 579.85626 124.427765Q579.4344 125.209015 578.8875 125.56839Q578.34064 125.927765 577.59064 125.927765Q577.1219 125.927765 576.5594 125.740265Z" fill-rule="nonzero"/><path fill="#9e9e9e" d="M534.2 143.74026L535.79376 143.53714Q536.0594 144.88089 536.71564 145.47464Q537.3719 146.06839 538.3094 146.06839Q539.4344 146.06839 540.2 145.30276Q540.96564 144.52151 540.96564 143.38089Q540.96564 142.28714 540.2469 141.58401Q539.54376 140.86526 538.45 140.86526Q537.9969 140.86526 537.325 141.05276L537.4969 139.66214Q537.65314 139.67776 537.7625 139.67776Q538.7625 139.67776 539.575 139.14651Q540.3875 138.61526 540.3875 137.52151Q540.3875 136.64651 539.79376 136.08401Q539.2 135.50589 538.27814 135.50589Q537.35626 135.50589 536.73126 136.08401Q536.1219 136.66214 535.95 137.83401L534.3719 137.55276Q534.65314 135.95901 535.6844 135.08401Q536.71564 134.20901 538.2469 134.20901Q539.29376 134.20901 540.1844 134.66214Q541.075 135.11526 541.54376 135.89651Q542.0125 136.67776 542.0125 137.55276Q542.0125 138.39651 541.5594 139.08401Q541.1219 139.75589 540.23126 140.16214Q541.3719 140.42776 541.9969 141.27151Q542.6375 142.09964 542.6375 143.33401Q542.6375 145.02151 541.40314 146.20901Q540.1844 147.38089 538.3094 147.38089Q536.60626 147.38089 535.48126 146.36526Q534.3719 145.34964 534.2 143.74026ZM552.5125 145.63089L552.5125 147.14651L543.9969 147.14651Q543.98126 146.56839 544.1844 146.05276Q544.5125 145.17776 545.21564 144.33401Q545.9344 143.49026 547.29376 142.38089Q549.3875 140.66214 550.1219 139.66214Q550.8719 138.64651 550.8719 137.75589Q550.8719 136.80276 550.2 136.16214Q549.52814 135.52151 548.45 135.52151Q547.29376 135.52151 546.60626 136.20901Q545.9344 136.89651 545.91876 138.09964L544.29376 137.92776Q544.46564 136.11526 545.54376 135.16214Q546.6375 134.20901 548.48126 134.20901Q550.325 134.20901 551.40314 135.24026Q552.4969 136.27151 552.4969 137.78714Q552.4969 138.55276 552.16876 139.30276Q551.85626 140.05276 551.1219 140.88089Q550.3875 141.70901 548.6844 143.14651Q547.2625 144.34964 546.85626 144.77151Q546.45 145.19339 546.2 145.63089L552.5125 145.63089ZM555.09064 147.14651L555.09064 145.34964L556.8875 145.34964L556.8875 147.14651L555.09064 147.14651ZM567.5125 145.63089L567.5125 147.14651L558.9969 147.14651Q558.98126 146.56839 559.1844 146.05276Q559.5125 145.17776 560.21564 144.33401Q560.9344 143.49026 562.29376 142.38089Q564.3875 140.66214 565.1219 139.66214Q565.8719 138.64651 565.8719 137.75589Q565.8719 136.80276 565.2 136.16214Q564.52814 135.52151 563.45 135.52151Q562.29376 135.52151 561.60626 136.20901Q560.9344 136.89651 560.91876 138.09964L559.29376 137.92776Q559.46564 136.11526 560.54376 135.16214Q561.6375 134.20901 563.48126 134.20901Q565.325 134.20901 566.40314 135.24026Q567.4969 136.27151 567.4969 137.78714Q567.4969 138.55276 567.16876 139.30276Q566.85626 140.05276 566.1219 140.88089Q565.3875 141.70901 563.6844 143.14651Q562.2625 144.34964 561.85626 144.77151Q561.45 145.19339 561.2 145.63089L567.5125 145.63089ZM569.4969 137.34964Q569.4969 135.97464 570.1844 135.00589Q570.8875 134.03714 572.2 134.03714Q573.41876 134.03714 574.21564 134.91214Q575.0125 135.77151 575.0125 137.45901Q575.0125 139.08401 574.2 139.97464Q573.40314 140.84964 572.21564 140.84964Q571.0594 140.84964 570.27814 139.99026Q569.4969 139.11526 569.4969 137.34964ZM572.2469 135.13089Q571.65314 135.13089 571.2625 135.64651Q570.8719 136.14651 570.8719 137.50589Q570.8719 138.75589 571.2625 139.25589Q571.66876 139.75589 572.2469 139.75589Q572.84064 139.75589 573.23126 139.25589Q573.6219 138.74026 573.6219 137.39651Q573.6219 136.14651 573.23126 135.64651Q572.84064 135.13089 572.2469 135.13089ZM572.2625 147.61526L579.3094 134.03714L580.59064 134.03714L573.5594 147.61526L572.2625 147.61526ZM577.825 144.11526Q577.825 142.74026 578.5125 141.77151Q579.21564 140.80276 580.54376 140.80276Q581.7625 140.80276 582.54376 141.67776Q583.34064 142.53714 583.34064 144.22464Q583.34064 145.84964 582.54376 146.74026Q581.7469 147.61526 580.5594 147.61526Q579.3875 147.61526 578.60626 146.74026Q577.825 145.86526 577.825 144.11526ZM580.59064 141.89651Q579.9969 141.89651 579.60626 142.41214Q579.21564 142.91214 579.21564 144.28714Q579.21564 145.50589 579.60626 146.02151Q579.9969 146.53714 580.575 146.53714Q581.1844 146.53714 581.575 146.02151Q581.96564 145.50589 581.96564 144.16214Q581.96564 142.91214 581.575 142.41214Q581.1844 141.89651 580.59064 141.89651Z" fill-rule="nonzero"/><path stroke="#757575" stroke-width="1.0" stroke-linecap="butt" d="M584.45 128.64651L456.26666 128.64651L421.263 128.64651" fill-rule="nonzero"/><path fill="#9e9e9e" d="M423.263 128.64651C423.263 127.54195 422.36755 126.646515 421.263 126.646515C420.15842 126.646515 419.263 127.54195 419.263 128.64651C419.263 129.75108 420.15842 130.64651 421.263 130.64651C422.36755 130.64651 423.263 129.75108 423.263 128.64651" fill-rule="nonzero"/><path fill="#1a1a1a" d="M495.29376 296.80322L496.9969 296.80322L496.9969 304.25635Q496.9969 306.19385 496.5594 307.33447Q496.1219 308.4751 494.96564 309.19385Q493.825 309.9126 491.96564 309.9126Q490.15314 309.9126 488.9969 309.2876Q487.85626 308.6626 487.35626 307.49072Q486.8719 306.30322 486.8719 304.25635L486.8719 296.80322L488.575 296.80322L488.575 304.24072Q488.575 305.92822 488.8875 306.7251Q489.2 307.50635 489.95 307.94385Q490.71564 308.38135 491.8094 308.38135Q493.7 308.38135 494.4969 307.52197Q495.29376 306.6626 495.29376 304.24072L495.29376 296.80322ZM499.6219 309.69385L499.6219 300.36572L501.04376 300.36572L501.04376 301.77197Q501.59064 300.7876 502.04376 300.4751Q502.5125 300.14697 503.0594 300.14697Q503.8719 300.14697 504.6844 300.6626L504.15314 302.13135Q503.5594 301.7876 502.98126 301.7876Q502.46564 301.7876 502.04376 302.1001Q501.6375 302.4126 501.46564 302.95947Q501.2 303.80322 501.2 304.80322L501.2 309.69385L499.6219 309.69385ZM505.60626 309.69385L505.60626 296.80322L507.1844 296.80322L507.1844 309.69385L505.60626 309.69385ZM510.04376 309.69385L510.04376 307.89697L511.85626 307.89697L511.85626 309.69385Q511.85626 310.69385 511.4969 311.30322Q511.15314 311.9126 510.3875 312.24072L509.95 311.56885Q510.45 311.3501 510.6844 310.9126Q510.91876 310.49072 510.95 309.69385L510.04376 309.69385ZM523.29376 296.80322L524.9969 296.80322L524.9969 304.25635Q524.9969 306.19385 524.5594 307.33447Q524.1219 308.4751 522.96564 309.19385Q521.825 309.9126 519.96564 309.9126Q518.15314 309.9126 516.9969 309.2876Q515.85626 308.6626 515.35626 307.49072Q514.8719 306.30322 514.8719 304.25635L514.8719 296.80322L516.575 296.80322L516.575 304.24072Q516.575 305.92822 516.8875 306.7251Q517.2 307.50635 517.95 307.94385Q518.71564 308.38135 519.8094 308.38135Q521.7 308.38135 522.4969 307.52197Q523.29376 306.6626 523.29376 304.24072L523.29376 296.80322ZM527.6219 309.69385L527.6219 300.36572L529.04376 300.36572L529.04376 301.77197Q529.59064 300.7876 530.04376 300.4751Q530.5125 300.14697 531.0594 300.14697Q531.8719 300.14697 532.6844 300.6626L532.15314 302.13135Q531.5594 301.7876 530.98126 301.7876Q530.46564 301.7876 530.04376 302.1001Q529.6375 302.4126 529.46564 302.95947Q529.2 303.80322 529.2 304.80322L529.2 309.69385L527.6219 309.69385ZM533.65314 298.63135L533.65314 296.80322L535.23126 296.80322L535.23126 298.63135L533.65314 298.63135ZM533.65314 309.69385L533.65314 300.36572L535.23126 300.36572L535.23126 309.69385L533.65314 309.69385ZM538.04376 309.69385L538.04376 307.89697L539.85626 307.89697L539.85626 309.69385Q539.85626 310.69385 539.4969 311.30322Q539.15314 311.9126 538.3875 312.24072L537.95 311.56885Q538.45 311.3501 538.6844 310.9126Q538.91876 310.49072 538.95 309.69385L538.04376 309.69385ZM551.29376 296.80322L552.9969 296.80322L552.9969 304.25635Q552.9969 306.19385 552.5594 307.33447Q552.1219 308.4751 550.96564 309.19385Q549.825 309.9126 547.96564 309.9126Q546.15314 309.9126 544.9969 309.2876Q543.85626 308.6626 543.35626 307.49072Q542.8719 306.30322 542.8719 304.25635L542.8719 296.80322L544.575 296.80322L544.575 304.24072Q544.575 305.92822 544.8875 306.7251Q545.2 307.50635 545.95 307.94385Q546.71564 308.38135 547.8094 308.38135Q549.7 308.38135 550.4969 307.52197Q551.29376 306.6626 551.29376 304.24072L551.29376 296.80322ZM564.29376 296.80322L565.9969 296.80322L565.9969 304.25635Q565.9969 306.19385 565.5594 307.33447Q565.1219 308.4751 563.96564 309.19385Q562.825 309.9126 560.96564 309.9126Q559.15314 309.9126 557.9969 309.2876Q556.85626 308.6626 556.35626 307.49072Q555.8719 306.30322 555.8719 304.25635L555.8719 296.80322L557.575 296.80322L557.575 304.24072Q557.575 305.92822 557.8875 306.7251Q558.2 307.50635 558.95 307.94385Q559.71564 308.38135 560.8094 308.38135Q562.7 308.38135 563.4969 307.52197Q564.29376 306.6626 564.29376 304.24072L564.29376 296.80322ZM569.1219 309.69385L569.1219 296.80322L570.84064 296.80322L570.84064 309.69385L569.1219 309.69385ZM572.84064 309.69385L572.84064 296.80322L577.27814 296.80322Q578.77814 296.80322 579.575 296.99072Q580.6844 297.24072 581.46564 297.9126Q582.48126 298.77197 582.98126 300.11572Q583.4969 301.45947 583.4969 303.17822Q583.4969 304.64697 583.15314 305.7876Q582.8094 306.9126 582.2625 307.6626Q581.73126 308.39697 581.09064 308.83447Q580.46564 309.25635 579.5594 309.4751Q578.65314 309.69385 577.48126 309.69385L572.84064 309.69385ZM574.54376 308.17822L577.29376 308.17822Q578.575 308.17822 579.29376 307.94385Q580.0125 307.69385 580.45 307.27197Q581.0594 306.6626 581.3875 305.64697Q581.73126 304.61572 581.73126 303.14697Q581.73126 301.13135 581.0594 300.05322Q580.40314 298.95947 579.45 298.6001Q578.77814 298.33447 577.2469 298.33447L574.54376 298.33447L574.54376 308.17822Z" fill-rule="nonzero"/><path fill="#9e9e9e" d="M540.15314 334.69385L538.575 334.69385L538.575 324.61572Q537.9969 325.1626 537.075 325.70947Q536.15314 326.24072 535.40314 326.52197L535.40314 324.99072Q536.73126 324.36572 537.73126 323.4751Q538.73126 322.58447 539.1375 321.75635L540.15314 321.75635L540.15314 334.69385ZM549.2625 334.69385L549.2625 331.61572L543.6844 331.61572L543.6844 330.1626L549.5594 321.80322L550.85626 321.80322L550.85626 330.1626L552.59064 330.1626L552.59064 331.61572L550.85626 331.61572L550.85626 334.69385L549.2625 334.69385ZM549.2625 330.1626L549.2625 324.3501L545.23126 330.1626L549.2625 330.1626ZM555.09064 334.69385L555.09064 332.89697L556.8875 332.89697L556.8875 334.69385L555.09064 334.69385ZM559.4344 331.70947L560.95 331.56885Q561.15314 332.64697 561.6844 333.13135Q562.23126 333.61572 563.09064 333.61572Q563.825 333.61572 564.3719 333.2876Q564.91876 332.94385 565.2625 332.39697Q565.6219 331.83447 565.85626 330.88135Q566.09064 329.92822 566.09064 328.94385Q566.09064 328.83447 566.09064 328.63135Q565.60626 329.38135 564.77814 329.8501Q563.96564 330.31885 563.0125 330.31885Q561.41876 330.31885 560.3094 329.1626Q559.2 328.00635 559.2 326.1001Q559.2 324.14697 560.35626 322.95947Q561.5125 321.75635 563.2469 321.75635Q564.5125 321.75635 565.54376 322.44385Q566.59064 323.11572 567.1219 324.36572Q567.66876 325.61572 567.66876 327.99072Q567.66876 330.45947 567.1219 331.92822Q566.59064 333.38135 565.52814 334.14697Q564.48126 334.9126 563.0594 334.9126Q561.54376 334.9126 560.575 334.08447Q559.6219 333.24072 559.4344 331.70947ZM565.91876 326.02197Q565.91876 324.6626 565.1844 323.86572Q564.46564 323.06885 563.45 323.06885Q562.3875 323.06885 561.60626 323.92822Q560.825 324.7876 560.825 326.1626Q560.825 327.39697 561.5594 328.1626Q562.3094 328.92822 563.40314 328.92822Q564.4969 328.92822 565.2 328.1626Q565.91876 327.39697 565.91876 326.02197ZM569.4969 324.89697Q569.4969 323.52197 570.1844 322.55322Q570.8875 321.58447 572.2 321.58447Q573.41876 321.58447 574.21564 322.45947Q575.0125 323.31885 575.0125 325.00635Q575.0125 326.63135 574.2 327.52197Q573.40314 328.39697 572.21564 328.39697Q571.0594 328.39697 570.27814 327.5376Q569.4969 326.6626 569.4969 324.89697ZM572.2469 322.67822Q571.65314 322.67822 571.2625 323.19385Q570.8719 323.69385 570.8719 325.05322Q570.8719 326.30322 571.2625 326.80322Q571.66876 327.30322 572.2469 327.30322Q572.84064 327.30322 573.23126 326.80322Q573.6219 326.2876 573.6219 324.94385Q573.6219 323.69385 573.23126 323.19385Q572.84064 322.67822 572.2469 322.67822ZM572.2625 335.1626L579.3094 321.58447L580.59064 321.58447L573.5594 335.1626L572.2625 335.1626ZM577.825 331.6626Q577.825 330.2876 578.5125 329.31885Q579.21564 328.3501 580.54376 328.3501Q581.7625 328.3501 582.54376 329.2251Q583.34064 330.08447 583.34064 331.77197Q583.34064 333.39697 582.54376 334.2876Q581.7469 335.1626 580.5594 335.1626Q579.3875 335.1626 578.60626 334.2876Q577.825 333.4126 577.825 331.6626ZM580.59064 329.44385Q579.9969 329.44385 579.60626 329.95947Q579.21564 330.45947 579.21564 331.83447Q579.21564 333.05322 579.60626 333.56885Q579.9969 334.08447 580.575 334.08447Q581.1844 334.08447 581.575 333.56885Q581.96564 333.05322 581.96564 331.70947Q581.96564 330.45947 581.575 329.95947Q581.1844 329.44385 580.59064 329.44385Z" fill-rule="nonzero"/><path stroke="#757575" stroke-width="1.0" stroke-linecap="butt" d="M584.45 316.19385L456.26666 316.19385L387.02826 316.19385" fill-rule="nonzero"/><path fill="#9e9e9e" d="M389.02826 316.19385C389.02826 315.08926 388.13284 314.19385 387.02826 314.19385C385.9237 314.19385 385.02826 315.08926 385.02826 316.19385C385.02826 317.2984 385.9237 318.19385 387.02826 318.19385C388.13284 318.19385 389.02826 317.2984 389.02826 316.19385" fill-rule="nonzero"/><path fill="#757575" d="M19.45625 32.95625L21.2375 32.8Q21.3625 33.8625 21.815624 34.55Q22.284374 35.2375 23.253124 35.675Q24.2375 36.096874 25.471874 36.096874Q26.55 36.096874 27.378124 35.784374Q28.20625 35.45625 28.6125 34.89375Q29.01875 34.33125 29.01875 33.659374Q29.01875 32.9875 28.628124 32.4875Q28.2375 31.9875 27.346874 31.64375Q26.76875 31.409374 24.784374 30.940624Q22.815624 30.471874 22.034374 30.05Q21.003124 29.51875 20.503124 28.721874Q20.003124 27.925 20.003124 26.940624Q20.003124 25.846874 20.6125 24.909374Q21.221874 23.971874 22.409374 23.4875Q23.596874 22.9875 25.034374 22.9875Q26.628124 22.9875 27.846874 23.503124Q29.065624 24.01875 29.70625 25.01875Q30.3625 26.003124 30.409374 27.26875L28.596874 27.409374Q28.45625 26.05 27.6125 25.3625Q26.76875 24.659374 25.1125 24.659374Q23.39375 24.659374 22.596874 25.3Q21.815624 25.925 21.815624 26.8Q21.815624 27.58125 22.378124 28.08125Q22.925 28.58125 25.2375 29.096874Q27.55 29.6125 28.409374 30.003124Q29.659374 30.58125 30.253124 31.471874Q30.846874 32.346874 30.846874 33.503124Q30.846874 34.64375 30.190624 35.659374Q29.534374 36.675 28.3 37.2375Q27.08125 37.8 25.55 37.8Q23.6125 37.8 22.3 37.2375Q20.9875 36.659374 20.2375 35.51875Q19.4875 34.378124 19.45625 32.95625ZM36.70625 35.971874L36.95625 37.534374Q36.221874 37.690624 35.628124 37.690624Q34.675 37.690624 34.14375 37.39375Q33.628124 37.08125 33.409374 36.596874Q33.190624 36.096874 33.190624 34.51875L33.190624 28.55L31.909374 28.55L31.909374 27.175L33.190624 27.175L33.190624 24.6125L34.940624 23.55L34.940624 27.175L36.70625 27.175L36.70625 28.55L34.940624 28.55L34.940624 34.6125Q34.940624 35.3625 35.034374 35.58125Q35.128124 35.784374 35.33125 35.925Q35.55 36.05 35.940624 36.05Q36.221874 36.05 36.70625 35.971874ZM38.846874 37.55L38.846874 27.175L40.425 27.175L40.425 28.753124Q41.034374 27.64375 41.55 27.3Q42.065624 26.940624 42.675 26.940624Q43.565624 26.940624 44.4875 27.503124L43.878124 29.14375Q43.2375 28.753124 42.596874 28.753124Q42.01875 28.753124 41.55 29.1125Q41.096874 29.45625 40.89375 30.065624Q40.6125 31.003124 40.6125 32.1125L40.6125 37.55L38.846874 37.55ZM45.878124 25.253124L45.878124 23.2375L47.64375 23.2375L47.64375 25.253124L45.878124 25.253124ZM45.878124 37.55L45.878124 27.175L47.64375 27.175L47.64375 37.55L45.878124 37.55ZM49.8625 37.55L49.8625 27.175L51.45625 27.175L51.45625 28.659374Q52.596874 26.940624 54.753124 26.940624Q55.690624 26.940624 56.471874 27.284374Q57.26875 27.6125 57.659374 28.159374Q58.05 28.70625 58.20625 29.45625Q58.3 29.95625 58.3 31.175L58.3 37.55L56.534374 37.55L56.534374 31.2375Q56.534374 30.159374 56.33125 29.628124Q56.128124 29.096874 55.596874 28.784374Q55.08125 28.471874 54.378124 28.471874Q53.253124 28.471874 52.440624 29.190624Q51.628124 29.89375 51.628124 31.878124L51.628124 37.55L49.8625 37.55ZM59.55 38.409374L61.253124 38.659374Q61.3625 39.45625 61.846874 39.815624Q62.503124 40.3 63.64375 40.3Q64.8625 40.3 65.51875 39.815624Q66.19063 39.33125 66.425 38.45625Q66.56563 37.909374 66.55 36.190624Q65.39375 37.55 63.675 37.55Q61.534374 37.55 60.3625 36.003124Q59.190624 34.45625 59.190624 32.3Q59.190624 30.815624 59.721874 29.565624Q60.26875 28.315624 61.284374 27.628124Q62.315624 26.940624 63.690624 26.940624Q65.51875 26.940624 66.72188 28.425L66.72188 27.175L68.33125 27.175L68.33125 36.14375Q68.33125 38.565624 67.83125 39.565624Q67.34688 40.58125 66.26875 41.159374Q65.20625 41.753124 63.64375 41.753124Q61.8 41.753124 60.64375 40.925Q59.503124 40.096874 59.55 38.409374ZM61.003124 32.175Q61.003124 34.221874 61.815624 35.159374Q62.628124 36.096874 63.846874 36.096874Q65.05 36.096874 65.8625 35.159374Q66.69063 34.221874 66.69063 32.2375Q66.69063 30.33125 65.84688 29.3625Q65.00313 28.39375 63.815624 28.39375Q62.64375 28.39375 61.815624 29.346874Q61.003124 30.3 61.003124 32.175ZM77.12813 37.55L77.12813 23.2375L83.47188 23.2375Q85.37813 23.2375 86.37813 23.628124Q87.37813 24.003124 87.97188 24.9875Q88.56563 25.95625 88.56563 27.14375Q88.56563 28.659374 87.58125 29.70625Q86.59688 30.753124 84.53438 31.034374Q85.28438 31.39375 85.675 31.753124Q86.50313 32.503124 87.25313 33.659374L89.7375 37.55L87.3625 37.55L85.45625 34.565624Q84.62813 33.284374 84.09688 32.596874Q83.56563 31.909374 83.12813 31.64375Q82.70625 31.3625 82.26875 31.253124Q81.94063 31.190624 81.22188 31.190624L79.01875 31.190624L79.01875 37.55L77.12813 37.55ZM79.01875 29.55L83.09688 29.55Q84.39375 29.55 85.1125 29.284374Q85.84688 29.01875 86.22188 28.425Q86.6125 27.83125 86.6125 27.14375Q86.6125 26.128124 85.87813 25.471874Q85.14375 24.815624 83.55 24.815624L79.01875 24.815624L79.01875 29.55ZM97.97188 34.20625L99.78438 34.440624Q99.3625 36.01875 98.19063 36.909374Q97.03438 37.784374 95.22188 37.784374Q92.95625 37.784374 91.6125 36.39375Q90.28438 34.9875 90.28438 32.45625Q90.28438 29.83125 91.62813 28.39375Q92.97188 26.940624 95.12813 26.940624Q97.20625 26.940624 98.51875 28.3625Q99.84688 29.76875 99.84688 32.346874Q99.84688 32.503124 99.83125 32.815624L92.09688 32.815624Q92.19063 34.51875 93.06563 35.425Q93.94063 36.33125 95.2375 36.33125Q96.20625 36.33125 96.87813 35.83125Q97.56563 35.315624 97.97188 34.20625ZM92.19063 31.3625L97.9875 31.3625Q97.87813 30.065624 97.33125 29.409374Q96.4875 28.39375 95.14375 28.39375Q93.94063 28.39375 93.1125 29.20625Q92.28438 30.003124 92.19063 31.3625ZM102.28438 37.55L102.28438 28.55L100.7375 28.55L100.7375 27.175L102.28438 27.175L102.28438 26.08125Q102.28438 25.034374 102.47188 24.51875Q102.72188 23.83125 103.3625 23.409374Q104.00313 22.9875 105.15938 22.9875Q105.90938 22.9875 106.8 23.159374L106.53438 24.690624Q105.9875 24.596874 105.50313 24.596874Q104.70625 24.596874 104.3625 24.940624Q104.03438 25.284374 104.03438 26.221874L104.03438 27.175L106.06563 27.175L106.06563 28.55L104.03438 28.55L104.03438 37.55L102.28438 37.55ZM107.87813 25.253124L107.87813 23.2375L109.64375 23.2375L109.64375 25.253124L107.87813 25.253124ZM107.87813 37.55L107.87813 27.175L109.64375 27.175L109.64375 37.55L107.87813 37.55ZM111.8625 37.55L111.8625 27.175L113.45625 27.175L113.45625 28.659374Q114.59688 26.940624 116.75313 26.940624Q117.69063 26.940624 118.47188 27.284374Q119.26875 27.6125 119.65938 28.159374Q120.05 28.70625 120.20625 29.45625Q120.3 29.95625 120.3 31.175L120.3 37.55L118.53438 37.55L118.53438 31.2375Q118.53438 30.159374 118.33125 29.628124Q118.12813 29.096874 117.59688 28.784374Q117.08125 28.471874 116.37813 28.471874Q115.25313 28.471874 114.44063 29.190624Q113.62813 29.89375 113.62813 31.878124L113.62813 37.55L111.8625 37.55ZM128.97188 34.20625L130.78438 34.440624Q130.3625 36.01875 129.19063 36.909374Q128.03438 37.784374 126.22188 37.784374Q123.95625 37.784374 122.6125 36.39375Q121.28438 34.9875 121.28438 32.45625Q121.28438 29.83125 122.62813 28.39375Q123.97188 26.940624 126.12813 26.940624Q128.20625 26.940624 129.51875 28.3625Q130.84688 29.76875 130.84688 32.346874Q130.84688 32.503124 130.83125 32.815624L123.09688 32.815624Q123.19063 34.51875 124.06563 35.425Q124.94063 36.33125 126.2375 36.33125Q127.20625 36.33125 127.87813 35.83125Q128.56563 35.315624 128.97188 34.20625ZM123.19063 31.3625L128.9875 31.3625Q128.87813 30.065624 128.33125 29.409374Q127.4875 28.39375 126.14375 28.39375Q124.94063 28.39375 124.1125 29.20625Q123.28438 30.003124 123.19063 31.3625ZM132.8625 37.55L132.8625 27.175L134.44063 27.175L134.44063 28.628124Q134.925 27.878124 135.7375 27.409374Q136.55 26.940624 137.58125 26.940624Q138.7375 26.940624 139.47188 27.425Q140.20625 27.89375 140.51875 28.753124Q141.75313 26.940624 143.72188 26.940624Q145.26875 26.940624 146.09688 27.8Q146.925 28.659374 146.925 30.425L146.925 37.55L145.175 37.55L145.175 31.01875Q145.175 29.95625 145.00313 29.503124Q144.83125 29.034374 144.37813 28.753124Q143.94063 28.471874 143.33125 28.471874Q142.2375 28.471874 141.50313 29.20625Q140.78438 29.925 140.78438 31.51875L140.78438 37.55L139.03438 37.55L139.03438 30.815624Q139.03438 29.64375 138.59688 29.065624Q138.175 28.471874 137.19063 28.471874Q136.45625 28.471874 135.81563 28.8625Q135.19063 29.253124 134.90938 30.003124Q134.62813 30.753124 134.62813 32.175L134.62813 37.55L132.8625 37.55ZM155.97188 34.20625L157.78438 34.440624Q157.3625 36.01875 156.19063 36.909374Q155.03438 37.784374 153.22188 37.784374Q150.95625 37.784374 149.6125 36.39375Q148.28438 34.9875 148.28438 32.45625Q148.28438 29.83125 149.62813 28.39375Q150.97188 26.940624 153.12813 26.940624Q155.20625 26.940624 156.51875 28.3625Q157.84688 29.76875 157.84688 32.346874Q157.84688 32.503124 157.83125 32.815624L150.09688 32.815624Q150.19063 34.51875 151.06563 35.425Q151.94063 36.33125 153.2375 36.33125Q154.20625 36.33125 154.87813 35.83125Q155.56563 35.315624 155.97188 34.20625ZM150.19063 31.3625L155.9875 31.3625Q155.87813 30.065624 155.33125 29.409374Q154.4875 28.39375 153.14375 28.39375Q151.94063 28.39375 151.1125 29.20625Q150.28438 30.003124 150.19063 31.3625ZM159.8625 37.55L159.8625 27.175L161.45625 27.175L161.45625 28.659374Q162.59688 26.940624 164.75313 26.940624Q165.69063 26.940624 166.47188 27.284374Q167.26875 27.6125 167.65938 28.159374Q168.05 28.70625 168.20625 29.45625Q168.3 29.95625 168.3 31.175L168.3 37.55L166.53438 37.55L166.53438 31.2375Q166.53438 30.159374 166.33125 29.628124Q166.12813 29.096874 165.59688 28.784374Q165.08125 28.471874 164.37813 28.471874Q163.25313 28.471874 162.44063 29.190624Q161.62813 29.89375 161.62813 31.878124L161.62813 37.55L159.8625 37.55ZM173.70625 35.971874L173.95625 37.534374Q173.22188 37.690624 172.62813 37.690624Q171.675 37.690624 171.14375 37.39375Q170.62813 37.08125 170.40938 36.596874Q170.19063 36.096874 170.19063 34.51875L170.19063 28.55L168.90938 28.55L168.90938 27.175L170.19063 27.175L170.19063 24.6125L171.94063 23.55L171.94063 27.175L173.70625 27.175L173.70625 28.55L171.94063 28.55L171.94063 34.6125Q171.94063 35.3625 172.03438 35.58125Q172.12813 35.784374 172.33125 35.925Q172.55 36.05 172.94063 36.05Q173.22188 36.05 173.70625 35.971874ZM175.15938 34.45625L176.90938 34.175Q177.05 35.221874 177.72188 35.784374Q178.39375 36.33125 179.59688 36.33125Q180.8 36.33125 181.37813 35.846874Q181.97188 35.346874 181.97188 34.690624Q181.97188 34.096874 181.45625 33.753124Q181.09688 33.51875 179.65938 33.159374Q177.72188 32.659374 176.97188 32.315624Q176.2375 31.95625 175.84688 31.33125Q175.45625 30.690624 175.45625 29.925Q175.45625 29.2375 175.76875 28.64375Q176.09688 28.05 176.64375 27.659374Q177.05 27.3625 177.75313 27.159374Q178.47188 26.940624 179.28438 26.940624Q180.50313 26.940624 181.425 27.3Q182.34688 27.64375 182.78438 28.253124Q183.22188 28.846874 183.39375 29.846874L181.675 30.08125Q181.55 29.284374 180.9875 28.846874Q180.425 28.39375 179.40938 28.39375Q178.19063 28.39375 177.675 28.8Q177.15938 29.190624 177.15938 29.721874Q177.15938 30.065624 177.37813 30.346874Q177.58125 30.628124 178.05 30.815624Q178.31563 30.909374 179.59688 31.253124Q181.47188 31.753124 182.20625 32.08125Q182.94063 32.39375 183.3625 33.003124Q183.78438 33.596874 183.78438 34.503124Q183.78438 35.378124 183.26875 36.159374Q182.75313 36.940624 181.78438 37.3625Q180.81563 37.784374 179.59688 37.784374Q177.58125 37.784374 176.51875 36.940624Q175.45625 36.096874 175.15938 34.45625Z" fill-rule="nonzero"/></svg>