<svg version="1.1" viewBox="0.0 0.0 813.0 503.0" fill="none" stroke="none" stroke-linecap="square" stroke-miterlimit="10" xmlns:xlink="http://www.w3.org/1999/xlink" xmlns="http://www.w3.org/2000/svg"><path fill="#ffffff" d="M0 0L813.0 0L813.0 503.0L0 503.0L0 0Z" fill-rule="nonzero"/><path fill="#5891ad" d="M406.5 65.916664C489.45114 65.916664 564.30707 115.678055 596.4133 192.16388L406.5 271.88333Z" fill-rule="nonzero"/><path fill="#004561" d="M596.4133 192.16388C621.62933 252.23528 616.93787 320.69513 583.7628 376.765L406.5 271.88333Z" fill-rule="nonzero"/><path fill="#ff6f31" d="M583.7628 376.765C551.6611 431.02084 496.48004 467.58737 434.00327 476.00546L406.5 271.88333Z" fill-rule="nonzero"/><path fill="#4cdc8b" d="M328.165 462.37192C237.19656 424.96277 185.3737 328.45306 204.43991 231.95859C223.5061 135.46411 308.13992 65.916664 406.5 65.916664L406.5 271.88333Z" fill-rule="nonzero"/><path fill="#0f45a8" d="M370.11105 474.61002C355.73465 472.0295 341.67352 467.92703 328.165 462.37192L406.5 271.88333Z" fill-rule="nonzero"/><path fill="#1c7685" d="M434.00327 476.00546C412.76297 478.86734 391.20615 478.39655 370.11105 474.61002L406.5 271.88333Z" fill-rule="nonzero"/><path fill="#ffffff" d="M485.88223 145.1481L485.88223 142.06998L480.3041 142.06998L480.3041 140.61685L486.1791 132.25748L487.47598 132.25748L487.47598 140.61685L489.21036 140.61685L489.21036 142.06998L487.47598 142.06998L487.47598 145.1481L485.88223 145.1481ZM485.88223 140.61685L485.88223 134.80435L481.85098 140.61685L485.88223 140.61685ZM490.81973 138.78873Q490.81973 136.50748 491.28848 135.11685Q491.75723 133.72623 492.6791 132.97623Q493.6166 132.2106 495.02286 132.2106Q496.0541 132.2106 496.83536 132.63248Q497.6166 133.03873 498.1166 133.8356Q498.63223 134.61685 498.9291 135.75748Q499.22598 136.88248 499.22598 138.78873Q499.22598 141.05435 498.75723 142.4606Q498.28848 143.85123 497.35098 144.61685Q496.4291 145.36685 495.02286 145.36685Q493.14786 145.36685 492.08536 144.03873Q490.81973 142.42935 490.81973 138.78873ZM492.44473 138.78873Q492.44473 141.9606 493.1791 143.0231Q493.9291 144.06998 495.02286 144.06998Q496.10098 144.06998 496.85098 143.0231Q497.60098 141.9606 497.60098 138.78873Q497.60098 135.61685 496.85098 134.56998Q496.10098 133.5231 495.00723 133.5231Q493.91348 133.5231 493.25723 134.44498Q492.44473 135.61685 492.44473 138.78873ZM500.81973 141.74185L502.41348 141.53873Q502.6791 142.88248 503.33536 143.47623Q503.9916 144.06998 504.9291 144.06998Q506.0541 144.06998 506.81973 143.30435Q507.58536 142.5231 507.58536 141.38248Q507.58536 140.28873 506.8666 139.5856Q506.16348 138.86685 505.06973 138.86685Q504.6166 138.86685 503.94473 139.05435L504.1166 137.66373Q504.27286 137.67935 504.38223 137.67935Q505.38223 137.67935 506.19473 137.1481Q507.00723 136.61685 507.00723 135.5231Q507.00723 134.6481 506.41348 134.0856Q505.81973 133.50748 504.89786 133.50748Q503.97598 133.50748 503.35098 134.0856Q502.7416 134.66373 502.56973 135.8356L500.9916 135.55435Q501.27286 133.9606 502.3041 133.0856Q503.33536 132.2106 504.8666 132.2106Q505.91348 132.2106 506.8041 132.66373Q507.69473 133.11685 508.16348 133.8981Q508.63223 134.67935 508.63223 135.55435Q508.63223 136.3981 508.1791 137.0856Q507.7416 137.75748 506.85098 138.16373Q507.9916 138.42935 508.6166 139.2731Q509.25723 140.10123 509.25723 141.3356Q509.25723 143.0231 508.02286 144.2106Q506.8041 145.38248 504.9291 145.38248Q503.22598 145.38248 502.10098 144.36685Q500.9916 143.35123 500.81973 141.74185Z" fill-rule="nonzero"/><path fill="#ffffff" d="M558.1941 286.3491L559.78784 286.14597Q560.05347 287.48972 560.7097 288.08347Q561.36597 288.67722 562.30347 288.67722Q563.42847 288.67722 564.1941 287.9116Q564.9597 287.13034 564.9597 285.98972Q564.9597 284.89597 564.24097 284.19284Q563.53784 283.4741 562.4441 283.4741Q561.99097 283.4741 561.3191 283.6616L561.49097 282.27097Q561.6472 282.2866 561.7566 282.2866Q562.7566 282.2866 563.5691 281.75534Q564.3816 281.2241 564.3816 280.13034Q564.3816 279.25534 563.78784 278.69284Q563.1941 278.11472 562.2722 278.11472Q561.35034 278.11472 560.72534 278.69284Q560.11597 279.27097 559.9441 280.44284L558.36597 280.1616Q558.6472 278.56784 559.67847 277.69284Q560.7097 276.81784 562.24097 276.81784Q563.28784 276.81784 564.17847 277.27097Q565.0691 277.7241 565.53784 278.50534Q566.0066 279.2866 566.0066 280.1616Q566.0066 281.00534 565.55347 281.69284Q565.11597 282.36472 564.22534 282.77097Q565.36597 283.0366 565.99097 283.88034Q566.6316 284.70847 566.6316 285.94284Q566.6316 287.63034 565.3972 288.81784Q564.17847 289.98972 562.30347 289.98972Q560.60034 289.98972 559.47534 288.9741Q558.36597 287.95847 558.1941 286.3491ZM576.5066 288.23972L576.5066 289.75534L567.99097 289.75534Q567.97534 289.17722 568.17847 288.6616Q568.5066 287.7866 569.2097 286.94284Q569.92847 286.0991 571.28784 284.98972Q573.3816 283.27097 574.11597 282.27097Q574.86597 281.25534 574.86597 280.36472Q574.86597 279.4116 574.1941 278.77097Q573.5222 278.13034 572.4441 278.13034Q571.28784 278.13034 570.60034 278.81784Q569.92847 279.50534 569.91284 280.70847L568.28784 280.5366Q568.4597 278.7241 569.53784 277.77097Q570.6316 276.81784 572.47534 276.81784Q574.3191 276.81784 575.3972 277.8491Q576.49097 278.88034 576.49097 280.39597Q576.49097 281.1616 576.16284 281.9116Q575.85034 282.6616 575.11597 283.48972Q574.3816 284.31784 572.67847 285.75534Q571.2566 286.95847 570.85034 287.38034Q570.4441 287.80222 570.1941 288.23972L576.5066 288.23972ZM578.1941 283.39597Q578.1941 281.11472 578.66284 279.7241Q579.1316 278.33347 580.05347 277.58347Q580.99097 276.81784 582.3972 276.81784Q583.42847 276.81784 584.2097 277.23972Q584.99097 277.64597 585.49097 278.44284Q586.0066 279.2241 586.30347 280.36472Q586.60034 281.48972 586.60034 283.39597Q586.60034 285.6616 586.1316 287.06784Q585.66284 288.45847 584.72534 289.2241Q583.80347 289.9741 582.3972 289.9741Q580.5222 289.9741 579.4597 288.64597Q578.1941 287.0366 578.1941 283.39597ZM579.8191 283.39597Q579.8191 286.56784 580.55347 287.63034Q581.30347 288.67722 582.3972 288.67722Q583.47534 288.67722 584.22534 287.63034Q584.97534 286.56784 584.97534 283.39597Q584.97534 280.2241 584.22534 279.17722Q583.47534 278.13034 582.3816 278.13034Q581.28784 278.13034 580.6316 279.05222Q579.8191 280.2241 579.8191 283.39597Z" fill-rule="nonzero"/><path fill="#ffffff" d="M480.63348 408.35287L482.22723 408.14975Q482.49286 409.4935 483.1491 410.08725Q483.80536 410.681 484.74286 410.681Q485.86786 410.681 486.63348 409.91537Q487.3991 409.13412 487.3991 407.9935Q487.3991 406.89975 486.68036 406.19662Q485.97723 405.47787 484.88348 405.47787Q484.43036 405.47787 483.75848 405.66537L483.93036 404.27475Q484.0866 404.29037 484.19598 404.29037Q485.19598 404.29037 486.00848 403.75912Q486.82098 403.22787 486.82098 402.13412Q486.82098 401.25912 486.22723 400.69662Q485.63348 400.1185 484.7116 400.1185Q483.78973 400.1185 483.16473 400.69662Q482.55536 401.27475 482.38348 402.44662L480.80536 402.16537Q481.0866 400.57162 482.11786 399.69662Q483.1491 398.82162 484.68036 398.82162Q485.72723 398.82162 486.61786 399.27475Q487.50848 399.72787 487.97723 400.50912Q488.44598 401.29037 488.44598 402.16537Q488.44598 403.00912 487.99286 403.69662Q487.55536 404.3685 486.66473 404.77475Q487.80536 405.04037 488.43036 405.88412Q489.07098 406.71225 489.07098 407.94662Q489.07098 409.63412 487.8366 410.82162Q486.61786 411.9935 484.74286 411.9935Q483.03973 411.9935 481.91473 410.97787Q480.80536 409.96225 480.63348 408.35287ZM496.5866 411.75912L495.00848 411.75912L495.00848 401.681Q494.43036 402.22787 493.50848 402.77475Q492.5866 403.306 491.8366 403.58725L491.8366 402.056Q493.16473 401.431 494.16473 400.54037Q495.16473 399.64975 495.57098 398.82162L496.5866 398.82162L496.5866 411.75912ZM500.63348 405.39975Q500.63348 403.1185 501.10223 401.72787Q501.57098 400.33725 502.49286 399.58725Q503.43036 398.82162 504.8366 398.82162Q505.86786 398.82162 506.6491 399.2435Q507.43036 399.64975 507.93036 400.44662Q508.44598 401.22787 508.74286 402.3685Q509.03973 403.4935 509.03973 405.39975Q509.03973 407.66537 508.57098 409.07162Q508.10223 410.46225 507.16473 411.22787Q506.24286 411.97787 504.8366 411.97787Q502.9616 411.97787 501.8991 410.64975Q500.63348 409.04037 500.63348 405.39975ZM502.25848 405.39975Q502.25848 408.57162 502.99286 409.63412Q503.74286 410.681 504.8366 410.681Q505.91473 410.681 506.66473 409.63412Q507.41473 408.57162 507.41473 405.39975Q507.41473 402.22787 506.66473 401.181Q505.91473 400.13412 504.82098 400.13412Q503.72723 400.13412 503.07098 401.056Q502.25848 402.22787 502.25848 405.39975Z" fill-rule="nonzero"/><path fill="#ffffff" d="M394.4667 449.46277L392.88858 449.46277L392.88858 439.38464Q392.31046 439.93152 391.38858 440.4784Q390.4667 441.00964 389.7167 441.2909L389.7167 439.75964Q391.04483 439.13464 392.04483 438.24402Q393.04483 437.3534 393.45108 436.52527L394.4667 436.52527L394.4667 449.46277ZM398.51358 443.1034Q398.51358 440.82214 398.98233 439.43152Q399.45108 438.0409 400.37296 437.2909Q401.31046 436.52527 402.7167 436.52527Q403.74796 436.52527 404.5292 436.94714Q405.31046 437.3534 405.81046 438.15027Q406.32608 438.93152 406.62296 440.07214Q406.91983 441.19714 406.91983 443.1034Q406.91983 445.36902 406.45108 446.77527Q405.98233 448.1659 405.04483 448.93152Q404.12296 449.68152 402.7167 449.68152Q400.8417 449.68152 399.7792 448.3534Q398.51358 446.74402 398.51358 443.1034ZM400.13858 443.1034Q400.13858 446.27527 400.87296 447.33777Q401.62296 448.38464 402.7167 448.38464Q403.79483 448.38464 404.54483 447.33777Q405.29483 446.27527 405.29483 443.1034Q405.29483 439.93152 404.54483 438.88464Q403.79483 437.83777 402.70108 437.83777Q401.60733 437.83777 400.95108 438.75964Q400.13858 439.93152 400.13858 443.1034ZM408.62296 438.25964L408.62296 436.74402L416.95108 436.74402L416.95108 437.9784Q415.73233 439.2909 414.51358 441.46277Q413.31046 443.61902 412.6542 445.9159Q412.16983 447.5409 412.04483 449.46277L410.41983 449.46277Q410.45108 447.94714 411.01358 445.7909Q411.5917 443.63464 412.6542 441.63464Q413.7167 439.63464 414.91983 438.25964L408.62296 438.25964Z" fill-rule="nonzero"/><path fill="#ffffff" d="M350.72415 427.02203L350.72415 425.5064L359.05228 425.5064L359.05228 426.74078Q357.83353 428.05328 356.61478 430.22516Q355.41165 432.3814 354.7554 434.67828Q354.27103 436.30328 354.14603 438.22516L352.52103 438.22516Q352.55228 436.70953 353.11478 434.55328Q353.6929 432.39703 354.7554 430.39703Q355.8179 428.39703 357.02103 427.02203L350.72415 427.02203ZM360.61478 434.8189L362.20853 434.61578Q362.47415 435.95953 363.1304 436.55328Q363.78665 437.14703 364.72415 437.14703Q365.84915 437.14703 366.61478 436.3814Q367.3804 435.60016 367.3804 434.45953Q367.3804 433.36578 366.66165 432.66266Q365.95853 431.9439 364.86478 431.9439Q364.41165 431.9439 363.73978 432.1314L363.91165 430.74078Q364.0679 430.7564 364.17728 430.7564Q365.17728 430.7564 365.98978 430.22516Q366.80228 429.6939 366.80228 428.60016Q366.80228 427.72516 366.20853 427.16266Q365.61478 426.58453 364.6929 426.58453Q363.77103 426.58453 363.14603 427.16266Q362.53665 427.74078 362.36478 428.91266L360.78665 428.6314Q361.0679 427.03766 362.09915 426.16266Q363.1304 425.28766 364.66165 425.28766Q365.70853 425.28766 366.59915 425.74078Q367.48978 426.1939 367.95853 426.97516Q368.42728 427.7564 368.42728 428.6314Q368.42728 429.47516 367.97415 430.16266Q367.53665 430.83453 366.64603 431.24078Q367.78665 431.5064 368.41165 432.35016Q369.05228 433.17828 369.05228 434.41266Q369.05228 436.10016 367.8179 437.28766Q366.59915 438.45953 364.72415 438.45953Q363.02103 438.45953 361.89603 437.4439Q360.78665 436.42828 360.61478 434.8189Z" fill-rule="nonzero"/><path fill="#ffffff" d="M231.92847 243.67496L233.44409 243.53433Q233.64722 244.61246 234.17847 245.09683Q234.72534 245.5812 235.58472 245.5812Q236.31909 245.5812 236.86597 245.25308Q237.41284 244.90933 237.75659 244.36246Q238.11597 243.79996 238.35034 242.84683Q238.58472 241.8937 238.58472 240.90933Q238.58472 240.79996 238.58472 240.59683Q238.10034 241.34683 237.27222 241.81558Q236.45972 242.28433 235.50659 242.28433Q233.91284 242.28433 232.80347 241.12808Q231.69409 239.97183 231.69409 238.06558Q231.69409 236.11246 232.85034 234.92496Q234.00659 233.72183 235.74097 233.72183Q237.00659 233.72183 238.03784 234.40933Q239.08472 235.0812 239.61597 236.3312Q240.16284 237.5812 240.16284 239.9562Q240.16284 242.42496 239.61597 243.8937Q239.08472 245.34683 238.02222 246.11246Q236.97534 246.87808 235.55347 246.87808Q234.03784 246.87808 233.06909 246.04996Q232.11597 245.2062 231.92847 243.67496ZM238.41284 237.98746Q238.41284 236.62808 237.67847 235.8312Q236.95972 235.03433 235.94409 235.03433Q234.88159 235.03433 234.10034 235.8937Q233.31909 236.75308 233.31909 238.12808Q233.31909 239.36246 234.05347 240.12808Q234.80347 240.8937 235.89722 240.8937Q236.99097 240.8937 237.69409 240.12808Q238.41284 239.36246 238.41284 237.98746ZM246.75659 246.65933L246.75659 243.5812L241.17847 243.5812L241.17847 242.12808L247.05347 233.7687L248.35034 233.7687L248.35034 242.12808L250.08472 242.12808L250.08472 243.5812L248.35034 243.5812L248.35034 246.65933L246.75659 246.65933ZM246.75659 242.12808L246.75659 236.31558L242.72534 242.12808L246.75659 242.12808ZM251.69409 243.28433L253.35034 243.1437Q253.53784 244.36246 254.20972 244.97183Q254.88159 245.5812 255.83472 245.5812Q256.97534 245.5812 257.7566 244.72183Q258.55347 243.86246 258.55347 242.42496Q258.55347 241.0812 257.78784 240.29996Q257.03784 239.5187 255.80347 239.5187Q255.03784 239.5187 254.41284 239.86246Q253.80347 240.2062 253.45972 240.7687L251.97534 240.56558L253.22534 233.9562L259.6316 233.9562L259.6316 235.4562L254.49097 235.4562L253.78784 238.92496Q254.95972 238.11246 256.22534 238.11246Q257.91284 238.11246 259.0691 239.28433Q260.24097 240.4562 260.24097 242.28433Q260.24097 244.03433 259.20972 245.31558Q257.97534 246.87808 255.83472 246.87808Q254.06909 246.87808 252.95972 245.8937Q251.85034 244.90933 251.69409 243.28433Z" fill-rule="nonzero"/><path fill="#1a1a1a" d="M26.30625 218.07982Q26.30625 213.8142 28.603125 211.39232Q30.9 208.97044 34.540627 208.97044Q36.915627 208.97044 38.821877 210.11107Q40.74375 211.23607 41.74375 213.28294Q42.74375 215.3142 42.74375 217.89232Q42.74375 220.5017 41.68125 222.5642Q40.634377 224.6267 38.696877 225.6892Q36.759377 226.7517 34.525 226.7517Q32.103127 226.7517 30.18125 225.57982Q28.275 224.40794 27.290625 222.3767Q26.30625 220.34544 26.30625 218.07982ZM28.65 218.1267Q28.65 221.22044 30.321875 223.01732Q31.99375 224.79857 34.509377 224.79857Q37.0875 224.79857 38.74375 223.0017Q40.4 221.1892 40.4 217.8767Q40.4 215.78294 39.68125 214.22044Q38.978127 212.64232 37.603127 211.78294Q36.24375 210.92357 34.55625 210.92357Q32.134377 210.92357 30.384375 212.57982Q28.65 214.23607 28.65 218.1267ZM50.3375 224.5642L50.65 226.42357Q49.759377 226.6267 49.05625 226.6267Q47.9 226.6267 47.259377 226.26732Q46.634377 225.89232 46.36875 225.29857Q46.11875 224.70482 46.11875 222.8142L46.11875 215.64232L44.571877 215.64232L44.571877 214.0017L46.11875 214.0017L46.11875 210.92357L48.2125 209.65794L48.2125 214.0017L50.3375 214.0017L50.3375 215.64232L48.2125 215.64232L48.2125 222.92357Q48.2125 223.82982 48.321877 224.09544Q48.446877 224.34544 48.696877 224.5017Q48.946877 224.64232 49.415627 224.64232Q49.759377 224.64232 50.3375 224.5642ZM52.728127 226.45482L52.728127 209.26732L54.8375 209.26732L54.8375 215.4392Q56.321877 213.72044 58.571877 213.72044Q59.946877 213.72044 60.9625 214.26732Q61.99375 214.8142 62.43125 215.78294Q62.86875 216.73607 62.86875 218.5642L62.86875 226.45482L60.759377 226.45482L60.759377 218.5642Q60.759377 216.98607 60.071877 216.26732Q59.384377 215.54857 58.134377 215.54857Q57.196877 215.54857 56.36875 216.03294Q55.540627 216.51732 55.18125 217.34544Q54.8375 218.17357 54.8375 219.64232L54.8375 226.45482L52.728127 226.45482ZM75.25938 222.4392L77.43125 222.72044Q76.91563 224.6267 75.525 225.6892Q74.13438 226.73607 71.9625 226.73607Q69.22813 226.73607 67.61875 225.0642Q66.025 223.3767 66.025 220.32982Q66.025 217.1892 67.63438 215.45482Q69.25938 213.72044 71.8375 213.72044Q74.3375 213.72044 75.91563 215.42357Q77.50938 217.1267 77.50938 220.20482Q77.50938 220.39232 77.49375 220.76732L68.2125 220.76732Q68.32188 222.8142 69.36875 223.90794Q70.41563 225.0017 71.97813 225.0017Q73.13438 225.0017 73.94688 224.39232Q74.775 223.78294 75.25938 222.4392ZM68.32188 219.03294L75.275 219.03294Q75.13438 217.47044 74.47813 216.67357Q73.47813 215.45482 71.86875 215.45482Q70.41563 215.45482 69.41563 216.4392Q68.43125 217.40794 68.32188 219.03294ZM79.7125 226.45482L79.7125 214.0017L81.60313 214.0017L81.60313 215.89232Q82.3375 214.5642 82.94688 214.14232Q83.57188 213.72044 84.30625 213.72044Q85.36875 213.72044 86.47813 214.40794L85.74375 216.36107Q84.97813 215.90794 84.19688 215.90794Q83.50938 215.90794 82.94688 216.32982Q82.4 216.73607 82.16563 217.47044Q81.82188 218.59544 81.82188 219.9392L81.82188 226.45482L79.7125 226.45482ZM86.88438 222.73607L88.97813 222.40794Q89.15 223.65794 89.94688 224.32982Q90.75938 225.0017 92.19688 225.0017Q93.65 225.0017 94.35313 224.40794Q95.05625 223.8142 95.05625 223.01732Q95.05625 222.29857 94.43125 221.89232Q94.00938 221.61107 92.275 221.17357Q89.9625 220.59544 89.05625 220.17357Q88.16563 219.73607 87.69688 218.98607Q87.24375 218.22044 87.24375 217.3142Q87.24375 216.48607 87.61875 215.78294Q88.00938 215.0642 88.66563 214.59544Q89.15 214.23607 89.99375 213.98607Q90.85313 213.72044 91.82188 213.72044Q93.29063 213.72044 94.4 214.14232Q95.50938 214.5642 96.025 215.29857Q96.55625 216.01732 96.75938 217.22044L94.69688 217.5017Q94.55625 216.53294 93.88438 216.0017Q93.2125 215.45482 91.97813 215.45482Q90.525 215.45482 89.9 215.9392Q89.275 216.42357 89.275 217.0642Q89.275 217.47044 89.54063 217.79857Q89.79063 218.14232 90.35313 218.36107Q90.66563 218.48607 92.2125 218.90794Q94.44688 219.5017 95.32188 219.89232Q96.2125 220.26732 96.7125 221.0017Q97.22813 221.72044 97.22813 222.79857Q97.22813 223.84544 96.60313 224.78294Q95.99375 225.72044 94.8375 226.23607Q93.68125 226.73607 92.2125 226.73607Q89.79063 226.73607 88.50938 225.73607Q87.24375 224.72044 86.88438 222.73607Z" fill-rule="nonzero"/><path fill="#9e9e9e" d="M32.915627 257.45483L32.915627 253.34546L25.4625 253.34546L25.4625 251.40796L33.290627 240.26733L35.025 240.26733L35.025 251.40796L37.3375 251.40796L37.3375 253.34546L35.025 253.34546L35.025 257.45483L32.915627 257.45483ZM32.915627 251.40796L32.915627 243.65796L27.525 251.40796L32.915627 251.40796ZM39.165627 252.92358L41.275 252.64233Q41.634377 254.42358 42.509377 255.22046Q43.384377 256.01733 44.634377 256.01733Q46.11875 256.01733 47.134377 254.98608Q48.165627 253.95483 48.165627 252.42358Q48.165627 250.97046 47.2125 250.03296Q46.275 249.07983 44.80625 249.07983Q44.2125 249.07983 43.321877 249.31421L43.55625 247.47046Q43.759377 247.48608 43.9 247.48608Q45.24375 247.48608 46.321877 246.78296Q47.4 246.07983 47.4 244.62671Q47.4 243.45483 46.603127 242.70483Q45.821877 241.93921 44.5875 241.93921Q43.353127 241.93921 42.525 242.72046Q41.7125 243.48608 41.478127 245.03296L39.36875 244.65796Q39.759377 242.53296 41.11875 241.37671Q42.49375 240.20483 44.540627 240.20483Q45.946877 240.20483 47.11875 240.81421Q48.30625 241.40796 48.93125 242.45483Q49.571877 243.50171 49.571877 244.67358Q49.571877 245.78296 48.9625 246.70483Q48.36875 247.61108 47.196877 248.14233Q48.728127 248.50171 49.571877 249.61108Q50.415627 250.72046 50.415627 252.37671Q50.415627 254.62671 48.775 256.20483Q47.134377 257.76733 44.61875 257.76733Q42.353127 257.76733 40.853127 256.42358Q39.36875 255.06421 39.165627 252.92358ZM53.3375 257.45483L53.3375 255.04858L55.728127 255.04858L55.728127 257.45483L53.3375 257.45483ZM62.4 248.14233Q61.0875 247.65796 60.446877 246.76733Q59.821877 245.87671 59.821877 244.62671Q59.821877 242.75171 61.165627 241.48608Q62.509377 240.20483 64.74375 240.20483Q66.99375 240.20483 68.36875 241.51733Q69.74375 242.81421 69.74375 244.68921Q69.74375 245.89233 69.11875 246.78296Q68.49375 247.65796 67.2125 248.14233Q68.79063 248.65796 69.61875 249.81421Q70.44688 250.95483 70.44688 252.54858Q70.44688 254.75171 68.88438 256.2517Q67.32188 257.7517 64.79063 257.7517Q62.24375 257.7517 60.68125 256.2517Q59.11875 254.73608 59.11875 252.48608Q59.11875 250.81421 59.9625 249.68921Q60.821877 248.54858 62.4 248.14233ZM61.978127 244.56421Q61.978127 245.78296 62.759377 246.56421Q63.540627 247.32983 64.79063 247.32983Q66.00938 247.32983 66.79063 246.56421Q67.57188 245.79858 67.57188 244.67358Q67.57188 243.51733 66.75938 242.73608Q65.9625 241.93921 64.775 241.93921Q63.571877 241.93921 62.775 242.72046Q61.978127 243.48608 61.978127 244.56421ZM61.290627 252.50171Q61.290627 253.39233 61.7125 254.23608Q62.15 255.07983 62.99375 255.54858Q63.8375 256.01733 64.80625 256.01733Q66.32188 256.01733 67.30625 255.04858Q68.29063 254.06421 68.29063 252.56421Q68.29063 251.04858 67.275 250.04858Q66.25938 249.04858 64.74375 249.04858Q63.24375 249.04858 62.259377 250.03296Q61.290627 251.01733 61.290627 252.50171ZM72.54063 244.39233Q72.54063 242.56421 73.4625 241.28296Q74.4 239.98608 76.15 239.98608Q77.775 239.98608 78.8375 241.14233Q79.9 242.28296 79.9 244.53296Q79.9 246.70483 78.82188 247.89233Q77.74375 249.06421 76.18125 249.06421Q74.61875 249.06421 73.57188 247.90796Q72.54063 246.73608 72.54063 244.39233ZM76.2125 241.43921Q75.43125 241.43921 74.9 242.12671Q74.38438 242.79858 74.38438 244.61108Q74.38438 246.26733 74.91563 246.93921Q75.44688 247.61108 76.2125 247.61108Q77.00938 247.61108 77.525 246.93921Q78.05625 246.25171 78.05625 244.43921Q78.05625 242.78296 77.525 242.11108Q76.99375 241.43921 76.2125 241.43921ZM76.22813 258.09546L85.61875 239.98608L87.3375 239.98608L77.97813 258.09546L76.22813 258.09546ZM83.65 253.42358Q83.65 251.56421 84.57188 250.28296Q85.50938 249.00171 87.275 249.00171Q88.9 249.00171 89.94688 250.15796Q91.00938 251.31421 91.00938 253.54858Q91.00938 255.73608 89.93125 256.92358Q88.86875 258.09546 87.29063 258.09546Q85.72813 258.09546 84.68125 256.92358Q83.65 255.75171 83.65 253.42358ZM87.3375 250.45483Q86.54063 250.45483 86.00938 251.14233Q85.49375 251.81421 85.49375 253.62671Q85.49375 255.26733 86.025 255.95483Q86.55625 256.6267 87.32188 256.6267Q88.13438 256.6267 88.65 255.95483Q89.18125 255.26733 89.18125 253.47046Q89.18125 251.79858 88.65 251.12671Q88.11875 250.45483 87.3375 250.45483Z" fill-rule="nonzero"/><path stroke="#757575" stroke-width="1.0" stroke-linecap="butt" d="M25.15 233.95482L194.53334 233.95482L214.54291 233.95482" fill-rule="nonzero"/><path fill="#9e9e9e" d="M216.54291 233.95482C216.54291 232.85025 215.64748 231.95482 214.54291 231.95482C213.43834 231.95482 212.54291 232.85025 212.54291 233.95482C212.54291 235.05939 213.43834 235.95482 214.54291 235.95482C215.64748 235.95482 216.54291 235.05939 216.54291 233.95482" fill-rule="nonzero"/><path fill="#1a1a1a" d="M26.228125 376.33438L28.36875 376.14688Q28.525 377.42813 29.071875 378.25626Q29.634375 379.08438 30.80625 379.6Q31.978125 380.1 33.446877 380.1Q34.74375 380.1 35.74375 379.725Q36.74375 379.33438 37.228127 378.6625Q37.7125 377.975 37.7125 377.17813Q37.7125 376.38126 37.24375 375.77188Q36.775 375.1625 35.696877 374.75626Q35.009377 374.49063 32.634377 373.92813Q30.275 373.35 29.321875 372.85Q28.0875 372.20938 27.478125 371.25626Q26.884375 370.2875 26.884375 369.11563Q26.884375 367.80313 27.61875 366.67813Q28.36875 365.55313 29.775 364.975Q31.196875 364.38126 32.93125 364.38126Q34.8375 364.38126 36.290627 364.99063Q37.759377 365.6 38.540627 366.80313Q39.3375 367.99063 39.384377 369.50626L37.2125 369.67813Q37.040627 368.0375 36.025 367.20938Q35.009377 366.38126 33.025 366.38126Q30.9625 366.38126 30.009375 367.14688Q29.071875 367.89688 29.071875 368.95938Q29.071875 369.88126 29.74375 370.475Q30.4 371.08438 33.165627 371.70938Q35.946877 372.33438 36.978127 372.80313Q38.478127 373.49063 39.18125 374.55313Q39.9 375.61563 39.9 376.99063Q39.9 378.36563 39.11875 379.58438Q38.3375 380.7875 36.86875 381.475Q35.4 382.14688 33.55625 382.14688Q31.228125 382.14688 29.65 381.475Q28.071875 380.7875 27.165625 379.42813Q26.275 378.05313 26.228125 376.33438ZM47.3375 379.95938L47.65 381.81876Q46.759377 382.02188 46.05625 382.02188Q44.9 382.02188 44.259377 381.6625Q43.634377 381.2875 43.36875 380.69376Q43.11875 380.1 43.11875 378.20938L43.11875 371.0375L41.571877 371.0375L41.571877 369.39688L43.11875 369.39688L43.11875 366.31876L45.2125 365.05313L45.2125 369.39688L47.3375 369.39688L47.3375 371.0375L45.2125 371.0375L45.2125 378.31876Q45.2125 379.225 45.321877 379.49063Q45.446877 379.74063 45.696877 379.89688Q45.946877 380.0375 46.415627 380.0375Q46.759377 380.0375 47.3375 379.95938ZM49.7125 381.85L49.7125 369.39688L51.603127 369.39688L51.603127 371.2875Q52.3375 369.95938 52.946877 369.5375Q53.571877 369.11563 54.30625 369.11563Q55.36875 369.11563 56.478127 369.80313L55.74375 371.75626Q54.978127 371.30313 54.196877 371.30313Q53.509377 371.30313 52.946877 371.725Q52.4 372.13126 52.165627 372.86563Q51.821877 373.99063 51.821877 375.33438L51.821877 381.85L49.7125 381.85ZM57.74375 367.1L57.74375 364.6625L59.853127 364.6625L59.853127 367.1L57.74375 367.1ZM57.74375 381.85L57.74375 369.39688L59.853127 369.39688L59.853127 381.85L57.74375 381.85ZM62.728127 381.85L62.728127 369.39688L64.63438 369.39688L64.63438 371.17813Q66.00938 369.11563 68.5875 369.11563Q69.7125 369.11563 70.65 369.52188Q71.60313 369.92813 72.07188 370.58438Q72.54063 371.24063 72.72813 372.14688Q72.85313 372.725 72.85313 374.19376L72.85313 381.85L70.74375 381.85L70.74375 374.27188Q70.74375 372.99063 70.49375 372.35Q70.24375 371.70938 69.61875 371.33438Q68.99375 370.94376 68.15 370.94376Q66.80625 370.94376 65.82188 371.80313Q64.8375 372.6625 64.8375 375.05313L64.8375 381.85L62.728127 381.85ZM76.35313 382.88126L78.4 383.19376Q78.525 384.13126 79.11875 384.56876Q79.9 385.1625 81.25938 385.1625Q82.72813 385.1625 83.525 384.56876Q84.32188 383.99063 84.60313 382.92813Q84.75938 382.2875 84.74375 380.225Q83.36875 381.85 81.30625 381.85Q78.74375 381.85 77.3375 380.00626Q75.93125 378.14688 75.93125 375.55313Q75.93125 373.77188 76.57188 372.27188Q77.2125 370.75626 78.43125 369.94376Q79.66563 369.11563 81.32188 369.11563Q83.525 369.11563 84.94688 370.89688L84.94688 369.39688L86.9 369.39688L86.9 380.1625Q86.9 383.06876 86.30625 384.27188Q85.7125 385.49063 84.43125 386.19376Q83.15 386.89688 81.275 386.89688Q79.04063 386.89688 77.66563 385.89688Q76.30625 384.89688 76.35313 382.88126ZM78.0875 375.39688Q78.0875 377.85 79.05625 378.975Q80.04063 380.1 81.50938 380.1Q82.9625 380.1 83.94688 378.99063Q84.93125 377.86563 84.93125 375.475Q84.93125 373.19376 83.91563 372.0375Q82.9 370.86563 81.4625 370.86563Q80.05625 370.86563 79.07188 372.00626Q78.0875 373.14688 78.0875 375.39688Z" fill-rule="nonzero"/><path fill="#9e9e9e" d="M26.165625 408.31876L28.275 408.0375Q28.634375 409.81876 29.509375 410.61563Q30.384375 411.4125 31.634375 411.4125Q33.11875 411.4125 34.134377 410.38126Q35.165627 409.35 35.165627 407.81876Q35.165627 406.36563 34.2125 405.42813Q33.275 404.475 31.80625 404.475Q31.2125 404.475 30.321875 404.70938L30.55625 402.86563Q30.759375 402.88126 30.9 402.88126Q32.24375 402.88126 33.321877 402.17813Q34.4 401.475 34.4 400.02188Q34.4 398.85 33.603127 398.1Q32.821877 397.33438 31.5875 397.33438Q30.353125 397.33438 29.525 398.11563Q28.7125 398.88126 28.478125 400.42813L26.36875 400.05313Q26.759375 397.92813 28.11875 396.77188Q29.49375 395.6 31.540625 395.6Q32.946877 395.6 34.11875 396.20938Q35.30625 396.80313 35.93125 397.85Q36.571877 398.89688 36.571877 400.06876Q36.571877 401.17813 35.9625 402.1Q35.36875 403.00626 34.196877 403.5375Q35.728127 403.89688 36.571877 405.00626Q37.415627 406.11563 37.415627 407.77188Q37.415627 410.02188 35.775 411.6Q34.134377 413.1625 31.61875 413.1625Q29.353125 413.1625 27.853125 411.81876Q26.36875 410.45938 26.165625 408.31876ZM40.3375 412.85L40.3375 410.44376L42.728127 410.44376L42.728127 412.85L40.3375 412.85ZM52.915627 412.85L52.915627 408.74063L45.4625 408.74063L45.4625 406.80313L53.290627 395.6625L55.025 395.6625L55.025 406.80313L57.3375 406.80313L57.3375 408.74063L55.025 408.74063L55.025 412.85L52.915627 412.85ZM52.915627 406.80313L52.915627 399.05313L47.525 406.80313L52.915627 406.80313ZM59.540627 399.7875Q59.540627 397.95938 60.4625 396.67813Q61.4 395.38126 63.15 395.38126Q64.775 395.38126 65.8375 396.5375Q66.9 397.67813 66.9 399.92813Q66.9 402.1 65.82188 403.2875Q64.74375 404.45938 63.18125 404.45938Q61.61875 404.45938 60.571877 403.30313Q59.540627 402.13126 59.540627 399.7875ZM63.2125 396.83438Q62.43125 396.83438 61.9 397.52188Q61.384377 398.19376 61.384377 400.00626Q61.384377 401.6625 61.915627 402.33438Q62.446877 403.00626 63.2125 403.00626Q64.00938 403.00626 64.525 402.33438Q65.05625 401.64688 65.05625 399.83438Q65.05625 398.17813 64.525 397.50626Q63.99375 396.83438 63.2125 396.83438ZM63.228127 413.49063L72.61875 395.38126L74.3375 395.38126L64.97813 413.49063L63.228127 413.49063ZM70.65 408.81876Q70.65 406.95938 71.57188 405.67813Q72.50938 404.39688 74.275 404.39688Q75.9 404.39688 76.94688 405.55313Q78.00938 406.70938 78.00938 408.94376Q78.00938 411.13126 76.93125 412.31876Q75.86875 413.49063 74.29063 413.49063Q72.72813 413.49063 71.68125 412.31876Q70.65 411.14688 70.65 408.81876ZM74.3375 405.85Q73.54063 405.85 73.00938 406.5375Q72.49375 407.20938 72.49375 409.02188Q72.49375 410.6625 73.025 411.35Q73.55625 412.02188 74.32188 412.02188Q75.13438 412.02188 75.65 411.35Q76.18125 410.6625 76.18125 408.86563Q76.18125 407.19376 75.65 406.52188Q75.11875 405.85 74.3375 405.85Z" fill-rule="nonzero"/><path stroke="#757575" stroke-width="1.0" stroke-linecap="butt" d="M25.15 389.35L194.53334 389.35L351.69696 459.72028" fill-rule="nonzero"/><path fill="#9e9e9e" d="M353.69696 459.72028C353.69696 458.61572 352.8015 457.72028 351.69696 457.72028C350.59238 457.72028 349.69696 458.61572 349.69696 459.72028C349.69696 460.82486 350.59238 461.72028 351.69696 461.72028C352.8015 461.72028 353.69696 460.82486 353.69696 459.72028" fill-rule="nonzero"/><path fill="#1a1a1a" d="M26.915625 440.85L26.915625 423.6625L33.353127 423.6625Q35.321877 423.6625 36.509377 424.19376Q37.696877 424.70938 38.36875 425.80313Q39.05625 426.88126 39.05625 428.06876Q39.05625 429.1625 38.446877 430.14688Q37.853127 431.11563 36.65 431.70938Q38.2125 432.1625 39.040627 433.27188Q39.884377 434.36563 39.884377 435.86563Q39.884377 437.06876 39.36875 438.11563Q38.86875 439.14688 38.11875 439.70938Q37.36875 440.27188 36.228127 440.56876Q35.103127 440.85 33.4625 440.85L26.915625 440.85ZM29.18125 430.88126L32.9 430.88126Q34.415627 430.88126 35.071877 430.69376Q35.93125 430.42813 36.36875 429.83438Q36.80625 429.24063 36.80625 428.33438Q36.80625 427.475 36.4 426.83438Q35.99375 426.17813 35.228127 425.94376Q34.4625 425.69376 32.61875 425.69376L29.18125 425.69376L29.18125 430.88126ZM29.18125 438.81876L33.4625 438.81876Q34.55625 438.81876 35.009377 438.74063Q35.790627 438.6 36.321877 438.27188Q36.853127 437.94376 37.18125 437.31876Q37.525 436.69376 37.525 435.86563Q37.525 434.9125 37.025 434.20938Q36.540627 433.49063 35.665627 433.20938Q34.790627 432.9125 33.15 432.9125L29.18125 432.9125L29.18125 438.81876ZM41.946877 434.63126Q41.946877 431.1625 43.86875 429.50626Q45.478127 428.11563 47.790627 428.11563Q50.353127 428.11563 51.978127 429.80313Q53.603127 431.49063 53.603127 434.44376Q53.603127 436.85 52.884377 438.225Q52.165627 439.6 50.790627 440.36563Q49.415627 441.13126 47.790627 441.13126Q45.165627 441.13126 43.55625 439.45938Q41.946877 437.77188 41.946877 434.63126ZM44.11875 434.63126Q44.11875 437.02188 45.15 438.20938Q46.196877 439.39688 47.790627 439.39688Q49.353127 439.39688 50.4 438.20938Q51.446877 437.00626 51.446877 434.55313Q51.446877 432.24063 50.384377 431.05313Q49.3375 429.86563 47.790627 429.86563Q46.196877 429.86563 45.15 431.05313Q44.11875 432.24063 44.11875 434.63126ZM54.946877 434.63126Q54.946877 431.1625 56.86875 429.50626Q58.478127 428.11563 60.790627 428.11563Q63.353127 428.11563 64.97813 429.80313Q66.60313 431.49063 66.60313 434.44376Q66.60313 436.85 65.88438 438.225Q65.16563 439.6 63.790627 440.36563Q62.415627 441.13126 60.790627 441.13126Q58.165627 441.13126 56.55625 439.45938Q54.946877 437.77188 54.946877 434.63126ZM57.11875 434.63126Q57.11875 437.02188 58.15 438.20938Q59.196877 439.39688 60.790627 439.39688Q62.353127 439.39688 63.4 438.20938Q64.44688 437.00626 64.44688 434.55313Q64.44688 432.24063 63.384377 431.05313Q62.3375 429.86563 60.790627 429.86563Q59.196877 429.86563 58.15 431.05313Q57.11875 432.24063 57.11875 434.63126ZM68.68125 440.85L68.68125 423.6625L70.79063 423.6625L70.79063 440.85L68.68125 440.85Z" fill-rule="nonzero"/><path fill="#9e9e9e" d="M26.15 467.35L28.36875 467.1625Q28.603125 468.77188 29.49375 469.6Q30.4 470.4125 31.665625 470.4125Q33.196877 470.4125 34.24375 469.27188Q35.30625 468.11563 35.30625 466.20938Q35.30625 464.4125 34.290627 463.36563Q33.275 462.31876 31.634375 462.31876Q30.61875 462.31876 29.790625 462.7875Q28.978125 463.24063 28.509375 463.99063L26.525 463.725L28.18125 454.89688L36.728127 454.89688L36.728127 456.9125L29.86875 456.9125L28.946875 461.5375Q30.49375 460.45938 32.196877 460.45938Q34.446877 460.45938 35.99375 462.02188Q37.540627 463.56876 37.540627 466.02188Q37.540627 468.35 36.18125 470.05313Q34.525 472.14688 31.665625 472.14688Q29.321875 472.14688 27.8375 470.83438Q26.353125 469.52188 26.15 467.35ZM40.3375 471.85L40.3375 469.44376L42.728127 469.44376L42.728127 471.85L40.3375 471.85ZM46.15 463.38126Q46.15 460.33438 46.775 458.475Q47.4 456.61563 48.634377 455.61563Q49.86875 454.6 51.74375 454.6Q53.134377 454.6 54.165627 455.1625Q55.2125 455.70938 55.884377 456.75626Q56.571877 457.80313 56.9625 459.31876Q57.353127 460.81876 57.353127 463.38126Q57.353127 466.39688 56.728127 468.25626Q56.103127 470.11563 54.86875 471.13126Q53.634377 472.14688 51.74375 472.14688Q49.259377 472.14688 47.853127 470.36563Q46.15 468.20938 46.15 463.38126ZM48.321877 463.38126Q48.321877 467.6 49.30625 469.00626Q50.290627 470.4125 51.74375 470.4125Q53.196877 470.4125 54.18125 469.00626Q55.18125 467.6 55.18125 463.38126Q55.18125 459.13126 54.18125 457.74063Q53.196877 456.35 51.728127 456.35Q50.275 456.35 49.4 457.56876Q48.321877 459.14688 48.321877 463.38126ZM59.540627 458.7875Q59.540627 456.95938 60.4625 455.67813Q61.4 454.38126 63.15 454.38126Q64.775 454.38126 65.8375 455.5375Q66.9 456.67813 66.9 458.92813Q66.9 461.1 65.82188 462.2875Q64.74375 463.45938 63.18125 463.45938Q61.61875 463.45938 60.571877 462.30313Q59.540627 461.13126 59.540627 458.7875ZM63.2125 455.83438Q62.43125 455.83438 61.9 456.52188Q61.384377 457.19376 61.384377 459.00626Q61.384377 460.6625 61.915627 461.33438Q62.446877 462.00626 63.2125 462.00626Q64.00938 462.00626 64.525 461.33438Q65.05625 460.64688 65.05625 458.83438Q65.05625 457.17813 64.525 456.50626Q63.99375 455.83438 63.2125 455.83438ZM63.228127 472.49063L72.61875 454.38126L74.3375 454.38126L64.97813 472.49063L63.228127 472.49063ZM70.65 467.81876Q70.65 465.95938 71.57188 464.67813Q72.50938 463.39688 74.275 463.39688Q75.9 463.39688 76.94688 464.55313Q78.00938 465.70938 78.00938 467.94376Q78.00938 470.13126 76.93125 471.31876Q75.86875 472.49063 74.29063 472.49063Q72.72813 472.49063 71.68125 471.31876Q70.65 470.14688 70.65 467.81876ZM74.3375 464.85Q73.54063 464.85 73.00938 465.5375Q72.49375 466.20938 72.49375 468.02188Q72.49375 469.6625 73.025 470.35Q73.55625 471.02188 74.32188 471.02188Q75.13438 471.02188 75.65 470.35Q76.18125 469.6625 76.18125 467.86563Q76.18125 466.19376 75.65 465.52188Q75.11875 464.85 74.3375 464.85Z" fill-rule="nonzero"/><path stroke="#757575" stroke-width="1.0" stroke-linecap="butt" d="M25.15 448.35L194.53334 448.35L402.22757 467.505" fill-rule="nonzero"/><path fill="#9e9e9e" d="M404.22757 467.505C404.22757 466.40045 403.33212 465.505 402.22757 465.505C401.123 465.505 400.22757 466.40045 400.22757 467.505C400.22757 468.6096 401.123 469.505 402.22757 469.505C403.33212 469.505 404.22757 468.6096 404.22757 467.505" fill-rule="nonzero"/><path fill="#1a1a1a" d="M765.0687 101.43435L765.0687 86.2781L759.4125 86.2781L759.4125 84.24685L773.0375 84.24685L773.0375 86.2781L767.35 86.2781L767.35 101.43435L765.0687 101.43435ZM779.6156 101.43435L772.95935 84.24685L775.4125 84.24685L779.8812 96.731224Q780.4281 98.231224 780.7875 99.543724Q781.1781 98.137474 781.70935 96.731224L786.35 84.24685L788.6781 84.24685L781.9437 101.43435L779.6156 101.43435Z" fill-rule="nonzero"/><path fill="#9e9e9e" d="M729.7875 132.43436L727.6781 132.43436L727.6781 118.99686Q726.9281 119.71561 725.6781 120.44998Q724.4437 121.16873 723.45935 121.52811L723.45935 119.49686Q725.2406 118.66873 726.5531 117.48123Q727.8812 116.29373 728.4281 115.18436L729.7875 115.18436L729.7875 132.43436ZM738.1 123.12186Q736.7875 122.63748 736.14685 121.74686Q735.52185 120.85623 735.52185 119.60623Q735.52185 117.73123 736.8656 116.46561Q738.20935 115.18436 740.4437 115.18436Q742.6937 115.18436 744.0687 116.49686Q745.4437 117.79373 745.4437 119.66873Q745.4437 120.87186 744.8187 121.76248Q744.1937 122.63748 742.9125 123.12186Q744.4906 123.63748 745.3187 124.79373Q746.14685 125.93436 746.14685 127.52811Q746.14685 129.73123 744.58435 131.23123Q743.02185 132.73123 740.4906 132.73123Q737.9437 132.73123 736.3812 131.23123Q734.8187 129.7156 734.8187 127.46561Q734.8187 125.79373 735.6625 124.66873Q736.52185 123.52811 738.1 123.12186ZM737.6781 119.54373Q737.6781 120.76248 738.45935 121.54373Q739.2406 122.30936 740.4906 122.30936Q741.70935 122.30936 742.4906 121.54373Q743.27185 120.77811 743.27185 119.65311Q743.27185 118.49686 742.45935 117.71561Q741.6625 116.91873 740.475 116.91873Q739.27185 116.91873 738.475 117.69998Q737.6781 118.46561 737.6781 119.54373ZM736.9906 127.48123Q736.9906 128.37186 737.4125 129.2156Q737.85 130.05936 738.6937 130.5281Q739.5375 130.99686 740.5062 130.99686Q742.02185 130.99686 743.0062 130.0281Q743.9906 129.04373 743.9906 127.54373Q743.9906 126.02811 742.975 125.02811Q741.95935 124.02811 740.4437 124.02811Q738.9437 124.02811 737.95935 125.01248Q736.9906 125.99686 736.9906 127.48123ZM749.0375 132.43436L749.0375 130.0281L751.4281 130.0281L751.4281 132.43436L749.0375 132.43436ZM754.9906 117.49686L754.9906 115.48123L766.1156 115.48123L766.1156 117.12186Q764.475 118.85623 762.85 121.76248Q761.2406 124.65311 760.3656 127.71561Q759.7406 129.87186 759.5531 132.43436L757.39685 132.43436Q757.4281 130.4031 758.1781 127.54373Q758.9437 124.66873 760.3656 121.99686Q761.8031 119.32498 763.39685 117.49686L754.9906 117.49686ZM768.2406 119.37186Q768.2406 117.54373 769.1625 116.26248Q770.1 114.96561 771.85 114.96561Q773.475 114.96561 774.5375 116.12186Q775.6 117.26248 775.6 119.51248Q775.6 121.68436 774.52185 122.87186Q773.4437 124.04373 771.8812 124.04373Q770.3187 124.04373 769.27185 122.88748Q768.2406 121.71561 768.2406 119.37186ZM771.9125 116.41873Q771.1312 116.41873 770.6 117.10623Q770.08435 117.77811 770.08435 119.59061Q770.08435 121.24686 770.6156 121.91873Q771.14685 122.59061 771.9125 122.59061Q772.70935 122.59061 773.225 121.91873Q773.7562 121.23123 773.7562 119.41873Q773.7562 117.76248 773.225 117.09061Q772.6937 116.41873 771.9125 116.41873ZM771.9281 133.07498L781.3187 114.96561L783.0375 114.96561L773.6781 133.07498L771.9281 133.07498ZM779.35 128.4031Q779.35 126.54373 780.27185 125.26248Q781.20935 123.98123 782.975 123.98123Q784.6 123.98123 785.64685 125.13748Q786.70935 126.29373 786.70935 128.5281Q786.70935 130.7156 785.6312 131.9031Q784.5687 133.07498 782.9906 133.07498Q781.4281 133.07498 780.3812 131.9031Q779.35 130.73123 779.35 128.4031ZM783.0375 125.43436Q782.2406 125.43436 781.70935 126.12186Q781.1937 126.79373 781.1937 128.60623Q781.1937 130.24686 781.725 130.93436Q782.2562 131.60623 783.02185 131.60623Q783.83435 131.60623 784.35 130.93436Q784.8812 130.24686 784.8812 128.44998Q784.8812 126.77811 784.35 126.10623Q783.8187 125.43436 783.0375 125.43436Z" fill-rule="nonzero"/><path stroke="#757575" stroke-width="1.0" stroke-linecap="butt" d="M787.85 108.93435L618.4667 108.93435L514.8223 108.93435" fill-rule="nonzero"/><path fill="#9e9e9e" d="M516.8223 108.93435C516.8223 107.82978 515.9269 106.93435 514.8223 106.93435C513.7178 106.93435 512.8223 107.82978 512.8223 108.93435C512.8223 110.03892 513.7178 110.93435 514.8223 110.93435C515.9269 110.93435 516.8223 110.03892 516.8223 108.93435" fill-rule="nonzero"/><path fill="#1a1a1a" d="M763.08435 277.76093L763.08435 260.57343L765.3656 260.57343L765.3656 277.76093L763.08435 277.76093ZM768.4281 277.76093L768.4281 265.3078L770.33435 265.3078L770.33435 267.08905Q771.70935 265.02655 774.2875 265.02655Q775.4125 265.02655 776.35 265.4328Q777.3031 265.83905 777.77185 266.4953Q778.2406 267.15155 778.4281 268.0578Q778.5531 268.63593 778.5531 270.10468L778.5531 277.76093L776.4437 277.76093L776.4437 270.1828Q776.4437 268.90155 776.1937 268.26093Q775.9437 267.6203 775.3187 267.2453Q774.6937 266.85468 773.85 266.85468Q772.5062 266.85468 771.52185 267.71405Q770.5375 268.57343 770.5375 270.96405L770.5375 277.76093L768.4281 277.76093ZM787.0375 275.8703L787.35 277.72968Q786.45935 277.9328 785.7562 277.9328Q784.6 277.9328 783.95935 277.57343Q783.33435 277.19843 783.0687 276.60468Q782.8187 276.01093 782.8187 274.1203L782.8187 266.94843L781.27185 266.94843L781.27185 265.3078L782.8187 265.3078L782.8187 262.22968L784.9125 260.96405L784.9125 265.3078L787.0375 265.3078L787.0375 266.94843L784.9125 266.94843L784.9125 274.22968Q784.9125 275.13593 785.02185 275.40155Q785.14685 275.65155 785.39685 275.8078Q785.64685 275.94843 786.1156 275.94843Q786.45935 275.94843 787.0375 275.8703Z" fill-rule="nonzero"/><path fill="#9e9e9e" d="M729.7875 308.76093L727.6781 308.76093L727.6781 295.32343Q726.9281 296.04218 725.6781 296.77655Q724.4437 297.4953 723.45935 297.85468L723.45935 295.82343Q725.2406 294.9953 726.5531 293.8078Q727.8812 292.6203 728.4281 291.51093L729.7875 291.51093L729.7875 308.76093ZM741.6156 308.76093L741.6156 304.65155L734.1625 304.65155L734.1625 302.71405L741.9906 291.57343L743.725 291.57343L743.725 302.71405L746.0375 302.71405L746.0375 304.65155L743.725 304.65155L743.725 308.76093L741.6156 308.76093ZM741.6156 302.71405L741.6156 294.96405L736.225 302.71405L741.6156 302.71405ZM749.0375 308.76093L749.0375 306.35468L751.4281 306.35468L751.4281 308.76093L749.0375 308.76093ZM758.1 299.44843Q756.7875 298.96405 756.14685 298.07343Q755.52185 297.1828 755.52185 295.9328Q755.52185 294.0578 756.8656 292.79218Q758.20935 291.51093 760.4437 291.51093Q762.6937 291.51093 764.0687 292.82343Q765.4437 294.1203 765.4437 295.9953Q765.4437 297.19843 764.8187 298.08905Q764.1937 298.96405 762.9125 299.44843Q764.4906 299.96405 765.3187 301.1203Q766.14685 302.26093 766.14685 303.85468Q766.14685 306.0578 764.58435 307.5578Q763.02185 309.0578 760.4906 309.0578Q757.9437 309.0578 756.3812 307.5578Q754.8187 306.04218 754.8187 303.79218Q754.8187 302.1203 755.6625 300.9953Q756.52185 299.85468 758.1 299.44843ZM757.6781 295.8703Q757.6781 297.08905 758.45935 297.8703Q759.2406 298.63593 760.4906 298.63593Q761.70935 298.63593 762.4906 297.8703Q763.27185 297.10468 763.27185 295.97968Q763.27185 294.82343 762.45935 294.04218Q761.6625 293.2453 760.475 293.2453Q759.27185 293.2453 758.475 294.02655Q757.6781 294.79218 757.6781 295.8703ZM756.9906 303.8078Q756.9906 304.69843 757.4125 305.54218Q757.85 306.38593 758.6937 306.85468Q759.5375 307.32343 760.5062 307.32343Q762.02185 307.32343 763.0062 306.35468Q763.9906 305.3703 763.9906 303.8703Q763.9906 302.35468 762.975 301.35468Q761.95935 300.35468 760.4437 300.35468Q758.9437 300.35468 757.95935 301.33905Q756.9906 302.32343 756.9906 303.8078ZM768.2406 295.69843Q768.2406 293.8703 769.1625 292.58905Q770.1 291.29218 771.85 291.29218Q773.475 291.29218 774.5375 292.44843Q775.6 293.58905 775.6 295.83905Q775.6 298.01093 774.52185 299.19843Q773.4437 300.3703 771.8812 300.3703Q770.3187 300.3703 769.27185 299.21405Q768.2406 298.04218 768.2406 295.69843ZM771.9125 292.7453Q771.1312 292.7453 770.6 293.4328Q770.08435 294.10468 770.08435 295.91718Q770.08435 297.57343 770.6156 298.2453Q771.14685 298.91718 771.9125 298.91718Q772.70935 298.91718 773.225 298.2453Q773.7562 297.5578 773.7562 295.7453Q773.7562 294.08905 773.225 293.41718Q772.6937 292.7453 771.9125 292.7453ZM771.9281 309.40155L781.3187 291.29218L783.0375 291.29218L773.6781 309.40155L771.9281 309.40155ZM779.35 304.72968Q779.35 302.8703 780.27185 301.58905Q781.20935 300.3078 782.975 300.3078Q784.6 300.3078 785.64685 301.46405Q786.70935 302.6203 786.70935 304.85468Q786.70935 307.04218 785.6312 308.22968Q784.5687 309.40155 782.9906 309.40155Q781.4281 309.40155 780.3812 308.22968Q779.35 307.0578 779.35 304.72968ZM783.0375 301.76093Q782.2406 301.76093 781.70935 302.44843Q781.1937 303.1203 781.1937 304.9328Q781.1937 306.57343 781.725 307.26093Q782.2562 307.9328 783.02185 307.9328Q783.83435 307.9328 784.35 307.26093Q784.8812 306.57343 784.8812 304.77655Q784.8812 303.10468 784.35 302.4328Q783.8187 301.76093 783.0375 301.76093Z" fill-rule="nonzero"/><path stroke="#757575" stroke-width="1.0" stroke-linecap="butt" d="M787.85 285.26093L618.4667 285.26093L601.7105 285.26093" fill-rule="nonzero"/><path fill="#9e9e9e" d="M603.7105 285.26093C603.7105 284.15634 602.81506 283.26093 601.7105 283.26093C600.6059 283.26093 599.7105 284.15634 599.7105 285.26093C599.7105 286.3655 600.6059 287.26093 601.7105 287.26093C602.81506 287.26093 603.7105 286.3655 603.7105 285.26093" fill-rule="nonzero"/><path fill="#1a1a1a" d="M705.6156 427.48984L705.6156 410.30234L707.8812 410.30234L707.8812 425.4586L716.35 425.4586L716.35 427.48984L705.6156 427.48984ZM718.4437 412.73984L718.4437 410.30234L720.5531 410.30234L720.5531 412.73984L718.4437 412.73984ZM718.4437 427.48984L718.4437 415.0367L720.5531 415.0367L720.5531 427.48984L718.4437 427.48984ZM722.58435 423.7711L724.6781 423.44296Q724.85 424.69296 725.64685 425.36484Q726.45935 426.0367 727.89685 426.0367Q729.35 426.0367 730.0531 425.44296Q730.7562 424.8492 730.7562 424.05234Q730.7562 423.3336 730.1312 422.92734Q729.70935 422.6461 727.975 422.2086Q725.6625 421.63046 724.7562 421.2086Q723.8656 420.7711 723.39685 420.0211Q722.9437 419.25546 722.9437 418.3492Q722.9437 417.5211 723.3187 416.81796Q723.70935 416.0992 724.3656 415.63046Q724.85 415.2711 725.6937 415.0211Q726.5531 414.75546 727.52185 414.75546Q728.9906 414.75546 730.1 415.17734Q731.20935 415.5992 731.725 416.3336Q732.2562 417.05234 732.45935 418.25546L730.39685 418.5367Q730.2562 417.56796 729.58435 417.0367Q728.9125 416.48984 727.6781 416.48984Q726.225 416.48984 725.6 416.9742Q724.975 417.4586 724.975 418.0992Q724.975 418.50546 725.2406 418.8336Q725.4906 419.17734 726.0531 419.3961Q726.3656 419.5211 727.9125 419.94296Q730.14685 420.5367 731.02185 420.92734Q731.9125 421.30234 732.4125 422.0367Q732.9281 422.75546 732.9281 423.8336Q732.9281 424.88046 732.3031 425.81796Q731.6937 426.75546 730.5375 427.2711Q729.3812 427.7711 727.9125 427.7711Q725.4906 427.7711 724.20935 426.7711Q722.9437 425.75546 722.58435 423.7711ZM740.0375 425.5992L740.35 427.4586Q739.45935 427.6617 738.7562 427.6617Q737.6 427.6617 736.95935 427.30234Q736.33435 426.92734 736.0687 426.3336Q735.8187 425.73984 735.8187 423.8492L735.8187 416.67734L734.27185 416.67734L734.27185 415.0367L735.8187 415.0367L735.8187 411.9586L737.9125 410.69296L737.9125 415.0367L740.0375 415.0367L740.0375 416.67734L737.9125 416.67734L737.9125 423.9586Q737.9125 424.86484 738.02185 425.13046Q738.14685 425.38046 738.39685 425.5367Q738.64685 425.67734 739.1156 425.67734Q739.45935 425.67734 740.0375 425.5992ZM742.9906 427.48984L742.9906 425.0836L745.3812 425.0836L745.3812 427.48984Q745.3812 428.81796 744.9125 429.63046Q744.4437 430.44296 743.4281 430.8961L742.85 429.98984Q743.5062 429.69296 743.8187 429.11484Q744.14685 428.55234 744.1781 427.48984L742.9906 427.48984ZM754.6156 427.48984L747.95935 410.30234L750.4125 410.30234L754.8812 422.7867Q755.4281 424.2867 755.7875 425.5992Q756.1781 424.19296 756.70935 422.7867L761.35 410.30234L763.6781 410.30234L756.9437 427.48984L754.6156 427.48984ZM772.95935 423.4742L775.1312 423.75546Q774.6156 425.6617 773.225 426.7242Q771.83435 427.7711 769.6625 427.7711Q766.9281 427.7711 765.3187 426.0992Q763.725 424.4117 763.725 421.36484Q763.725 418.2242 765.33435 416.48984Q766.95935 414.75546 769.5375 414.75546Q772.0375 414.75546 773.6156 416.4586Q775.20935 418.1617 775.20935 421.23984Q775.20935 421.42734 775.1937 421.80234L765.9125 421.80234Q766.02185 423.8492 767.0687 424.94296Q768.1156 426.0367 769.6781 426.0367Q770.83435 426.0367 771.64685 425.42734Q772.475 424.81796 772.95935 423.4742ZM766.02185 420.06796L772.975 420.06796Q772.83435 418.50546 772.1781 417.7086Q771.1781 416.48984 769.5687 416.48984Q768.1156 416.48984 767.1156 417.4742Q766.1312 418.44296 766.02185 420.06796ZM785.5531 422.92734L787.6312 423.19296Q787.2875 425.3492 785.8812 426.56796Q784.4906 427.7711 782.4437 427.7711Q779.89685 427.7711 778.33435 426.0992Q776.7875 424.42734 776.7875 421.31796Q776.7875 419.30234 777.45935 417.7867Q778.1312 416.2711 779.4906 415.5211Q780.85 414.75546 782.45935 414.75546Q784.4906 414.75546 785.77185 415.7867Q787.0687 416.81796 787.4281 418.69296L785.3812 419.0211Q785.08435 417.75546 784.33435 417.13046Q783.6 416.48984 782.5375 416.48984Q780.9437 416.48984 779.9437 417.6461Q778.95935 418.7867 778.95935 421.25546Q778.95935 423.75546 779.9125 424.8961Q780.8812 426.0367 782.4281 426.0367Q783.6625 426.0367 784.4906 425.2711Q785.33435 424.50546 785.5531 422.92734Z" fill-rule="nonzero"/><path fill="#9e9e9e" d="M729.7875 458.48984L727.6781 458.48984L727.6781 445.05234Q726.9281 445.7711 725.6781 446.50546Q724.4437 447.2242 723.45935 447.5836L723.45935 445.55234Q725.2406 444.7242 726.5531 443.5367Q727.8812 442.3492 728.4281 441.23984L729.7875 441.23984L729.7875 458.48984ZM741.6156 458.48984L741.6156 454.38046L734.1625 454.38046L734.1625 452.44296L741.9906 441.30234L743.725 441.30234L743.725 452.44296L746.0375 452.44296L746.0375 454.38046L743.725 454.38046L743.725 458.48984L741.6156 458.48984ZM741.6156 452.44296L741.6156 444.69296L736.225 452.44296L741.6156 452.44296ZM749.0375 458.48984L749.0375 456.0836L751.4281 456.0836L751.4281 458.48984L749.0375 458.48984ZM761.6156 458.48984L761.6156 454.38046L754.1625 454.38046L754.1625 452.44296L761.9906 441.30234L763.725 441.30234L763.725 452.44296L766.0375 452.44296L766.0375 454.38046L763.725 454.38046L763.725 458.48984L761.6156 458.48984ZM761.6156 452.44296L761.6156 444.69296L756.225 452.44296L761.6156 452.44296ZM768.2406 445.42734Q768.2406 443.5992 769.1625 442.31796Q770.1 441.0211 771.85 441.0211Q773.475 441.0211 774.5375 442.17734Q775.6 443.31796 775.6 445.56796Q775.6 447.73984 774.52185 448.92734Q773.4437 450.0992 771.8812 450.0992Q770.3187 450.0992 769.27185 448.94296Q768.2406 447.7711 768.2406 445.42734ZM771.9125 442.4742Q771.1312 442.4742 770.6 443.1617Q770.08435 443.8336 770.08435 445.6461Q770.08435 447.30234 770.6156 447.9742Q771.14685 448.6461 771.9125 448.6461Q772.70935 448.6461 773.225 447.9742Q773.7562 447.2867 773.7562 445.4742Q773.7562 443.81796 773.225 443.1461Q772.6937 442.4742 771.9125 442.4742ZM771.9281 459.13046L781.3187 441.0211L783.0375 441.0211L773.6781 459.13046L771.9281 459.13046ZM779.35 454.4586Q779.35 452.5992 780.27185 451.31796Q781.20935 450.0367 782.975 450.0367Q784.6 450.0367 785.64685 451.19296Q786.70935 452.3492 786.70935 454.5836Q786.70935 456.7711 785.6312 457.9586Q784.5687 459.13046 782.9906 459.13046Q781.4281 459.13046 780.3812 457.9586Q779.35 456.7867 779.35 454.4586ZM783.0375 451.48984Q782.2406 451.48984 781.70935 452.17734Q781.1937 452.8492 781.1937 454.6617Q781.1937 456.30234 781.725 456.98984Q782.2562 457.6617 783.02185 457.6617Q783.83435 457.6617 784.35 456.98984Q784.8812 456.30234 784.8812 454.50546Q784.8812 452.8336 784.35 452.1617Q783.8187 451.48984 783.0375 451.48984Z" fill-rule="nonzero"/><path stroke="#757575" stroke-width="1.0" stroke-linecap="butt" d="M787.85 434.98984L618.4667 434.98984L514.58496 434.98984" fill-rule="nonzero"/><path fill="#9e9e9e" d="M516.58496 434.98984C516.58496 433.88525 515.6896 432.98984 514.58496 432.98984C513.4804 432.98984 512.58496 433.88525 512.58496 434.98984C512.58496 436.09442 513.4804 436.98984 514.58496 436.98984C515.6896 436.98984 516.58496 436.09442 516.58496 434.98984" fill-rule="nonzero"/><path fill="#757575" d="M30.3375 44.15L30.3375 31.525002L25.61875 31.525002L25.61875 29.837502L36.9625 29.837502L36.9625 31.525002L32.228127 31.525002L32.228127 44.15L30.3375 44.15ZM38.384377 48.15L38.196877 46.49375Q38.775 46.65 39.196877 46.65Q39.790627 46.65 40.134377 46.446877Q40.49375 46.259377 40.7125 45.915627Q40.884377 45.65 41.259377 44.603127Q41.30625 44.446877 41.415627 44.165627L37.478127 33.775L39.36875 33.775L41.525 39.790627Q41.946877 40.93125 42.275 42.18125Q42.5875 40.978127 42.99375 39.821877L45.2125 33.775L46.978127 33.775L43.025 44.321877Q42.4 46.040627 42.040627 46.68125Q41.571877 47.55625 40.9625 47.946877Q40.36875 48.353127 39.525 48.353127Q39.009377 48.353127 38.384377 48.15ZM48.4625 48.11875L48.4625 33.775L50.071877 33.775L50.071877 35.11875Q50.634377 34.3375 51.3375 33.946877Q52.05625 33.540627 53.071877 33.540627Q54.4 33.540627 55.415627 34.228127Q56.43125 34.915627 56.946877 36.165627Q57.478127 37.4 57.478127 38.884377Q57.478127 40.478127 56.9 41.759377Q56.3375 43.025 55.24375 43.7125Q54.15 44.384377 52.946877 44.384377Q52.071877 44.384377 51.36875 44.009377Q50.68125 43.634377 50.228127 43.071877L50.228127 48.11875L48.4625 48.11875ZM50.05625 39.025Q50.05625 41.025 50.86875 41.978127Q51.68125 42.93125 52.8375 42.93125Q54.009377 42.93125 54.8375 41.946877Q55.68125 40.9625 55.68125 38.86875Q55.68125 36.9 54.853127 35.915627Q54.040627 34.915627 52.915627 34.915627Q51.790627 34.915627 50.915627 35.978127Q50.05625 37.025 50.05625 39.025ZM66.57188 40.80625L68.38438 41.040627Q67.9625 42.61875 66.79063 43.509377Q65.63438 44.384377 63.821877 44.384377Q61.55625 44.384377 60.2125 42.99375Q58.884377 41.5875 58.884377 39.05625Q58.884377 36.43125 60.228127 34.99375Q61.571877 33.540627 63.728127 33.540627Q65.80625 33.540627 67.11875 34.9625Q68.44688 36.36875 68.44688 38.946877Q68.44688 39.103127 68.43125 39.415627L60.696877 39.415627Q60.790627 41.11875 61.665627 42.025Q62.540627 42.93125 63.8375 42.93125Q64.80625 42.93125 65.47813 42.43125Q66.16563 41.915627 66.57188 40.80625ZM60.790627 37.9625L66.5875 37.9625Q66.47813 36.665627 65.93125 36.009377Q65.0875 34.99375 63.74375 34.99375Q62.540627 34.99375 61.7125 35.80625Q60.884377 36.603127 60.790627 37.9625ZM69.75938 41.05625L71.50938 40.775Q71.65 41.821877 72.32188 42.384377Q72.99375 42.93125 74.19688 42.93125Q75.4 42.93125 75.97813 42.446877Q76.57188 41.946877 76.57188 41.290627Q76.57188 40.696877 76.05625 40.353127Q75.69688 40.11875 74.25938 39.759377Q72.32188 39.259377 71.57188 38.915627Q70.8375 38.55625 70.44688 37.93125Q70.05625 37.290627 70.05625 36.525Q70.05625 35.8375 70.36875 35.24375Q70.69688 34.65 71.24375 34.259377Q71.65 33.9625 72.35313 33.759377Q73.07188 33.540627 73.88438 33.540627Q75.10313 33.540627 76.025 33.9Q76.94688 34.24375 77.38438 34.853127Q77.82188 35.446877 77.99375 36.446877L76.275 36.68125Q76.15 35.884377 75.5875 35.446877Q75.025 34.99375 74.00938 34.99375Q72.79063 34.99375 72.275 35.4Q71.75938 35.790627 71.75938 36.321877Q71.75938 36.665627 71.97813 36.946877Q72.18125 37.228127 72.65 37.415627Q72.91563 37.509377 74.19688 37.853127Q76.07188 38.353127 76.80625 38.68125Q77.54063 38.99375 77.9625 39.603127Q78.38438 40.196877 78.38438 41.103127Q78.38438 41.978127 77.86875 42.759377Q77.35313 43.540627 76.38438 43.9625Q75.41563 44.384377 74.19688 44.384377Q72.18125 44.384377 71.11875 43.540627Q70.05625 42.696877 69.75938 41.05625ZM86.72813 44.15L86.72813 29.837502L93.07188 29.837502Q94.97813 29.837502 95.97813 30.228127Q96.97813 30.603127 97.57188 31.587502Q98.16563 32.55625 98.16563 33.74375Q98.16563 35.259377 97.18125 36.30625Q96.19688 37.353127 94.13438 37.634377Q94.88438 37.99375 95.275 38.353127Q96.10313 39.103127 96.85313 40.259377L99.3375 44.15L96.9625 44.15L95.05625 41.165627Q94.22813 39.884377 93.69688 39.196877Q93.16563 38.509377 92.72813 38.24375Q92.30625 37.9625 91.86875 37.853127Q91.54063 37.790627 90.82188 37.790627L88.61875 37.790627L88.61875 44.15L86.72813 44.15ZM88.61875 36.15L92.69688 36.15Q93.99375 36.15 94.7125 35.884377Q95.44688 35.61875 95.82188 35.025Q96.2125 34.43125 96.2125 33.74375Q96.2125 32.728127 95.47813 32.071877Q94.74375 31.415627 93.15 31.415627L88.61875 31.415627L88.61875 36.15ZM107.57188 40.80625L109.38438 41.040627Q108.9625 42.61875 107.79063 43.509377Q106.63438 44.384377 104.82188 44.384377Q102.55625 44.384377 101.2125 42.99375Q99.88438 41.5875 99.88438 39.05625Q99.88438 36.43125 101.22813 34.99375Q102.57188 33.540627 104.72813 33.540627Q106.80625 33.540627 108.11875 34.9625Q109.44688 36.36875 109.44688 38.946877Q109.44688 39.103127 109.43125 39.415627L101.69688 39.415627Q101.79063 41.11875 102.66563 42.025Q103.54063 42.93125 104.8375 42.93125Q105.80625 42.93125 106.47813 42.43125Q107.16563 41.915627 107.57188 40.80625ZM101.79063 37.9625L107.5875 37.9625Q107.47813 36.665627 106.93125 36.009377Q106.0875 34.99375 104.74375 34.99375Q103.54063 34.99375 102.7125 35.80625Q101.88438 36.603127 101.79063 37.9625ZM111.88438 44.15L111.88438 35.15L110.3375 35.15L110.3375 33.775L111.88438 33.775L111.88438 32.68125Q111.88438 31.634377 112.07188 31.118752Q112.32188 30.431252 112.9625 30.009377Q113.60313 29.587502 114.75938 29.587502Q115.50938 29.587502 116.4 29.759377L116.13438 31.290627Q115.5875 31.196877 115.10313 31.196877Q114.30625 31.196877 113.9625 31.540627Q113.63438 31.884377 113.63438 32.821877L113.63438 33.775L115.66563 33.775L115.66563 35.15L113.63438 35.15L113.63438 44.15L111.88438 44.15ZM117.47813 31.853127L117.47813 29.837502L119.24375 29.837502L119.24375 31.853127L117.47813 31.853127ZM117.47813 44.15L117.47813 33.775L119.24375 33.775L119.24375 44.15L117.47813 44.15ZM121.4625 44.15L121.4625 33.775L123.05625 33.775L123.05625 35.259377Q124.19688 33.540627 126.35313 33.540627Q127.29063 33.540627 128.07187 33.884377Q128.86874 34.2125 129.25937 34.759377Q129.65 35.30625 129.80624 36.05625Q129.9 36.55625 129.9 37.775L129.9 44.15L128.13437 44.15L128.13437 37.8375Q128.13437 36.759377 127.93125 36.228127Q127.72813 35.696877 127.19688 35.384377Q126.68125 35.071877 125.97813 35.071877Q124.85313 35.071877 124.04063 35.790627Q123.22813 36.49375 123.22813 38.478127L123.22813 44.15L121.4625 44.15ZM138.57187 40.80625L140.38437 41.040627Q139.9625 42.61875 138.79062 43.509377Q137.63437 44.384377 135.82187 44.384377Q133.55624 44.384377 132.2125 42.99375Q130.88437 41.5875 130.88437 39.05625Q130.88437 36.43125 132.22812 34.99375Q133.57187 33.540627 135.72812 33.540627Q137.80624 33.540627 139.11874 34.9625Q140.44687 36.36875 140.44687 38.946877Q140.44687 39.103127 140.43124 39.415627L132.69687 39.415627Q132.79062 41.11875 133.66562 42.025Q134.54062 42.93125 135.8375 42.93125Q136.80624 42.93125 137.47812 42.43125Q138.16562 41.915627 138.57187 40.80625ZM132.79062 37.9625L138.5875 37.9625Q138.47812 36.665627 137.93124 36.009377Q137.0875 34.99375 135.74374 34.99375Q134.54062 34.99375 133.7125 35.80625Q132.88437 36.603127 132.79062 37.9625ZM149.19687 44.15L149.19687 42.8375Q148.2125 44.384377 146.29062 44.384377Q145.05624 44.384377 144.00937 43.696877Q142.97812 43.009377 142.4 41.790627Q141.8375 40.571877 141.8375 38.978127Q141.8375 37.415627 142.35312 36.15Q142.86874 34.884377 143.9 34.2125Q144.94687 33.540627 146.2125 33.540627Q147.15 33.540627 147.88437 33.946877Q148.61874 34.3375 149.0875 34.9625L149.0875 29.837502L150.82187 29.837502L150.82187 44.15L149.19687 44.15ZM143.63437 38.978127Q143.63437 40.9625 144.47812 41.946877Q145.32187 42.93125 146.4625 42.93125Q147.61874 42.93125 148.41562 41.99375Q149.22812 41.05625 149.22812 39.11875Q149.22812 36.99375 148.4 35.99375Q147.5875 34.99375 146.38437 34.99375Q145.2125 34.99375 144.41562 35.9625Q143.63437 36.915627 143.63437 38.978127Z" fill-rule="nonzero"/></svg>