<svg version="1.1" viewBox="0.0 0.0 498.0 371.0" fill="none" stroke="none" stroke-linecap="square" stroke-miterlimit="10" xmlns:xlink="http://www.w3.org/1999/xlink" xmlns="http://www.w3.org/2000/svg"><path fill="#ffffff" d="M0 0L498.0 0L498.0 371.0L0 371.0L0 0Z" fill-rule="nonzero"/><path fill="#004561" d="M222.46075 50.916668C269.9708 50.916668 314.0395 75.70081 338.71713 116.299065C363.3948 156.89732 365.1064 207.42822 343.2325 249.6033L222.46075 186.96558Z" fill-rule="nonzero"/><path fill="#8ab2c6" d="M114.821236 103.760765C140.58473 70.43131 180.33463 50.916668 222.46075 50.916668L222.46075 186.96558Z" fill-rule="nonzero"/><path fill="#4cdc8b" d="M107.47082 114.256424C109.75475 110.64436 112.20761 107.14193 114.821236 103.760765L222.46075 186.96558Z" fill-rule="nonzero"/><path fill="#0f45a8" d="M91.754776 149.21306C95.31769 136.87762 100.60886 125.10865 107.47082 114.256424L222.46075 186.96558Z" fill-rule="nonzero"/><path fill="#1c7685" d="M131.41634 288.06067C92.69811 253.19174 77.296005 199.2719 91.754776 149.21306L222.46075 186.96558Z" fill-rule="nonzero"/><path fill="#ff6f31" d="M343.2325 249.6033C323.8374 286.99902 288.21298 313.30066 246.76448 320.82608C205.31596 328.35147 162.71939 316.25162 131.41634 288.06067L222.46075 186.96558Z" fill-rule="nonzero"/><path fill="#ffffff" d="M292.7772 138.65558L294.37094 138.45245Q294.63657 139.7962 295.29282 140.38995Q295.94907 140.9837 296.88657 140.9837Q298.01157 140.9837 298.7772 140.21808Q299.54282 139.43683 299.54282 138.2962Q299.54282 137.20245 298.82407 136.49933Q298.12094 135.78058 297.0272 135.78058Q296.57407 135.78058 295.9022 135.96808L296.07407 134.57745Q296.23032 134.59308 296.3397 134.59308Q297.3397 134.59308 298.1522 134.06183Q298.9647 133.53058 298.9647 132.43683Q298.9647 131.56183 298.37094 130.99933Q297.7772 130.4212 296.85532 130.4212Q295.93344 130.4212 295.30844 130.99933Q294.69907 131.57745 294.5272 132.74933L292.94907 132.46808Q293.23032 130.87433 294.26157 129.99933Q295.29282 129.12433 296.82407 129.12433Q297.87094 129.12433 298.76157 129.57745Q299.6522 130.03058 300.12094 130.81183Q300.5897 131.59308 300.5897 132.46808Q300.5897 133.31183 300.13657 133.99933Q299.69907 134.6712 298.80844 135.07745Q299.94907 135.34308 300.57407 136.18683Q301.2147 137.01495 301.2147 138.24933Q301.2147 139.93683 299.98032 141.12433Q298.76157 142.2962 296.88657 142.2962Q295.18344 142.2962 294.05844 141.28058Q292.94907 140.26495 292.7772 138.65558ZM307.8397 142.06183L307.8397 138.9837L302.26157 138.9837L302.26157 137.53058L308.13657 129.1712L309.43344 129.1712L309.43344 137.53058L311.16782 137.53058L311.16782 138.9837L309.43344 138.9837L309.43344 142.06183L307.8397 142.06183ZM307.8397 137.53058L307.8397 131.71808L303.80844 137.53058L307.8397 137.53058ZM315.2147 135.07745Q314.23032 134.71808 313.74594 134.0462Q313.2772 133.37433 313.2772 132.45245Q313.2772 131.0462 314.2772 130.09308Q315.29282 129.12433 316.98032 129.12433Q318.66782 129.12433 319.68344 130.1087Q320.7147 131.07745 320.7147 132.4837Q320.7147 133.38995 320.24594 134.06183Q319.7772 134.71808 318.82407 135.07745Q320.01157 135.46808 320.62094 136.32745Q321.24594 137.18683 321.24594 138.37433Q321.24594 140.03058 320.07407 141.15558Q318.9022 142.28058 316.99594 142.28058Q315.0897 142.28058 313.91782 141.15558Q312.76157 140.01495 312.76157 138.32745Q312.76157 137.07745 313.38657 136.2337Q314.0272 135.37433 315.2147 135.07745ZM314.88657 132.38995Q314.88657 133.31183 315.48032 133.88995Q316.07407 134.46808 317.01157 134.46808Q317.91782 134.46808 318.49594 133.88995Q319.0897 133.31183 319.0897 132.4837Q319.0897 131.6087 318.48032 131.01495Q317.88657 130.4212 316.99594 130.4212Q316.0897 130.4212 315.48032 130.99933Q314.88657 131.57745 314.88657 132.38995ZM314.38657 138.34308Q314.38657 139.01495 314.69907 139.65558Q315.0272 140.28058 315.6522 140.63995Q316.29282 140.9837 317.0272 140.9837Q318.1522 140.9837 318.88657 140.24933Q319.63657 139.51495 319.63657 138.38995Q319.63657 137.24933 318.87094 136.51495Q318.10532 135.76495 316.9647 135.76495Q315.85532 135.76495 315.12094 136.49933Q314.38657 137.2337 314.38657 138.34308Z" fill-rule="nonzero"/><path fill="#ffffff" d="M226.98882 293.48544L228.58257 293.28232Q228.84819 294.62607 229.50444 295.21982Q230.16069 295.81357 231.09819 295.81357Q232.22319 295.81357 232.98882 295.04794Q233.75444 294.2667 233.75444 293.12607Q233.75444 292.03232 233.03569 291.3292Q232.33257 290.61044 231.23882 290.61044Q230.78569 290.61044 230.11382 290.79794L230.28569 289.40732Q230.44194 289.42294 230.55132 289.42294Q231.55132 289.42294 232.36382 288.8917Q233.17632 288.36044 233.17632 287.2667Q233.17632 286.3917 232.58257 285.8292Q231.98882 285.25107 231.06694 285.25107Q230.14507 285.25107 229.52007 285.8292Q228.91069 286.40732 228.73882 287.5792L227.16069 287.29794Q227.44194 285.7042 228.47319 284.8292Q229.50444 283.9542 231.03569 283.9542Q232.08257 283.9542 232.97319 284.40732Q233.86382 284.86044 234.33257 285.6417Q234.80132 286.42294 234.80132 287.29794Q234.80132 288.1417 234.34819 288.8292Q233.91069 289.50107 233.02007 289.90732Q234.16069 290.17294 234.78569 291.0167Q235.42632 291.84482 235.42632 293.0792Q235.42632 294.7667 234.19194 295.9542Q232.97319 297.12607 231.09819 297.12607Q229.39507 297.12607 228.27007 296.11044Q227.16069 295.09482 226.98882 293.48544ZM242.94194 296.8917L241.36382 296.8917L241.36382 286.81357Q240.78569 287.36044 239.86382 287.90732Q238.94194 288.43857 238.19194 288.71982L238.19194 287.18857Q239.52007 286.56357 240.52007 285.67294Q241.52007 284.78232 241.92632 283.9542L242.94194 283.9542L242.94194 296.8917ZM246.98882 290.53232Q246.98882 288.25107 247.45757 286.86044Q247.92632 285.46982 248.84819 284.71982Q249.78569 283.9542 251.19194 283.9542Q252.22319 283.9542 253.00444 284.37607Q253.78569 284.78232 254.28569 285.5792Q254.80132 286.36044 255.09819 287.50107Q255.39507 288.62607 255.39507 290.53232Q255.39507 292.79794 254.92632 294.2042Q254.45757 295.59482 253.52007 296.36044Q252.59819 297.11044 251.19194 297.11044Q249.31694 297.11044 248.25444 295.78232Q246.98882 294.17294 246.98882 290.53232ZM248.61382 290.53232Q248.61382 293.7042 249.34819 294.7667Q250.09819 295.81357 251.19194 295.81357Q252.27007 295.81357 253.02007 294.7667Q253.77007 293.7042 253.77007 290.53232Q253.77007 287.36044 253.02007 286.31357Q252.27007 285.2667 251.17632 285.2667Q250.08257 285.2667 249.42632 286.18857Q248.61382 287.36044 248.61382 290.53232Z" fill-rule="nonzero"/><path fill="#ffffff" d="M116.99251 221.2224L115.41438 221.2224L115.41438 211.14427Q114.83626 211.69115 113.91438 212.23802Q112.99251 212.76927 112.24251 213.05052L112.24251 211.51927Q113.57063 210.89427 114.57063 210.00365Q115.57063 209.11302 115.97688 208.2849L116.99251 208.2849L116.99251 221.2224ZM121.27376 218.23802L122.78938 218.0974Q122.99251 219.17552 123.52376 219.6599Q124.07063 220.14427 124.93001 220.14427Q125.66438 220.14427 126.21126 219.81615Q126.75813 219.4724 127.10188 218.92552Q127.46126 218.36302 127.69563 217.4099Q127.93001 216.45677 127.93001 215.4724Q127.93001 215.36302 127.93001 215.1599Q127.44563 215.9099 126.61751 216.37865Q125.80501 216.8474 124.85188 216.8474Q123.25813 216.8474 122.14876 215.69115Q121.03938 214.5349 121.03938 212.62865Q121.03938 210.67552 122.19563 209.48802Q123.35188 208.2849 125.08626 208.2849Q126.35188 208.2849 127.38313 208.9724Q128.43001 209.64427 128.96126 210.89427Q129.50813 212.14427 129.50813 214.51927Q129.50813 216.98802 128.96126 218.45677Q128.43001 219.9099 127.36751 220.67552Q126.32063 221.44115 124.89876 221.44115Q123.38313 221.44115 122.41438 220.61302Q121.46126 219.76927 121.27376 218.23802ZM127.75813 212.55052Q127.75813 211.19115 127.02376 210.39427Q126.30501 209.5974 125.28938 209.5974Q124.22688 209.5974 123.44563 210.45677Q122.66438 211.31615 122.66438 212.69115Q122.66438 213.92552 123.39876 214.69115Q124.14876 215.45677 125.24251 215.45677Q126.33626 215.45677 127.03938 214.69115Q127.75813 213.92552 127.75813 212.55052ZM131.03938 214.86302Q131.03938 212.58177 131.50813 211.19115Q131.97688 209.80052 132.89876 209.05052Q133.83626 208.2849 135.24251 208.2849Q136.27376 208.2849 137.05501 208.70677Q137.83626 209.11302 138.33626 209.9099Q138.85188 210.69115 139.14876 211.83177Q139.44563 212.95677 139.44563 214.86302Q139.44563 217.12865 138.97688 218.5349Q138.50813 219.92552 137.57063 220.69115Q136.64876 221.44115 135.24251 221.44115Q133.36751 221.44115 132.30501 220.11302Q131.03938 218.50365 131.03938 214.86302ZM132.66438 214.86302Q132.66438 218.0349 133.39876 219.0974Q134.14876 220.14427 135.24251 220.14427Q136.32063 220.14427 137.07063 219.0974Q137.82063 218.0349 137.82063 214.86302Q137.82063 211.69115 137.07063 210.64427Q136.32063 209.5974 135.22688 209.5974Q134.13313 209.5974 133.47688 210.51927Q132.66438 211.69115 132.66438 214.86302Z" fill-rule="nonzero"/><path fill="#ffffff" d="M123.34777 150.78831L123.34777 147.71019L117.769646 147.71019L117.769646 146.25706L123.644646 137.89769L124.94152 137.89769L124.94152 146.25706L126.675896 146.25706L126.675896 147.71019L124.94152 147.71019L124.94152 150.78831L123.34777 150.78831ZM123.34777 146.25706L123.34777 140.44456L119.31652 146.25706L123.34777 146.25706ZM130.72278 143.80394Q129.7384 143.44456 129.25403 142.77269Q128.78528 142.10081 128.78528 141.17894Q128.78528 139.77269 129.78528 138.81956Q130.8009 137.85081 132.4884 137.85081Q134.1759 137.85081 135.19153 138.83519Q136.22278 139.80394 136.22278 141.21019Q136.22278 142.11644 135.75403 142.78831Q135.28528 143.44456 134.33215 143.80394Q135.51965 144.19456 136.12903 145.05394Q136.75403 145.91331 136.75403 147.10081Q136.75403 148.75706 135.58215 149.88206Q134.41028 151.00706 132.50403 151.00706Q130.59778 151.00706 129.4259 149.88206Q128.26965 148.74144 128.26965 147.05394Q128.26965 145.80394 128.89465 144.96019Q129.53528 144.10081 130.72278 143.80394ZM130.39465 141.11644Q130.39465 142.03831 130.9884 142.61644Q131.58215 143.19456 132.51965 143.19456Q133.4259 143.19456 134.00403 142.61644Q134.59778 142.03831 134.59778 141.21019Q134.59778 140.33519 133.9884 139.74144Q133.39465 139.14769 132.50403 139.14769Q131.59778 139.14769 130.9884 139.72581Q130.39465 140.30394 130.39465 141.11644ZM129.89465 147.06956Q129.89465 147.74144 130.20715 148.38206Q130.53528 149.00706 131.16028 149.36644Q131.8009 149.71019 132.53528 149.71019Q133.66028 149.71019 134.39465 148.97581Q135.14465 148.24144 135.14465 147.11644Q135.14465 145.97581 134.37903 145.24144Q133.6134 144.49144 132.47278 144.49144Q131.3634 144.49144 130.62903 145.22581Q129.89465 145.96019 129.89465 147.06956Z" fill-rule="nonzero"/><path fill="#ffffff" d="M169.66737 102.82949L168.08925 102.82949L168.08925 92.751366Q167.51112 93.29824 166.58925 93.845116Q165.66737 94.376366 164.91737 94.657616L164.91737 93.126366Q166.2455 92.501366 167.2455 91.61074Q168.2455 90.720116 168.65175 89.89199L169.66737 89.89199L169.66737 102.82949ZM173.71425 99.45449L175.3705 99.313866Q175.558 100.532616 176.22987 101.14199Q176.90175 101.751366 177.85487 101.751366Q178.9955 101.751366 179.77675 100.89199Q180.57362 100.032616 180.57362 98.595116Q180.57362 97.251366 179.808 96.470116Q179.058 95.688866 177.82362 95.688866Q177.058 95.688866 176.433 96.032616Q175.82362 96.376366 175.47987 96.938866L173.9955 96.73574L175.2455 90.126366L181.65175 90.126366L181.65175 91.626366L176.51112 91.626366L175.808 95.095116Q176.97987 94.282616 178.2455 94.282616Q179.933 94.282616 181.08925 95.45449Q182.26112 96.626366 182.26112 98.45449Q182.26112 100.20449 181.22987 101.48574Q179.9955 103.04824 177.85487 103.04824Q176.08925 103.04824 174.97987 102.063866Q173.8705 101.07949 173.71425 99.45449ZM183.71425 99.45449L185.3705 99.313866Q185.558 100.532616 186.22987 101.14199Q186.90175 101.751366 187.85487 101.751366Q188.9955 101.751366 189.77675 100.89199Q190.57362 100.032616 190.57362 98.595116Q190.57362 97.251366 189.808 96.470116Q189.058 95.688866 187.82362 95.688866Q187.058 95.688866 186.433 96.032616Q185.82362 96.376366 185.47987 96.938866L183.9955 96.73574L185.2455 90.126366L191.65175 90.126366L191.65175 91.626366L186.51112 91.626366L185.808 95.095116Q186.97987 94.282616 188.2455 94.282616Q189.933 94.282616 191.08925 95.45449Q192.26112 96.626366 192.26112 98.45449Q192.26112 100.20449 191.22987 101.48574Q189.9955 103.04824 187.85487 103.04824Q186.08925 103.04824 184.97987 102.063866Q183.8705 101.07949 183.71425 99.45449Z" fill-rule="nonzero"/><path fill="#1a1a1a" d="M16.2715 61.635414Q16.2715 58.43229 17.99025 56.61979Q19.709 54.80729 22.443375 54.80729Q24.224625 54.80729 25.6465 55.666664Q27.084 56.510414 27.834 58.041664Q28.584 59.55729 28.584 61.49479Q28.584 63.447914 27.787125 64.99479Q27.005875 66.541664 25.55275 67.33854Q24.099625 68.135414 22.42775 68.135414Q20.61525 68.135414 19.17775 67.260414Q17.74025 66.385414 17.005875 64.86979Q16.2715 63.33854 16.2715 61.635414ZM18.0215 61.666664Q18.0215 63.99479 19.2715 65.33854Q20.537125 66.68229 22.412125 66.68229Q24.349625 66.68229 25.584 65.322914Q26.834 63.96354 26.834 61.479164Q26.834 59.916664 26.30275 58.74479Q25.7715 57.55729 24.74025 56.916664Q23.724625 56.27604 22.443375 56.27604Q20.630875 56.27604 19.318375 57.52604Q18.0215 58.760414 18.0215 61.666664ZM34.037125 66.49479L34.2715 67.90104Q33.599625 68.041664 33.068375 68.041664Q32.209 68.041664 31.724625 67.77604Q31.255875 67.49479 31.068375 67.05729Q30.880875 66.604164 30.880875 65.18229L30.880875 59.80729L29.709 59.80729L29.709 58.58854L30.880875 58.58854L30.880875 56.27604L32.443375 55.322914L32.443375 58.58854L34.037125 58.58854L34.037125 59.80729L32.443375 59.80729L32.443375 65.27604Q32.443375 65.947914 32.5215 66.15104Q32.61525 66.33854 32.80275 66.447914Q32.99025 66.55729 33.349625 66.55729Q33.599625 66.55729 34.037125 66.49479ZM35.584 67.916664L35.584 55.02604L37.162125 55.02604L37.162125 59.65104Q38.2715 58.36979 39.959 58.36979Q40.99025 58.36979 41.755875 58.77604Q42.5215 59.18229 42.849625 59.916664Q43.193375 60.635414 43.193375 61.99479L43.193375 67.916664L41.599625 67.916664L41.599625 61.99479Q41.599625 60.80729 41.084 60.27604Q40.568375 59.729164 39.630875 59.729164Q38.92775 59.729164 38.30275 60.104164Q37.693375 60.46354 37.42775 61.08854Q37.162125 61.71354 37.162125 62.80729L37.162125 67.916664L35.584 67.916664ZM51.974625 64.916664L53.61525 65.11979Q53.224625 66.541664 52.17775 67.33854Q51.130875 68.135414 49.505875 68.135414Q47.459 68.135414 46.255875 66.86979Q45.05275 65.604164 45.05275 63.322914Q45.05275 60.979164 46.255875 59.68229Q47.474625 58.36979 49.412125 58.36979Q51.287125 58.36979 52.474625 59.65104Q53.662125 60.916664 53.662125 63.229164Q53.662125 63.36979 53.6465 63.65104L46.693375 63.65104Q46.7715 65.197914 47.55275 66.010414Q48.349625 66.822914 49.505875 66.822914Q50.380875 66.822914 50.99025 66.36979Q51.61525 65.916664 51.974625 64.916664ZM46.7715 62.354164L51.99025 62.354164Q51.880875 61.18229 51.3965 60.58854Q50.630875 59.666664 49.42775 59.666664Q48.349625 59.666664 47.599625 60.40104Q46.86525 61.135414 46.7715 62.354164ZM55.568375 67.916664L55.568375 58.58854L56.99025 58.58854L56.99025 59.99479Q57.537125 59.010414 57.99025 58.697914Q58.459 58.36979 59.005875 58.36979Q59.818375 58.36979 60.630875 58.885414L60.099625 60.354164Q59.505875 60.010414 58.92775 60.010414Q58.412125 60.010414 57.99025 60.322914Q57.584 60.635414 57.412125 61.18229Q57.1465 62.02604 57.1465 63.02604L57.1465 67.916664L55.568375 67.916664ZM60.943375 65.135414L62.5215 64.885414Q62.6465 65.822914 63.24025 66.322914Q63.849625 66.822914 64.92775 66.822914Q66.0215 66.822914 66.55275 66.385414Q67.084 65.93229 67.084 65.33854Q67.084 64.80729 66.61525 64.49479Q66.287125 64.291664 64.99025 63.96354Q63.255875 63.52604 62.584 63.21354Q61.912125 62.885414 61.55275 62.322914Q61.209 61.74479 61.209 61.05729Q61.209 60.43229 61.49025 59.90104Q61.787125 59.36979 62.2715 59.02604Q62.6465 58.74479 63.287125 58.55729Q63.92775 58.36979 64.6465 58.36979Q65.755875 58.36979 66.584 58.697914Q67.412125 59.010414 67.80275 59.55729Q68.209 60.08854 68.349625 60.99479L66.80275 61.197914Q66.693375 60.479164 66.193375 60.072914Q65.693375 59.666664 64.7715 59.666664Q63.67775 59.666664 63.209 60.02604Q62.74025 60.385414 62.74025 60.86979Q62.74025 61.18229 62.943375 61.43229Q63.130875 61.68229 63.537125 61.854164Q63.787125 61.93229 64.943375 62.260414Q66.61525 62.697914 67.2715 62.99479Q67.943375 63.27604 68.318375 63.822914Q68.709 64.36979 68.709 65.166664Q68.709 65.96354 68.24025 66.666664Q67.787125 67.36979 66.912125 67.760414Q66.037125 68.135414 64.943375 68.135414Q63.11525 68.135414 62.162125 67.385414Q61.209 66.61979 60.943375 65.135414Z" fill-rule="nonzero"/><path fill="#9e9e9e" d="M22.099625 92.916664L20.5215 92.916664L20.5215 82.83854Q19.943375 83.385414 19.0215 83.93229Q18.099625 84.46354 17.349625 84.74479L17.349625 83.21354Q18.67775 82.58854 19.67775 81.697914Q20.67775 80.80729 21.084 79.979164L22.099625 79.979164L22.099625 92.916664ZM31.209 92.916664L31.209 89.83854L25.630875 89.83854L25.630875 88.385414L31.505875 80.02604L32.80275 80.02604L32.80275 88.385414L34.537125 88.385414L34.537125 89.83854L32.80275 89.83854L32.80275 92.916664L31.209 92.916664ZM31.209 88.385414L31.209 82.572914L27.17775 88.385414L31.209 88.385414ZM37.037125 92.916664L37.037125 91.11979L38.834 91.11979L38.834 92.916664L37.037125 92.916664ZM41.1465 89.541664L42.80275 89.40104Q42.99025 90.61979 43.662125 91.229164Q44.334 91.83854 45.287125 91.83854Q46.42775 91.83854 47.209 90.979164Q48.005875 90.11979 48.005875 88.68229Q48.005875 87.33854 47.24025 86.55729Q46.49025 85.77604 45.255875 85.77604Q44.49025 85.77604 43.86525 86.11979Q43.255875 86.46354 42.912125 87.02604L41.42775 86.822914L42.67775 80.21354L49.084 80.21354L49.084 81.71354L43.943375 81.71354L43.24025 85.18229Q44.412125 84.36979 45.67775 84.36979Q47.36525 84.36979 48.5215 85.541664Q49.693375 86.71354 49.693375 88.541664Q49.693375 90.291664 48.662125 91.572914Q47.42775 93.135414 45.287125 93.135414Q43.5215 93.135414 42.412125 92.15104Q41.30275 91.166664 41.1465 89.541664ZM51.443375 83.11979Q51.443375 81.74479 52.130875 80.77604Q52.834 79.80729 54.1465 79.80729Q55.36525 79.80729 56.162125 80.68229Q56.959 81.541664 56.959 83.229164Q56.959 84.854164 56.1465 85.74479Q55.349625 86.61979 54.162125 86.61979Q53.005875 86.61979 52.224625 85.760414Q51.443375 84.885414 51.443375 83.11979ZM54.193375 80.90104Q53.599625 80.90104 53.209 81.416664Q52.818375 81.916664 52.818375 83.27604Q52.818375 84.52604 53.209 85.02604Q53.61525 85.52604 54.193375 85.52604Q54.787125 85.52604 55.17775 85.02604Q55.568375 84.510414 55.568375 83.166664Q55.568375 81.916664 55.17775 81.416664Q54.787125 80.90104 54.193375 80.90104ZM54.209 93.385414L61.255875 79.80729L62.537125 79.80729L55.505875 93.385414L54.209 93.385414ZM59.7715 89.885414Q59.7715 88.510414 60.459 87.541664Q61.162125 86.572914 62.49025 86.572914Q63.709 86.572914 64.49025 87.447914Q65.287125 88.30729 65.287125 89.99479Q65.287125 91.61979 64.49025 92.510414Q63.693375 93.385414 62.505875 93.385414Q61.334 93.385414 60.55275 92.510414Q59.7715 91.635414 59.7715 89.885414ZM62.537125 87.666664Q61.943375 87.666664 61.55275 88.18229Q61.162125 88.68229 61.162125 90.05729Q61.162125 91.27604 61.55275 91.791664Q61.943375 92.30729 62.5215 92.30729Q63.130875 92.30729 63.5215 91.791664Q63.912125 91.27604 63.912125 89.93229Q63.912125 88.68229 63.5215 88.18229Q63.130875 87.666664 62.537125 87.666664Z" fill-rule="nonzero"/><path stroke="#757575" stroke-width="1.0" stroke-linecap="butt" d="M15.3965 74.416664L80.41184 74.416664L165.50279 70.94644" fill-rule="nonzero"/><path fill="#9e9e9e" d="M167.50279 70.94644C167.50279 69.84187 166.60736 68.94644 165.50279 68.94644C164.39822 68.94644 163.50279 69.84187 163.50279 70.94644C163.50279 72.05101 164.39822 72.94644 165.50279 72.94644C166.60736 72.94644 167.50279 72.05101 167.50279 70.94644" fill-rule="nonzero"/><path fill="#1a1a1a" d="M16.709 114.916664L16.709 102.02604L18.42775 102.02604L18.42775 113.40104L24.7715 113.40104L24.7715 114.916664L16.709 114.916664ZM25.99025 110.24479Q25.99025 107.65104 27.443375 106.40104Q28.6465 105.36979 30.36525 105.36979Q32.30275 105.36979 33.5215 106.635414Q34.74025 107.90104 34.74025 110.11979Q34.74025 111.916664 34.193375 112.947914Q33.662125 113.979164 32.630875 114.55729Q31.599625 115.135414 30.36525 115.135414Q28.412125 115.135414 27.193375 113.885414Q25.99025 112.61979 25.99025 110.24479ZM27.61525 110.24479Q27.61525 112.041664 28.3965 112.93229Q29.17775 113.822914 30.36525 113.822914Q31.55275 113.822914 32.334 112.93229Q33.11525 112.02604 33.11525 110.197914Q33.11525 108.46354 32.318375 107.572914Q31.537125 106.68229 30.36525 106.68229Q29.17775 106.68229 28.3965 107.572914Q27.61525 108.46354 27.61525 110.24479ZM36.584 114.916664L36.584 105.58854L38.005875 105.58854L38.005875 106.916664Q39.037125 105.36979 40.974625 105.36979Q41.818375 105.36979 42.5215 105.68229Q43.24025 105.979164 43.584 106.479164Q43.943375 106.96354 44.084 107.635414Q44.162125 108.072914 44.162125 109.18229L44.162125 114.916664L42.584 114.916664L42.584 109.24479Q42.584 108.27604 42.3965 107.791664Q42.224625 107.30729 41.74025 107.02604Q41.2715 106.74479 40.6465 106.74479Q39.630875 106.74479 38.8965 107.385414Q38.162125 108.02604 38.162125 109.822914L38.162125 114.916664L36.584 114.916664ZM46.287125 115.697914L47.834 115.916664Q47.92775 116.635414 48.36525 116.96354Q48.959 117.40104 49.974625 117.40104Q51.068375 117.40104 51.662125 116.947914Q52.2715 116.510414 52.474625 115.729164Q52.599625 115.24479 52.599625 113.697914Q51.55275 114.916664 50.005875 114.916664Q48.084 114.916664 47.0215 113.52604Q45.974625 112.135414 45.974625 110.197914Q45.974625 108.854164 46.459 107.729164Q46.943375 106.604164 47.86525 105.99479Q48.787125 105.36979 50.0215 105.36979Q51.67775 105.36979 52.74025 106.71354L52.74025 105.58854L54.209 105.58854L54.209 113.65104Q54.209 115.83854 53.755875 116.74479Q53.318375 117.65104 52.349625 118.166664Q51.3965 118.697914 49.99025 118.697914Q48.318375 118.697914 47.287125 117.947914Q46.255875 117.197914 46.287125 115.697914ZM47.599625 110.08854Q47.599625 111.916664 48.334 112.760414Q49.068375 113.604164 50.162125 113.604164Q51.255875 113.604164 51.99025 112.77604Q52.724625 111.93229 52.724625 110.135414Q52.724625 108.416664 51.959 107.55729Q51.209 106.68229 50.130875 106.68229Q49.084 106.68229 48.334 107.541664Q47.599625 108.40104 47.599625 110.08854Z" fill-rule="nonzero"/><path fill="#9e9e9e" d="M22.099625 139.91667L20.5215 139.91667L20.5215 129.83855Q19.943375 130.38542 19.0215 130.9323Q18.099625 131.46355 17.349625 131.7448L17.349625 130.21355Q18.67775 129.58855 19.67775 128.69792Q20.67775 127.8073 21.084 126.97917L22.099625 126.97917L22.099625 139.91667ZM27.037125 139.91667L27.037125 138.1198L28.834 138.1198L28.834 139.91667L27.037125 139.91667ZM31.1465 136.54167L32.80275 136.40105Q32.99025 137.6198 33.662125 138.22917Q34.334 138.83855 35.287125 138.83855Q36.42775 138.83855 37.209 137.97917Q38.005875 137.1198 38.005875 135.6823Q38.005875 134.33855 37.24025 133.5573Q36.49025 132.77605 35.255875 132.77605Q34.49025 132.77605 33.86525 133.1198Q33.255875 133.46355 32.912125 134.02605L31.42775 133.82292L32.67775 127.21355L39.084 127.21355L39.084 128.71355L33.943375 128.71355L33.24025 132.1823Q34.412125 131.3698 35.67775 131.3698Q37.36525 131.3698 38.5215 132.54167Q39.693375 133.71355 39.693375 135.54167Q39.693375 137.29167 38.662125 138.57292Q37.42775 140.13542 35.287125 140.13542Q33.5215 140.13542 32.412125 139.15105Q31.30275 138.16667 31.1465 136.54167ZM41.443375 130.1198Q41.443375 128.7448 42.130875 127.77605Q42.834 126.8073 44.1465 126.8073Q45.36525 126.8073 46.162125 127.6823Q46.959 128.54167 46.959 130.22917Q46.959 131.85417 46.1465 132.7448Q45.349625 133.6198 44.162125 133.6198Q43.005875 133.6198 42.224625 132.76042Q41.443375 131.88542 41.443375 130.1198ZM44.193375 127.90105Q43.599625 127.90105 43.209 128.41667Q42.818375 128.91667 42.818375 130.27605Q42.818375 131.52605 43.209 132.02605Q43.61525 132.52605 44.193375 132.52605Q44.787125 132.52605 45.17775 132.02605Q45.568375 131.51042 45.568375 130.16667Q45.568375 128.91667 45.17775 128.41667Q44.787125 127.90105 44.193375 127.90105ZM44.209 140.38542L51.255875 126.8073L52.537125 126.8073L45.505875 140.38542L44.209 140.38542ZM49.7715 136.88542Q49.7715 135.51042 50.459 134.54167Q51.162125 133.57292 52.49025 133.57292Q53.709 133.57292 54.49025 134.44792Q55.287125 135.3073 55.287125 136.9948Q55.287125 138.6198 54.49025 139.51042Q53.693375 140.38542 52.505875 140.38542Q51.334 140.38542 50.55275 139.51042Q49.7715 138.63542 49.7715 136.88542ZM52.537125 134.66667Q51.943375 134.66667 51.55275 135.1823Q51.162125 135.6823 51.162125 137.0573Q51.162125 138.27605 51.55275 138.79167Q51.943375 139.3073 52.5215 139.3073Q53.130875 139.3073 53.5215 138.79167Q53.912125 138.27605 53.912125 136.9323Q53.912125 135.6823 53.5215 135.1823Q53.130875 134.66667 52.537125 134.66667Z" fill-rule="nonzero"/><path stroke="#757575" stroke-width="1.0" stroke-linecap="butt" d="M15.3965 121.416664L80.41184 121.416664L116.594315 112.82419" fill-rule="nonzero"/><path fill="#9e9e9e" d="M118.594315 112.82419C118.594315 111.71962 117.69888 110.82419 116.594315 110.82419C115.489746 110.82419 114.594315 111.71962 114.594315 112.82419C114.594315 113.92876 115.489746 114.82419 116.594315 114.82419C117.69888 114.82419 118.594315 113.92876 118.594315 112.82419" fill-rule="nonzero"/><path fill="#1a1a1a" d="M16.787125 161.91667L16.787125 149.02605L21.224625 149.02605Q22.724625 149.02605 23.5215 149.21355Q24.630875 149.46355 25.412125 150.13542Q26.42775 150.9948 26.92775 152.33855Q27.443375 153.6823 27.443375 155.40105Q27.443375 156.8698 27.099625 158.01042Q26.755875 159.13542 26.209 159.88542Q25.67775 160.6198 25.037125 161.0573Q24.412125 161.47917 23.505875 161.69792Q22.599625 161.91667 21.42775 161.91667L16.787125 161.91667ZM18.49025 160.40105L21.24025 160.40105Q22.5215 160.40105 23.24025 160.16667Q23.959 159.91667 24.3965 159.4948Q25.005875 158.88542 25.334 157.8698Q25.67775 156.83855 25.67775 155.3698Q25.67775 153.35417 25.005875 152.27605Q24.349625 151.1823 23.3965 150.82292Q22.724625 150.5573 21.193375 150.5573L18.49025 150.5573L18.49025 160.40105ZM28.99025 157.2448Q28.99025 154.65105 30.443375 153.40105Q31.6465 152.3698 33.36525 152.3698Q35.30275 152.3698 36.5215 153.63542Q37.74025 154.90105 37.74025 157.1198Q37.74025 158.91667 37.193375 159.94792Q36.662125 160.97917 35.630875 161.5573Q34.599625 162.13542 33.36525 162.13542Q31.412125 162.13542 30.193375 160.88542Q28.99025 159.6198 28.99025 157.2448ZM30.61525 157.2448Q30.61525 159.04167 31.3965 159.9323Q32.17775 160.82292 33.36525 160.82292Q34.55275 160.82292 35.334 159.9323Q36.11525 159.02605 36.11525 157.19792Q36.11525 155.46355 35.318375 154.57292Q34.537125 153.6823 33.36525 153.6823Q32.17775 153.6823 31.3965 154.57292Q30.61525 155.46355 30.61525 157.2448ZM45.693375 161.91667L45.693375 160.54167Q44.61525 162.13542 42.74025 162.13542Q41.912125 162.13542 41.193375 161.82292Q40.474625 161.4948 40.130875 161.02605Q39.787125 160.54167 39.6465 159.83855Q39.55275 159.3698 39.55275 158.3698L39.55275 152.58855L41.130875 152.58855L41.130875 157.76042Q41.130875 158.9948 41.224625 159.4323Q41.380875 160.0573 41.86525 160.41667Q42.349625 160.76042 43.05275 160.76042Q43.7715 160.76042 44.3965 160.40105Q45.0215 160.04167 45.2715 159.41667Q45.537125 158.77605 45.537125 157.58855L45.537125 152.58855L47.11525 152.58855L47.11525 161.91667L45.693375 161.91667ZM51.037125 161.91667L49.568375 161.91667L49.568375 149.02605L51.162125 149.02605L51.162125 153.63542Q52.162125 152.3698 53.709 152.3698Q54.568375 152.3698 55.334 152.72917Q56.11525 153.07292 56.599625 153.69792Q57.099625 154.32292 57.380875 155.21355Q57.662125 156.10417 57.662125 157.10417Q57.662125 159.51042 56.474625 160.82292Q55.30275 162.13542 53.630875 162.13542Q51.99025 162.13542 51.037125 160.7448L51.037125 161.91667ZM51.0215 157.1823Q51.0215 158.85417 51.474625 159.60417Q52.224625 160.82292 53.505875 160.82292Q54.537125 160.82292 55.287125 159.9323Q56.05275 159.02605 56.05275 157.2448Q56.05275 155.41667 55.318375 154.54167Q54.599625 153.66667 53.568375 153.66667Q52.537125 153.66667 51.7715 154.57292Q51.0215 155.47917 51.0215 157.1823ZM59.55275 161.91667L59.55275 149.02605L61.130875 149.02605L61.130875 161.91667L59.55275 161.91667ZM69.974625 158.91667L71.61525 159.1198Q71.224625 160.54167 70.17775 161.33855Q69.130875 162.13542 67.505875 162.13542Q65.459 162.13542 64.255875 160.8698Q63.05275 159.60417 63.05275 157.32292Q63.05275 154.97917 64.255875 153.6823Q65.474625 152.3698 67.412125 152.3698Q69.287125 152.3698 70.474625 153.65105Q71.662125 154.91667 71.662125 157.22917Q71.662125 157.3698 71.6465 157.65105L64.693375 157.65105Q64.7715 159.19792 65.55275 160.01042Q66.349625 160.82292 67.505875 160.82292Q68.380875 160.82292 68.99025 160.3698Q69.61525 159.91667 69.974625 158.91667ZM64.7715 156.35417L69.99025 156.35417Q69.880875 155.1823 69.3965 154.58855Q68.630875 153.66667 67.42775 153.66667Q66.349625 153.66667 65.599625 154.40105Q64.86525 155.13542 64.7715 156.35417Z" fill-rule="nonzero"/><path fill="#9e9e9e" d="M21.209 186.91667L21.209 183.83855L15.630875 183.83855L15.630875 182.38542L21.505875 174.02605L22.80275 174.02605L22.80275 182.38542L24.537125 182.38542L24.537125 183.83855L22.80275 183.83855L22.80275 186.91667L21.209 186.91667ZM21.209 182.38542L21.209 176.57292L17.17775 182.38542L21.209 182.38542ZM27.037125 186.91667L27.037125 185.1198L28.834 185.1198L28.834 186.91667L27.037125 186.91667ZM31.1465 183.54167L32.80275 183.40105Q32.99025 184.6198 33.662125 185.22917Q34.334 185.83855 35.287125 185.83855Q36.42775 185.83855 37.209 184.97917Q38.005875 184.1198 38.005875 182.6823Q38.005875 181.33855 37.24025 180.5573Q36.49025 179.77605 35.255875 179.77605Q34.49025 179.77605 33.86525 180.1198Q33.255875 180.46355 32.912125 181.02605L31.42775 180.82292L32.67775 174.21355L39.084 174.21355L39.084 175.71355L33.943375 175.71355L33.24025 179.1823Q34.412125 178.3698 35.67775 178.3698Q37.36525 178.3698 38.5215 179.54167Q39.693375 180.71355 39.693375 182.54167Q39.693375 184.29167 38.662125 185.57292Q37.42775 187.13542 35.287125 187.13542Q33.5215 187.13542 32.412125 186.15105Q31.30275 185.16667 31.1465 183.54167ZM41.443375 177.1198Q41.443375 175.7448 42.130875 174.77605Q42.834 173.8073 44.1465 173.8073Q45.36525 173.8073 46.162125 174.6823Q46.959 175.54167 46.959 177.22917Q46.959 178.85417 46.1465 179.7448Q45.349625 180.6198 44.162125 180.6198Q43.005875 180.6198 42.224625 179.76042Q41.443375 178.88542 41.443375 177.1198ZM44.193375 174.90105Q43.599625 174.90105 43.209 175.41667Q42.818375 175.91667 42.818375 177.27605Q42.818375 178.52605 43.209 179.02605Q43.61525 179.52605 44.193375 179.52605Q44.787125 179.52605 45.17775 179.02605Q45.568375 178.51042 45.568375 177.16667Q45.568375 175.91667 45.17775 175.41667Q44.787125 174.90105 44.193375 174.90105ZM44.209 187.38542L51.255875 173.8073L52.537125 173.8073L45.505875 187.38542L44.209 187.38542ZM49.7715 183.88542Q49.7715 182.51042 50.459 181.54167Q51.162125 180.57292 52.49025 180.57292Q53.709 180.57292 54.49025 181.44792Q55.287125 182.3073 55.287125 183.9948Q55.287125 185.6198 54.49025 186.51042Q53.693375 187.38542 52.505875 187.38542Q51.334 187.38542 50.55275 186.51042Q49.7715 185.63542 49.7715 183.88542ZM52.537125 181.66667Q51.943375 181.66667 51.55275 182.1823Q51.162125 182.6823 51.162125 184.0573Q51.162125 185.27605 51.55275 185.79167Q51.943375 186.3073 52.5215 186.3073Q53.130875 186.3073 53.5215 185.79167Q53.912125 185.27605 53.912125 183.9323Q53.912125 182.6823 53.5215 182.1823Q53.130875 181.66667 52.537125 181.66667Z" fill-rule="nonzero"/><path stroke="#757575" stroke-width="1.0" stroke-linecap="butt" d="M15.3965 168.41667L80.41184 168.41667L104.57991 133.96788" fill-rule="nonzero"/><path fill="#9e9e9e" d="M106.57991 133.96788C106.57991 132.86331 105.68448 131.96788 104.57991 131.96788C103.47534 131.96788 102.57991 132.86331 102.57991 133.96788C102.57991 135.07246 103.47534 135.96788 104.57991 135.96788C105.68448 135.96788 106.57991 135.07246 106.57991 133.96788" fill-rule="nonzero"/><path fill="#1a1a1a" d="M20.068375 215.9647L20.068375 204.60533L15.818375 204.60533L15.818375 203.07408L26.037125 203.07408L26.037125 204.60533L21.7715 204.60533L21.7715 215.9647L20.068375 215.9647ZM32.474625 215.9647L27.474625 203.07408L29.318375 203.07408L32.67775 212.43346Q33.068375 213.55846 33.349625 214.54283Q33.6465 213.49596 34.037125 212.43346L37.5215 203.07408L39.255875 203.07408L34.224625 215.9647L32.474625 215.9647ZM38.959 205.44908L39.36525 204.19908Q40.755875 204.68346 41.3965 205.04283Q41.224625 203.4647 41.224625 202.85533L42.49025 202.85533Q42.459 203.73033 42.287125 205.04283Q43.193375 204.5897 44.36525 204.19908L44.7715 205.44908Q43.6465 205.80846 42.584 205.93346Q43.11525 206.4022 44.099625 207.5897L43.037125 208.3397Q42.5215 207.6522 41.834 206.44908Q41.17775 207.69908 40.693375 208.3397L39.6465 207.5897Q40.67775 206.3397 41.11525 205.93346Q39.974625 205.7147 38.959 205.44908Z" fill-rule="nonzero"/><path fill="#9e9e9e" d="M22.099625 240.9647L20.5215 240.9647L20.5215 230.88658Q19.943375 231.43346 19.0215 231.98033Q18.099625 232.51158 17.349625 232.79283L17.349625 231.26158Q18.67775 230.63658 19.67775 229.74596Q20.67775 228.85533 21.084 228.0272L22.099625 228.0272L22.099625 240.9647ZM26.255875 229.76158L26.255875 228.24596L34.584 228.24596L34.584 229.48033Q33.36525 230.79283 32.1465 232.9647Q30.943375 235.12096 30.287125 237.41783Q29.80275 239.04283 29.67775 240.9647L28.05275 240.9647Q28.084 239.44908 28.6465 237.29283Q29.224625 235.13658 30.287125 233.13658Q31.349625 231.13658 32.55275 229.76158L26.255875 229.76158ZM37.037125 240.9647L37.037125 239.16783L38.834 239.16783L38.834 240.9647L37.037125 240.9647ZM43.584 233.98033Q42.599625 233.62096 42.11525 232.94908Q41.6465 232.2772 41.6465 231.35533Q41.6465 229.94908 42.6465 228.99596Q43.662125 228.0272 45.349625 228.0272Q47.037125 228.0272 48.05275 229.01158Q49.084 229.98033 49.084 231.38658Q49.084 232.29283 48.61525 232.9647Q48.1465 233.62096 47.193375 233.98033Q48.380875 234.37096 48.99025 235.23033Q49.61525 236.0897 49.61525 237.2772Q49.61525 238.93346 48.443375 240.05846Q47.2715 241.18346 45.36525 241.18346Q43.459 241.18346 42.287125 240.05846Q41.130875 238.91783 41.130875 237.23033Q41.130875 235.98033 41.755875 235.13658Q42.3965 234.2772 43.584 233.98033ZM43.255875 231.29283Q43.255875 232.2147 43.849625 232.79283Q44.443375 233.37096 45.380875 233.37096Q46.287125 233.37096 46.86525 232.79283Q47.459 232.2147 47.459 231.38658Q47.459 230.51158 46.849625 229.91783Q46.255875 229.32408 45.36525 229.32408Q44.459 229.32408 43.849625 229.9022Q43.255875 230.48033 43.255875 231.29283ZM42.755875 237.24596Q42.755875 237.91783 43.068375 238.55846Q43.3965 239.18346 44.0215 239.54283Q44.662125 239.88658 45.3965 239.88658Q46.5215 239.88658 47.255875 239.1522Q48.005875 238.41783 48.005875 237.29283Q48.005875 236.1522 47.24025 235.41783Q46.474625 234.66783 45.334 234.66783Q44.224625 234.66783 43.49025 235.4022Q42.755875 236.13658 42.755875 237.24596ZM51.443375 231.16783Q51.443375 229.79283 52.130875 228.82408Q52.834 227.85533 54.1465 227.85533Q55.36525 227.85533 56.162125 228.73033Q56.959 229.5897 56.959 231.2772Q56.959 232.9022 56.1465 233.79283Q55.349625 234.66783 54.162125 234.66783Q53.005875 234.66783 52.224625 233.80846Q51.443375 232.93346 51.443375 231.16783ZM54.193375 228.94908Q53.599625 228.94908 53.209 229.4647Q52.818375 229.9647 52.818375 231.32408Q52.818375 232.57408 53.209 233.07408Q53.61525 233.57408 54.193375 233.57408Q54.787125 233.57408 55.17775 233.07408Q55.568375 232.55846 55.568375 231.2147Q55.568375 229.9647 55.17775 229.4647Q54.787125 228.94908 54.193375 228.94908ZM54.209 241.43346L61.255875 227.85533L62.537125 227.85533L55.505875 241.43346L54.209 241.43346ZM59.7715 237.93346Q59.7715 236.55846 60.459 235.5897Q61.162125 234.62096 62.49025 234.62096Q63.709 234.62096 64.49025 235.49596Q65.287125 236.35533 65.287125 238.04283Q65.287125 239.66783 64.49025 240.55846Q63.693375 241.43346 62.505875 241.43346Q61.334 241.43346 60.55275 240.55846Q59.7715 239.68346 59.7715 237.93346ZM62.537125 235.7147Q61.943375 235.7147 61.55275 236.23033Q61.162125 236.73033 61.162125 238.10533Q61.162125 239.32408 61.55275 239.8397Q61.943375 240.35533 62.5215 240.35533Q63.130875 240.35533 63.5215 239.8397Q63.912125 239.32408 63.912125 237.98033Q63.912125 236.73033 63.5215 236.23033Q63.130875 235.7147 62.537125 235.7147Z" fill-rule="nonzero"/><path stroke="#757575" stroke-width="1.0" stroke-linecap="butt" d="M15.3965 222.4647L80.41184 222.4647L98.18501 222.4647" fill-rule="nonzero"/><path fill="#9e9e9e" d="M100.18501 222.4647C100.18501 221.36014 99.28958 220.4647 98.18501 220.4647C97.080444 220.4647 96.18501 221.36014 96.18501 222.4647C96.18501 223.56927 97.080444 224.4647 98.18501 224.4647C99.28958 224.4647 100.18501 223.56927 100.18501 222.4647" fill-rule="nonzero"/><path fill="#1a1a1a" d="M383.3375 109.191765L384.94687 109.05114Q385.05624 110.01989 385.4625 110.64489Q385.88437 111.254265 386.75937 111.64489Q387.65 112.01989 388.74374 112.01989Q389.72812 112.01989 390.4625 111.73864Q391.2125 111.441765 391.57187 110.941765Q391.94687 110.42614 391.94687 109.83239Q391.94687 109.223015 391.5875 108.76989Q391.24374 108.316765 390.43124 108.01989Q389.91562 107.816765 388.13437 107.39489Q386.36874 106.95739 385.65 106.58239Q384.72812 106.098015 384.275 105.379265Q383.82187 104.660515 383.82187 103.785515Q383.82187 102.80114 384.36874 101.95739Q384.93124 101.11364 385.99374 100.67614Q387.05624 100.223015 388.36874 100.223015Q389.79062 100.223015 390.88437 100.691765Q391.97812 101.14489 392.57187 102.05114Q393.16562 102.941765 393.19687 104.08239L391.57187 104.20739Q391.43124 102.973015 390.66562 102.348015Q389.91562 101.723015 388.43124 101.723015Q386.88437 101.723015 386.16562 102.30114Q385.4625 102.86364 385.4625 103.660515Q385.4625 104.36364 385.97812 104.80114Q386.4625 105.254265 388.54062 105.723015Q390.61874 106.191765 391.4 106.55114Q392.525 107.066765 393.05624 107.86364Q393.5875 108.660515 393.5875 109.691765Q393.5875 110.723015 392.99374 111.629265Q392.41562 112.535515 391.30624 113.05114Q390.2125 113.55114 388.82187 113.55114Q387.07187 113.55114 385.88437 113.05114Q384.7125 112.535515 384.04062 111.51989Q383.36874 110.48864 383.3375 109.191765ZM399.16562 111.910515L399.4 113.316765Q398.72812 113.45739 398.19687 113.45739Q397.3375 113.45739 396.85312 113.191765Q396.38437 112.910515 396.19687 112.473015Q396.00937 112.01989 396.00937 110.598015L396.00937 105.223015L394.8375 105.223015L394.8375 104.004265L396.00937 104.004265L396.00937 101.691765L397.57187 100.73864L397.57187 104.004265L399.16562 104.004265L399.16562 105.223015L397.57187 105.223015L397.57187 110.691765Q397.57187 111.36364 397.65 111.566765Q397.74374 111.754265 397.93124 111.86364Q398.11874 111.973015 398.47812 111.973015Q398.72812 111.973015 399.16562 111.910515ZM400.69687 113.33239L400.69687 104.004265L402.11874 104.004265L402.11874 105.410515Q402.66562 104.42614 403.11874 104.11364Q403.5875 103.785515 404.13437 103.785515Q404.94687 103.785515 405.75937 104.30114L405.22812 105.76989Q404.63437 105.42614 404.05624 105.42614Q403.54062 105.42614 403.11874 105.73864Q402.7125 106.05114 402.54062 106.598015Q402.275 107.441765 402.275 108.441765L402.275 113.33239L400.69687 113.33239ZM406.72812 102.26989L406.72812 100.441765L408.30624 100.441765L408.30624 102.26989L406.72812 102.26989ZM406.72812 113.33239L406.72812 104.004265L408.30624 104.004265L408.30624 113.33239L406.72812 113.33239ZM410.7125 113.33239L410.7125 104.004265L412.13437 104.004265L412.13437 105.33239Q413.16562 103.785515 415.10312 103.785515Q415.94687 103.785515 416.65 104.098015Q417.36874 104.39489 417.7125 104.89489Q418.07187 105.379265 418.2125 106.05114Q418.29062 106.48864 418.29062 107.598015L418.29062 113.33239L416.7125 113.33239L416.7125 107.660515Q416.7125 106.691765 416.525 106.20739Q416.35312 105.723015 415.86874 105.441765Q415.4 105.160515 414.775 105.160515Q413.75937 105.160515 413.025 105.80114Q412.29062 106.441765 412.29062 108.23864L412.29062 113.33239L410.7125 113.33239ZM420.41562 114.11364L421.9625 114.33239Q422.05624 115.05114 422.49374 115.379265Q423.0875 115.816765 424.10312 115.816765Q425.19687 115.816765 425.79062 115.36364Q426.4 114.92614 426.60312 114.14489Q426.72812 113.660515 426.72812 112.11364Q425.68124 113.33239 424.13437 113.33239Q422.2125 113.33239 421.15 111.941765Q420.10312 110.55114 420.10312 108.61364Q420.10312 107.26989 420.5875 106.14489Q421.07187 105.01989 421.99374 104.410515Q422.91562 103.785515 424.15 103.785515Q425.80624 103.785515 426.86874 105.129265L426.86874 104.004265L428.3375 104.004265L428.3375 112.066765Q428.3375 114.254265 427.88437 115.160515Q427.44687 116.066765 426.47812 116.58239Q425.525 117.11364 424.11874 117.11364Q422.44687 117.11364 421.41562 116.36364Q420.38437 115.61364 420.41562 114.11364ZM421.72812 108.504265Q421.72812 110.33239 422.4625 111.17614Q423.19687 112.01989 424.29062 112.01989Q425.38437 112.01989 426.11874 111.191765Q426.85312 110.348015 426.85312 108.55114Q426.85312 106.83239 426.0875 105.973015Q425.3375 105.098015 424.25937 105.098015Q423.2125 105.098015 422.4625 105.95739Q421.72812 106.816765 421.72812 108.504265Z" fill-rule="nonzero"/><path fill="#9e9e9e" d="M379.275 134.92615L380.86874 134.72302Q381.13437 136.06677 381.79062 136.66052Q382.44687 137.25427 383.38437 137.25427Q384.50937 137.25427 385.275 136.48865Q386.04062 135.7074 386.04062 134.56677Q386.04062 133.47302 385.32187 132.7699Q384.61874 132.05115 383.525 132.05115Q383.07187 132.05115 382.4 132.23865L382.57187 130.84802Q382.72812 130.86365 382.8375 130.86365Q383.8375 130.86365 384.65 130.3324Q385.4625 129.80115 385.4625 128.7074Q385.4625 127.8324 384.86874 127.2699Q384.275 126.69177 383.35312 126.69177Q382.43124 126.69177 381.80624 127.2699Q381.19687 127.84802 381.025 129.0199L379.44687 128.73865Q379.72812 127.1449 380.75937 126.2699Q381.79062 125.3949 383.32187 125.3949Q384.36874 125.3949 385.25937 125.84802Q386.15 126.30115 386.61874 127.0824Q387.0875 127.86365 387.0875 128.73865Q387.0875 129.5824 386.63437 130.2699Q386.19687 130.94177 385.30624 131.34802Q386.44687 131.61365 387.07187 132.4574Q387.7125 133.28552 387.7125 134.5199Q387.7125 136.2074 386.47812 137.3949Q385.25937 138.56677 383.38437 138.56677Q381.68124 138.56677 380.55624 137.55115Q379.44687 136.53552 379.275 134.92615ZM397.5875 136.81677L397.5875 138.3324L389.07187 138.3324Q389.05624 137.75427 389.25937 137.23865Q389.5875 136.36365 390.29062 135.5199Q391.00937 134.67615 392.36874 133.56677Q394.4625 131.84802 395.19687 130.84802Q395.94687 129.8324 395.94687 128.94177Q395.94687 127.98865 395.275 127.34802Q394.60312 126.7074 393.525 126.7074Q392.36874 126.7074 391.68124 127.3949Q391.00937 128.0824 390.99374 129.28552L389.36874 129.11365Q389.54062 127.30115 390.61874 126.34802Q391.7125 125.3949 393.55624 125.3949Q395.4 125.3949 396.47812 126.42615Q397.57187 127.4574 397.57187 128.97302Q397.57187 129.73865 397.24374 130.48865Q396.93124 131.23865 396.19687 132.06677Q395.4625 132.8949 393.75937 134.3324Q392.3375 135.53552 391.93124 135.9574Q391.525 136.37927 391.275 136.81677L397.5875 136.81677ZM400.16562 138.3324L400.16562 136.53552L401.9625 136.53552L401.9625 138.3324L400.16562 138.3324ZM412.47812 128.59802L410.91562 128.72302Q410.69687 127.80115 410.30624 127.37927Q409.66562 126.69177 408.72812 126.69177Q407.97812 126.69177 407.4 127.11365Q406.65 127.66052 406.2125 128.7074Q405.79062 129.75427 405.775 131.69177Q406.35312 130.81677 407.16562 130.3949Q407.99374 129.97302 408.9 129.97302Q410.49374 129.97302 411.60312 131.1449Q412.7125 132.30115 412.7125 134.1449Q412.7125 135.36365 412.18124 136.41052Q411.66562 137.44177 410.74374 138.00427Q409.8375 138.55115 408.68124 138.55115Q406.69687 138.55115 405.44687 137.09802Q404.19687 135.6449 404.19687 132.30115Q404.19687 128.56677 405.5875 126.86365Q406.79062 125.3949 408.82187 125.3949Q410.35312 125.3949 411.32187 126.25427Q412.29062 127.09802 412.47812 128.59802ZM406.025 134.16052Q406.025 134.97302 406.36874 135.72302Q406.7125 136.47302 407.3375 136.86365Q407.9625 137.25427 408.65 137.25427Q409.65 137.25427 410.36874 136.44177Q411.0875 135.62927 411.0875 134.23865Q411.0875 132.91052 410.36874 132.1449Q409.66562 131.36365 408.5875 131.36365Q407.50937 131.36365 406.75937 132.1449Q406.025 132.91052 406.025 134.16052ZM414.57187 128.53552Q414.57187 127.16052 415.25937 126.19177Q415.9625 125.22302 417.275 125.22302Q418.49374 125.22302 419.29062 126.09802Q420.0875 126.9574 420.0875 128.6449Q420.0875 130.2699 419.275 131.16052Q418.47812 132.03552 417.29062 132.03552Q416.13437 132.03552 415.35312 131.17615Q414.57187 130.30115 414.57187 128.53552ZM417.32187 126.31677Q416.72812 126.31677 416.3375 126.8324Q415.94687 127.3324 415.94687 128.69177Q415.94687 129.94177 416.3375 130.44177Q416.74374 130.94177 417.32187 130.94177Q417.91562 130.94177 418.30624 130.44177Q418.69687 129.92615 418.69687 128.5824Q418.69687 127.3324 418.30624 126.8324Q417.91562 126.31677 417.32187 126.31677ZM417.3375 138.80115L424.38437 125.22302L425.66562 125.22302L418.63437 138.80115L417.3375 138.80115ZM422.9 135.30115Q422.9 133.92615 423.5875 132.9574Q424.29062 131.98865 425.61874 131.98865Q426.8375 131.98865 427.61874 132.86365Q428.41562 133.72302 428.41562 135.41052Q428.41562 137.03552 427.61874 137.92615Q426.82187 138.80115 425.63437 138.80115Q424.4625 138.80115 423.68124 137.92615Q422.9 137.05115 422.9 135.30115ZM425.66562 133.0824Q425.07187 133.0824 424.68124 133.59802Q424.29062 134.09802 424.29062 135.47302Q424.29062 136.69177 424.68124 137.2074Q425.07187 137.72302 425.65 137.72302Q426.25937 137.72302 426.65 137.2074Q427.04062 136.69177 427.04062 135.34802Q427.04062 134.09802 426.65 133.59802Q426.25937 133.0824 425.66562 133.0824Z" fill-rule="nonzero"/><path stroke="#757575" stroke-width="1.0" stroke-linecap="butt" d="M429.525 119.83239L364.50964 119.83239L332.90433 119.83239" fill-rule="nonzero"/><path fill="#9e9e9e" d="M334.90433 119.83239C334.90433 118.72782 334.00888 117.83239 332.90433 117.83239C331.79974 117.83239 330.90433 118.72782 330.90433 119.83239C330.90433 120.93696 331.79974 121.83239 332.90433 121.83239C334.00888 121.83239 334.90433 120.93696 334.90433 119.83239" fill-rule="nonzero"/><path fill="#1a1a1a" d="M412.19687 293.01447L412.19687 280.12384L413.91562 280.12384L413.91562 293.01447L412.19687 293.01447ZM415.7125 293.01447L415.7125 283.68634L417.13437 283.68634L417.13437 285.01447Q418.16562 283.4676 420.10312 283.4676Q420.94687 283.4676 421.65 283.7801Q422.36874 284.07697 422.7125 284.57697Q423.07187 285.06134 423.2125 285.73322Q423.29062 286.17072 423.29062 287.2801L423.29062 293.01447L421.7125 293.01447L421.7125 287.3426Q421.7125 286.37384 421.525 285.88947Q421.35312 285.4051 420.86874 285.12384Q420.4 284.8426 419.775 284.8426Q418.75937 284.8426 418.025 285.48322Q417.29062 286.12384 417.29062 287.92072L417.29062 293.01447L415.7125 293.01447ZM429.16562 291.5926L429.4 292.99884Q428.72812 293.13947 428.19687 293.13947Q427.3375 293.13947 426.85312 292.87384Q426.38437 292.5926 426.19687 292.1551Q426.00937 291.70197 426.00937 290.2801L426.00937 284.9051L424.8375 284.9051L424.8375 283.68634L426.00937 283.68634L426.00937 281.37384L427.57187 280.42072L427.57187 283.68634L429.16562 283.68634L429.16562 284.9051L427.57187 284.9051L427.57187 290.37384Q427.57187 291.04572 427.65 291.24884Q427.74374 291.43634 427.93124 291.54572Q428.11874 291.6551 428.47812 291.6551Q428.72812 291.6551 429.16562 291.5926Z" fill-rule="nonzero"/><path fill="#9e9e9e" d="M387.5875 316.49884L387.5875 318.01447L379.07187 318.01447Q379.05624 317.43634 379.25937 316.92072Q379.5875 316.04572 380.29062 315.20197Q381.00937 314.35822 382.36874 313.24884Q384.4625 311.5301 385.19687 310.5301Q385.94687 309.51447 385.94687 308.62384Q385.94687 307.67072 385.275 307.0301Q384.60312 306.38947 383.525 306.38947Q382.36874 306.38947 381.68124 307.07697Q381.00937 307.76447 380.99374 308.9676L379.36874 308.79572Q379.54062 306.98322 380.61874 306.0301Q381.7125 305.07697 383.55624 305.07697Q385.4 305.07697 386.47812 306.10822Q387.57187 307.13947 387.57187 308.6551Q387.57187 309.42072 387.24374 310.17072Q386.93124 310.92072 386.19687 311.74884Q385.4625 312.57697 383.75937 314.01447Q382.3375 315.2176 381.93124 315.63947Q381.525 316.06134 381.275 316.49884L387.5875 316.49884ZM389.50937 315.0301L391.025 314.88947Q391.22812 315.9676 391.75937 316.45197Q392.30624 316.93634 393.16562 316.93634Q393.9 316.93634 394.44687 316.60822Q394.99374 316.26447 395.3375 315.7176Q395.69687 315.1551 395.93124 314.20197Q396.16562 313.24884 396.16562 312.26447Q396.16562 312.1551 396.16562 311.95197Q395.68124 312.70197 394.85312 313.17072Q394.04062 313.63947 393.0875 313.63947Q391.49374 313.63947 390.38437 312.48322Q389.275 311.32697 389.275 309.42072Q389.275 307.4676 390.43124 306.2801Q391.5875 305.07697 393.32187 305.07697Q394.5875 305.07697 395.61874 305.76447Q396.66562 306.43634 397.19687 307.68634Q397.74374 308.93634 397.74374 311.31134Q397.74374 313.7801 397.19687 315.24884Q396.66562 316.70197 395.60312 317.4676Q394.55624 318.23322 393.13437 318.23322Q391.61874 318.23322 390.65 317.4051Q389.69687 316.56134 389.50937 315.0301ZM395.99374 309.3426Q395.99374 307.98322 395.25937 307.18634Q394.54062 306.38947 393.525 306.38947Q392.4625 306.38947 391.68124 307.24884Q390.9 308.10822 390.9 309.48322Q390.9 310.7176 391.63437 311.48322Q392.38437 312.24884 393.47812 312.24884Q394.57187 312.24884 395.275 311.48322Q395.99374 310.7176 395.99374 309.3426ZM400.16562 318.01447L400.16562 316.2176L401.9625 316.2176L401.9625 318.01447L400.16562 318.01447ZM410.22812 318.01447L408.65 318.01447L408.65 307.93634Q408.07187 308.48322 407.15 309.0301Q406.22812 309.56134 405.47812 309.8426L405.47812 308.31134Q406.80624 307.68634 407.80624 306.79572Q408.80624 305.9051 409.2125 305.07697L410.22812 305.07697L410.22812 318.01447ZM414.57187 308.2176Q414.57187 306.8426 415.25937 305.87384Q415.9625 304.9051 417.275 304.9051Q418.49374 304.9051 419.29062 305.7801Q420.0875 306.63947 420.0875 308.32697Q420.0875 309.95197 419.275 310.8426Q418.47812 311.7176 417.29062 311.7176Q416.13437 311.7176 415.35312 310.85822Q414.57187 309.98322 414.57187 308.2176ZM417.32187 305.99884Q416.72812 305.99884 416.3375 306.51447Q415.94687 307.01447 415.94687 308.37384Q415.94687 309.62384 416.3375 310.12384Q416.74374 310.62384 417.32187 310.62384Q417.91562 310.62384 418.30624 310.12384Q418.69687 309.60822 418.69687 308.26447Q418.69687 307.01447 418.30624 306.51447Q417.91562 305.99884 417.32187 305.99884ZM417.3375 318.48322L424.38437 304.9051L425.66562 304.9051L418.63437 318.48322L417.3375 318.48322ZM422.9 314.98322Q422.9 313.60822 423.5875 312.63947Q424.29062 311.67072 425.61874 311.67072Q426.8375 311.67072 427.61874 312.54572Q428.41562 313.4051 428.41562 315.0926Q428.41562 316.7176 427.61874 317.60822Q426.82187 318.48322 425.63437 318.48322Q424.4625 318.48322 423.68124 317.60822Q422.9 316.73322 422.9 314.98322ZM425.66562 312.76447Q425.07187 312.76447 424.68124 313.2801Q424.29062 313.7801 424.29062 315.1551Q424.29062 316.37384 424.68124 316.88947Q425.07187 317.4051 425.65 317.4051Q426.25937 317.4051 426.65 316.88947Q427.04062 316.37384 427.04062 315.0301Q427.04062 313.7801 426.65 313.2801Q426.25937 312.76447 425.66562 312.76447Z" fill-rule="nonzero"/><path stroke="#757575" stroke-width="1.0" stroke-linecap="butt" d="M429.525 299.51447L364.50964 299.51447L245.5493 314.13306" fill-rule="nonzero"/><path fill="#9e9e9e" d="M247.5493 314.13306C247.5493 313.02847 246.65387 312.13306 245.5493 312.13306C244.44472 312.13306 243.5493 313.02847 243.5493 314.13306C243.5493 315.2376 244.44472 316.13306 245.5493 316.13306C246.65387 316.13306 247.5493 315.2376 247.5493 314.13306" fill-rule="nonzero"/><path fill="#757575" d="M20.584 36.19886L20.584 23.57386L15.86525 23.57386L15.86525 21.88636L27.209 21.88636L27.209 23.57386L22.474625 23.57386L22.474625 36.19886L20.584 36.19886ZM28.630875 40.19886L28.443375 38.54261Q29.0215 38.69886 29.443375 38.69886Q30.037125 38.69886 30.380875 38.495735Q30.74025 38.308235 30.959 37.964485Q31.130875 37.69886 31.505875 36.651985Q31.55275 36.495735 31.662125 36.214485L27.724625 25.82386L29.61525 25.82386L31.7715 31.839485Q32.193375 32.98011 32.5215 34.23011Q32.834 33.026985 33.24025 31.870735L35.459 25.82386L37.224625 25.82386L33.2715 36.370735Q32.6465 38.089485 32.287125 38.73011Q31.818375 39.60511 31.209 39.995735Q30.61525 40.401985 29.7715 40.401985Q29.255875 40.401985 28.630875 40.19886ZM38.709 40.16761L38.709 25.82386L40.318375 25.82386L40.318375 27.16761Q40.880875 26.38636 41.584 25.995735Q42.30275 25.589485 43.318375 25.589485Q44.6465 25.589485 45.662125 26.276985Q46.67775 26.964485 47.193375 28.214485Q47.724625 29.44886 47.724625 30.933235Q47.724625 32.526985 47.1465 33.808235Q46.584 35.07386 45.49025 35.76136Q44.3965 36.433235 43.193375 36.433235Q42.318375 36.433235 41.61525 36.058235Q40.92775 35.683235 40.474625 35.120735L40.474625 40.16761L38.709 40.16761ZM40.30275 31.07386Q40.30275 33.07386 41.11525 34.026985Q41.92775 34.98011 43.084 34.98011Q44.255875 34.98011 45.084 33.995735Q45.92775 33.01136 45.92775 30.91761Q45.92775 28.94886 45.099625 27.964485Q44.287125 26.964485 43.162125 26.964485Q42.037125 26.964485 41.162125 28.026985Q40.30275 29.07386 40.30275 31.07386ZM56.818375 32.85511L58.630875 33.089485Q58.209 34.66761 57.037125 35.558235Q55.880875 36.433235 54.068375 36.433235Q51.80275 36.433235 50.459 35.04261Q49.130875 33.63636 49.130875 31.10511Q49.130875 28.48011 50.474625 27.04261Q51.818375 25.589485 53.974625 25.589485Q56.05275 25.589485 57.36525 27.01136Q58.693375 28.41761 58.693375 30.995735Q58.693375 31.151985 58.67775 31.464485L50.943375 31.464485Q51.037125 33.16761 51.912125 34.07386Q52.787125 34.98011 54.084 34.98011Q55.05275 34.98011 55.724625 34.48011Q56.412125 33.964485 56.818375 32.85511ZM51.037125 30.01136L56.834 30.01136Q56.724625 28.714485 56.17775 28.058235Q55.334 27.04261 53.99025 27.04261Q52.787125 27.04261 51.959 27.85511Q51.130875 28.651985 51.037125 30.01136ZM60.005875 33.10511L61.755875 32.82386Q61.8965 33.870735 62.568375 34.433235Q63.24025 34.98011 64.443375 34.98011Q65.6465 34.98011 66.224625 34.495735Q66.818375 33.995735 66.818375 33.339485Q66.818375 32.745735 66.30275 32.401985Q65.943375 32.16761 64.505875 31.808235Q62.568375 31.308235 61.818375 30.964485Q61.084 30.60511 60.693375 29.98011Q60.30275 29.339485 60.30275 28.57386Q60.30275 27.88636 60.61525 27.29261Q60.943375 26.69886 61.49025 26.308235Q61.8965 26.01136 62.599625 25.808235Q63.318375 25.589485 64.130875 25.589485Q65.349625 25.589485 66.2715 25.94886Q67.193375 26.29261 67.630875 26.901985Q68.068375 27.495735 68.24025 28.495735L66.5215 28.73011Q66.3965 27.933235 65.834 27.495735Q65.2715 27.04261 64.255875 27.04261Q63.037125 27.04261 62.5215 27.44886Q62.005875 27.839485 62.005875 28.370735Q62.005875 28.714485 62.224625 28.995735Q62.42775 29.276985 62.8965 29.464485Q63.162125 29.558235 64.443375 29.901985Q66.318375 30.401985 67.05275 30.73011Q67.787125 31.04261 68.209 31.651985Q68.630875 32.245735 68.630875 33.151985Q68.630875 34.026985 68.11525 34.808235Q67.599625 35.589485 66.630875 36.01136Q65.662125 36.433235 64.443375 36.433235Q62.42775 36.433235 61.36525 35.589485Q60.30275 34.745735 60.005875 33.10511ZM76.974625 36.19886L76.974625 21.88636L83.318375 21.88636Q85.224625 21.88636 86.224625 22.276985Q87.224625 22.651985 87.818375 23.63636Q88.412125 24.60511 88.412125 25.79261Q88.412125 27.308235 87.42775 28.35511Q86.443375 29.401985 84.380875 29.683235Q85.130875 30.04261 85.5215 30.401985Q86.349625 31.151985 87.099625 32.308235L89.584 36.19886L87.209 36.19886L85.30275 33.214485Q84.474625 31.933235 83.943375 31.245735Q83.412125 30.558235 82.974625 30.29261Q82.55275 30.01136 82.11525 29.901985Q81.787125 29.839485 81.068375 29.839485L78.86525 29.839485L78.86525 36.19886L76.974625 36.19886ZM78.86525 28.19886L82.943375 28.19886Q84.24025 28.19886 84.959 27.933235Q85.693375 27.66761 86.068375 27.07386Q86.459 26.48011 86.459 25.79261Q86.459 24.776985 85.724625 24.120735Q84.99025 23.464485 83.3965 23.464485L78.86525 23.464485L78.86525 28.19886ZM97.818375 32.85511L99.630875 33.089485Q99.209 34.66761 98.037125 35.558235Q96.880875 36.433235 95.068375 36.433235Q92.80275 36.433235 91.459 35.04261Q90.130875 33.63636 90.130875 31.10511Q90.130875 28.48011 91.474625 27.04261Q92.818375 25.589485 94.974625 25.589485Q97.05275 25.589485 98.36525 27.01136Q99.693375 28.41761 99.693375 30.995735Q99.693375 31.151985 99.67775 31.464485L91.943375 31.464485Q92.037125 33.16761 92.912125 34.07386Q93.787125 34.98011 95.084 34.98011Q96.05275 34.98011 96.724625 34.48011Q97.412125 33.964485 97.818375 32.85511ZM92.037125 30.01136L97.834 30.01136Q97.724625 28.714485 97.17775 28.058235Q96.334 27.04261 94.99025 27.04261Q93.787125 27.04261 92.959 27.85511Q92.130875 28.651985 92.037125 30.01136ZM102.130875 36.19886L102.130875 27.19886L100.584 27.19886L100.584 25.82386L102.130875 25.82386L102.130875 24.73011Q102.130875 23.683235 102.318375 23.16761Q102.568375 22.48011 103.209 22.058235Q103.849625 21.63636 105.005875 21.63636Q105.755875 21.63636 106.6465 21.808235L106.380875 23.339485Q105.834 23.245735 105.349625 23.245735Q104.55275 23.245735 104.209 23.589485Q103.880875 23.933235 103.880875 24.870735L103.880875 25.82386L105.912125 25.82386L105.912125 27.19886L103.880875 27.19886L103.880875 36.19886L102.130875 36.19886ZM107.724625 23.901985L107.724625 21.88636L109.49025 21.88636L109.49025 23.901985L107.724625 23.901985ZM107.724625 36.19886L107.724625 25.82386L109.49025 25.82386L109.49025 36.19886L107.724625 36.19886ZM111.709 36.19886L111.709 25.82386L113.30275 25.82386L113.30275 27.308235Q114.443375 25.589485 116.599625 25.589485Q117.537125 25.589485 118.318375 25.933235Q119.11525 26.26136 119.505875 26.808235Q119.8965 27.35511 120.05275 28.10511Q120.1465 28.60511 120.1465 29.82386L120.1465 36.19886L118.380875 36.19886L118.380875 29.88636Q118.380875 28.808235 118.17775 28.276985Q117.974625 27.745735 117.443375 27.433235Q116.92775 27.120735 116.224625 27.120735Q115.099625 27.120735 114.287125 27.839485Q113.474625 28.54261 113.474625 30.526985L113.474625 36.19886L111.709 36.19886ZM128.81837 32.85511L130.63087 33.089485Q130.209 34.66761 129.03712 35.558235Q127.880875 36.433235 126.068375 36.433235Q123.80275 36.433235 122.459 35.04261Q121.130875 33.63636 121.130875 31.10511Q121.130875 28.48011 122.474625 27.04261Q123.818375 25.589485 125.974625 25.589485Q128.05275 25.589485 129.36525 27.01136Q130.69337 28.41761 130.69337 30.995735Q130.69337 31.151985 130.67775 31.464485L122.943375 31.464485Q123.037125 33.16761 123.912125 34.07386Q124.787125 34.98011 126.084 34.98011Q127.05275 34.98011 127.724625 34.48011Q128.41212 33.964485 128.81837 32.85511ZM123.037125 30.01136L128.834 30.01136Q128.72462 28.714485 128.17775 28.058235Q127.334 27.04261 125.99025 27.04261Q124.787125 27.04261 123.959 27.85511Q123.130875 28.651985 123.037125 30.01136ZM139.44337 36.19886L139.44337 34.88636Q138.459 36.433235 136.53712 36.433235Q135.30275 36.433235 134.25587 35.745735Q133.22462 35.058235 132.6465 33.839485Q132.084 32.620735 132.084 31.026985Q132.084 29.464485 132.59962 28.19886Q133.11525 26.933235 134.1465 26.26136Q135.19337 25.589485 136.459 25.589485Q137.3965 25.589485 138.13087 25.995735Q138.86525 26.38636 139.334 27.01136L139.334 21.88636L141.06837 21.88636L141.06837 36.19886L139.44337 36.19886ZM133.88087 31.026985Q133.88087 33.01136 134.72462 33.995735Q135.56837 34.98011 136.709 34.98011Q137.86525 34.98011 138.66212 34.04261Q139.47462 33.10511 139.47462 31.16761Q139.47462 29.04261 138.6465 28.04261Q137.834 27.04261 136.63087 27.04261Q135.459 27.04261 134.66212 28.01136Q133.88087 28.964485 133.88087 31.026985Z" fill-rule="nonzero"/></svg>