<svg version="1.1" viewBox="0.0 0.0 600.0 371.0" fill="none" stroke="none" stroke-linecap="square" stroke-miterlimit="10" xmlns:xlink="http://www.w3.org/1999/xlink" xmlns="http://www.w3.org/2000/svg"><path fill="#ffffff" d="M0 0L600.0 0L600.0 371.0L0 371.0L0 0Z" fill-rule="nonzero"/><path fill="#ff6f31" d="M155.28717 238.17561C144.73233 193.89265 155.03384 147.21457 183.24637 111.48729C211.45888 75.76001 254.47655 54.916668 300.0 54.916668L300.0 203.68333Z" fill-rule="nonzero"/><path fill="#004561" d="M162.3082 260.00818C159.40956 252.92215 157.06224 245.62296 155.28717 238.17561L300.0 203.68333Z" fill-rule="nonzero"/><path fill="#5891ad" d="M300.0 54.916668C374.73883 54.916668 437.87567 110.368195 447.52228 184.48187C457.1689 258.59555 410.33032 328.36145 338.0817 347.4933C265.83304 366.62515 190.60521 329.18314 162.3082 260.00818L300.0 203.68333Z" fill-rule="nonzero"/><path fill="#ffffff" d="M374.42398 269.0763L372.84586 269.0763L372.84586 258.99817Q372.26773 259.54504 371.34586 260.09192Q370.42398 260.62317 369.67398 260.90442L369.67398 259.37317Q371.0021 258.74817 372.0021 257.85754Q373.0021 256.96692 373.40836 256.1388L374.42398 256.1388L374.42398 269.0763ZM386.78336 267.56067L386.78336 269.0763L378.26773 269.0763Q378.2521 268.49817 378.45523 267.98254Q378.78336 267.10754 379.48648 266.2638Q380.20523 265.42004 381.5646 264.31067Q383.65836 262.59192 384.39273 261.59192Q385.14273 260.5763 385.14273 259.68567Q385.14273 258.73254 384.47086 258.09192Q383.79898 257.4513 382.72086 257.4513Q381.5646 257.4513 380.8771 258.1388Q380.20523 258.8263 380.1896 260.02942L378.5646 259.85754Q378.73648 258.04504 379.8146 257.09192Q380.90836 256.1388 382.7521 256.1388Q384.59586 256.1388 385.67398 257.17004Q386.76773 258.2013 386.76773 259.71692Q386.76773 260.48254 386.4396 261.23254Q386.1271 261.98254 385.39273 262.81067Q384.65836 263.6388 382.95523 265.0763Q381.53336 266.27942 381.1271 266.7013Q380.72086 267.12317 380.47086 267.56067L386.78336 267.56067ZM390.90836 262.09192Q389.92398 261.73254 389.4396 261.06067Q388.97086 260.3888 388.97086 259.46692Q388.97086 258.06067 389.97086 257.10754Q390.98648 256.1388 392.67398 256.1388Q394.36148 256.1388 395.3771 257.12317Q396.40836 258.09192 396.40836 259.49817Q396.40836 260.40442 395.9396 261.0763Q395.47086 261.73254 394.51773 262.09192Q395.70523 262.48254 396.3146 263.34192Q396.9396 264.2013 396.9396 265.3888Q396.9396 267.04504 395.76773 268.17004Q394.59586 269.29504 392.6896 269.29504Q390.78336 269.29504 389.61148 268.17004Q388.45523 267.02942 388.45523 265.34192Q388.45523 264.09192 389.08023 263.24817Q389.72086 262.3888 390.90836 262.09192ZM390.58023 259.40442Q390.58023 260.3263 391.17398 260.90442Q391.76773 261.48254 392.70523 261.48254Q393.61148 261.48254 394.1896 260.90442Q394.78336 260.3263 394.78336 259.49817Q394.78336 258.62317 394.17398 258.02942Q393.58023 257.43567 392.6896 257.43567Q391.78336 257.43567 391.17398 258.0138Q390.58023 258.59192 390.58023 259.40442ZM390.08023 265.35754Q390.08023 266.02942 390.39273 266.67004Q390.72086 267.29504 391.34586 267.65442Q391.98648 267.99817 392.72086 267.99817Q393.84586 267.99817 394.58023 267.2638Q395.33023 266.52942 395.33023 265.40442Q395.33023 264.2638 394.5646 263.52942Q393.79898 262.77942 392.65836 262.77942Q391.54898 262.77942 390.8146 263.5138Q390.08023 264.24817 390.08023 265.35754ZM398.70523 266.09192L400.22086 265.9513Q400.42398 267.02942 400.95523 267.5138Q401.5021 267.99817 402.36148 267.99817Q403.09586 267.99817 403.64273 267.67004Q404.1896 267.3263 404.53336 266.77942Q404.89273 266.21692 405.1271 265.2638Q405.36148 264.31067 405.36148 263.3263Q405.36148 263.21692 405.36148 263.0138Q404.8771 263.7638 404.04898 264.23254Q403.23648 264.7013 402.28336 264.7013Q400.6896 264.7013 399.58023 263.54504Q398.47086 262.3888 398.47086 260.48254Q398.47086 258.52942 399.6271 257.34192Q400.78336 256.1388 402.51773 256.1388Q403.78336 256.1388 404.8146 256.8263Q405.86148 257.49817 406.39273 258.74817Q406.9396 259.99817 406.9396 262.37317Q406.9396 264.84192 406.39273 266.31067Q405.86148 267.7638 404.79898 268.52942Q403.7521 269.29504 402.33023 269.29504Q400.8146 269.29504 399.84586 268.46692Q398.89273 267.62317 398.70523 266.09192ZM405.1896 260.40442Q405.1896 259.04504 404.45523 258.24817Q403.73648 257.4513 402.72086 257.4513Q401.65836 257.4513 400.8771 258.31067Q400.09586 259.17004 400.09586 260.54504Q400.09586 261.77942 400.83023 262.54504Q401.58023 263.31067 402.67398 263.31067Q403.76773 263.31067 404.47086 262.54504Q405.1896 261.77942 405.1896 260.40442Z" fill-rule="nonzero"/><path fill="#ffffff" d="M199.74597 138.89412L201.40222 138.7535Q201.58972 139.97224 202.2616 140.58162Q202.93347 141.191 203.8866 141.191Q205.02722 141.191 205.80847 140.33162Q206.60535 139.47224 206.60535 138.03474Q206.60535 136.691 205.83972 135.90974Q205.08972 135.1285 203.85535 135.1285Q203.08972 135.1285 202.46472 135.47224Q201.85535 135.816 201.5116 136.3785L200.02722 136.17537L201.27722 129.566L207.68347 129.566L207.68347 131.066L202.54285 131.066L201.83972 134.53474Q203.0116 133.72224 204.27722 133.72224Q205.96472 133.72224 207.12097 134.89412Q208.29285 136.066 208.29285 137.89412Q208.29285 139.64412 207.2616 140.92537Q206.02722 142.48787 203.8866 142.48787Q202.12097 142.48787 201.0116 141.5035Q199.90222 140.51912 199.74597 138.89412ZM209.74597 138.86287L211.33972 138.65974Q211.60535 140.0035 212.2616 140.59724Q212.91785 141.191 213.85535 141.191Q214.98035 141.191 215.74597 140.42537Q216.5116 139.64412 216.5116 138.5035Q216.5116 137.40974 215.79285 136.70662Q215.08972 135.98787 213.99597 135.98787Q213.54285 135.98787 212.87097 136.17537L213.04285 134.78474Q213.1991 134.80037 213.30847 134.80037Q214.30847 134.80037 215.12097 134.26912Q215.93347 133.73787 215.93347 132.64412Q215.93347 131.76912 215.33972 131.20662Q214.74597 130.6285 213.8241 130.6285Q212.90222 130.6285 212.27722 131.20662Q211.66785 131.78474 211.49597 132.95662L209.91785 132.67537Q210.1991 131.08162 211.23035 130.20662Q212.2616 129.33162 213.79285 129.33162Q214.83972 129.33162 215.73035 129.78474Q216.62097 130.23787 217.08972 131.01912Q217.55847 131.80037 217.55847 132.67537Q217.55847 133.51912 217.10535 134.20662Q216.66785 134.8785 215.77722 135.28474Q216.91785 135.55037 217.54285 136.39412Q218.18347 137.22224 218.18347 138.45662Q218.18347 140.14412 216.9491 141.33162Q215.73035 142.5035 213.85535 142.5035Q212.15222 142.5035 211.02722 141.48787Q209.91785 140.47224 209.74597 138.86287ZM222.18347 135.28474Q221.1991 134.92537 220.71472 134.2535Q220.24597 133.58162 220.24597 132.65974Q220.24597 131.2535 221.24597 130.30037Q222.2616 129.33162 223.9491 129.33162Q225.6366 129.33162 226.65222 130.316Q227.68347 131.28474 227.68347 132.691Q227.68347 133.59724 227.21472 134.26912Q226.74597 134.92537 225.79285 135.28474Q226.98035 135.67537 227.58972 136.53474Q228.21472 137.39412 228.21472 138.58162Q228.21472 140.23787 227.04285 141.36287Q225.87097 142.48787 223.96472 142.48787Q222.05847 142.48787 220.8866 141.36287Q219.73035 140.22224 219.73035 138.53474Q219.73035 137.28474 220.35535 136.441Q220.99597 135.58162 222.18347 135.28474ZM221.85535 132.59724Q221.85535 133.51912 222.4491 134.09724Q223.04285 134.67537 223.98035 134.67537Q224.8866 134.67537 225.46472 134.09724Q226.05847 133.51912 226.05847 132.691Q226.05847 131.816 225.4491 131.22224Q224.85535 130.6285 223.96472 130.6285Q223.05847 130.6285 222.4491 131.20662Q221.85535 131.78474 221.85535 132.59724ZM221.35535 138.55037Q221.35535 139.22224 221.66785 139.86287Q221.99597 140.48787 222.62097 140.84724Q223.2616 141.191 223.99597 141.191Q225.12097 141.191 225.85535 140.45662Q226.60535 139.72224 226.60535 138.59724Q226.60535 137.45662 225.83972 136.72224Q225.0741 135.97224 223.93347 135.97224Q222.8241 135.97224 222.08972 136.70662Q221.35535 137.441 221.35535 138.55037Z" fill-rule="nonzero"/><path fill="#000000" d="M19.70625 100.22209Q19.70625 95.95647 22.003124 93.53459Q24.3 91.11272 27.940624 91.11272Q30.315624 91.11272 32.221874 92.25334Q34.14375 93.37834 35.14375 95.42522Q36.14375 97.45647 36.14375 100.03459Q36.14375 102.64397 35.08125 104.70647Q34.034374 106.76897 32.096874 107.83147Q30.159374 108.89397 27.925 108.89397Q25.503124 108.89397 23.58125 107.72209Q21.675 106.55022 20.690624 104.51897Q19.70625 102.48772 19.70625 100.22209ZM22.05 100.26897Q22.05 103.36272 23.721874 105.15959Q25.39375 106.94084 27.909374 106.94084Q30.4875 106.94084 32.14375 105.14397Q33.8 103.33147 33.8 100.01897Q33.8 97.92522 33.08125 96.36272Q32.378124 94.78459 31.003124 93.92522Q29.64375 93.06584 27.95625 93.06584Q25.534374 93.06584 23.784374 94.72209Q22.05 96.37834 22.05 100.26897ZM43.7375 106.70647L44.05 108.56584Q43.159374 108.76897 42.45625 108.76897Q41.3 108.76897 40.659374 108.40959Q40.034374 108.03459 39.76875 107.44084Q39.51875 106.84709 39.51875 104.95647L39.51875 97.78459L37.971874 97.78459L37.971874 96.14397L39.51875 96.14397L39.51875 93.06584L41.6125 91.80022L41.6125 96.14397L43.7375 96.14397L43.7375 97.78459L41.6125 97.78459L41.6125 105.06584Q41.6125 105.97209 41.721874 106.23772Q41.846874 106.48772 42.096874 106.64397Q42.346874 106.78459 42.815624 106.78459Q43.159374 106.78459 43.7375 106.70647ZM46.128124 108.59709L46.128124 91.40959L48.2375 91.40959L48.2375 97.58147Q49.721874 95.86272 51.971874 95.86272Q53.346874 95.86272 54.3625 96.40959Q55.39375 96.95647 55.83125 97.92522Q56.26875 98.87834 56.26875 100.70647L56.26875 108.59709L54.159374 108.59709L54.159374 100.70647Q54.159374 99.12834 53.471874 98.40959Q52.784374 97.69084 51.534374 97.69084Q50.596874 97.69084 49.76875 98.17522Q48.940624 98.65959 48.58125 99.48772Q48.2375 100.31584 48.2375 101.78459L48.2375 108.59709L46.128124 108.59709ZM68.65938 104.58147L70.83125 104.86272Q70.31563 106.76897 68.925 107.83147Q67.53438 108.87834 65.3625 108.87834Q62.628124 108.87834 61.01875 107.20647Q59.425 105.51897 59.425 102.47209Q59.425 99.33147 61.034374 97.59709Q62.659374 95.86272 65.2375 95.86272Q67.7375 95.86272 69.31563 97.56584Q70.90938 99.26897 70.90938 102.34709Q70.90938 102.53459 70.89375 102.90959L61.6125 102.90959Q61.721874 104.95647 62.76875 106.05022Q63.815624 107.14397 65.37813 107.14397Q66.53438 107.14397 67.34688 106.53459Q68.175 105.92522 68.65938 104.58147ZM61.721874 101.17522L68.675 101.17522Q68.53438 99.61272 67.87813 98.81584Q66.87813 97.59709 65.26875 97.59709Q63.815624 97.59709 62.815624 98.58147Q61.83125 99.55022 61.721874 101.17522ZM73.1125 108.59709L73.1125 96.14397L75.00313 96.14397L75.00313 98.03459Q75.7375 96.70647 76.34688 96.28459Q76.97188 95.86272 77.70625 95.86272Q78.76875 95.86272 79.87813 96.55022L79.14375 98.50334Q78.37813 98.05022 77.59688 98.05022Q76.90938 98.05022 76.34688 98.47209Q75.8 98.87834 75.56563 99.61272Q75.22188 100.73772 75.22188 102.08147L75.22188 108.59709L73.1125 108.59709ZM80.28438 104.87834L82.37813 104.55022Q82.55 105.80022 83.34688 106.47209Q84.15938 107.14397 85.59688 107.14397Q87.05 107.14397 87.75313 106.55022Q88.45625 105.95647 88.45625 105.15959Q88.45625 104.44084 87.83125 104.03459Q87.40938 103.75334 85.675 103.31584Q83.3625 102.73772 82.45625 102.31584Q81.56563 101.87834 81.09688 101.12834Q80.64375 100.36272 80.64375 99.45647Q80.64375 98.62834 81.01875 97.92522Q81.40938 97.20647 82.06563 96.73772Q82.55 96.37834 83.39375 96.12834Q84.25313 95.86272 85.22188 95.86272Q86.69063 95.86272 87.8 96.28459Q88.90938 96.70647 89.425 97.44084Q89.95625 98.15959 90.15938 99.36272L88.09688 99.64397Q87.95625 98.67522 87.28438 98.14397Q86.6125 97.59709 85.37813 97.59709Q83.925 97.59709 83.3 98.08147Q82.675 98.56584 82.675 99.20647Q82.675 99.61272 82.94063 99.94084Q83.19063 100.28459 83.75313 100.50334Q84.06563 100.62834 85.6125 101.05022Q87.84688 101.64397 88.72188 102.03459Q89.6125 102.40959 90.1125 103.14397Q90.62813 103.86272 90.62813 104.94084Q90.62813 105.98772 90.00313 106.92522Q89.39375 107.86272 88.2375 108.37834Q87.08125 108.87834 85.6125 108.87834Q83.19063 108.87834 81.90938 107.87834Q80.64375 106.86272 80.28438 104.87834Z" fill-rule="nonzero"/><path fill="#9e9e9e" d="M30.628124 137.56584L30.628124 139.59709L19.284374 139.59709Q19.253124 138.83147 19.51875 138.12834Q19.95625 136.97209 20.909374 135.84709Q21.8625 134.72209 23.675 133.23772Q26.471874 130.94084 27.45625 129.61272Q28.440624 128.26897 28.440624 127.06584Q28.440624 125.81584 27.534374 124.95647Q26.64375 124.09709 25.20625 124.09709Q23.690624 124.09709 22.76875 125.01897Q21.8625 125.92522 21.846874 127.53459L19.675 127.31584Q19.89375 124.89397 21.346874 123.62834Q22.8 122.34709 25.253124 122.34709Q27.721874 122.34709 29.159374 123.72209Q30.6125 125.08147 30.6125 127.11272Q30.6125 128.14397 30.190624 129.14397Q29.76875 130.14397 28.784374 131.25334Q27.815624 132.34709 25.534374 134.26897Q23.64375 135.86272 23.096874 136.42522Q22.565624 136.98772 22.20625 137.56584L30.628124 137.56584ZM35.8 130.28459Q34.4875 129.80022 33.846874 128.90959Q33.221874 128.01897 33.221874 126.76897Q33.221874 124.89397 34.565624 123.62834Q35.909374 122.34709 38.14375 122.34709Q40.39375 122.34709 41.76875 123.65959Q43.14375 124.95647 43.14375 126.83147Q43.14375 128.03459 42.51875 128.92522Q41.89375 129.80022 40.6125 130.28459Q42.190624 130.80022 43.01875 131.95647Q43.846874 133.09709 43.846874 134.69084Q43.846874 136.89397 42.284374 138.39397Q40.721874 139.89397 38.190624 139.89397Q35.64375 139.89397 34.08125 138.39397Q32.51875 136.87834 32.51875 134.62834Q32.51875 132.95647 33.3625 131.83147Q34.221874 130.69084 35.8 130.28459ZM35.378124 126.70647Q35.378124 127.92522 36.159374 128.70647Q36.940624 129.47209 38.190624 129.47209Q39.409374 129.47209 40.190624 128.70647Q40.971874 127.94084 40.971874 126.81584Q40.971874 125.65959 40.159374 124.87834Q39.3625 124.08147 38.175 124.08147Q36.971874 124.08147 36.175 124.86272Q35.378124 125.62834 35.378124 126.70647ZM34.690624 134.64397Q34.690624 135.53459 35.1125 136.37834Q35.55 137.22209 36.39375 137.69084Q37.2375 138.15959 38.20625 138.15959Q39.721874 138.15959 40.70625 137.19084Q41.690624 136.20647 41.690624 134.70647Q41.690624 133.19084 40.675 132.19084Q39.659374 131.19084 38.14375 131.19084Q36.64375 131.19084 35.659374 132.17522Q34.690624 133.15959 34.690624 134.64397ZM46.7375 139.59709L46.7375 137.19084L49.128124 137.19084L49.128124 139.59709L46.7375 139.59709ZM52.690624 124.65959L52.690624 122.64397L63.815624 122.64397L63.815624 124.28459Q62.175 126.01897 60.55 128.92522Q58.940624 131.81584 58.065624 134.87834Q57.440624 137.03459 57.253124 139.59709L55.096874 139.59709Q55.128124 137.56584 55.878124 134.70647Q56.64375 131.83147 58.065624 129.15959Q59.503124 126.48772 61.096874 124.65959L52.690624 124.65959ZM65.94063 126.53459Q65.94063 124.70647 66.8625 123.42522Q67.8 122.12834 69.55 122.12834Q71.175 122.12834 72.2375 123.28459Q73.3 124.42522 73.3 126.67522Q73.3 128.84709 72.22188 130.03459Q71.14375 131.20647 69.58125 131.20647Q68.01875 131.20647 66.97188 130.05022Q65.94063 128.87834 65.94063 126.53459ZM69.6125 123.58147Q68.83125 123.58147 68.3 124.26897Q67.78438 124.94084 67.78438 126.75334Q67.78438 128.40959 68.31563 129.08147Q68.84688 129.75334 69.6125 129.75334Q70.40938 129.75334 70.925 129.08147Q71.45625 128.39397 71.45625 126.58147Q71.45625 124.92522 70.925 124.25334Q70.39375 123.58147 69.6125 123.58147ZM69.62813 140.23772L79.01875 122.12834L80.7375 122.12834L71.37813 140.23772L69.62813 140.23772ZM77.05 135.56584Q77.05 133.70647 77.97188 132.42522Q78.90938 131.14397 80.675 131.14397Q82.3 131.14397 83.34688 132.30022Q84.40938 133.45647 84.40938 135.69084Q84.40938 137.87834 83.33125 139.06584Q82.26875 140.23772 80.69063 140.23772Q79.12813 140.23772 78.08125 139.06584Q77.05 137.89397 77.05 135.56584ZM80.7375 132.59709Q79.94063 132.59709 79.40938 133.28459Q78.89375 133.95647 78.89375 135.76897Q78.89375 137.40959 79.425 138.09709Q79.95625 138.76897 80.72188 138.76897Q81.53438 138.76897 82.05 138.09709Q82.58125 137.40959 82.58125 135.61272Q82.58125 133.94084 82.05 133.26897Q81.51875 132.59709 80.7375 132.59709Z" fill-rule="nonzero"/><path stroke="#757575" stroke-width="1.0" stroke-linecap="butt" d="M18.55 116.09709L145.23334 116.09709L189.08405 116.09709" fill-rule="nonzero"/><path fill="#9e9e9e" d="M191.08405 116.09709C191.08405 114.99252 190.18861 114.09709 189.08405 114.09709C187.97948 114.09709 187.08405 114.99252 187.08405 116.09709C187.08405 117.20166 187.97948 118.09709 189.08405 118.09709C190.18861 118.09709 191.08405 117.20166 191.08405 116.09709" fill-rule="nonzero"/><path fill="#000000" d="M32.659374 233.41893L34.940624 233.99706Q34.221874 236.79393 32.3625 238.2783Q30.503124 239.74706 27.815624 239.74706Q25.05 239.74706 23.3 238.62206Q21.565624 237.48143 20.659374 235.3408Q19.753124 233.18456 19.753124 230.73143Q19.753124 228.04393 20.76875 226.04393Q21.8 224.04393 23.690624 223.01268Q25.58125 221.98143 27.8625 221.98143Q30.440624 221.98143 32.190624 223.29393Q33.95625 224.60643 34.64375 226.98143L32.409374 227.51268Q31.8 225.63768 30.659374 224.7783Q29.534374 223.91893 27.815624 223.91893Q25.83125 223.91893 24.503124 224.87206Q23.175 225.82518 22.628124 227.41893Q22.096874 229.01268 22.096874 230.7158Q22.096874 232.9033 22.721874 234.54393Q23.3625 236.18456 24.70625 236.99706Q26.065624 237.79393 27.628124 237.79393Q29.55 237.79393 30.8625 236.70018Q32.190624 235.5908 32.659374 233.41893ZM37.128124 239.45018L37.128124 222.26268L39.2375 222.26268L39.2375 228.43456Q40.721874 226.7158 42.971874 226.7158Q44.346874 226.7158 45.3625 227.26268Q46.39375 227.80956 46.83125 228.7783Q47.26875 229.73143 47.26875 231.55956L47.26875 239.45018L45.159374 239.45018L45.159374 231.55956Q45.159374 229.98143 44.471874 229.26268Q43.784374 228.54393 42.534374 228.54393Q41.596874 228.54393 40.76875 229.0283Q39.940624 229.51268 39.58125 230.3408Q39.2375 231.16893 39.2375 232.63768L39.2375 239.45018L37.128124 239.45018ZM59.253124 237.91893Q58.08125 238.9033 56.9875 239.32518Q55.909374 239.73143 54.675 239.73143Q52.628124 239.73143 51.51875 238.73143Q50.425 237.73143 50.425 236.16893Q50.425 235.24706 50.83125 234.49706Q51.253124 233.74706 51.925 233.29393Q52.596874 232.82518 53.440624 232.5908Q54.065624 232.43456 55.315624 232.2783Q57.878124 231.9658 59.08125 231.54393Q59.096874 231.12206 59.096874 230.99706Q59.096874 229.7158 58.4875 229.18456Q57.690624 228.4658 56.096874 228.4658Q54.596874 228.4658 53.89375 228.99706Q53.190624 229.51268 52.846874 230.8408L50.784374 230.55956Q51.065624 229.23143 51.70625 228.41893Q52.346874 227.60643 53.565624 227.16893Q54.784374 226.7158 56.39375 226.7158Q57.9875 226.7158 58.9875 227.0908Q59.9875 227.4658 60.45625 228.04393Q60.925 228.60643 61.1125 229.48143Q61.20625 230.01268 61.20625 231.41893L61.20625 234.23143Q61.20625 237.16893 61.346874 237.95018Q61.4875 238.73143 61.878124 239.45018L59.675 239.45018Q59.346874 238.79393 59.253124 237.91893ZM59.08125 233.20018Q57.925 233.66893 55.628124 233.99706Q54.33125 234.18456 53.784374 234.41893Q53.253124 234.6533 52.95625 235.10643Q52.675 235.55956 52.675 236.10643Q52.675 236.95018 53.3 237.51268Q53.940624 238.07518 55.175 238.07518Q56.39375 238.07518 57.346874 237.54393Q58.3 237.01268 58.7375 236.0908Q59.08125 235.37206 59.08125 233.98143L59.08125 233.20018ZM64.1125 239.45018L64.1125 226.99706L66.00313 226.99706L66.00313 228.88768Q66.7375 227.55956 67.34688 227.13768Q67.97188 226.7158 68.70625 226.7158Q69.76875 226.7158 70.87813 227.4033L70.14375 229.35643Q69.37813 228.9033 68.59688 228.9033Q67.90938 228.9033 67.34688 229.32518Q66.8 229.73143 66.56563 230.4658Q66.22188 231.5908 66.22188 232.93456L66.22188 239.45018L64.1125 239.45018ZM80.25313 237.91893Q79.08125 238.9033 77.9875 239.32518Q76.90938 239.73143 75.675 239.73143Q73.62813 239.73143 72.51875 238.73143Q71.425 237.73143 71.425 236.16893Q71.425 235.24706 71.83125 234.49706Q72.25313 233.74706 72.925 233.29393Q73.59688 232.82518 74.44063 232.5908Q75.06563 232.43456 76.31563 232.2783Q78.87813 231.9658 80.08125 231.54393Q80.09688 231.12206 80.09688 230.99706Q80.09688 229.7158 79.4875 229.18456Q78.69063 228.4658 77.09688 228.4658Q75.59688 228.4658 74.89375 228.99706Q74.19063 229.51268 73.84688 230.8408L71.78438 230.55956Q72.06563 229.23143 72.70625 228.41893Q73.34688 227.60643 74.56563 227.16893Q75.78438 226.7158 77.39375 226.7158Q78.9875 226.7158 79.9875 227.0908Q80.9875 227.4658 81.45625 228.04393Q81.925 228.60643 82.1125 229.48143Q82.20625 230.01268 82.20625 231.41893L82.20625 234.23143Q82.20625 237.16893 82.34688 237.95018Q82.4875 238.73143 82.87813 239.45018L80.675 239.45018Q80.34688 238.79393 80.25313 237.91893ZM80.08125 233.20018Q78.925 233.66893 76.62813 233.99706Q75.33125 234.18456 74.78438 234.41893Q74.25313 234.6533 73.95625 235.10643Q73.675 235.55956 73.675 236.10643Q73.675 236.95018 74.3 237.51268Q74.94063 238.07518 76.175 238.07518Q77.39375 238.07518 78.34688 237.54393Q79.3 237.01268 79.7375 236.0908Q80.08125 235.37206 80.08125 233.98143L80.08125 233.20018ZM93.25313 234.88768L95.33125 235.1533Q94.9875 237.30956 93.58125 238.5283Q92.19063 239.73143 90.14375 239.73143Q87.59688 239.73143 86.03438 238.05956Q84.4875 236.38768 84.4875 233.2783Q84.4875 231.26268 85.15938 229.74706Q85.83125 228.23143 87.19063 227.48143Q88.55 226.7158 90.15938 226.7158Q92.19063 226.7158 93.47188 227.74706Q94.76875 228.7783 95.12813 230.6533L93.08125 230.98143Q92.78438 229.7158 92.03438 229.0908Q91.3 228.45018 90.2375 228.45018Q88.64375 228.45018 87.64375 229.60643Q86.65938 230.74706 86.65938 233.2158Q86.65938 235.7158 87.6125 236.85643Q88.58125 237.99706 90.12813 237.99706Q91.3625 237.99706 92.19063 237.23143Q93.03438 236.4658 93.25313 234.88768ZM101.7375 237.55956L102.05 239.41893Q101.15938 239.62206 100.45625 239.62206Q99.3 239.62206 98.65938 239.26268Q98.03438 238.88768 97.76875 238.29393Q97.51875 237.70018 97.51875 235.80956L97.51875 228.63768L95.97188 228.63768L95.97188 226.99706L97.51875 226.99706L97.51875 223.91893L99.6125 222.6533L99.6125 226.99706L101.7375 226.99706L101.7375 228.63768L99.6125 228.63768L99.6125 235.91893Q99.6125 236.82518 99.72188 237.0908Q99.84688 237.3408 100.09688 237.49706Q100.34688 237.63768 100.81563 237.63768Q101.15938 237.63768 101.7375 237.55956ZM112.65938 235.43456L114.83125 235.7158Q114.31563 237.62206 112.925 238.68456Q111.53438 239.73143 109.3625 239.73143Q106.62813 239.73143 105.01875 238.05956Q103.425 236.37206 103.425 233.32518Q103.425 230.18456 105.03438 228.45018Q106.65938 226.7158 109.2375 226.7158Q111.7375 226.7158 113.31563 228.41893Q114.90938 230.12206 114.90938 233.20018Q114.90938 233.38768 114.89375 233.76268L105.6125 233.76268Q105.72188 235.80956 106.76875 236.9033Q107.81563 237.99706 109.37813 237.99706Q110.53438 237.99706 111.34688 237.38768Q112.175 236.7783 112.65938 235.43456ZM105.72188 232.0283L112.675 232.0283Q112.53438 230.4658 111.87813 229.66893Q110.87813 228.45018 109.26875 228.45018Q107.81563 228.45018 106.81563 229.43456Q105.83125 230.4033 105.72188 232.0283ZM117.1125 239.45018L117.1125 226.99706L119.00313 226.99706L119.00313 228.88768Q119.7375 227.55956 120.34688 227.13768Q120.97188 226.7158 121.70625 226.7158Q122.76875 226.7158 123.87813 227.4033L123.14375 229.35643Q122.37813 228.9033 121.59688 228.9033Q120.90938 228.9033 120.34688 229.32518Q119.8 229.73143 119.56563 230.4658Q119.22188 231.5908 119.22188 232.93456L119.22188 239.45018L117.1125 239.45018Z" fill-rule="nonzero"/><path fill="#9e9e9e" d="M30.628124 268.41895L30.628124 270.4502L19.284374 270.4502Q19.253124 269.68457 19.51875 268.98145Q19.95625 267.8252 20.909374 266.7002Q21.8625 265.5752 23.675 264.09082Q26.471874 261.79395 27.45625 260.46582Q28.440624 259.12207 28.440624 257.91895Q28.440624 256.66895 27.534374 255.80957Q26.64375 254.9502 25.20625 254.9502Q23.690624 254.9502 22.76875 255.87207Q21.8625 256.77832 21.846874 258.3877L19.675 258.16895Q19.89375 255.74707 21.346874 254.48145Q22.8 253.2002 25.253124 253.2002Q27.721874 253.2002 29.159374 254.5752Q30.6125 255.93457 30.6125 257.96582Q30.6125 258.99707 30.190624 259.99707Q29.76875 260.99707 28.784374 262.10645Q27.815624 263.2002 25.534374 265.12207Q23.64375 266.71582 23.096874 267.27832Q22.565624 267.84082 22.20625 268.41895L30.628124 268.41895ZM33.7375 270.4502L33.7375 268.04395L36.128124 268.04395L36.128124 270.4502L33.7375 270.4502ZM39.55 265.9502L41.76875 265.7627Q42.003124 267.37207 42.89375 268.2002Q43.8 269.0127 45.065624 269.0127Q46.596874 269.0127 47.64375 267.87207Q48.70625 266.71582 48.70625 264.80957Q48.70625 263.0127 47.690624 261.96582Q46.675 260.91895 45.034374 260.91895Q44.01875 260.91895 43.190624 261.3877Q42.378124 261.84082 41.909374 262.59082L39.925 262.3252L41.58125 253.49707L50.128124 253.49707L50.128124 255.5127L43.26875 255.5127L42.346874 260.1377Q43.89375 259.05957 45.596874 259.05957Q47.846874 259.05957 49.39375 260.62207Q50.940624 262.16895 50.940624 264.62207Q50.940624 266.9502 49.58125 268.65332Q47.925 270.74707 45.065624 270.74707Q42.721874 270.74707 41.2375 269.43457Q39.753124 268.12207 39.55 265.9502ZM52.940624 257.3877Q52.940624 255.55957 53.8625 254.27832Q54.8 252.98145 56.55 252.98145Q58.175 252.98145 59.2375 254.1377Q60.3 255.27832 60.3 257.52832Q60.3 259.7002 59.221874 260.8877Q58.14375 262.05957 56.58125 262.05957Q55.01875 262.05957 53.971874 260.90332Q52.940624 259.73145 52.940624 257.3877ZM56.6125 254.43457Q55.83125 254.43457 55.3 255.12207Q54.784374 255.79395 54.784374 257.60645Q54.784374 259.2627 55.315624 259.93457Q55.846874 260.60645 56.6125 260.60645Q57.409374 260.60645 57.925 259.93457Q58.45625 259.24707 58.45625 257.43457Q58.45625 255.77832 57.925 255.10645Q57.39375 254.43457 56.6125 254.43457ZM56.628124 271.09082L66.01875 252.98145L67.7375 252.98145L58.378124 271.09082L56.628124 271.09082ZM64.05 266.41895Q64.05 264.55957 64.97188 263.27832Q65.90938 261.99707 67.675 261.99707Q69.3 261.99707 70.34688 263.15332Q71.40938 264.30957 71.40938 266.54395Q71.40938 268.73145 70.33125 269.91895Q69.26875 271.09082 67.69063 271.09082Q66.12813 271.09082 65.08125 269.91895Q64.05 268.74707 64.05 266.41895ZM67.7375 263.4502Q66.94063 263.4502 66.40938 264.1377Q65.89375 264.80957 65.89375 266.62207Q65.89375 268.2627 66.425 268.9502Q66.95625 269.62207 67.72188 269.62207Q68.53438 269.62207 69.05 268.9502Q69.58125 268.2627 69.58125 266.46582Q69.58125 264.79395 69.05 264.12207Q68.51875 263.4502 67.7375 263.4502Z" fill-rule="nonzero"/><path stroke="#757575" stroke-width="1.0" stroke-linecap="butt" d="M18.55 246.95018L145.23334 246.95018L165.45752 246.95018" fill-rule="nonzero"/><path fill="#9e9e9e" d="M167.45752 246.95018C167.45752 245.84561 166.56209 244.95018 165.45752 244.95018C164.35295 244.95018 163.45752 245.84561 163.45752 246.95018C163.45752 248.05475 164.35295 248.95018 165.45752 248.95018C166.56209 248.95018 167.45752 248.05475 167.45752 246.95018" fill-rule="nonzero"/><path fill="#000000" d="M556.6844 274.95966L556.6844 257.77216L558.96564 257.77216L558.96564 274.95966L556.6844 274.95966ZM562.02814 274.95966L562.02814 262.50653L563.9344 262.50653L563.9344 264.28778Q565.3094 262.22528 567.8875 262.22528Q569.0125 262.22528 569.95 262.63153Q570.90314 263.03778 571.3719 263.69403Q571.84064 264.35028 572.02814 265.25653Q572.15314 265.83466 572.15314 267.3034L572.15314 274.95966L570.04376 274.95966L570.04376 267.38153Q570.04376 266.10028 569.79376 265.45966Q569.54376 264.81903 568.91876 264.44403Q568.29376 264.0534 567.45 264.0534Q566.10626 264.0534 565.1219 264.91278Q564.1375 265.77216 564.1375 268.16278L564.1375 274.95966L562.02814 274.95966ZM580.6375 273.06903L580.95 274.9284Q580.0594 275.13153 579.35626 275.13153Q578.2 275.13153 577.5594 274.77216Q576.9344 274.39716 576.66876 273.8034Q576.41876 273.20966 576.41876 271.31903L576.41876 264.14716L574.8719 264.14716L574.8719 262.50653L576.41876 262.50653L576.41876 259.4284L578.5125 258.16278L578.5125 262.50653L580.6375 262.50653L580.6375 264.14716L578.5125 264.14716L578.5125 271.4284Q578.5125 272.33466 578.6219 272.60028Q578.7469 272.85028 578.9969 273.00653Q579.2469 273.14716 579.71564 273.14716Q580.0594 273.14716 580.6375 273.06903Z" fill-rule="nonzero"/><path fill="#9e9e9e" d="M526.3875 292.9909L524.29376 293.14716Q524.0125 291.91278 523.4969 291.35028Q522.6375 290.44403 521.3875 290.44403Q520.3875 290.44403 519.6219 291.00653Q518.6219 291.72528 518.04376 293.13153Q517.48126 294.52216 517.45 297.10028Q518.21564 295.94403 519.3094 295.38153Q520.41876 294.81903 521.6219 294.81903Q523.73126 294.81903 525.21564 296.3659Q526.7 297.91278 526.7 300.38153Q526.7 301.9909 525.9969 303.38153Q525.3094 304.77216 524.09064 305.52216Q522.8719 306.25653 521.325 306.25653Q518.6844 306.25653 517.0125 304.31903Q515.35626 302.3659 515.35626 297.91278Q515.35626 292.94403 517.2 290.6784Q518.79376 288.70966 521.5125 288.70966Q523.54376 288.70966 524.84064 289.85028Q526.1375 290.97528 526.3875 292.9909ZM517.77814 300.39716Q517.77814 301.47528 518.23126 302.47528Q518.7 303.47528 519.52814 304.00653Q520.3719 304.52216 521.27814 304.52216Q522.6219 304.52216 523.575 303.44403Q524.54376 302.3659 524.54376 300.50653Q524.54376 298.72528 523.59064 297.70966Q522.6375 296.6784 521.2 296.6784Q519.77814 296.6784 518.77814 297.70966Q517.77814 298.72528 517.77814 300.39716ZM531.7 296.64716Q530.3875 296.16278 529.7469 295.27216Q529.1219 294.38153 529.1219 293.13153Q529.1219 291.25653 530.46564 289.9909Q531.8094 288.70966 534.04376 288.70966Q536.29376 288.70966 537.66876 290.02216Q539.04376 291.31903 539.04376 293.19403Q539.04376 294.39716 538.41876 295.28778Q537.79376 296.16278 536.5125 296.64716Q538.09064 297.16278 538.91876 298.31903Q539.7469 299.45966 539.7469 301.0534Q539.7469 303.25653 538.1844 304.75653Q536.6219 306.25653 534.09064 306.25653Q531.54376 306.25653 529.98126 304.75653Q528.41876 303.2409 528.41876 300.9909Q528.41876 299.31903 529.2625 298.19403Q530.1219 297.0534 531.7 296.64716ZM531.27814 293.06903Q531.27814 294.28778 532.0594 295.06903Q532.84064 295.83466 534.09064 295.83466Q535.3094 295.83466 536.09064 295.06903Q536.8719 294.3034 536.8719 293.1784Q536.8719 292.02216 536.0594 291.2409Q535.2625 290.44403 534.075 290.44403Q532.8719 290.44403 532.075 291.22528Q531.27814 291.9909 531.27814 293.06903ZM530.59064 301.00653Q530.59064 301.89716 531.0125 302.7409Q531.45 303.58466 532.29376 304.0534Q533.1375 304.52216 534.10626 304.52216Q535.6219 304.52216 536.60626 303.5534Q537.59064 302.56903 537.59064 301.06903Q537.59064 299.5534 536.575 298.5534Q535.5594 297.5534 534.04376 297.5534Q532.54376 297.5534 531.5594 298.53778Q530.59064 299.52216 530.59064 301.00653ZM542.6375 305.95966L542.6375 303.5534L545.02814 303.5534L545.02814 305.95966L542.6375 305.95966ZM551.7 296.64716Q550.3875 296.16278 549.7469 295.27216Q549.1219 294.38153 549.1219 293.13153Q549.1219 291.25653 550.46564 289.9909Q551.8094 288.70966 554.04376 288.70966Q556.29376 288.70966 557.66876 290.02216Q559.04376 291.31903 559.04376 293.19403Q559.04376 294.39716 558.41876 295.28778Q557.79376 296.16278 556.5125 296.64716Q558.09064 297.16278 558.91876 298.31903Q559.7469 299.45966 559.7469 301.0534Q559.7469 303.25653 558.1844 304.75653Q556.6219 306.25653 554.09064 306.25653Q551.54376 306.25653 549.98126 304.75653Q548.41876 303.2409 548.41876 300.9909Q548.41876 299.31903 549.2625 298.19403Q550.1219 297.0534 551.7 296.64716ZM551.27814 293.06903Q551.27814 294.28778 552.0594 295.06903Q552.84064 295.83466 554.09064 295.83466Q555.3094 295.83466 556.09064 295.06903Q556.8719 294.3034 556.8719 293.1784Q556.8719 292.02216 556.0594 291.2409Q555.2625 290.44403 554.075 290.44403Q552.8719 290.44403 552.075 291.22528Q551.27814 291.9909 551.27814 293.06903ZM550.59064 301.00653Q550.59064 301.89716 551.0125 302.7409Q551.45 303.58466 552.29376 304.0534Q553.1375 304.52216 554.10626 304.52216Q555.6219 304.52216 556.60626 303.5534Q557.59064 302.56903 557.59064 301.06903Q557.59064 299.5534 556.575 298.5534Q555.5594 297.5534 554.04376 297.5534Q552.54376 297.5534 551.5594 298.53778Q550.59064 299.52216 550.59064 301.00653ZM561.84064 292.89716Q561.84064 291.06903 562.7625 289.78778Q563.7 288.4909 565.45 288.4909Q567.075 288.4909 568.1375 289.64716Q569.2 290.78778 569.2 293.03778Q569.2 295.20966 568.1219 296.39716Q567.04376 297.56903 565.48126 297.56903Q563.91876 297.56903 562.8719 296.41278Q561.84064 295.2409 561.84064 292.89716ZM565.5125 289.94403Q564.73126 289.94403 564.2 290.63153Q563.6844 291.3034 563.6844 293.1159Q563.6844 294.77216 564.21564 295.44403Q564.7469 296.1159 565.5125 296.1159Q566.3094 296.1159 566.825 295.44403Q567.35626 294.75653 567.35626 292.94403Q567.35626 291.28778 566.825 290.6159Q566.29376 289.94403 565.5125 289.94403ZM565.52814 306.60028L574.91876 288.4909L576.6375 288.4909L567.27814 306.60028L565.52814 306.60028ZM572.95 301.9284Q572.95 300.06903 573.8719 298.78778Q574.8094 297.50653 576.575 297.50653Q578.2 297.50653 579.2469 298.66278Q580.3094 299.81903 580.3094 302.0534Q580.3094 304.2409 579.23126 305.4284Q578.16876 306.60028 576.59064 306.60028Q575.02814 306.60028 573.98126 305.4284Q572.95 304.25653 572.95 301.9284ZM576.6375 298.95966Q575.84064 298.95966 575.3094 299.64716Q574.79376 300.31903 574.79376 302.13153Q574.79376 303.77216 575.325 304.45966Q575.85626 305.13153 576.6219 305.13153Q577.4344 305.13153 577.95 304.45966Q578.48126 303.77216 578.48126 301.97528Q578.48126 300.3034 577.95 299.63153Q577.41876 298.95966 576.6375 298.95966Z" fill-rule="nonzero"/><path stroke="#757575" stroke-width="1.0" stroke-linecap="butt" d="M581.45 282.45966L454.76666 282.45966L417.33707 282.45966" fill-rule="nonzero"/><path fill="#9e9e9e" d="M419.33707 282.45966C419.33707 281.35507 418.44165 280.45966 417.33707 280.45966C416.2325 280.45966 415.33707 281.35507 415.33707 282.45966C415.33707 283.5642 416.2325 284.45966 417.33707 284.45966C418.44165 284.45966 419.33707 283.5642 419.33707 282.45966" fill-rule="nonzero"/><path fill="#757575" d="M23.7375 37.55L23.7375 24.925L19.01875 24.925L19.01875 23.2375L30.3625 23.2375L30.3625 24.925L25.628124 24.925L25.628124 37.55L23.7375 37.55ZM31.784374 41.55L31.596874 39.89375Q32.175 40.05 32.596874 40.05Q33.190624 40.05 33.534374 39.846874Q33.89375 39.659374 34.1125 39.315624Q34.284374 39.05 34.659374 38.003124Q34.70625 37.846874 34.815624 37.565624L30.878124 27.175L32.76875 27.175L34.925 33.190624Q35.346874 34.33125 35.675 35.58125Q35.9875 34.378124 36.39375 33.221874L38.6125 27.175L40.378124 27.175L36.425 37.721874Q35.8 39.440624 35.440624 40.08125Q34.971874 40.95625 34.3625 41.346874Q33.76875 41.753124 32.925 41.753124Q32.409374 41.753124 31.784374 41.55ZM41.8625 41.51875L41.8625 27.175L43.471874 27.175L43.471874 28.51875Q44.034374 27.7375 44.7375 27.346874Q45.45625 26.940624 46.471874 26.940624Q47.8 26.940624 48.815624 27.628124Q49.83125 28.315624 50.346874 29.565624Q50.878124 30.8 50.878124 32.284374Q50.878124 33.878124 50.3 35.159374Q49.7375 36.425 48.64375 37.1125Q47.55 37.784374 46.346874 37.784374Q45.471874 37.784374 44.76875 37.409374Q44.08125 37.034374 43.628124 36.471874L43.628124 41.51875L41.8625 41.51875ZM43.45625 32.425Q43.45625 34.425 44.26875 35.378124Q45.08125 36.33125 46.2375 36.33125Q47.409374 36.33125 48.2375 35.346874Q49.08125 34.3625 49.08125 32.26875Q49.08125 30.3 48.253124 29.315624Q47.440624 28.315624 46.315624 28.315624Q45.190624 28.315624 44.315624 29.378124Q43.45625 30.425 43.45625 32.425ZM59.971874 34.20625L61.784374 34.440624Q61.3625 36.01875 60.190624 36.909374Q59.034374 37.784374 57.221874 37.784374Q54.95625 37.784374 53.6125 36.39375Q52.284374 34.9875 52.284374 32.45625Q52.284374 29.83125 53.628124 28.39375Q54.971874 26.940624 57.128124 26.940624Q59.20625 26.940624 60.51875 28.3625Q61.846874 29.76875 61.846874 32.346874Q61.846874 32.503124 61.83125 32.815624L54.096874 32.815624Q54.190624 34.51875 55.065624 35.425Q55.940624 36.33125 57.2375 36.33125Q58.20625 36.33125 58.878124 35.83125Q59.565624 35.315624 59.971874 34.20625ZM54.190624 31.3625L59.9875 31.3625Q59.878124 30.065624 59.33125 29.409374Q58.4875 28.39375 57.14375 28.39375Q55.940624 28.39375 55.1125 29.20625Q54.284374 30.003124 54.190624 31.3625ZM63.159374 34.45625L64.90938 34.175Q65.05 35.221874 65.72188 35.784374Q66.39375 36.33125 67.59688 36.33125Q68.8 36.33125 69.37813 35.846874Q69.97188 35.346874 69.97188 34.690624Q69.97188 34.096874 69.45625 33.753124Q69.09688 33.51875 67.65938 33.159374Q65.72188 32.659374 64.97188 32.315624Q64.2375 31.95625 63.846874 31.33125Q63.45625 30.690624 63.45625 29.925Q63.45625 29.2375 63.76875 28.64375Q64.09688 28.05 64.64375 27.659374Q65.05 27.3625 65.75313 27.159374Q66.47188 26.940624 67.28438 26.940624Q68.50313 26.940624 69.425 27.3Q70.34688 27.64375 70.78438 28.253124Q71.22188 28.846874 71.39375 29.846874L69.675 30.08125Q69.55 29.284374 68.9875 28.846874Q68.425 28.39375 67.40938 28.39375Q66.19063 28.39375 65.675 28.8Q65.15938 29.190624 65.15938 29.721874Q65.15938 30.065624 65.37813 30.346874Q65.58125 30.628124 66.05 30.815624Q66.31563 30.909374 67.59688 31.253124Q69.47188 31.753124 70.20625 32.08125Q70.94063 32.39375 71.3625 33.003124Q71.78438 33.596874 71.78438 34.503124Q71.78438 35.378124 71.26875 36.159374Q70.75313 36.940624 69.78438 37.3625Q68.81563 37.784374 67.59688 37.784374Q65.58125 37.784374 64.51875 36.940624Q63.45625 36.096874 63.159374 34.45625ZM80.12813 37.55L80.12813 23.2375L86.47188 23.2375Q88.37813 23.2375 89.37813 23.628124Q90.37813 24.003124 90.97188 24.9875Q91.56563 25.95625 91.56563 27.14375Q91.56563 28.659374 90.58125 29.70625Q89.59688 30.753124 87.53438 31.034374Q88.28438 31.39375 88.675 31.753124Q89.50313 32.503124 90.25313 33.659374L92.7375 37.55L90.3625 37.55L88.45625 34.565624Q87.62813 33.284374 87.09688 32.596874Q86.56563 31.909374 86.12813 31.64375Q85.70625 31.3625 85.26875 31.253124Q84.94063 31.190624 84.22188 31.190624L82.01875 31.190624L82.01875 37.55L80.12813 37.55ZM82.01875 29.55L86.09688 29.55Q87.39375 29.55 88.1125 29.284374Q88.84688 29.01875 89.22188 28.425Q89.6125 27.83125 89.6125 27.14375Q89.6125 26.128124 88.87813 25.471874Q88.14375 24.815624 86.55 24.815624L82.01875 24.815624L82.01875 29.55ZM100.97188 34.20625L102.78438 34.440624Q102.3625 36.01875 101.19063 36.909374Q100.03438 37.784374 98.22188 37.784374Q95.95625 37.784374 94.6125 36.39375Q93.28438 34.9875 93.28438 32.45625Q93.28438 29.83125 94.62813 28.39375Q95.97188 26.940624 98.12813 26.940624Q100.20625 26.940624 101.51875 28.3625Q102.84688 29.76875 102.84688 32.346874Q102.84688 32.503124 102.83125 32.815624L95.09688 32.815624Q95.19063 34.51875 96.06563 35.425Q96.94063 36.33125 98.2375 36.33125Q99.20625 36.33125 99.87813 35.83125Q100.56563 35.315624 100.97188 34.20625ZM95.19063 31.3625L100.9875 31.3625Q100.87813 30.065624 100.33125 29.409374Q99.4875 28.39375 98.14375 28.39375Q96.94063 28.39375 96.1125 29.20625Q95.28438 30.003124 95.19063 31.3625ZM105.28438 37.55L105.28438 28.55L103.7375 28.55L103.7375 27.175L105.28438 27.175L105.28438 26.08125Q105.28438 25.034374 105.47188 24.51875Q105.72188 23.83125 106.3625 23.409374Q107.00313 22.9875 108.15938 22.9875Q108.90938 22.9875 109.8 23.159374L109.53438 24.690624Q108.9875 24.596874 108.50313 24.596874Q107.70625 24.596874 107.3625 24.940624Q107.03438 25.284374 107.03438 26.221874L107.03438 27.175L109.06563 27.175L109.06563 28.55L107.03438 28.55L107.03438 37.55L105.28438 37.55ZM110.87813 25.253124L110.87813 23.2375L112.64375 23.2375L112.64375 25.253124L110.87813 25.253124ZM110.87813 37.55L110.87813 27.175L112.64375 27.175L112.64375 37.55L110.87813 37.55ZM114.8625 37.55L114.8625 27.175L116.45625 27.175L116.45625 28.659374Q117.59688 26.940624 119.75313 26.940624Q120.69063 26.940624 121.47188 27.284374Q122.26875 27.6125 122.65938 28.159374Q123.05 28.70625 123.20625 29.45625Q123.3 29.95625 123.3 31.175L123.3 37.55L121.53438 37.55L121.53438 31.2375Q121.53438 30.159374 121.33125 29.628124Q121.12813 29.096874 120.59688 28.784374Q120.08125 28.471874 119.37813 28.471874Q118.25313 28.471874 117.44063 29.190624Q116.62813 29.89375 116.62813 31.878124L116.62813 37.55L114.8625 37.55ZM131.97188 34.20625L133.78438 34.440624Q133.3625 36.01875 132.19063 36.909374Q131.03438 37.784374 129.22188 37.784374Q126.95625 37.784374 125.6125 36.39375Q124.28438 34.9875 124.28438 32.45625Q124.28438 29.83125 125.62813 28.39375Q126.97188 26.940624 129.12813 26.940624Q131.20625 26.940624 132.51875 28.3625Q133.84688 29.76875 133.84688 32.346874Q133.84688 32.503124 133.83125 32.815624L126.09688 32.815624Q126.19063 34.51875 127.06563 35.425Q127.94063 36.33125 129.2375 36.33125Q130.20625 36.33125 130.87813 35.83125Q131.56563 35.315624 131.97188 34.20625ZM126.19063 31.3625L131.9875 31.3625Q131.87813 30.065624 131.33125 29.409374Q130.4875 28.39375 129.14375 28.39375Q127.94063 28.39375 127.1125 29.20625Q126.28438 30.003124 126.19063 31.3625ZM142.59688 37.55L142.59688 36.2375Q141.6125 37.784374 139.69063 37.784374Q138.45625 37.784374 137.40938 37.096874Q136.37813 36.409374 135.8 35.190624Q135.2375 33.971874 135.2375 32.378124Q135.2375 30.815624 135.75313 29.55Q136.26875 28.284374 137.3 27.6125Q138.34688 26.940624 139.6125 26.940624Q140.55 26.940624 141.28438 27.346874Q142.01875 27.7375 142.4875 28.3625L142.4875 23.2375L144.22188 23.2375L144.22188 37.55L142.59688 37.55ZM137.03438 32.378124Q137.03438 34.3625 137.87813 35.346874Q138.72188 36.33125 139.8625 36.33125Q141.01875 36.33125 141.81563 35.39375Q142.62813 34.45625 142.62813 32.51875Q142.62813 30.39375 141.8 29.39375Q140.9875 28.39375 139.78438 28.39375Q138.6125 28.39375 137.81563 29.3625Q137.03438 30.315624 137.03438 32.378124Z" fill-rule="nonzero"/></svg>